<svg id="Page-1" xmlns="http://www.w3.org/2000/svg" width="106.739" height="55.435" viewBox="0 0 106.739 55.435">
  <g id="ic-technology-my-sql" transform="translate(0 0)">
    <path id="Combined-Shape" d="M44.3,39.1c.027,0,0,12.492,0,12.546.027,3.089-3.821,3.739-5.582,3.793H27.559V53.051h.324c1.833,0,10.816.023,10.84,0,2.276-.217,2.005-1.355,2.005-1.735v-.921H33.222c-3.5-.054-5.718-1.572-5.745-3.333,0-.162.081-7.858,0-7.94H31v7.7c-.027.434.135,1.409,2.087,1.436.975.027,7.614,0,7.668,0V39.1Zm32.843-4.878a6,6,0,0,1,.975.055c2.953.406,4.471,1.707,4.471,3.848v8.4a3.059,3.059,0,0,1-2.114,3.252l3.5,3.144H79.857l-2.818-2.52-2.845.163H70.428a7.45,7.45,0,0,1-2.087-.3c-2.249-.6-3.333-1.789-3.333-3.739v-8.4c0-2.141,1.49-3.442,4.471-3.848a5.525,5.525,0,0,1,.949-.055ZM22.871,34.19a2.087,2.087,0,0,1,1.648,2.138l.005.219V50.5H21V36.521L15.527,48.715a3,3,0,0,1-3.252,1.978,2.976,2.976,0,0,1-3.162-1.784l-.09-.194L3.55,36.521V50.5H0V36.548A2.132,2.132,0,0,1,1.68,34.19c2.593-.812,4.4-.156,5.229,1.529l.082.178,5.2,12,5.365-12C18.372,34.082,20.188,33.35,22.871,34.19Zm40.024-.027v2.358H52.787c-.109,0-.244.027-.352.027-1.247.108-1.626.325-1.789,1.057a.874.874,0,0,0-.026.2v1.7a1.3,1.3,0,0,0,.027.325c.154.9.766,1.333,2.044,1.378l.232,0H57.2a8.5,8.5,0,0,1,3.035.515c1.566.59,2.427,1.5,2.513,2.443l.007.158v2.6c0,1.247-.759,2.195-2.276,2.9a7.725,7.725,0,0,1-2.922.671L57.2,50.5H47.042V48.146H56.8c.135,0,.244-.027.38-.027a2.54,2.54,0,0,0,1.49-.488,1.245,1.245,0,0,0,.507-.745l.008-.095V44.731a.926.926,0,0,0-.271-.651c-.352-.406-.813-.6-1.951-.7a1.693,1.693,0,0,0-.38-.027H52.922c-.352,0-.678-.027-1.03-.027-2.907-.314-4.7-1.591-4.817-3.12l-.006-.159V37.984c0-1.815.921-2.845,3.035-3.523a9.236,9.236,0,0,1,2.548-.3l.3,0Zm25.445,0V46.384c0,1.2.724,1.719,2.628,1.759l.244,0h9.267V50.5H91.265c-.325,0-.677-.027-1-.055-3.548-.263-5.337-1.545-5.442-3.846l0-.219V34.163Zm14.985,13.983v.406h-.7V50.5H102.1V48.552h-.7v-.406Zm1.246,0,.624,1.626.623-1.626h.7V50.5h-.461V48.715h-.027l-.678,1.789H105l-.677-1.789V50.5h-.488V48.146Zm-27.8-11.571H71.4c-1.572,0-2.575.678-2.575,1.735V46.3a1.856,1.856,0,0,0,.054.38c.217.975,1.138,1.517,2.52,1.517h3.224l-2.953-2.655h4.119l2.574,2.3a1.666,1.666,0,0,0,.895-1.111,1.689,1.689,0,0,0,.027-.352V38.309a1.233,1.233,0,0,0-.027-.3C79.045,37.09,78.123,36.575,76.768,36.575ZM73.733,1.7a12.333,12.333,0,0,0,1.246.921c.678.054,1.355.081,2.033.135A13.019,13.019,0,0,1,80.48,3.868,27.381,27.381,0,0,1,90.995,14a28.7,28.7,0,0,1,1.355,3.089c.677,1.572,1.436,3.2,2.222,4.715a12.679,12.679,0,0,0,1.111,2.086c.217.271.759.352,1.057.488a27.6,27.6,0,0,1,2.845,1.382,37.973,37.973,0,0,1,4.444,3.333,9.357,9.357,0,0,1,1.155,1.379l.2.219v.244l-1.3.379c-.948.244-1.789.19-2.709.434a18.2,18.2,0,0,1-1.843.434c0,.027.027.027.055.054.352.976,2.249,1.816,3.089,2.412a13.842,13.842,0,0,1,2.576,2.37l.27.339.813.813c.13.217.19.485.307.709l.1.158V39.1a3.413,3.413,0,0,1-.84-.678c-.6-.434-1.193-.921-1.816-1.3-1-.65-2.2-1-3.278-1.653A19.537,19.537,0,0,1,99.1,34.217a7,7,0,0,1-1.436-1.653,3.71,3.71,0,0,0-.434-.867c.081-.515.7-.515,1.111-.677a12.19,12.19,0,0,1,5.257-.759c-.054-.569-1.409-1.246-1.843-1.544-.894-.623-1.789-1.3-2.737-1.843a15.5,15.5,0,0,0-1.843-.759c-.732-.3-2.358-.6-2.791-1.165a17.25,17.25,0,0,1-1.9-3.658c-.569-1.274-1.3-2.629-1.869-3.956-.271-.65-.407-1.22-.732-1.843A24.111,24.111,0,0,0,81.4,6.225a15.281,15.281,0,0,0-3.9-1.87,14.563,14.563,0,0,0-2.278-.235l-.378-.064H74.3c-.488-.135-.895-.65-1.3-.921a16.367,16.367,0,0,0-2.656-1.382c-.379-.135-1.382-.515-1.734-.244a.537.537,0,0,0-.38.38c-.19.325,0,.813.135,1.111a13.44,13.44,0,0,0,1.49,2.114A13.773,13.773,0,0,1,71.213,7.2c.705,1.517,1,3.2,1.653,4.715a9.705,9.705,0,0,0,1,1.707c.3.407.813.732.975,1.247.352.542-.488,2.33-.677,2.9A11.92,11.92,0,0,0,74.411,25c.326.759.624,1.653,1.49,1.869.054-.054.027-.027.135-.081a15.3,15.3,0,0,1,.732-4.064,13.431,13.431,0,0,1,1.3-1.87c.3.19.3.678.434,1,.352.84.731,1.761,1.165,2.6A40.691,40.691,0,0,0,82.7,29.394a16.218,16.218,0,0,0,1.436,1.626c.152.152.338.251.49.41l.106.132h.081v.054c-.84-.271-1.355-1.111-1.978-1.6a14.581,14.581,0,0,1-3.523-3.659c-.253-.488-.506-.975-.751-1.471l-.36-.751v-.054c-.163.217-.109.434-.19.731-.352,1.382-.081,2.9-1.3,3.414-1.409.569-2.412-.921-2.845-1.6a11.952,11.952,0,0,1-.813-9.105,7.74,7.74,0,0,1,.624-2.032c-.055-.488-.461-.623-.678-.921a13.137,13.137,0,0,1-1-1.68A36.714,36.714,0,0,1,70.59,9.233c-.189-.488-.217-.948-.434-1.409A12.586,12.586,0,0,0,68.8,5.792c-.65-.895-2.466-2.629-1.734-4.39C68.205-1.416,72.189.724,73.733,1.7Zm2.222,5.013a4.242,4.242,0,0,1,.759.623c.135.189.162.38.3.542a1.559,1.559,0,0,1-.435,1.276l-.107.079-.081.081c-.19-.434-.406-.867-.6-1.3-.217-.3-.5-.555-.72-.865L74.926,6.9h-.081V6.848A4.617,4.617,0,0,1,75.955,6.713Z" transform="translate(0 0)" fill="#252b33"/>
  </g>
</svg>
