<svg id="Page-1" xmlns="http://www.w3.org/2000/svg" width="80.709" height="88.046" viewBox="0 0 80.709 88.046">
  <g id="ic-technology-ms-sql" transform="translate(0 0)">
    <path id="Combined-Shape-Copy-9" d="M32.718,0c.147.013.173.067.4.973a43.993,43.993,0,0,0,1.952,5.371c1.016,2.319,2.755,5.758,4.333,8.53h0l.27.48c2.888.44,6.443,1.052,8.06,1.372C56.319,18.42,63.1,20.7,68.34,23.617a32.1,32.1,0,0,1,9.494,7.877,41.126,41.126,0,0,1,2.688,3.772h0l.187.293-1.217.187A258.228,258.228,0,0,0,48.992,43a3.2,3.2,0,0,0,.053.407,49.608,49.608,0,0,1,.668,6.251c.08,1.466.04,5.8-.053,7.09a78.111,78.111,0,0,1-1.6,11.461,82.377,82.377,0,0,1-6.271,16.54,31.766,31.766,0,0,1-1.725,3.265,20.868,20.868,0,0,1-2.34,0,112.953,112.953,0,0,1-18.132-2.572,61.569,61.569,0,0,1-8.5-2.839c-4.225-1.852-7.849-4.571-9.668-7.237a7.319,7.319,0,0,1-1.043-6.6A15.7,15.7,0,0,1,2.966,64.4a26.891,26.891,0,0,1,3.5-3.465l.206-.164-.14.044c9.053-7.41,14.923-14.087,17.7-20.138a20.444,20.444,0,0,0,2.113-9.583A18.494,18.494,0,0,0,21.5,18.433c-.678-.776-5.97-5.928-6.609-6.549l-.063-.061a5.27,5.27,0,0,1-1.257-1.479,1.621,1.621,0,0,1-.117-.477l-.044-.043a1.242,1.242,0,0,1,.08-.453h0l.045-.087a.687.687,0,0,1,.048-.1l0,.017a8.318,8.318,0,0,1,1.707-1.63,50.667,50.667,0,0,1,9.32-4.665A85.2,85.2,0,0,1,32.718,0Zm9.948,78.806a5.724,5.724,0,0,0-.869.346,59.662,59.662,0,0,1-7.876,3.025c-2.086.64-4.145,1.159-8.424,2.119h0l-1.992.453.321.067c1.4.32,6.993,1.293,10.323,1.8,1.912.28,5.055.72,5.282.733.094.014.16-.093.334-.52.789-1.892,2.955-7.89,2.9-8.023ZM28.359,74.848c0,.013-.375.56-.816,1.226a79.119,79.119,0,0,1-5.429,7.277,9.67,9.67,0,0,0-.709.893,1.061,1.061,0,0,0,.575.147c.053-.013.963-.266,2.019-.573,5.723-1.639,12.743-3.705,15.043-4.425,1.444-.453,3.41-1.106,3.5-1.16.053-.04-.107-.067-.4-.093a55.1,55.1,0,0,1-7.5-1.293,42.906,42.906,0,0,1-4.961-1.532C28.96,75.048,28.372,74.835,28.359,74.848Zm-2.354.067a5.38,5.38,0,0,0-.736.2c-2.126.666-5.376,1.586-11.232,3.172-2.206.6-4.038,1.093-4.065,1.106a13.022,13.022,0,0,0,2.3,1.453,33.144,33.144,0,0,0,3.116,1.426c.9.36,4.279,1.546,4.76,1.679h0l.2.053.388-.68c.227-.373.628-1.04.9-1.466s1.07-1.693,1.779-2.8C25.069,76.447,26.018,74.928,26.005,74.915Zm-8.317-7.677-2.367,2.839c-3.436,4.132-5.015,6.117-6.271,7.93h0l-.388.56.241.173a2.311,2.311,0,0,0,.268.173c.013,0,1.765-.6,3.891-1.346,3.784-1.306,11.955-4.2,12.048-4.264a3.5,3.5,0,0,0-.722-.467,25.091,25.091,0,0,1-6.272-5.118h0Zm-1.712-.653c-.013,0-.642.146-1.418.333s-2.928.693-4.787,1.119c-3.343.773-6.913,1.613-7.114,1.666-.134.04-.134.36.014,1a10.925,10.925,0,0,0,2.233,4.3,22.25,22.25,0,0,0,2.487,2.532h0l.6.506.562-.866c.308-.48.856-1.279,1.217-1.786s1.324-1.866,2.153-3.025C14.3,69.051,16,66.612,15.976,66.585Zm30.5-1.04a1.746,1.746,0,0,0-.495.24c-2.166,1.293-8.478,4.3-14.562,6.957a15.6,15.6,0,0,0-1.792.84c.08.067,1.417.666,2.353,1.04a56.044,56.044,0,0,0,10.871,3.052.893.893,0,0,0,.174.04c.014,0,.294-.839.615-1.853.735-2.305,1.137-3.612,1.6-5.278C45.809,68.6,46.491,65.852,46.477,65.546Zm-13.211-4.6c-.013,0-.441.173-.963.387a87.505,87.505,0,0,1-11.74,4.038h0l-1.217.333.241.293A27.472,27.472,0,0,0,26.58,71.93c.481.293.883.533.9.533s.428-.706.923-1.586a84.31,84.31,0,0,0,4.64-9.316A3.844,3.844,0,0,0,33.266,60.948Zm2.126-.693c-.014.014-.08.24-.188.493A65.654,65.654,0,0,1,30.993,70.3c-.307.573-.548,1.039-.548,1.053a.972.972,0,0,0,.308-.093c.161-.067,1.016-.387,1.886-.706,5.977-2.226,11.821-4.651,13.6-5.638h0l.428-.24-.308-.067a40.362,40.362,0,0,1-10.243-3.972A5.42,5.42,0,0,0,35.392,60.254Zm-20.86-3.718a.1.1,0,0,0-.025.01.112.112,0,0,1-.022.012q-.955.5-1.878,1.005l.713-.386c-.745.408-1.7.94-2.438,1.359a17.287,17.287,0,0,0-4.4,3.358,13.992,13.992,0,0,0-3.891,6.677c-.04.227-.027.24.067.213.054-.013.776-.213,1.6-.44C7.044,67.585,15.9,65,15.99,64.919a11.045,11.045,0,0,0-.468-1.013,9.834,9.834,0,0,1-1.177-5.358c.027-.44.093-1.079.147-1.426.08-.48.094-.586.04-.586Zm33.162-3.945-.214.16c-.268.24-1.5,1.119-2.313,1.666A78.836,78.836,0,0,1,37.852,58.7c-.655.347-1.217.64-1.23.653a27.222,27.222,0,0,0,3.129,1.919A34.563,34.563,0,0,0,45.9,63.893c.455.134.842.24.842.24s.08-.44.16-.96a72.257,72.257,0,0,0,.789-10.022h0ZM24.6,51.751l-.753.33c-2.407,1.053-4.683,2.114-6.857,3.2a2.316,2.316,0,0,0-.228.793,12.4,12.4,0,0,0-.067,3.971,12.2,12.2,0,0,0,1.03,3.092c.214.413.241.44.308.346.04-.053.348-.533.668-1.053,1.9-3.012,3.316-5.491,4.613-8.01C23.891,53.3,24.474,52.09,24.6,51.751Zm2.753-1.161-.517.214a.649.649,0,0,0-.059.147c-.04.133-.268.72-.495,1.306A74.846,74.846,0,0,1,21,62.867c-.348.546-.388.613-.267.573q1.129-.37,2.259-.733c3.156-1.013,5.911-1.972,8.438-2.932,2.18-.826,2.153-.813,2.073-.893-.04-.04-.334-.293-.655-.56A22.592,22.592,0,0,1,29.763,55a17.992,17.992,0,0,1-2.22-3.958,2.491,2.491,0,0,0-.2-.48ZM38.1,46.482l-.3.1c-.019.164-.022.5-.029,1.2a39.176,39.176,0,0,1-1.431,9.369,3.449,3.449,0,0,0-.16.733c.013,0,.562-.226,1.217-.52a58.347,58.347,0,0,0,9.187-4.918c1.136-.773,1.083-.693.588-.906a82.992,82.992,0,0,1-8.1-4.491C38.579,46.745,38.278,46.567,38.1,46.482Zm-2.033.719-.4.15h0l-.978.362q-3.1,1.16-5.938,2.308a15.169,15.169,0,0,0,.736,1.73,18.038,18.038,0,0,0,2.46,3.572,23.506,23.506,0,0,0,2.487,2.412,8.882,8.882,0,0,0,.308-.933,33.822,33.822,0,0,0,1.23-5.8A33.1,33.1,0,0,0,36.064,47.2Zm-4.938-5.672H31.1c-.027.013-.281.32-.562.653a53.855,53.855,0,0,1-10.056,9.236c-.508.373-.923.68-.923.693s.535-.24,1.19-.573,1.658-.8,2.233-1.066c2.046-.933,5.068-2.186,8.344-3.452h0l1.832-.706-.026-.267a9.6,9.6,0,0,0-1.5-3.878c-.361-.533-.441-.653-.508-.64Zm-2.073.506c-.053-.053-4.586,3.012-6.552,4.425a4.512,4.512,0,0,0-1.337,1.266c-.762.986-1.431,1.786-2.313,2.732-1.391,1.506-1.511,1.639-1.417,1.586.04-.027.4-.253.8-.506a44.326,44.326,0,0,0,8.3-6.677A28.2,28.2,0,0,0,29.054,42.036ZM46.981,43.6l-.162.051c-2.538.773-4.99,1.557-7.286,2.336.43.336,2.943,2,4.271,2.83l.235.146c1.513.937,3.461,2.08,3.562,2.08a3.551,3.551,0,0,0,.013-.906A57.222,57.222,0,0,0,46.981,43.6Zm-3.458-9.724c-.041-.027-2.634,1.279-4.293,2.159-2.46,1.319-6.351,3.532-6.605,3.758-.067.067-.014.213.294.826a11.139,11.139,0,0,1,1.137,4.8c0,.307.013.506.053.493s.6-.666,1.27-1.453c1.6-1.892,3.931-4.8,5.242-6.53C41.717,36.478,43.549,33.906,43.522,33.879Zm2.795-.693-.468.72a58.571,58.571,0,0,1-8.986,10.289c-1.232,1.133-1.308,1.2-1.254,1.2h.023c.04,0,.562-.187,1.177-.413,5.523-2.026,10.256-3.532,16.38-5.224h0l1.083-.306-.16-.173c-.294-.32-1.765-1.639-2.527-2.266a50.826,50.826,0,0,0-4.613-3.4h0Zm-19.7,4.825a2.253,2.253,0,0,0-.267.68,24.748,24.748,0,0,1-1.123,2.786,24.546,24.546,0,0,1-1.792,3.079c-.134.2-.094.173,1.083-.76,1.123-.893,3.049-2.346,4.319-3.252a3.987,3.987,0,0,0,.776-.64,14.694,14.694,0,0,0-2.3-1.546A5.917,5.917,0,0,0,26.62,38.011ZM66.174,25.2c-.027-.027-1.752.466-3.37.973-3.089.946-7.207,2.412-10.229,3.639-1.725.693-4,1.666-4,1.706a1.5,1.5,0,0,0,.268.226c.147.106.588.466.989.8A27.567,27.567,0,0,1,55.249,38.5a4.578,4.578,0,0,0,.374.533c.014,0,.455-.56.99-1.226s2.1-2.652,3.5-4.411c2.661-3.332,3.838-4.851,4.64-6A25.6,25.6,0,0,0,66.174,25.2Zm1.029.266-.015.027c-.066.126-.31.638-.587,1.225a34.108,34.108,0,0,1-8.116,10.769c-.655.626-1.177,1.146-1.15,1.146s.441-.093.909-.2a132.215,132.215,0,0,1,19.763-3.278c.722-.053,1.337-.106,1.337-.106.027-.013-1.725-1.826-2.433-2.519a45.343,45.343,0,0,0-8.946-6.691,3.09,3.09,0,0,0-.762-.373ZM35.686,28.828c-.04-.04-2.688,2.079-3.944,3.159C29.99,33.48,27.7,35.545,27.7,35.652a3.6,3.6,0,0,0,.642.373,9.824,9.824,0,0,1,2.487,1.826h0l.749.72.334-.533c.174-.307.495-.853.709-1.226A32.764,32.764,0,0,0,34.991,31.4,25.366,25.366,0,0,0,35.686,28.828Zm1.738-.32c-.04,0-.094.133-.147.333a27.772,27.772,0,0,1-2.715,7.344c-.361.653-.374.706-.321.706.013,0,.548-.32,1.19-.706,2.247-1.36,4.4-2.546,6.913-3.8.789-.387,1.431-.72,1.417-.733-.094-.08-1.9-1.04-3.1-1.639C39.35,29.362,37.612,28.548,37.425,28.509ZM27.143,25.161l-.028,0c-.013.013.027.333.067.706a29.948,29.948,0,0,1,.187,8.036c-.013.106,0,.187.027.187s.535-.466,1.136-1.04c2.019-1.946,3.7-3.478,5.456-4.931.428-.373.789-.68.789-.693,0-.08-3.236-1.159-4.76-1.586-1-.28-2.861-.72-2.9-.679Zm23.185-5.7c-.053-.053-3,1.573-4.8,2.666-2.273,1.359-6.579,4.2-6.485,4.278.013.026.481.213,1.016.44A43.6,43.6,0,0,1,45.3,29.4a5.713,5.713,0,0,0,.8.427,8.814,8.814,0,0,0,.562-.906,33.357,33.357,0,0,0,3.369-7.7A9.987,9.987,0,0,0,50.328,19.459Zm1.016.16c-.04,0-.08.2-.094.453a26.92,26.92,0,0,1-2.581,8.876,3.42,3.42,0,0,0-.281.68c.026,0,.374-.133.762-.293a99.928,99.928,0,0,1,15.418-4.758h0l.682-.16-.976-.44a79.043,79.043,0,0,0-9.106-3.319C53.9,20.285,51.465,19.619,51.345,19.619ZM35.192,16.527A62.048,62.048,0,0,0,30.057,20.5a31.555,31.555,0,0,0-2.367,2.359c0,.027.923.307,2.059.613,1.992.56,4.319,1.239,5.75,1.693h0l.7.226.04-.133a11.441,11.441,0,0,0,.081-1.146,21.749,21.749,0,0,0-.642-6.1A5.115,5.115,0,0,0,35.192,16.527Zm.945.132h-.022a2.013,2.013,0,0,0,.16.427,18.56,18.56,0,0,1,1.444,7.25,7.229,7.229,0,0,0,.027.853c.013,0,.588-.373,1.27-.826a58.114,58.114,0,0,1,8.758-4.745c.9-.4,1.177-.56,1.1-.586-.16-.067-2.861-.627-4.72-.986-2.5-.48-8-1.426-8.036-1.386ZM23.612,14.328a.02.02,0,0,0-.009,0c.031.091.137.334.263.6a43.077,43.077,0,0,1,2.393,6.53c.067.28.147.507.147.507s.334-.32.722-.706a25.593,25.593,0,0,1,3.784-3.012c.588-.4,2.367-1.453,2.808-1.679a1.353,1.353,0,0,0,.361-.227,3.278,3.278,0,0,0-.789-.173c-2.607-.44-6.686-1.213-8.959-1.719A5.266,5.266,0,0,0,23.612,14.328Zm-6.579-1.813a5.7,5.7,0,0,0,.655.52,27.767,27.767,0,0,1,6.9,7.77,2.7,2.7,0,0,0,.334.52c.013,0-.121-.533-.294-1.159-.455-1.653-1.805-5.957-1.9-6.051-.013,0-.682-.187-1.484-.386q-.885-.225-1.765-.466c-.776-.213-1.431-.413-1.939-.586A3.737,3.737,0,0,0,17.033,12.515ZM35.1,10.263c-.013-.013-.04,0-.053.027-.053.04-.334.28-.642.533a26.106,26.106,0,0,1-4.078,2.812,1.39,1.39,0,0,0-.308.2l.7.1c2.08.342,4.308.7,6.94,1.11a.669.669,0,0,0-.056-.087c-.347-.52-1.765-3.212-2.22-4.211C35.218,10.383,35.152,10.263,35.1,10.263ZM19.613,6.651l.7.626c.709.667,2.554,2.426,4.908,4.7h0l1.272,1.241,1.287.218a8.258,8.258,0,0,0,.81-.459c1.444-.893,3.53-2.053,5.429-3a6.183,6.183,0,0,0,.842-.44c-.013,0-.388-.04-.829-.08A79.942,79.942,0,0,1,20.135,6.824h0Zm-.535.413-.174.12c-1.925,1.359-3.062,2.692-3.076,3.585h0v.144c.139.051.274.1.4.15a34.741,34.741,0,0,0,3.543.946c1.086.233,2.558.5,3.881.729-.046-.067-.2-.261-.39-.489-.228-.28-1.271-1.546-2.3-2.839h0ZM32.518.681c-.388.067-5.416,2.159-7.248,3-1.431.666-4.68,2.359-4.627,2.412,0,.013.6.107,1.311.2,4.426.613,10.537,1.666,11.9,2.039.575.173.575.253.08-1.213a27.765,27.765,0,0,1-1.3-5.611c-.054-.44-.107-.813-.12-.826Z" transform="translate(0 0)" fill="#252b33"/>
  </g>
</svg>
