<svg id="Page-1" xmlns="http://www.w3.org/2000/svg" width="64.563" height="51.731" viewBox="0 0 64.563 51.731">
  <g id="ic-technology-redis" transform="translate(0 0)">
    <path id="Combined-Shape" d="M64.562,30.362s0,0,0,0V36.8c0,.645-.774,1.353-2.528,2.267C58.587,40.86,40.739,48.2,36.939,50.18s-5.911,1.962-8.913.527S6.031,41.6,2.609,39.964C.9,39.147,0,38.457,0,37.805V31.28l0,.087c.065.636.937,1.313,2.606,2.111,3.421,1.635,22.415,9.308,25.416,10.742s5.113,1.454,8.912-.527,21.648-9.32,25.093-11.115C63.739,31.687,64.569,30.989,64.562,30.362Zm0-10.559s0,0,0,0v6.434c0,.645-.774,1.353-2.528,2.267-3.445,1.8-21.294,9.135-25.094,11.116s-5.911,1.961-8.913.526S6.031,31.04,2.609,29.4C.9,28.588,0,27.9,0,27.247V20.72l0,.087c.065.636.937,1.313,2.606,2.11,3.421,1.635,22.415,9.308,25.416,10.742s5.113,1.454,8.912-.526,21.648-9.32,25.093-11.116C63.739,21.128,64.569,20.43,64.562,19.8Zm0-10.949s0,0,0,0v6.434c0,.644-.774,1.352-2.528,2.266-3.445,1.8-21.294,9.135-25.094,11.116s-5.911,1.961-8.913.526-22-9.108-25.417-10.742C.9,17.637,0,16.948,0,16.3V9.77l0,.087c.065.636.937,1.313,2.606,2.11C6.031,13.6,25.025,21.275,28.026,22.71s5.113,1.454,8.912-.527,21.648-9.32,25.093-11.115C63.738,10.178,64.568,9.48,64.562,8.853Zm-27.032,3.8-4.485,6.575-10.359-4.3Zm9.2-7.113,8.786,3.472-8.778,3.468-.953.373L37.011,9.381Zm-28.048.845c4.382,0,7.934,1.377,7.934,3.075s-3.552,3.076-7.934,3.076-7.934-1.377-7.934-3.076S14.3,6.381,18.683,6.381ZM28.308,0l4.478,1.751L37.007.369,35.866,3.107l4.3,1.612-5.551.576-1.243,2.99L31.37,4.948l-6.41-.576,4.783-1.725Z" transform="translate(0 0)" fill="#252b33"/>
  </g>
</svg>
