<svg id="Page-1" xmlns="http://www.w3.org/2000/svg" width="64.009" height="72.158" viewBox="0 0 64.009 72.158">
  <g id="ic-technology-dynamodb" transform="translate(0)">
    <path id="Combined-Shape" d="M55.652,54.822l.589.256.132-.1v9.677L56.13,65,43.751,72.158h-.9l0-13.417ZM9.02,55.447,21.2,59.021l1.337,0,0,13.14h-.9L9.02,65.894Zm31.569,3.572v13.14H24.8V59.018ZM64.009,49.6v6.6l-5.239,8.781V54l.043-.013,2.154-2.244ZM6.765,6.765v10.7l14.763-4.329H41.611l14.135,4.329.212-.068,6.953,4.914.227.438-2.2.237v1.755l-5.2-2.73L41.611,18.777H21.527L6.765,22.014V32.692l14.763-.559H41.611l14.135.559.1-.05,6.814.628.477.1-2.2.031v3.122l2.2.031-.466.225-6.6.562-.322-.146-14.135.57H21.527v-.014l-14.763-.55V47.892l14.763,3.236,20.083,0,14.177-3.219.17-.351,4.7-2.5.288.114v1.776l2.2.239-.3.483-6.862,4.842-.188-.082L41.611,56.766H21.527L6.765,52.436v10.7L0,54.578V47.1l.092.068,2.1-.23V45.13L0,43.963V36.522l.351.033L2.2,36.528V33.406L.057,33.374,0,33.38V25.942l2.2-1.162V22.989L.057,22.759,0,22.8V15.324ZM9.02,39.547l10.251.381,0,.1,3.27,0v8.846l-.782,0L9.02,46.077Zm31.569.476v8.844l-15.785,0V40.023ZM55.3,39.475l.371.168.7-.062v5.2L54.249,45.91l-.02.036L42.851,48.528l0-8.555Zm8.709-.834V45l-.812-.086V43.632l-2.684-1.059-1.745.927V39.378L63.278,39Zm-5.24-12.49L63.2,28.476V26.164l.812.623v4.468l-.865-.189-.276-.043-4.1-.378ZM42.846,21.37l12.1,2.776,1.423.746v5.534l-.952-.088-.158.076-12.416-.492Zm-20.3-.34,0,8.848H21.527L9.02,30.349V23.828l12.743-2.8Zm18.042,0v8.848H24.8V21.03ZM58.769,7.153l5.239,8.781v4.393l-5.24-3.7ZM43.751,0,56.13,7.156l.244.339v7.438l-.033-.024-.612.2L42.846,11.157,42.844,0Zm-21.2,0,0,10.882H21.2L9.02,14.454v-8.2L21.641,0ZM40.589,0V10.882H24.8V0Z" transform="translate(0)" fill="#252b33"/>
  </g>
</svg>
