<svg id="Page-1" xmlns="http://www.w3.org/2000/svg" width="58.596" height="88.046" viewBox="0 0 58.596 88.046">
  <g id="ic-technology-firebase" transform="translate(0)">
    <path id="Combined-Shape" d="M48.216,24.752A1.608,1.608,0,0,1,51,25.772h0L58.6,72.524,32.015,87.347a5.516,5.516,0,0,1-5.375,0h0L.3,72.625ZM30.823,17.015l.143.236,7.381,14.054-7.722,8.4L1.027,69.19l-.805.327L0,69.74,23.616,24.612l4.253-7.5A1.675,1.675,0,0,1,30.823,17.015ZM10.1,1.587A1.72,1.72,0,0,1,13.376.992h0l10.168,19.23L.658,63.652l-.37.721Z" transform="translate(0)" fill="#252b33"/>
  </g>
</svg>
