<svg xmlns="http://www.w3.org/2000/svg" width="38.155" height="84.788" viewBox="0 0 38.155 84.788">
  <g id="Page-1" transform="translate(2.894 6.432)">
    <g id="ic-technology-mango-db" transform="translate(-2.894 -6.432)">
      <path id="Shape-Copy-10" d="M37.994,37.6a39.609,39.609,0,0,0-2.186-9.937A48.91,48.91,0,0,0,24.537,8.6a21.1,21.1,0,0,1-3.72-4.387c-.584-1.093-1.14-2.2-1.71-3.3L18.748,0a2.118,2.118,0,0,0-.1.357,5.7,5.7,0,0,1-2.333,4.148c-1.426,1.279-2.754,2.667-4.124,4.007L7.975,14.049Q6.27,17.178,4.568,20.307L2.29,26.452l-.069.1A56.908,56.908,0,0,0,.045,39.162,38.33,38.33,0,0,0,.151,44.01a33.256,33.256,0,0,0,1.133,6.807A43.512,43.512,0,0,0,13.974,71.37c1.128,1.062,2.284,2.027,3.461,3.038.2-.688.362-1.376.545-2.065s.368-1.367.491-2.055c-.124.688-.263,1.369-.4,2.055l-.59,2.065.527,1.784.488,2.77.233,2.891c0,.587-.026,1.175.01,1.761.009.15.206.288.316.432l.983.344,1.024.4-.176-2.569-.008-2.53.353-3.855.256-.839.733-1.3c.906-.727,1.877-1.388,2.7-2.2a62.616,62.616,0,0,0,4.317-4.552A34.114,34.114,0,0,0,33.66,60.16a51.6,51.6,0,0,0,2.179-4.993c.55-1.5.89-3.077,1.324-4.621a2.924,2.924,0,0,0,.114-.334A43.574,43.574,0,0,0,37.994,37.6ZM21.143,72.815l-.575-1.257.575,1.257.845.72Z" transform="translate(0)" fill="#252b33"/>
    </g>
  </g>
</svg>
