<svg id="Page-1" xmlns="http://www.w3.org/2000/svg" width="73.684" height="73.684" viewBox="0 0 73.684 73.684">
  <g id="ic-technology-wordpress">
    <path id="surface1-copy" d="M36.842,0A36.842,36.842,0,1,0,73.684,36.842,36.883,36.883,0,0,0,36.842,0Zm0,1.728A35.115,35.115,0,1,1,1.725,36.842,35.132,35.132,0,0,1,36.842,1.728Zm0,3.549a31.463,31.463,0,0,0-26.385,14.2c.743.025,1.415,0,2.017,0,3.31,0,8.443-.384,8.443-.384a1.3,1.3,0,0,1,.19,2.591s-1.738.286-3.647.381L28.973,56.224,35.881,35.5,30.99,22.065a32.545,32.545,0,0,1-3.359-.381,1.3,1.3,0,0,1,.193-2.591s5.241.384,8.345.384c3.31,0,8.443-.384,8.443-.384a1.3,1.3,0,0,1,.193,2.591s-1.75.286-3.647.381L52.576,56.03l3.165-10.555a29.7,29.7,0,0,0,2.4-10.264,16.238,16.238,0,0,0-2.591-8.636c-1.6-2.6-3.07-4.882-3.07-7.482a5.408,5.408,0,0,1,5.275-5.566h.384a31.322,31.322,0,0,0-21.3-8.246Zm27.727,16.4a23.27,23.27,0,0,1,.193,3.264,29.938,29.938,0,0,1-2.4,11.323L52.767,64.185a31.763,31.763,0,0,0,11.8-42.5Zm-56.6,2.3A31.725,31.725,0,0,0,23.026,65.241ZM37.416,39.623,27.92,67.16A32.551,32.551,0,0,0,47.3,66.681a2.815,2.815,0,0,1-.19-.482Z" fill="#252b33"/>
  </g>
</svg>
