<svg id="Page-1" xmlns="http://www.w3.org/2000/svg" width="67.973" height="77.684" viewBox="0 0 67.973 77.684">
  <g id="ic-technology-shopify-plus">
    <path id="Shopify-Copy" d="M49.923,11.321l2.716,2.708s5.94.443,6.22.466a.749.749,0,0,1,.676.631c.053.392,8.438,57.366,8.438,57.366L47.4,76.963l2.525-65.643ZM46.767,9.162a2.573,2.573,0,0,0-.388.081l-2.311.715c-1.379-3.986-3.811-7.649-8.089-7.649-.118,0-.243,0-.363.011A5.2,5.2,0,0,0,31.59,0C21.62,0,16.856,12.526,15.364,18.89c-3.874,1.206-6.626,2.062-6.975,2.174-2.165.683-2.233.751-2.517,2.8C5.658,25.412,0,69.383,0,69.383l44.085,8.3.047-.01L46.767,9.162ZM35.289,12.255l0,.435-7.707,2.4c1.484-5.752,4.265-8.532,6.7-9.581A18.735,18.735,0,0,1,35.289,12.255ZM31.313,2.687a2.254,2.254,0,0,1,1.282.435c-3.2,1.51-6.619,5.316-8.066,12.915l-6.09,1.9c1.693-5.8,5.715-15.245,12.874-15.245Zm1.719,33.878a13.493,13.493,0,0,0-5.742-1.384c-4.638,0-4.871,2.924-4.871,3.661,0,4.023,10.429,5.564,10.429,14.983,0,7.409-4.677,12.182-10.984,12.182a15.249,15.249,0,0,1-11.437-4.734l2.026-6.728s3.98,3.433,7.336,3.433a2.967,2.967,0,0,0,3.085-3c0-5.247-8.558-5.482-8.558-14.1,0-7.252,5.182-14.274,15.642-14.274a12.8,12.8,0,0,1,6.02,1.162l-2.946,8.8ZM37.9,11.876l0-.809a18.519,18.519,0,0,0-.89-6.051c2.2.277,3.674,2.8,4.617,5.7Z" fill="#252b33"/>
  </g>
</svg>
