<svg id="Page-1" xmlns="http://www.w3.org/2000/svg" width="123.586" height="74.151" viewBox="0 0 123.586 74.151">
  <g id="ic-technology-node-js" transform="translate(0 0)">
    <path id="Combined-Shape-Copy-8" d="M62.3,44.644l11.146,6.323a2.3,2.3,0,0,1,1.174,2V65.584a2.3,2.3,0,0,1-1.174,2L62.3,73.905a2.906,2.906,0,0,1-1.173.246,2.491,2.491,0,0,1-1.173-.3l-3.715-2.162c-.559-.3-.28-.411-.112-.466a6.842,6.842,0,0,0,1.676-.739.261.261,0,0,1,.279.027l2.849,1.67a.361.361,0,0,0,.335,0l11.146-6.323a.314.314,0,0,0,.168-.3V52.938a.313.313,0,0,0-.168-.3l-11.146-6.3a.361.361,0,0,0-.335,0l-11.146,6.3a.342.342,0,0,0-.168.3V65.557a.343.343,0,0,0,.168.3l3.045,1.724c1.648.821,2.682-.137,2.682-1.095V54.033a.336.336,0,0,1,.335-.329h1.425a.336.336,0,0,1,.335.329V66.487c0,2.162-1.2,3.421-3.3,3.421a4.87,4.87,0,0,1-2.57-.684L48.8,67.582a2.3,2.3,0,0,1-1.173-2V52.965a2.3,2.3,0,0,1,1.173-2l11.146-6.323A2.538,2.538,0,0,1,62.3,44.644Zm1.844,8.677c3.576,0,5.336,1.2,5.559,3.832a.436.436,0,0,1-.084.247.348.348,0,0,1-.223.11H67.939a.326.326,0,0,1-.307-.246c-.335-1.505-1.2-2-3.492-2-2.57,0-2.878.876-2.878,1.533,0,.794.363,1.04,3.827,1.478,3.436.438,5.057,1.068,5.057,3.422-.028,2.409-2.039,3.777-5.587,3.777-4.888,0-5.894-2.19-5.894-4.051A.336.336,0,0,1,59,61.1h1.453a.285.285,0,0,1,.307.274c.223,1.451.866,2.162,3.827,2.162,2.346,0,3.352-.52,3.352-1.752,0-.712-.28-1.232-3.939-1.587-3.045-.3-4.944-.958-4.944-3.34C59.055,54.635,60.955,53.321,64.14,53.321ZM83.331.03l.14.053,7.067,3.859a1.4,1.4,0,0,1,.71,1.013l.017.219V38.54a1.38,1.38,0,0,1-.545,1.086l-.181.118L78.694,46.451a1.467,1.467,0,0,1-1.23.09l-.195-.09L65.425,39.745a1.4,1.4,0,0,1-.71-1L64.7,38.54V25.155a1.379,1.379,0,0,1,.545-1.086l.181-.118,11.844-6.706a1.466,1.466,0,0,1,1.23-.091l.195.091,2.961,1.67a.5.5,0,0,0,.738-.316l.016-.122V.684a.711.711,0,0,1,.363-.6A.761.761,0,0,1,83.331.03ZM44.92,17.135a1.466,1.466,0,0,1,1.425,0h0l11.761,6.651a1.421,1.421,0,0,1,.7,1.2h0v13.33a1.362,1.362,0,0,1-.7,1.2h0L46.345,46.177a1.466,1.466,0,0,1-1.425,0h0L33.159,39.525a1.42,1.42,0,0,1-.7-1.2h0V24.991a1.361,1.361,0,0,1,.7-1.2h0Zm64.782-.055a1.466,1.466,0,0,1,1.425,0h0l11.761,6.679a1.42,1.42,0,0,1,.7,1.2h0v3.257a1.362,1.362,0,0,1-.7,1.2h0l-7.04,4.024a.694.694,0,0,1-.726,0,.678.678,0,0,1-.363-.6h0V29.562a.711.711,0,0,0-.363-.6h0l-3.715-2.08a.694.694,0,0,0-.726,0h0l-3.715,2.08a.679.679,0,0,0-.363.6h0V33.75a.711.711,0,0,0,.363.6h0l11.9,6.706a.681.681,0,0,1,0,1.2h0l-7.123,3.886a1.412,1.412,0,0,1-1.4,0h0L97.858,39.58a1.388,1.388,0,0,1-.726-1.2h0V24.991a1.388,1.388,0,0,1,.726-1.2h0Zm-96.377-.356a1.746,1.746,0,0,1,.642.192h0L25.812,23.6a1.389,1.389,0,0,1,.726,1.2h0l.028,17.956a.678.678,0,0,1-.363.6.693.693,0,0,1-.726,0h0l-7.04-3.942a1.389,1.389,0,0,1-.726-1.2h0v-8.4a1.388,1.388,0,0,0-.726-1.2h0L14,26.907a1.219,1.219,0,0,0-.7-.192,1.374,1.374,0,0,0-.726.192h0L9.582,28.6a1.388,1.388,0,0,0-.726,1.2h0v8.4a1.389,1.389,0,0,1-.726,1.2h0L1.09,43.358a.645.645,0,0,1-.7,0,.679.679,0,0,1-.363-.6h0L0,24.8a1.388,1.388,0,0,1,.726-1.2h0l11.845-6.679a1.347,1.347,0,0,1,.642-.192h.112ZM77.919,26.9l-.12.036-4.051,2.3a.289.289,0,0,0-.157.2l-.011.1v4.6a.373.373,0,0,0,.094.246l.073.055,4.051,2.3a.423.423,0,0,0,.244.036l.12-.036,4.051-2.3a.29.29,0,0,0,.157-.2l.01-.1v-4.6a.372.372,0,0,0-.094-.246l-.073-.055-4.051-2.3A.421.421,0,0,0,77.919,26.9Zm32.592,1.9,2.263,1.286a.286.286,0,0,1,.14.246V32.9a.286.286,0,0,1-.14.246l-2.263,1.287a.257.257,0,0,1-.279,0l-2.263-1.287a.286.286,0,0,1-.14-.246V30.329a.286.286,0,0,1,.14-.246l2.263-1.286A.257.257,0,0,1,110.512,28.8Z" transform="translate(0)" fill="#252b33"/>
  </g>
</svg>
