<svg id="Page-1" xmlns="http://www.w3.org/2000/svg" width="77.506" height="104.25" viewBox="0 0 77.506 104.25">
  <g id="ic-technology-java" transform="translate(0 0)">
    <path id="Combined-Shape" d="M77.506,94.371c-.688,8.883-29.754,10.751-48.676,9.551-12.436-.793-14.857-2.781-14.857-2.782,11.814,1.935,31.74,2.287,47.893-.73C76.184,97.739,77.506,94.371,77.506,94.371Zm-60.668-5.6a14.47,14.47,0,0,0-3.623.405C11,89.652,3.974,91.9,7.722,93.515c10.429,4.5,47.981,3.425,59.854-.143,6.244-1.878,3.273-4.309,3.273-4.309,10.878,4.87-23.636,14.652-65.58,7.907C-10.113,94.494,12.669,85.861,16.838,88.773ZM27.82,83.719c8.328.944,12.584.808,21.759-.912a38.25,38.25,0,0,0,5.786,2.8C35,94.262,9.321,85.282,24.488,80.756l.472-.136S20.947,82.937,27.82,83.719ZM22.445,69.208s-4.5,3.306,2.377,4.013c8.9.911,15.92.986,28.081-1.336l.045.044A12.537,12.537,0,0,0,57.223,74.5C32.351,81.715,4.65,75.068,22.445,69.208Zm38.316,7.686a1.779,1.779,0,0,0,.394-.515c19.718-10.161,10.6-19.927,4.237-18.612a14.874,14.874,0,0,0-2.254.6,3.575,3.575,0,0,1,1.684-1.289C77.41,52.691,87.09,70.027,60.761,76.894ZM26.892,57.381l-.031.007c-.85.2-18.778,4.532-6.732,6.13,5.21.692,15.59.533,25.266-.272,7.905-.659,15.838-2.066,15.838-2.066a33.827,33.827,0,0,0-4.8,2.55c-19.4,5.062-56.865,2.7-46.078-2.47C19.474,56.884,26.892,57.381,26.892,57.381Zm35.54-36.087C39.514,34.48,43.747,38.3,49.269,46c5.91,8.256-6.962,14.847-6.962,14.847s6.4-5.207,1.33-11C26.457,30.205,62.432,21.295,62.432,21.294ZM49.269,0l.037.038C50.083.867,59.344,11.5,38.911,27.5c-17.062,13.368-3.89,20.988-.006,29.7C28.945,48.28,21.639,40.432,26.54,33.128,33.736,22.41,53.673,17.211,49.269,0Z" transform="translate(0 0)" fill="#252b33"/>
  </g>
</svg>
