<svg id="Page-1" xmlns="http://www.w3.org/2000/svg" width="121.053" height="57.5" viewBox="0 0 121.053 57.5">
  <g id="ic-technology-php">
    <path id="Shape-Copy" d="M30.406,11.838c9.179.564,13.769,5.073,13.769,12.966,0,13.529-10.9,21.422-20.654,20.858H13.2L10.9,57.5H0L9.18,11.838Zm-4.589,8.456H18.359L15.491,37.206h6.884c5.163-.564,9.753-2.255,10.326-11.839,0-3.382-2.868-5.073-6.884-5.073ZM42.042,45.662,51.221,0h10.9L59.827,11.838H70.153c9.18.564,12.622,5.073,11.475,10.711L77.612,45.662H66.138L70.154,24.8c.573-2.819.573-4.51-3.442-4.51H58.106L52.943,45.662Zm65.241-33.824c9.18.564,13.77,5.073,13.77,12.966,0,13.529-10.9,21.422-20.654,20.858H90.072L87.777,57.5h-10.9l9.179-45.662Zm-4.589,8.456H95.235L92.367,37.206h6.885c5.163-.564,9.753-2.255,10.326-11.839,0-3.382-2.868-5.073-6.884-5.073Z" fill="#252b33"/>
  </g>
</svg>
