<svg xmlns="http://www.w3.org/2000/svg" width="53.109" height="62.766" viewBox="0 0 53.109 62.766">
  <g id="android-logo" transform="translate(-42.544 0)">
    <g id="Group_95" data-name="Group 95" transform="translate(42.544 0)">
      <path id="Path_178" data-name="Path 178" d="M46.429,179.141a3.747,3.747,0,0,0-2.753,1.131,3.7,3.7,0,0,0-1.132,2.716v16.219a3.863,3.863,0,0,0,3.885,3.885,3.689,3.689,0,0,0,2.735-1.132,3.781,3.781,0,0,0,1.113-2.754V182.988a3.863,3.863,0,0,0-3.848-3.847Z" transform="translate(-42.544 -158.81)" fill="#252b33"/>
      <path id="Path_179" data-name="Path 179" d="M148.677,5.771,151.355.83a.5.5,0,0,0-.188-.754.522.522,0,0,0-.754.226L147.7,5.282a18.919,18.919,0,0,0-15.164,0L129.817.3a.523.523,0,0,0-.754-.226.5.5,0,0,0-.188.754l2.678,4.94a16.539,16.539,0,0,0-6.488,5.791,14.625,14.625,0,0,0-2.414,8.129h34.89a14.629,14.629,0,0,0-2.414-8.129A16.608,16.608,0,0,0,148.677,5.771Zm-15.484,7.186a1.414,1.414,0,0,1-1.038.435,1.35,1.35,0,0,1-1.018-.435,1.5,1.5,0,0,1,0-2.074,1.355,1.355,0,0,1,1.018-.433,1.466,1.466,0,0,1,1.038,2.507Zm15.9,0a1.353,1.353,0,0,1-1.018.435,1.471,1.471,0,0,1,0-2.942,1.356,1.356,0,0,1,1.018.433,1.5,1.5,0,0,1,0,2.074Z" transform="translate(-113.56 0)" fill="#252b33"/>
      <path id="Path_180" data-name="Path 180" d="M123.971,210.572a4.119,4.119,0,0,0,4.149,4.149h2.791l.038,8.563a3.749,3.749,0,0,0,1.131,2.754,3.7,3.7,0,0,0,2.716,1.132,3.863,3.863,0,0,0,3.885-3.885v-8.563h5.205v8.563a3.885,3.885,0,1,0,7.769,0v-8.563h2.829a4.12,4.12,0,0,0,4.111-4.149V185.45H123.971Z" transform="translate(-114.73 -164.403)" fill="#252b33"/>
      <path id="Path_181" data-name="Path 181" d="M446.223,179.141a3.738,3.738,0,0,0-2.716,1.113,3.689,3.689,0,0,0-1.131,2.734v16.219a3.746,3.746,0,0,0,1.131,2.754,3.7,3.7,0,0,0,2.716,1.132,3.863,3.863,0,0,0,3.885-3.885V182.988a3.688,3.688,0,0,0-1.131-2.734A3.783,3.783,0,0,0,446.223,179.141Z" transform="translate(-396.999 -158.81)" fill="#252b33"/>
    </g>
  </g>
</svg>
