<svg xmlns="http://www.w3.org/2000/svg" width="57.863" height="69.364" viewBox="0 0 57.863 69.364">
  <g id="android-logo" transform="translate(-269.396 -119.183)">
    <g id="android" transform="translate(269.396 119.183)">
      <path id="Path_424" data-name="Path 424" d="M62.255,52A2.733,2.733,0,0,0,65.148,54.9h2.893V65.023a4.34,4.34,0,0,0,8.679,0V54.9h5.786V65.023a4.34,4.34,0,0,0,8.679,0V54.9h2.893A2.733,2.733,0,0,0,96.973,52V23.073H62.255ZM55.022,23.073a4.45,4.45,0,0,0-4.34,4.34V47.664a4.34,4.34,0,0,0,8.679,0V27.412A4.45,4.45,0,0,0,55.022,23.073Zm49.184,0a4.45,4.45,0,0,0-4.34,4.34V47.664a4.34,4.34,0,1,0,8.679,0V27.412A4.45,4.45,0,0,0,104.205,23.073ZM89.74,6.292,93.5,2.531a1.4,1.4,0,0,0,0-2.025,1.4,1.4,0,0,0-2.025,0l-4.34,4.34A12.748,12.748,0,0,0,79.613,2.82,17.227,17.227,0,0,0,71.8,4.556L67.752.216a3.2,3.2,0,0,0-2.315,0,3.2,3.2,0,0,0,0,2.315L69.2,6.292a17.673,17.673,0,0,0-6.944,13.887H96.972A16.722,16.722,0,0,0,89.74,6.292Zm-15.912,8.1H70.934V11.5h2.893Zm14.466,0H85.4V11.5h2.893Z" transform="translate(-50.682 0.001)" fill="#2365b1"/>
    </g>
  </g>
</svg>
