<svg xmlns="http://www.w3.org/2000/svg" width="54.514" height="66.462" viewBox="0 0 54.514 66.462">
  <g id="apple" transform="translate(-46.022)">
    <path id="Path_425" data-name="Path 425" d="M64.1,169.108c-9.892-.057-18.074-20.249-18.074-30.532,0-16.8,12.6-20.475,17.458-20.475a20.088,20.088,0,0,1,6.587,1.62,14.723,14.723,0,0,0,3.761,1.078,11.7,11.7,0,0,0,2.7-.875,21.626,21.626,0,0,1,8.133-1.966h.019c2.383,0,9.606.523,13.949,7.045l1.017,1.529-1.464,1.1c-2.092,1.578-5.908,4.457-5.908,10.16,0,6.754,4.322,9.352,6.4,10.6.917.551,1.865,1.12,1.865,2.364,0,.812-6.48,18.247-15.891,18.247a12.78,12.78,0,0,1-5.366-1.3,10.881,10.881,0,0,0-4.777-1.15,12.286,12.286,0,0,0-3.782,1.023,18.524,18.524,0,0,1-6.56,1.531Z" transform="translate(0 -102.646)" fill="#2365b1"/>
    <path id="Path_426" data-name="Path 426" d="M267.64,0c.245,8.837-6.075,14.967-12.387,14.583C254.213,7.531,261.565,0,267.64,0Z" transform="translate(-181.985)" fill="#2365b1"/>
  </g>
</svg>
