<svg xmlns="http://www.w3.org/2000/svg" width="56.148" height="68.455" viewBox="0 0 56.148 68.455">
  <g id="apple" transform="translate(-46.022)">
    <path id="Path_176" data-name="Path 176" d="M64.638,170.642c-10.188-.059-18.616-20.856-18.616-31.448C46.022,121.893,59,118.1,64,118.1a20.69,20.69,0,0,1,6.784,1.669,15.165,15.165,0,0,0,3.874,1.111,12.055,12.055,0,0,0,2.779-.9,22.274,22.274,0,0,1,8.376-2.025h.02c2.454,0,9.894.539,14.368,7.256l1.048,1.575-1.508,1.138c-2.154,1.626-6.085,4.591-6.085,10.464,0,6.957,4.452,9.632,6.59,10.919.944.568,1.921,1.154,1.921,2.434,0,.836-6.675,18.794-16.367,18.794a13.163,13.163,0,0,1-5.527-1.342,11.208,11.208,0,0,0-4.92-1.185,12.654,12.654,0,0,0-3.9,1.054,19.08,19.08,0,0,1-6.757,1.576Z" transform="translate(0 -102.187)" fill="#252b33"/>
    <path id="Path_177" data-name="Path 177" d="M268.015,0c.252,9.1-6.257,15.416-12.758,15.02C254.185,7.757,261.757,0,268.015,0Z" transform="translate(-181.171)" fill="#252b33"/>
  </g>
</svg>
