<svg xmlns="http://www.w3.org/2000/svg" width="50" height="50" viewBox="0 0 50 50">
  <circle id="Ellipse_61" data-name="Ellipse 61" cx="25" cy="25" r="25" fill="#2365b1"/>
  <g id="paperclip" transform="translate(13.059 11.59)">
    <g id="Group_151" data-name="Group 151">
      <path id="Path_318" data-name="Path 318" d="M49.97,1.954a6.688,6.688,0,0,0-9.449,0L30.574,11.9a.786.786,0,1,0,1.111,1.111l9.948-9.948a5.233,5.233,0,0,1,7.226,0,5.115,5.115,0,0,1,0,7.225L34.968,24.338a3.219,3.219,0,0,1-4.446,0,3.147,3.147,0,0,1,0-4.446L43.857,6.4a1.207,1.207,0,0,1,1.667,0,1.181,1.181,0,0,1,0,1.668L32.745,21a.876.876,0,0,0,0,1.111.786.786,0,0,0,1.111,0L46.635,9.178a2.754,2.754,0,0,0,0-3.891,2.818,2.818,0,0,0-3.89,0L29.41,18.78a4.747,4.747,0,0,0,0,6.668,4.74,4.74,0,0,0,6.669,0L49.97,11.4A6.688,6.688,0,0,0,49.97,1.954Z" transform="translate(-28.042 0)" fill="#fff"/>
    </g>
  </g>
</svg>
