<svg xmlns="http://www.w3.org/2000/svg" xmlns:xlink="http://www.w3.org/1999/xlink" width="556" height="710" viewBox="0 0 556 710">
  <defs>
    <filter id="Rectangle_203" x="0" y="179" width="267" height="308" filterUnits="userSpaceOnUse">
      <feOffset dy="3" input="SourceAlpha"/>
      <feGaussianBlur stdDeviation="3" result="blur"/>
      <feFlood flood-opacity="0.161"/>
      <feComposite operator="in" in2="blur"/>
      <feComposite in="SourceGraphic"/>
    </filter>
    <filter id="Rectangle_243" x="289" y="402" width="267" height="308" filterUnits="userSpaceOnUse">
      <feOffset dy="3" input="SourceAlpha"/>
      <feGaussianBlur stdDeviation="3" result="blur-2"/>
      <feFlood flood-opacity="0.161"/>
      <feComposite operator="in" in2="blur-2"/>
      <feComposite in="SourceGraphic"/>
    </filter>
    <filter id="Rectangle_242" x="289" y="0" width="267" height="308" filterUnits="userSpaceOnUse">
      <feOffset dy="3" input="SourceAlpha"/>
      <feGaussianBlur stdDeviation="3" result="blur-3"/>
      <feFlood flood-opacity="0.161"/>
      <feComposite operator="in" in2="blur-3"/>
      <feComposite in="SourceGraphic"/>
    </filter>
  </defs>
  <g transform="matrix(1, 0, 0, 1, 0, 0)" filter="url(#Rectangle_203)">
    <rect id="Rectangle_203-2" data-name="Rectangle 203" width="249" height="290" transform="translate(9 185)" fill="#e2ebf5"/>
  </g>
  <g transform="matrix(1, 0, 0, 1, 0, 0)" filter="url(#Rectangle_243)">
    <rect id="Rectangle_243-2" data-name="Rectangle 243" width="249" height="290" transform="translate(298 408)" fill="#e2ebf5"/>
  </g>
  <g transform="matrix(1, 0, 0, 1, 0, 0)" filter="url(#Rectangle_242)">
    <rect id="Rectangle_242-2" data-name="Rectangle 242" width="249" height="290" transform="translate(298 6)" fill="#e2ebf5"/>
  </g>
  <g id="eye" transform="translate(75.001 225.921)">
    <path id="Path_738" data-name="Path 738" d="M115.706,131.623c-22.424-46.317-93.177-46.08-115.414,0a3.4,3.4,0,0,0,0,2.761c22.418,46.307,93.152,46.109,115.414,0A3.4,3.4,0,0,0,115.706,131.623ZM7.206,133a57.713,57.713,0,0,1,22.436-22.41c-10.316,12.451-10.314,32.371,0,44.82A57.707,57.707,0,0,1,7.206,133ZM58,162.365A29.4,29.4,0,0,1,28.637,133c1.613-38.953,57.118-38.942,58.725,0A29.4,29.4,0,0,1,58,162.365Zm28.357-6.952c10.316-12.451,10.314-32.371,0-44.82A57.709,57.709,0,0,1,108.792,133,57.714,57.714,0,0,1,86.356,155.413Z" transform="translate(0 -74.942)"/>
    <path id="Path_739" data-name="Path 739" d="M244.4,14.138a3.4,3.4,0,0,0,3.4-3.4V3.46a3.4,3.4,0,0,0-6.8,0v7.28A3.4,3.4,0,0,0,244.4,14.138Z" transform="translate(-186.399 0)" fill="#2365b1"/>
    <path id="Path_740" data-name="Path 740" d="M244.4,449.867a3.4,3.4,0,0,0-3.4,3.4v7.28a3.4,3.4,0,0,0,6.8,0v-7.28A3.4,3.4,0,0,0,244.4,449.867Z" transform="translate(-186.399 -347.883)" fill="#2365b1"/>
    <path id="Path_741" data-name="Path 741" d="M47.692,52.5A3.4,3.4,0,0,0,52.5,47.691l-5.147-5.147a3.4,3.4,0,0,0-4.806,4.806Z" transform="translate(-32.137 -32.074)" fill="#2365b1"/>
    <path id="Path_742" data-name="Path 742" d="M47.691,418.729l-5.147,5.147a3.4,3.4,0,0,0,4.806,4.806l5.147-5.147a3.4,3.4,0,1,0-4.806-4.806Z" transform="translate(-32.136 -323.03)" fill="#2365b1"/>
    <path id="Path_743" data-name="Path 743" d="M423.535,52.5l5.147-5.147a3.4,3.4,0,1,0-4.806-4.806l-5.147,5.147a3.4,3.4,0,0,0,4.806,4.806Z" transform="translate(-323.092 -32.075)" fill="#2365b1"/>
    <path id="Path_744" data-name="Path 744" d="M423.535,418.729a3.4,3.4,0,1,0-4.806,4.806l5.147,5.147a3.4,3.4,0,0,0,4.806-4.806Z" transform="translate(-323.092 -323.03)" fill="#2365b1"/>
    <path id="Path_745" data-name="Path 745" d="M207.119,192.8A14.335,14.335,0,0,0,192.8,207.119c.787,19,27.854,18.99,28.638,0A14.335,14.335,0,0,0,207.119,192.8Zm0,21.841a7.53,7.53,0,0,1-7.522-7.522c.413-9.979,14.632-9.976,15.044,0A7.53,7.53,0,0,1,207.119,214.641Z" transform="translate(-149.12 -149.058)" fill="#2365b1"/>
  </g>
  <g id="strategy" transform="translate(375.454 60.565)">
    <path id="Path_746" data-name="Path 746" d="M86.5,24.282H84.987V0H9.106V24.282H7.588A7.6,7.6,0,0,0,0,31.87V77.4a7.6,7.6,0,0,0,7.588,7.588H27.317v6.07h-6.07v3.035h51.6V91.057h-6.07v-6.07H86.5A7.6,7.6,0,0,0,94.093,77.4V31.87A7.6,7.6,0,0,0,86.5,24.282ZM50.5,60.7l-1.108-2.217,3.726-1.241V54.634A10.636,10.636,0,0,0,63.74,44.011V26.538l4.783,7.653,2.574-1.61-8.875-14.2-8.875,14.2,2.574,1.61L60.7,26.538V44.011A7.6,7.6,0,0,1,53.117,51.6V48.987l-3.727-1.241,1.758-3.513-5.84-5.84L41.8,40.149l-1.243-3.726H32.295l-1.243,3.726L27.54,38.393l-5.84,5.84,1.758,3.513-3.729,1.241v8.258l3.727,1.241L22.347,60.7H12.141V15.176H81.951V60.7Zm-3.044.7-2.746,2.746-3.281-1.641-.657.294c-.19.085-.382.159-.576.236l-.669.256-1.163,3.481H34.481l-1.161-3.481-.669-.256c-.194-.076-.388-.152-.576-.236l-.657-.294-3.281,1.641L25.391,61.4l1.641-3.281-.294-.657c-.084-.187-.159-.376-.233-.569l-.255-.676-3.486-1.163V51.175l3.487-1.163.255-.676c.073-.193.149-.382.233-.569l.294-.657-1.641-3.281,2.746-2.746,3.281,1.641.657-.294c.19-.085.381-.159.575-.236l.669-.256,1.161-3.48h3.883l1.161,3.481.669.256c.194.076.388.152.576.236l.657.294,3.281-1.641,2.746,2.746-1.641,3.281.294.657c.084.187.159.376.233.569l.255.676,3.486,1.163v3.883l-3.487,1.163-.255.676c-.073.193-.149.382-.233.569l-.294.657Zm34.5-58.368v9.106H12.141V3.035ZM7.588,27.317H9.106V63.74H23.436l4.1,4.1,3.512-1.756,1.243,3.726h8.258l1.243-3.726,3.512,1.756,4.1-4.1H84.987V27.317H86.5a4.559,4.559,0,0,1,4.553,4.553V72.846H3.035V31.87a4.559,4.559,0,0,1,4.553-4.553ZM63.74,91.057H30.352v-6.07H63.74ZM86.5,81.952H7.588A4.559,4.559,0,0,1,3.035,77.4V75.881H91.057V77.4A4.559,4.559,0,0,1,86.5,81.952Zm0,0" transform="translate(0)"/>
    <path id="Path_747" data-name="Path 747" d="M80,32h3.035v3.035H80Zm0,0" transform="translate(-64.824 -25.93)" fill="#2365b1"/>
    <path id="Path_748" data-name="Path 748" d="M112,32h3.035v3.035H112Zm0,0" transform="translate(-90.753 -25.93)" fill="#2365b1"/>
    <path id="Path_749" data-name="Path 749" d="M144,32h3.035v3.035H144Zm0,0" transform="translate(-116.683 -25.93)" fill="#2365b1"/>
    <path id="Path_750" data-name="Path 750" d="M159.588,240a7.588,7.588,0,1,0,7.588,7.588A7.6,7.6,0,0,0,159.588,240Zm0,12.141a4.553,4.553,0,1,1,4.553-4.553A4.559,4.559,0,0,1,159.588,252.141Zm0,0" transform="translate(-123.165 -194.471)" fill="#2365b1"/>
    <path id="Path_751" data-name="Path 751" d="M91.45,98.344l-3.48,3.48-3.48-3.48-2.146,2.146,3.48,3.48-3.48,3.48L84.49,109.6l3.48-3.48,3.48,3.48L93.6,107.45l-3.48-3.48,3.48-3.48Zm0,0" transform="translate(-66.723 -79.688)" fill="#2365b1"/>
    <path id="Path_752" data-name="Path 752" d="M222.07,96a6.07,6.07,0,1,0,6.07,6.07A6.076,6.076,0,0,0,222.07,96Zm0,9.106a3.035,3.035,0,1,1,3.035-3.035A3.038,3.038,0,0,1,222.07,105.106Zm0,0" transform="translate(-175.024 -77.789)" fill="#2365b1"/>
    <path id="Path_753" data-name="Path 753" d="M358.07,240a6.07,6.07,0,1,0,6.07,6.07A6.077,6.077,0,0,0,358.07,240Zm0,9.106a3.035,3.035,0,1,1,3.035-3.035A3.038,3.038,0,0,1,358.07,249.106Zm0,0" transform="translate(-285.225 -194.471)" fill="#2365b1"/>
  </g>
  <g id="vector" transform="translate(371.654 463.766)">
    <g id="Group_491" data-name="Group 491" transform="translate(83.905 19.883)">
      <g id="Group_490" data-name="Group 490">
        <path id="Path_754" data-name="Path 754" d="M423.988,100a1.988,1.988,0,1,0,1.988,1.988A1.989,1.989,0,0,0,423.988,100Z" transform="translate(-422 -100)" fill="#2365b1"/>
      </g>
    </g>
    <g id="Group_493" data-name="Group 493" transform="translate(13.918 19.883)">
      <g id="Group_492" data-name="Group 492">
        <path id="Path_755" data-name="Path 755" d="M71.988,100a1.988,1.988,0,1,0,1.988,1.988A1.989,1.989,0,0,0,71.988,100Z" transform="translate(-70 -100)" fill="#2365b1"/>
      </g>
    </g>
    <g id="Group_495" data-name="Group 495" transform="translate(88.35 26.475)">
      <g id="Group_494" data-name="Group 494">
        <path id="Path_756" data-name="Path 756" d="M455.818,150.425H453.44a45.162,45.162,0,0,0-5.357-16.245,1.988,1.988,0,1,0-3.474,1.935,41.209,41.209,0,0,1,4.822,14.311h-1.566a1.988,1.988,0,0,0-1.988,1.988v7.953a1.988,1.988,0,0,0,1.988,1.988h7.953a1.988,1.988,0,0,0,1.988-1.988v-7.953A1.988,1.988,0,0,0,455.818,150.425Zm-1.988,7.953h-3.977V154.4h3.977Z" transform="translate(-444.357 -133.158)" fill="#2365b1"/>
      </g>
    </g>
    <g id="Group_497" data-name="Group 497" transform="translate(29.029 19.883)">
      <g id="Group_496" data-name="Group 496">
        <path id="Path_757" data-name="Path 757" d="M189.738,138.3c0-.031,0-.062,0-.092s-.009-.084-.016-.125c0-.025-.007-.051-.012-.076-.009-.049-.021-.1-.034-.144,0-.018-.009-.036-.014-.054-.018-.059-.038-.118-.061-.175l-.007-.019a1.969,1.969,0,0,0-.092-.193l-19.882-36.385a1.988,1.988,0,0,0-3.489,0l-19.882,36.385a1.96,1.96,0,0,0-.092.193l-.007.019c-.023.057-.044.115-.061.175-.005.018-.009.036-.014.054-.013.048-.024.1-.034.144,0,.025-.008.051-.012.076-.006.041-.012.083-.016.125s0,.062,0,.092,0,.05,0,.075,0,.026,0,.039c0,.031,0,.062,0,.093s.006.079.011.118.008.055.013.082c.007.043.016.086.026.127.006.024.012.047.018.071.013.045.027.09.042.134,0,.013.007.025.012.038l7.17,19a5.965,5.965,0,0,0,.654,10.971v10.88a1.988,1.988,0,0,0,1.988,1.988H179.8a1.988,1.988,0,0,0,1.988-1.988V169.052a5.965,5.965,0,0,0,.654-10.972l7.172-19c0-.013.008-.025.012-.038.016-.044.03-.088.042-.134.007-.023.013-.047.018-.071.01-.042.018-.085.026-.127,0-.027.009-.055.013-.082s.008-.078.011-.118,0-.062,0-.093c0-.013,0-.026,0-.039S189.739,138.323,189.738,138.3Zm-21.867-1.913a1.988,1.988,0,1,1-1.988,1.988A1.991,1.991,0,0,1,167.871,136.385Zm9.941,41.555H157.93v-8.55h19.883Zm3.394-13.109a1.975,1.975,0,0,1-1.406.583H155.941a1.988,1.988,0,0,1,0-3.977h23.866a1.987,1.987,0,0,1,1.4,3.393Zm-2.78-7.37H157.316l-6.453-17.1h5.078a1.988,1.988,0,1,0,0-3.977h-4.6l14.542-26.612v22.978a5.965,5.965,0,1,0,3.977,0V109.773L184.4,136.385h-4.6a1.988,1.988,0,1,0,0,3.977h5.078Z" transform="translate(-146 -100)"/>
      </g>
    </g>
    <g id="Group_499" data-name="Group 499" transform="translate(0 26.475)">
      <g id="Group_498" data-name="Group 498">
        <path id="Path_758" data-name="Path 758" d="M12.428,133.409a1.988,1.988,0,0,0-2.7.77,45.163,45.163,0,0,0-5.357,16.245H1.988A1.988,1.988,0,0,0,0,152.412v7.953a1.988,1.988,0,0,0,1.988,1.988H9.941a1.988,1.988,0,0,0,1.988-1.988v-7.953a1.988,1.988,0,0,0-1.988-1.988H8.376A41.212,41.212,0,0,1,13.2,136.113,1.988,1.988,0,0,0,12.428,133.409ZM7.953,158.377H3.977V154.4H7.953Z" transform="translate(0 -133.157)" fill="#2365b1"/>
      </g>
    </g>
    <g id="Group_501" data-name="Group 501">
      <g id="Group_500" data-name="Group 500">
        <path id="Path_759" data-name="Path 759" d="M95.835,0a5.974,5.974,0,0,0-5.623,3.977H56.864V1.988A1.988,1.988,0,0,0,54.876,0H46.923a1.988,1.988,0,0,0-1.988,1.988V3.977H11.588a5.965,5.965,0,1,0,0,3.977H31.576A44.019,44.019,0,0,0,20.246,14.73a1.988,1.988,0,1,0,2.563,3.04c5.7-4.809,13.846-8.244,22.126-9.4V9.941a1.988,1.988,0,0,0,1.988,1.988h7.953a1.988,1.988,0,0,0,1.988-1.988V8.374c8.281,1.152,16.422,4.587,22.126,9.4a1.988,1.988,0,0,0,2.563-3.04A44.019,44.019,0,0,0,70.223,7.953H90.212A5.964,5.964,0,1,0,95.835,0ZM5.965,7.953A1.988,1.988,0,1,1,7.953,5.965,1.991,1.991,0,0,1,5.965,7.953ZM52.888,5.965V7.953H48.911V3.977h3.977ZM95.835,7.953a1.988,1.988,0,1,1,1.988-1.988A1.991,1.991,0,0,1,95.835,7.953Z" fill="#2365b1"/>
      </g>
    </g>
  </g>
  <text id="Visual_identity" data-name="Visual identity" transform="translate(71 421)" fill="#878686" font-size="20" font-family="MicrosoftSansSerif, Microsoft Sans Serif"><tspan x="0" y="0">Visual identity</tspan></text>
  <text id="Logo_Design" data-name="Logo Design" transform="translate(366.554 632.332)" fill="#878686" font-size="20" font-family="MicrosoftSansSerif, Microsoft Sans Serif"><tspan x="0" y="0">Logo Design</tspan></text>
  <text id="Brand_strategy" data-name="Brand strategy" transform="translate(363 222)" fill="#878686" font-size="20" font-family="MicrosoftSansSerif, Microsoft Sans Serif"><tspan x="0" y="0">Brand strategy</tspan></text>
</svg>
