<svg xmlns="http://www.w3.org/2000/svg" xmlns:xlink="http://www.w3.org/1999/xlink" width="271" height="110" viewBox="0 0 271 110">
  <defs>
    <filter id="Rectangle_203" x="0" y="1" width="95" height="108" filterUnits="userSpaceOnUse">
      <feOffset dy="3" input="SourceAlpha"/>
      <feGaussianBlur stdDeviation="3" result="blur"/>
      <feFlood flood-opacity="0.161"/>
      <feComposite operator="in" in2="blur"/>
      <feComposite in="SourceGraphic"/>
    </filter>
    <filter id="Rectangle_242" x="87" y="0" width="97" height="110" filterUnits="userSpaceOnUse">
      <feOffset dy="3" input="SourceAlpha"/>
      <feGaussianBlur stdDeviation="3" result="blur-2"/>
      <feFlood flood-opacity="0.161"/>
      <feComposite operator="in" in2="blur-2"/>
      <feComposite in="SourceGraphic"/>
    </filter>
    <filter id="Rectangle_243" x="176" y="0" width="95" height="110" filterUnits="userSpaceOnUse">
      <feOffset dy="3" input="SourceAlpha"/>
      <feGaussianBlur stdDeviation="3" result="blur-3"/>
      <feFlood flood-opacity="0.161"/>
      <feComposite operator="in" in2="blur-3"/>
      <feComposite in="SourceGraphic"/>
    </filter>
  </defs>
  <g transform="matrix(1, 0, 0, 1, 0, 0)" filter="url(#Rectangle_203)">
    <rect id="Rectangle_203-2" data-name="Rectangle 203" width="77" height="90" transform="translate(9 7)" fill="#e2ebf5"/>
  </g>
  <g id="eye" transform="translate(29.579 20.14)">
    <path id="Path_738" data-name="Path 738" d="M35.445,107.588C28.576,93.4,6.9,93.471.089,107.588a1.041,1.041,0,0,0,0,.846c6.868,14.186,28.537,14.125,35.357,0A1.041,1.041,0,0,0,35.445,107.588Zm-33.238.423a17.68,17.68,0,0,1,6.873-6.865,11.128,11.128,0,0,0,0,13.73,17.678,17.678,0,0,1-6.873-6.865Zm15.56,8.995a9.005,9.005,0,0,1-9-9c.494-11.933,17.5-11.93,17.99,0A9.005,9.005,0,0,1,17.767,117.006Zm8.687-2.13a11.128,11.128,0,0,0,0-13.73,17.679,17.679,0,0,1,6.873,6.865A17.68,17.68,0,0,1,26.454,114.876Z" transform="translate(0.001 -90.248)"/>
    <path id="Path_739" data-name="Path 739" d="M242.041,4.386a1.041,1.041,0,0,0,1.041-1.041V1.115a1.041,1.041,0,0,0-2.082,0v2.23A1.041,1.041,0,0,0,242.041,4.386Z" transform="translate(-224.273 -0.079)" fill="#2365b1"/>
    <path id="Path_740" data-name="Path 740" d="M242.041,449.867A1.041,1.041,0,0,0,241,450.908v2.23a1.041,1.041,0,0,0,2.082,0v-2.23A1.041,1.041,0,0,0,242.041,449.867Z" transform="translate(-224.273 -418.649)" fill="#2365b1"/>
    <path id="Path_741" data-name="Path 741" d="M43.431,44.9A1.041,1.041,0,1,0,44.9,43.431l-1.577-1.577a1.041,1.041,0,1,0-1.472,1.472Z" transform="translate(-38.665 -38.671)" fill="#2365b1"/>
    <path id="Path_742" data-name="Path 742" d="M43.43,418.038l-1.577,1.577a1.041,1.041,0,0,0,1.472,1.472l1.577-1.577a1.041,1.041,0,0,0-1.472-1.472Z" transform="translate(-38.665 -388.746)" fill="#2365b1"/>
    <path id="Path_743" data-name="Path 743" d="M419.511,44.9l1.577-1.577a1.041,1.041,0,0,0-1.472-1.472l-1.577,1.577a1.041,1.041,0,0,0,1.472,1.472Z" transform="translate(-388.74 -38.672)" fill="#2365b1"/>
    <path id="Path_744" data-name="Path 744" d="M419.511,418.038a1.041,1.041,0,0,0-1.472,1.472l1.577,1.577a1.041,1.041,0,0,0,1.472-1.472Z" transform="translate(-388.74 -388.746)" fill="#2365b1"/>
    <path id="Path_745" data-name="Path 745" d="M197.186,192.8a4.386,4.386,0,1,0,4.387,4.386A4.391,4.391,0,0,0,197.186,192.8Zm0,6.691a2.3,2.3,0,1,1,2.3-2.3A2.307,2.307,0,0,1,197.186,199.491Z" transform="translate(-179.418 -179.424)" fill="#2365b1"/>
  </g>
  <text id="Visual_identity" data-name="Visual identity" transform="translate(24 75)" fill="#878686" font-size="7" font-family="MicrosoftSansSerif, Microsoft Sans Serif"><tspan x="0" y="0">Visual identity</tspan></text>
  <g transform="matrix(1, 0, 0, 1, 0, 0)" filter="url(#Rectangle_242)">
    <rect id="Rectangle_242-2" data-name="Rectangle 242" width="79" height="92" transform="translate(96 6)" fill="#e2ebf5"/>
  </g>
  <g id="strategy" transform="translate(120.449 23.068)">
    <path id="Path_746" data-name="Path 746" d="M27.674,7.768h-.486V0H2.913V7.768H2.428A2.43,2.43,0,0,0,0,10.2V24.761a2.43,2.43,0,0,0,2.428,2.428H8.739v1.942H6.8V30.1H23.3v-.971H21.363V27.189h6.312A2.43,2.43,0,0,0,30.1,24.761V10.2A2.43,2.43,0,0,0,27.674,7.768ZM16.155,19.421l-.354-.709,1.192-.4v-.836a3.4,3.4,0,0,0,3.4-3.4V8.49l1.53,2.448.824-.515L19.906,5.881l-2.839,4.543.824.515,1.53-2.448v5.59a2.43,2.43,0,0,1-2.428,2.428v-.836l-1.192-.4.562-1.124-1.868-1.868-1.123.562-.4-1.192H10.332l-.4,1.192-1.123-.562L6.942,14.151,7.5,15.275l-1.193.4v2.642l1.192.4-.355.71H3.884V4.855H26.218V19.421Zm-.974.223-.878.878L13.254,20l-.21.094c-.061.027-.122.051-.184.075l-.214.082-.372,1.114H11.031l-.371-1.114-.214-.082c-.062-.024-.124-.049-.184-.075L10.051,20,9,20.522l-.878-.878.525-1.05-.094-.21c-.027-.06-.051-.12-.074-.182L8.4,17.986l-1.115-.372V16.372L8.4,16l.082-.216c.023-.062.048-.122.074-.182l.094-.21-.525-1.05L9,13.463l1.05.525.21-.094c.061-.027.122-.051.184-.075l.214-.082.371-1.113h1.242l.371,1.114.214.082c.062.024.124.049.184.075l.21.094,1.05-.525.878.878-.525,1.05.094.21c.027.06.051.12.074.182l.082.216,1.115.372v1.242l-1.116.372-.082.216c-.023.062-.048.122-.074.182l-.094.21ZM26.218.971V3.884H3.884V.971ZM2.428,8.739h.486V20.392H7.5L8.81,21.7l1.123-.562.4,1.192h2.642l.4-1.192,1.123.562,1.313-1.312H27.189V8.739h.486A1.458,1.458,0,0,1,29.131,10.2V23.3H.971V10.2A1.458,1.458,0,0,1,2.428,8.739ZM20.392,29.131H9.71V27.189H20.392Zm7.283-2.913H2.428A1.458,1.458,0,0,1,.971,24.761v-.486h28.16v.486A1.458,1.458,0,0,1,27.674,26.218Zm0,0" transform="translate(0)"/>
    <path id="Path_747" data-name="Path 747" d="M80,32h.971v.971H80Zm0,0" transform="translate(-75.145 -30.058)" fill="#2365b1"/>
    <path id="Path_748" data-name="Path 748" d="M112,32h.971v.971H112Zm0,0" transform="translate(-105.203 -30.058)" fill="#2365b1"/>
    <path id="Path_749" data-name="Path 749" d="M144,32h.971v.971H144Zm0,0" transform="translate(-135.261 -30.058)" fill="#2365b1"/>
    <path id="Path_750" data-name="Path 750" d="M154.428,240a2.428,2.428,0,1,0,2.428,2.428A2.43,2.43,0,0,0,154.428,240Zm0,3.884a1.457,1.457,0,1,1,1.457-1.457A1.458,1.458,0,0,1,154.428,243.884Zm0,0" transform="translate(-142.775 -225.435)" fill="#2365b1"/>
    <path id="Path_751" data-name="Path 751" d="M85.257,98.344l-1.113,1.113L83.03,98.344l-.687.687,1.113,1.113-1.113,1.113.687.687,1.113-1.113,1.113,1.113.687-.687-1.113-1.113,1.113-1.113Zm0,0" transform="translate(-77.347 -92.375)" fill="#2365b1"/>
    <path id="Path_752" data-name="Path 752" d="M217.942,96a1.942,1.942,0,1,0,1.942,1.942A1.944,1.944,0,0,0,217.942,96Zm0,2.913a.971.971,0,1,1,.971-.971A.972.972,0,0,1,217.942,98.913Zm0,0" transform="translate(-202.891 -90.174)" fill="#2365b1"/>
    <path id="Path_753" data-name="Path 753" d="M353.942,240a1.942,1.942,0,1,0,1.942,1.942A1.944,1.944,0,0,0,353.942,240Zm0,2.913a.971.971,0,1,1,.971-.971A.972.972,0,0,1,353.942,242.913Zm0,0" transform="translate(-330.637 -225.435)" fill="#2365b1"/>
  </g>
  <text id="Brand_strategy" data-name="Brand strategy" transform="translate(116 75)" fill="#878686" font-size="6" font-family="MicrosoftSansSerif, Microsoft Sans Serif"><tspan x="0" y="0">Brand strategy</tspan></text>
  <g transform="matrix(1, 0, 0, 1, 0, 0)" filter="url(#Rectangle_243)">
    <rect id="Rectangle_243-2" data-name="Rectangle 243" width="77" height="92" transform="translate(185 6)" fill="#e2ebf5"/>
  </g>
  <g id="vector" transform="translate(205.393 22.102)">
    <g id="Group_491" data-name="Group 491" transform="translate(28.227 6.689)">
      <g id="Group_490" data-name="Group 490">
        <path id="Path_754" data-name="Path 754" d="M422.669,100a.669.669,0,1,0,.669.669A.669.669,0,0,0,422.669,100Z" transform="translate(-422 -100)" fill="#2365b1"/>
      </g>
    </g>
    <g id="Group_493" data-name="Group 493" transform="translate(4.682 6.689)">
      <g id="Group_492" data-name="Group 492">
        <path id="Path_755" data-name="Path 755" d="M70.669,100a.669.669,0,1,0,.669.669A.669.669,0,0,0,70.669,100Z" transform="translate(-70 -100)" fill="#2365b1"/>
      </g>
    </g>
    <g id="Group_495" data-name="Group 495" transform="translate(29.722 8.907)">
      <g id="Group_494" data-name="Group 494">
        <path id="Path_756" data-name="Path 756" d="M448.213,138.967h-.8a15.193,15.193,0,0,0-1.8-5.465.669.669,0,1,0-1.169.651,13.863,13.863,0,0,1,1.622,4.814h-.527a.669.669,0,0,0-.669.669v2.676a.669.669,0,0,0,.669.669h2.676a.669.669,0,0,0,.669-.669v-2.676A.669.669,0,0,0,448.213,138.967Zm-.669,2.676h-1.338V140.3h1.338Z" transform="translate(-444.357 -133.158)" fill="#2365b1"/>
      </g>
    </g>
    <g id="Group_497" data-name="Group 497" transform="translate(9.766 6.689)">
      <g id="Group_496" data-name="Group 496">
        <path id="Path_757" data-name="Path 757" d="M160.714,112.884c0-.01,0-.021,0-.031s0-.028-.005-.042,0-.017,0-.026-.007-.032-.011-.048,0-.012,0-.018-.013-.04-.021-.059l0-.006a.664.664,0,0,0-.031-.065l-6.689-12.24a.669.669,0,0,0-1.174,0l-6.689,12.24a.654.654,0,0,0-.031.065l0,.006c-.008.019-.015.039-.021.059s0,.012,0,.018-.008.032-.011.048,0,.017,0,.026,0,.028-.005.042,0,.021,0,.031,0,.017,0,.025,0,.009,0,.013,0,.021,0,.031,0,.027,0,.04,0,.018,0,.028.005.029.009.043l.006.024c0,.015.009.03.014.045l0,.013,2.412,6.392a2.007,2.007,0,0,0,.22,3.691v3.66a.669.669,0,0,0,.669.669h8.027a.669.669,0,0,0,.669-.669V123.23a2.007,2.007,0,0,0,.22-3.691l2.413-6.393,0-.013c.005-.015.01-.03.014-.045l.006-.024c0-.014.006-.028.009-.043s0-.018,0-.028,0-.026,0-.04,0-.021,0-.031,0-.009,0-.013S160.714,112.893,160.714,112.884Zm-7.356-.644a.669.669,0,1,1-.669.669A.67.67,0,0,1,153.358,112.241Zm3.344,13.98h-6.689v-2.876H156.7Zm1.142-4.41a.664.664,0,0,1-.473.2h-8.027a.669.669,0,0,1,0-1.338h8.029a.668.668,0,0,1,.471,1.142Zm-.935-2.479h-7.1l-2.171-5.752h1.708a.669.669,0,1,0,0-1.338H147.8l4.892-8.953v7.73a2.007,2.007,0,1,0,1.338,0v-7.73l4.892,8.953h-1.548a.669.669,0,1,0,0,1.338h1.708Z" transform="translate(-146 -100)"/>
      </g>
    </g>
    <g id="Group_499" data-name="Group 499" transform="translate(0 8.907)">
      <g id="Group_498" data-name="Group 498">
        <path id="Path_758" data-name="Path 758" d="M4.181,133.242a.669.669,0,0,0-.91.259,15.194,15.194,0,0,0-1.8,5.465h-.8a.669.669,0,0,0-.669.669v2.676a.669.669,0,0,0,.669.669H3.344a.669.669,0,0,0,.669-.669v-2.676a.669.669,0,0,0-.669-.669H2.818a13.864,13.864,0,0,1,1.622-4.814A.669.669,0,0,0,4.181,133.242Zm-1.505,8.4H1.338V140.3H2.676Z" transform="translate(0 -133.157)" fill="#2365b1"/>
      </g>
    </g>
    <g id="Group_501" data-name="Group 501" transform="translate(0)">
      <g id="Group_500" data-name="Group 500">
        <path id="Path_759" data-name="Path 759" d="M32.24,0a2.01,2.01,0,0,0-1.892,1.338H19.13V.669A.669.669,0,0,0,18.461,0H15.786a.669.669,0,0,0-.669.669v.669H3.9a2.007,2.007,0,1,0,0,1.338h6.725a14.809,14.809,0,0,0-3.812,2.28.669.669,0,1,0,.862,1.023,15.082,15.082,0,0,1,7.444-3.161v.527a.669.669,0,0,0,.669.669h2.676a.669.669,0,0,0,.669-.669V2.817a15.082,15.082,0,0,1,7.444,3.161.669.669,0,0,0,.862-1.023,14.809,14.809,0,0,0-3.812-2.28h6.725A2.007,2.007,0,1,0,32.24,0ZM2.007,2.676a.669.669,0,1,1,.669-.669A.67.67,0,0,1,2.007,2.676Zm15.786-.669v.669H16.454V1.338h1.338Zm14.448.669a.669.669,0,1,1,.669-.669A.67.67,0,0,1,32.24,2.676Z" fill="#2365b1"/>
      </g>
    </g>
  </g>
  <text id="Logo_Design" data-name="Logo Design" transform="translate(206.316 75)" fill="#878686" font-size="6" font-family="MicrosoftSansSerif, Microsoft Sans Serif"><tspan x="0" y="0">Logo Design</tspan></text>
</svg>
