<svg id="software" xmlns="http://www.w3.org/2000/svg" width="184.186" height="184.186" viewBox="0 0 184.186 184.186">
  <g id="Group_348" data-name="Group 348">
    <g id="Group_347" data-name="Group 347">
      <path id="Path_466" data-name="Path 466" d="M184.186,16.188A16.207,16.207,0,0,0,168,0H16.188A16.207,16.207,0,0,0,0,16.188V124.829a16.207,16.207,0,0,0,16.188,16.188H64.753v11.334a27.027,27.027,0,0,0-21.584,26.438,5.4,5.4,0,0,0,5.4,5.4h87.112A48.566,48.566,0,0,0,183.7,128.768a16.185,16.185,0,0,0,.486-3.939Zm-168,114.037a5.4,5.4,0,0,1-5.4-5.4V119.4H89.834a48.5,48.5,0,0,0-2.476,10.828Zm73.646,21.584H75.545V141.017H87.358A48.168,48.168,0,0,0,89.834,151.809ZM54.885,173.393A16.217,16.217,0,0,1,70.149,162.6H95.261a48.969,48.969,0,0,0,9.873,10.792Zm80.736,0a37.772,37.772,0,1,1,37.772-37.772A37.815,37.815,0,0,1,135.621,173.393Zm37.772-68.26a48.515,48.515,0,0,0-78.133,3.507H10.792V16.188a5.4,5.4,0,0,1,5.4-5.4H168a5.4,5.4,0,0,1,5.4,5.4Z"/>
    </g>
  </g>
  <g id="Group_350" data-name="Group 350" transform="translate(21.585 21.478)">
    <g id="Group_349" data-name="Group 349">
      <path id="Path_467" data-name="Path 467" d="M122.1,76.757c-.505-.3,3.124,1.894-26.835-16.271a5.4,5.4,0,0,0-5.582-.008l-27,16.266A5.417,5.417,0,0,0,60,81.406v32.609a5.4,5.4,0,0,0,2.561,4.591l26.98,16.664a5.4,5.4,0,0,0,5.671,0l26.98-16.664a5.4,5.4,0,0,0,2.561-4.591V81.406A5.448,5.448,0,0,0,122.1,76.757ZM86.981,121l-16.188-10V90.971l16.188,9.783Zm5.4-29.6L75.842,81.413,92.457,71.406l16.48,9.992Zm21.584,19.6L97.773,121v-20.25l16.188-9.783Z" transform="translate(-60.001 -59.705)" fill="#2365b1"/>
    </g>
  </g>
  <g id="Group_352" data-name="Group 352" transform="translate(119.433 32.736)">
    <g id="Group_351" data-name="Group 351">
      <path id="Path_468" data-name="Path 468" d="M358.98,91H337.4a5.4,5.4,0,0,0,0,10.792H358.98a5.4,5.4,0,1,0,0-10.792Z" transform="translate(-332 -91)" fill="#2365b1"/>
    </g>
  </g>
  <g id="Group_354" data-name="Group 354" transform="translate(119.433 54.32)">
    <g id="Group_353" data-name="Group 353">
      <path id="Path_469" data-name="Path 469" d="M358.98,151H337.4a5.4,5.4,0,0,0,0,10.792H358.98a5.4,5.4,0,1,0,0-10.792Z" transform="translate(-332 -151)" fill="#2365b1"/>
    </g>
  </g>
  <g id="Group_356" data-name="Group 356" transform="translate(119.433 119.433)">
    <g id="Group_355" data-name="Group 355">
      <path id="Path_470" data-name="Path 470" d="M348.188,332A16.207,16.207,0,0,0,332,348.188c0,.009,0,.018,0,.028v.092c0,.032,0,.062,0,.093A16.186,16.186,0,1,0,348.188,332Zm0,21.584a5.4,5.4,0,0,1-5.4-5.382v-.014s0,0,0-.007a5.4,5.4,0,1,1,5.4,5.4Z" transform="translate(-332 -332)" fill="#2365b1"/>
    </g>
  </g>
</svg>
