<svg xmlns="http://www.w3.org/2000/svg" width="187.632" height="187.606" viewBox="0 0 187.632 187.606">
  <g id="boost_1_" data-name="boost (1)" transform="translate(-2 -2)">
    <path id="Path_644" data-name="Path 644" d="M61.007,46.763a2.68,2.68,0,0,1-2.1-4.336q2.456-3.132,4.733-6.266A2.68,2.68,0,1,1,67.981,39.3c-1.549,2.144-3.179,4.288-4.862,6.432a2.68,2.68,0,0,1-2.112,1.032Z" transform="translate(94.64 55.526)"/>
    <path id="Path_645" data-name="Path 645" d="M64.18,156.561a2.68,2.68,0,0,1-1.894-.785l-47.17-47.17a2.68,2.68,0,0,1-.512-3.074A252.1,252.1,0,0,1,26.819,83.426,209.422,209.422,0,0,1,46.636,56.207c28.347-32.909,59.219-45.733,80.127-50.7a110.208,110.208,0,0,1,39.28-2.889,2.68,2.68,0,0,1,2.227,2.23c.22,1.383,5.127,34.335-15.941,73.384a2.68,2.68,0,0,1-4.714-2.543A124.893,124.893,0,0,0,163.2,7.7C152.154,6.743,97.67,5.176,50.7,59.71A204.139,204.139,0,0,0,31.386,86.243c-3.945,6.352-7.678,13.044-11.114,19.927l44.444,44.457c6.9-3.444,13.591-7.177,19.918-11.109A204.868,204.868,0,0,0,111.167,120.2c3.1-2.659,6.229-5.542,9.3-8.576a2.68,2.68,0,1,1,3.774,3.806c-3.163,3.135-6.384,6.11-9.576,8.844a210.115,210.115,0,0,1-27.222,19.811,251.933,251.933,0,0,1-22.1,12.211A2.656,2.656,0,0,1,64.18,156.561Z" transform="translate(20.715 0)"/>
    <path id="Path_646" data-name="Path 646" d="M97.4,53.231a2.68,2.68,0,0,1-1.894-.785L52.116,9.055a2.681,2.681,0,0,1,3.79-3.792L99.3,48.656a2.68,2.68,0,0,1-1.9,4.575Z" transform="translate(82.878 4.163)"/>
    <path id="Path_647" data-name="Path 647" d="M61.655,63.395a22.65,22.65,0,1,1,20.934-13.98,22.651,22.651,0,0,1-20.934,13.98Zm0-39.933a17.276,17.276,0,1,0,12.232,5.055,17.276,17.276,0,0,0-12.232-5.055Z" transform="translate(62.171 27.032)" fill="#2365b1"/>
    <path id="Path_648" data-name="Path 648" d="M5.855,59.1A2.68,2.68,0,0,1,3.21,55.987a42.544,42.544,0,0,1,6.6-16.8,43.171,43.171,0,0,1,59.005-13.06A2.68,2.68,0,0,1,66,30.684,37.827,37.827,0,0,0,14.273,42.141a37.382,37.382,0,0,0-4.4,9.021,43.1,43.1,0,0,1,39.274,1.8A2.68,2.68,0,0,1,46.5,57.619,37.744,37.744,0,0,0,7.3,58.664,2.68,2.68,0,0,1,5.855,59.1Z" transform="translate(1.974 29.546)"/>
    <path id="Path_649" data-name="Path 649" d="M42.35,112.834a2.68,2.68,0,0,1-2.254-4.127,37.749,37.749,0,0,0,1.045-39.2A2.68,2.68,0,0,1,45.8,66.849a43.08,43.08,0,0,1,1.8,39.274,37.294,37.294,0,0,0,9.011-4.39A37.84,37.84,0,0,0,68.079,50.007a2.68,2.68,0,1,1,4.556-2.814A43.168,43.168,0,0,1,59.58,106.2a42.52,42.52,0,0,1-16.785,6.6,2.6,2.6,0,0,1-.445.035Z" transform="translate(63.292 73.623)"/>
    <path id="Path_650" data-name="Path 650" d="M18.337,90.145a2.68,2.68,0,0,1-1.895-4.575L40.027,61.985a2.68,2.68,0,1,1,3.79,3.79L20.232,89.36a2.68,2.68,0,0,1-1.895.785Z" transform="translate(22.945 99.461)" fill="#2365b1"/>
    <path id="Path_651" data-name="Path 651" d="M6.009,88.816a2.68,2.68,0,0,1-1.895-4.575L27.7,60.656a2.68,2.68,0,1,1,3.79,3.79L7.9,88.031a2.68,2.68,0,0,1-1.895.785Z" transform="translate(2.233 97.229)" fill="#2365b1"/>
    <path id="Path_652" data-name="Path 652" d="M4.68,76.487a2.68,2.68,0,0,1-1.895-4.575L26.37,48.327a2.68,2.68,0,1,1,3.79,3.79L6.575,75.7a2.661,2.661,0,0,1-1.895.785Z" transform="translate(0 76.515)" fill="#2365b1"/>
  </g>
</svg>
