<svg xmlns="http://www.w3.org/2000/svg" width="185.304" height="184.105" viewBox="0 0 185.304 184.105">
  <g id="presentation" transform="translate(0 -1.5)">
    <g id="Group_433" data-name="Group 433" transform="translate(0 1.5)">
      <g id="Group_432" data-name="Group 432">
        <path id="Path_659" data-name="Path 659" d="M175.719,1.5H9.585a9.585,9.585,0,0,0,0,19.169V151.66a3.2,3.2,0,0,0,3.195,3.195h38.08L29.454,181.612l4.99,3.994,24.6-30.751H89.457v6.978a9.585,9.585,0,1,0,6.39,0v-6.978h30.412l24.6,30.751,4.99-3.994-21.406-26.757h38.08a3.2,3.2,0,0,0,3.195-3.195V20.669a9.585,9.585,0,1,0,0-19.169ZM92.652,174.024a3.195,3.195,0,1,1,3.195-3.195A3.2,3.2,0,0,1,92.652,174.024Zm76.677-25.559H15.974V20.669H169.329Zm6.39-134.185H9.585a3.195,3.195,0,0,1,0-6.39H175.719a3.195,3.195,0,0,1,0,6.39Z" transform="translate(0 -1.5)"/>
      </g>
    </g>
    <g id="Group_435" data-name="Group 435" transform="translate(28.754 103.736)">
      <g id="Group_434" data-name="Group 434">
        <rect id="Rectangle_185" data-name="Rectangle 185" width="51" height="6" transform="translate(-0.102 0.316)" fill="#2365b1"/>
      </g>
    </g>
    <g id="Group_437" data-name="Group 437" transform="translate(28.754 116.516)">
      <g id="Group_436" data-name="Group 436">
        <rect id="Rectangle_186" data-name="Rectangle 186" width="51" height="7" transform="translate(-0.102 -0.463)" fill="#2365b1"/>
      </g>
    </g>
    <g id="Group_439" data-name="Group 439" transform="translate(28.754 129.296)">
      <g id="Group_438" data-name="Group 438">
        <rect id="Rectangle_187" data-name="Rectangle 187" width="38" height="7" transform="translate(-0.102 -0.243)" fill="#2365b1"/>
      </g>
    </g>
    <g id="Group_441" data-name="Group 441" transform="translate(54.313 90.957)">
      <g id="Group_440" data-name="Group 440">
        <rect id="Rectangle_188" data-name="Rectangle 188" width="25" height="6" transform="translate(0.338 0.096)" fill="#2365b1"/>
      </g>
    </g>
    <g id="Group_443" data-name="Group 443" transform="translate(105.431 46.228)">
      <g id="Group_442" data-name="Group 442">
        <rect id="Rectangle_189" data-name="Rectangle 189" width="51" height="7" transform="translate(0.22 -0.176)" fill="#2365b1"/>
      </g>
    </g>
    <g id="Group_445" data-name="Group 445" transform="translate(105.431 59.008)">
      <g id="Group_444" data-name="Group 444">
        <rect id="Rectangle_190" data-name="Rectangle 190" width="51" height="6" transform="translate(0.22 0.045)" fill="#2365b1"/>
      </g>
    </g>
    <g id="Group_447" data-name="Group 447" transform="translate(105.431 71.788)">
      <g id="Group_446" data-name="Group 446">
        <rect id="Rectangle_191" data-name="Rectangle 191" width="38" height="6" transform="translate(0.22 0.265)" fill="#2365b1"/>
      </g>
    </g>
    <g id="Group_449" data-name="Group 449" transform="translate(130.99 33.449)">
      <g id="Group_448" data-name="Group 448">
        <rect id="Rectangle_192" data-name="Rectangle 192" width="26" height="7" transform="translate(-0.338 -0.396)" fill="#2365b1"/>
      </g>
    </g>
    <g id="Group_451" data-name="Group 451" transform="translate(28.754 30.254)">
      <g id="Group_450" data-name="Group 450">
        <path id="Path_660" data-name="Path 660" d="M97.559,73.5a25.559,25.559,0,1,0,25.559,25.559A25.559,25.559,0,0,0,97.559,73.5Zm3.291,6.7a19.147,19.147,0,0,1,12.16,7.565l-12.256,6.121ZM86.512,83.426a19.119,19.119,0,0,1,7.968-3.249l-.115,17.6L81.9,110.072A19.121,19.121,0,0,1,86.512,83.426Zm16.636,33.968a19.071,19.071,0,0,1-16.771-2.8L99.5,101.66l16.387-8.195A19.17,19.17,0,0,1,103.148,117.394Z" transform="translate(-72 -73.5)" fill="#2365b1"/>
      </g>
    </g>
    <g id="Group_453" data-name="Group 453" transform="translate(99.042 119.711)">
      <g id="Group_452" data-name="Group 452">
        <rect id="Rectangle_193" data-name="Rectangle 193" width="7" height="16" transform="translate(-0.39 0.342)" fill="#2365b1"/>
      </g>
    </g>
    <g id="Group_455" data-name="Group 455" transform="translate(150.16 113.321)">
      <g id="Group_454" data-name="Group 454">
        <rect id="Rectangle_194" data-name="Rectangle 194" width="6" height="23" transform="translate(0.492 -0.268)" fill="#2365b1"/>
      </g>
    </g>
    <g id="Group_457" data-name="Group 457" transform="translate(111.821 110.126)">
      <g id="Group_456" data-name="Group 456">
        <rect id="Rectangle_195" data-name="Rectangle 195" width="7" height="26" transform="translate(-0.169 -0.074)" fill="#2365b1"/>
      </g>
    </g>
    <g id="Group_459" data-name="Group 459" transform="translate(124.601 97.347)">
      <g id="Group_458" data-name="Group 458">
        <rect id="Rectangle_196" data-name="Rectangle 196" width="6" height="39" transform="translate(0.051 -0.294)" fill="#2365b1"/>
      </g>
    </g>
    <g id="Group_461" data-name="Group 461" transform="translate(137.38 106.931)">
      <g id="Group_460" data-name="Group 460">
        <rect id="Rectangle_197" data-name="Rectangle 197" width="6" height="29" transform="translate(0.272 0.121)" fill="#2365b1"/>
      </g>
    </g>
    <g id="Group_463" data-name="Group 463" transform="translate(41.534 90.957)">
      <g id="Group_462" data-name="Group 462">
        <rect id="Rectangle_198" data-name="Rectangle 198" width="6" height="6" transform="translate(0.119 0.096)" fill="#2365b1"/>
      </g>
    </g>
    <g id="Group_465" data-name="Group 465" transform="translate(118.211 33.449)">
      <g id="Group_464" data-name="Group 464">
        <rect id="Rectangle_199" data-name="Rectangle 199" width="6" height="7" transform="translate(0.441 -0.396)" fill="#2365b1"/>
      </g>
    </g>
  </g>
</svg>
