<svg xmlns="http://www.w3.org/2000/svg" width="214.001" height="242.265" viewBox="0 0 214.001 242.265">
  <g id="outline" transform="translate(-39.988 -16)">
    <path id="Path_653" data-name="Path 653" d="M132.038,112.076h88.831a4.038,4.038,0,0,0,0-8.076H132.038a4.038,4.038,0,1,0,0,8.076Z" transform="translate(-43.591 -43.585)" fill="#2365b1"/>
    <path id="Path_654" data-name="Path 654" d="M132.038,160.076h88.831a4.038,4.038,0,1,0,0-8.076H132.038a4.038,4.038,0,1,0,0,8.076Z" transform="translate(-43.591 -67.358)" fill="#2365b1"/>
    <path id="Path_655" data-name="Path 655" d="M132.038,208.076h88.831a4.038,4.038,0,1,0,0-8.076H132.038a4.038,4.038,0,1,0,0,8.076Z" transform="translate(-43.591 -91.132)" fill="#2365b1"/>
    <path id="Path_656" data-name="Path 656" d="M132.038,256.076h88.831a4.038,4.038,0,1,0,0-8.075H132.038a4.038,4.038,0,1,0,0,8.075Z" transform="translate(-43.591 -114.905)" fill="#2365b1"/>
    <path id="Path_657" data-name="Path 657" d="M132.038,304.076h32.3a4.038,4.038,0,0,0,0-8.076h-32.3a4.038,4.038,0,1,0,0,8.076Z" transform="translate(-43.591 -138.679)" fill="#2365b1"/>
    <path id="Path_658" data-name="Path 658" d="M248.005,111.4a12.125,12.125,0,0,0-16.575,4.326l-9.737,16.612V32.151a4.038,4.038,0,0,0-4.038-4.038H187.026s-12.132-12.356-12.618-11.94A4.025,4.025,0,0,0,173.24,16H56.145a4.038,4.038,0,0,0-4.038,4.038V32.662a16.151,16.151,0,0,0,0,31.279v9.1a16.151,16.151,0,0,0,0,31.279v9.1a16.151,16.151,0,0,0,0,31.279v5.06a16.151,16.151,0,0,0,0,31.279v24.738a4.038,4.038,0,0,0,4.038,4.038h4.038v12.113a4.038,4.038,0,0,0,4.038,4.038H166.826l-2.767,4.721a4.006,4.006,0,0,0-.5,1.373c0,.023-.011.043-.014.067l-.01.066v.015l-3.23,21.42a4.038,4.038,0,0,0,6.469,3.791l17.175-13.334c1.1-.855,1.638-1.377,1.553-2.079l9.4-16.04h22.75a4.038,4.038,0,0,0,4.038-4.038V180.255l30.636-52.28a12.127,12.127,0,0,0-4.324-16.575Zm-7.144,6.544a4.038,4.038,0,0,1,4.5,5.949l-2.042,3.483-6.965-4.083,2.042-3.483a4.009,4.009,0,0,1,2.462-1.865ZM180.034,235.367l-6.965-4.083,53.078-90.573,6.965,4.083ZM177.278,29.786l14.478,14.478H177.278Zm52.953,103.957,2.041-3.483,6.968,4.083-2.042,3.483ZM213.617,36.189V145.208a4.058,4.058,0,0,0,.077.78L205.542,159.9V48.3a4.027,4.027,0,0,0-1.179-2.851l0,0L195.1,36.189ZM60.183,24.076H169.2V48.3a4.038,4.038,0,0,0,4.038,4.038h24.227v121.34l-16.443,28.057H60.183v-20.7a16.138,16.138,0,0,0,11.6-11.606,4.039,4.039,0,1,0-7.823-2.013,8.049,8.049,0,0,1-3.781,4.968V144.7a16.138,16.138,0,0,0,11.6-11.606,4.039,4.039,0,0,0-7.823-2.013,8.049,8.049,0,0,1-3.781,4.968V104.32a16.138,16.138,0,0,0,11.6-11.606A4.039,4.039,0,0,0,63.964,90.7a8.049,8.049,0,0,1-3.781,4.968V63.942a16.138,16.138,0,0,0,11.6-11.606,4.039,4.039,0,1,0-7.823-2.013,8.049,8.049,0,0,1-3.781,4.968ZM48.069,48.3a8.076,8.076,0,0,1,4.038-6.983V55.285A8.075,8.075,0,0,1,48.069,48.3Zm0,40.378A8.076,8.076,0,0,1,52.107,81.7V95.662A8.075,8.075,0,0,1,48.069,88.68Zm0,40.378a8.076,8.076,0,0,1,4.038-6.983V136.04A8.075,8.075,0,0,1,48.069,129.057Zm0,36.34a8.076,8.076,0,0,1,4.038-6.983V172.38A8.075,8.075,0,0,1,48.069,165.4Zm20.189,52.491v-8.076H176.291l-4.733,8.076Zm102.388,21.338,3.644,2.135-4.492,3.487Zm42.971-21.338H199.637l13.981-23.854Z"/>
  </g>
</svg>
