<svg xmlns="http://www.w3.org/2000/svg" width="114.241" height="116.655" viewBox="0 0 114.241 116.655">
  <g id="configuration-tool-gear-laptop-computer" transform="translate(-2.621 -2)">
    <path id="Path_493" data-name="Path 493" d="M116.649,111.286,106.4,73.684V19.5a5.85,5.85,0,0,0-5.833-5.833H83.481L76.248,6.413A1.944,1.944,0,0,0,73.643,6.3L68.2,10.73l-.68-6.98A1.973,1.973,0,0,0,65.574,2H53.909a1.973,1.973,0,0,0-1.944,1.75l-.68,6.98L45.84,6.3a1.944,1.944,0,0,0-2.605.117L36,13.665H18.912A5.85,5.85,0,0,0,13.079,19.5V73.684l-10.246,37.6a5.811,5.811,0,0,0,5.619,7.369H111.03a5.811,5.811,0,0,0,5.619-7.369ZM44.751,10.419l6.863,5.619a1.981,1.981,0,0,0,1.983.292,1.958,1.958,0,0,0,1.186-1.614l.875-8.827h8.166l.875,8.827a1.958,1.958,0,0,0,1.186,1.614,1.981,1.981,0,0,0,1.983-.292l6.863-5.619,5.755,5.755-5.619,6.863a1.981,1.981,0,0,0-.292,1.983,1.958,1.958,0,0,0,1.614,1.186l8.827.875v8.166l-8.827.875a1.958,1.958,0,0,0-1.614,1.186,1.981,1.981,0,0,0,.292,1.983l5.619,6.863-5.755,5.755L67.868,46.29A1.981,1.981,0,0,0,65.885,46,1.958,1.958,0,0,0,64.7,47.612l-.875,8.827H55.658l-.875-8.827A1.958,1.958,0,0,0,53.6,46a1.981,1.981,0,0,0-1.983.292l-6.863,5.619L39,46.154l5.619-6.863a1.981,1.981,0,0,0,.292-1.983,1.958,1.958,0,0,0-1.614-1.186l-8.827-.875V27.081l8.827-.875a1.958,1.958,0,0,0,1.614-1.186,1.981,1.981,0,0,0-.292-1.983L39,16.174ZM16.968,19.5a1.944,1.944,0,0,1,1.944-1.944H35.088l4.219,5.152-6.98.68a1.973,1.973,0,0,0-1.75,1.944V37a1.973,1.973,0,0,0,1.75,1.944l6.98.68-4.433,5.444a1.944,1.944,0,0,0,.117,2.605l8.244,8.244a1.944,1.944,0,0,0,2.605.117L51.284,51.6l.68,6.98a1.973,1.973,0,0,0,1.944,1.75H65.574a1.973,1.973,0,0,0,1.944-1.75l.68-6.98,5.444,4.433a1.944,1.944,0,0,0,2.605-.117l8.244-8.244a1.944,1.944,0,0,0,.117-2.605l-4.433-5.444,6.98-.68A1.973,1.973,0,0,0,88.9,37V25.331a1.973,1.973,0,0,0-1.75-1.944l-6.98-.68,4.219-5.152H100.57a1.944,1.944,0,0,1,1.944,1.944V71.993H16.968Zm95.618,94.51a1.925,1.925,0,0,1-1.555.758H8.452a1.925,1.925,0,0,1-1.555-.758,1.983,1.983,0,0,1-.331-1.711L16.5,75.881h86.48l9.935,36.416A1.983,1.983,0,0,1,112.586,114.008Z" transform="translate(0 0)"/>
    <path id="Path_494" data-name="Path 494" d="M58.882,53.472A1.944,1.944,0,0,0,57,52H25.888A1.944,1.944,0,0,0,24,53.472l-1.944,7.777a1.944,1.944,0,0,0,1.886,2.417h35a1.944,1.944,0,0,0,1.886-2.417ZM26.435,59.777l.972-3.888H55.478l.972,3.888Z" transform="translate(18.299 47.212)" fill="#2365b1"/>
    <path id="Path_495" data-name="Path 495" d="M27,34H46.442v3.888H27Z" transform="translate(23.02 30.216)" fill="#2365b1"/>
    <path id="Path_496" data-name="Path 496" d="M12,42h7.777v3.888H12Z" transform="translate(8.856 37.77)" fill="#2365b1"/>
    <path id="Path_497" data-name="Path 497" d="M18,42h7.777v3.888H18Z" transform="translate(14.522 37.77)" fill="#2365b1"/>
    <path id="Path_498" data-name="Path 498" d="M24,42h7.777v3.888H24Z" transform="translate(20.187 37.77)" fill="#2365b1"/>
    <path id="Path_499" data-name="Path 499" d="M36,42h7.777v3.888H36Z" transform="translate(31.518 37.77)" fill="#2365b1"/>
    <path id="Path_500" data-name="Path 500" d="M42,42h7.777v3.888H42Z" transform="translate(37.184 37.77)" fill="#2365b1"/>
    <path id="Path_501" data-name="Path 501" d="M48,42h7.777v3.888H48Z" transform="translate(42.849 37.77)" fill="#2365b1"/>
    <path id="Path_502" data-name="Path 502" d="M30,42h7.777v3.888H30Z" transform="translate(25.853 37.77)" fill="#2365b1"/>
    <path id="Path_503" data-name="Path 503" d="M12,46h7.777v3.888H12Z" transform="translate(8.856 41.547)" fill="#2365b1"/>
    <path id="Path_504" data-name="Path 504" d="M18,46h7.777v3.888H18Z" transform="translate(14.522 41.547)" fill="#2365b1"/>
    <path id="Path_505" data-name="Path 505" d="M24,46h7.777v3.888H24Z" transform="translate(20.187 41.547)" fill="#2365b1"/>
    <path id="Path_506" data-name="Path 506" d="M36,46h7.777v3.888H36Z" transform="translate(31.518 41.547)" fill="#2365b1"/>
    <path id="Path_507" data-name="Path 507" d="M42,46h7.777v3.888H42Z" transform="translate(37.184 41.547)" fill="#2365b1"/>
    <path id="Path_508" data-name="Path 508" d="M48,46h7.777v3.888H48Z" transform="translate(42.849 41.547)" fill="#2365b1"/>
    <path id="Path_509" data-name="Path 509" d="M30,46h7.777v3.888H30Z" transform="translate(25.853 41.547)" fill="#2365b1"/>
    <path id="Path_510" data-name="Path 510" d="M37.665,34.331A11.665,11.665,0,1,0,26,22.665,11.665,11.665,0,0,0,37.665,34.331Zm0-19.442a7.777,7.777,0,1,1-7.777,7.777A7.777,7.777,0,0,1,37.665,14.888Z" transform="translate(22.076 8.498)"/>
  </g>
</svg>
