<svg xmlns="http://www.w3.org/2000/svg" width="100.532" height="87.128" viewBox="0 0 100.532 87.128">
  <g id="responsive" transform="translate(0 -32)">
    <g id="Group_362" data-name="Group 362" transform="translate(0 32)">
      <g id="Group_361" data-name="Group 361" transform="translate(0 0)">
        <path id="Path_516" data-name="Path 516" d="M95.506,75.564H93.83V40.378A8.388,8.388,0,0,0,85.452,32H15.08A8.388,8.388,0,0,0,6.7,40.378V65.511H5.027A5.027,5.027,0,0,0,0,70.537V114.1a5.027,5.027,0,0,0,5.027,5.027H68.7a1.676,1.676,0,0,0,1.676-1.676,8.388,8.388,0,0,0-8.378-8.378H56.968V99.021H77.075V114.1a5.027,5.027,0,0,0,5.027,5.027h13.4a5.027,5.027,0,0,0,5.027-5.027V80.591A5.027,5.027,0,0,0,95.506,75.564ZM36.862,114.1a1.676,1.676,0,0,1-1.676,1.676H5.027A1.676,1.676,0,0,1,3.351,114.1v-1.676H36.862Zm0-5.027H3.351V70.537a1.676,1.676,0,0,1,1.676-1.676h30.16a1.676,1.676,0,0,1,1.676,1.676Zm25.133,3.351a5.036,5.036,0,0,1,4.74,3.351H39.9a4.969,4.969,0,0,0,.308-1.676v-1.676Zm-21.782-3.351V99.021h3.351v10.053Zm6.7,0V99.021h6.7v10.053Zm30.16-13.4H40.213V85.617H77.075Zm0-15.08v1.676H40.213V70.537a4.967,4.967,0,0,0-.573-2.28c.025-.023.059-.03.082-.055L56.31,51.614a1.676,1.676,0,0,0-2.369-2.369L37.353,65.832c-.04.042-.057.1-.092.139a4.963,4.963,0,0,0-2.074-.461H10.053V40.378a5.027,5.027,0,0,1,5.027-5.027H85.452a5.027,5.027,0,0,1,5.027,5.027V75.564H82.1A5.027,5.027,0,0,0,77.075,80.591ZM97.181,114.1a1.676,1.676,0,0,1-1.676,1.676H82.1a1.676,1.676,0,0,1-1.676-1.676v-1.676H97.181Zm0-5.027H80.426V80.591A1.676,1.676,0,0,1,82.1,78.915h13.4a1.676,1.676,0,0,1,1.676,1.676Z" transform="translate(0 -32)"/>
      </g>
    </g>
    <g id="Group_364" data-name="Group 364" transform="translate(10.033 85.415)">
      <g id="Group_363" data-name="Group 363">
        <path id="Path_517" data-name="Path 517" d="M57.89,287.524a1.676,1.676,0,0,0-2.369,0l-7.108,7.108a1.676,1.676,0,0,0,2.328,2.41l.041-.041,7.108-7.108C58.189,289.375,57.588,288.39,57.89,287.524Z" transform="translate(-47.902 -287.034)" fill="#2365b1"/>
      </g>
    </g>
    <g id="Group_366" data-name="Group 366" transform="translate(20.086 85.435)">
      <g id="Group_365" data-name="Group 365">
        <path id="Path_518" data-name="Path 518" d="M105.849,287.6a1.676,1.676,0,0,0-2.328,0l-7.108,7.108a1.676,1.676,0,0,0,2.328,2.41l.041-.041,7.108-7.108A1.676,1.676,0,0,0,105.849,287.6Z" transform="translate(-95.902 -287.131)" fill="#2365b1"/>
      </g>
    </g>
    <g id="Group_368" data-name="Group 368" transform="translate(47.062 48.776)">
      <g id="Group_367" data-name="Group 367" transform="translate(0 0)">
        <path id="Path_519" data-name="Path 519" d="M244.129,112.569a1.676,1.676,0,0,0-2.328,0l-16.588,16.588a1.676,1.676,0,1,0,2.328,2.41l.041-.041,16.588-16.588A1.675,1.675,0,0,0,244.129,112.569Z" transform="translate(-224.702 -112.098)" fill="#2365b1"/>
      </g>
    </g>
    <g id="Group_370" data-name="Group 370" transform="translate(84.738 89.971)">
      <g id="Group_369" data-name="Group 369">
        <path id="Path_520" data-name="Path 520" d="M412.168,309.256a1.675,1.675,0,0,0-2.328,0l-4.738,4.738a1.676,1.676,0,1,0,2.328,2.41l.041-.041,4.738-4.738A1.675,1.675,0,0,0,412.168,309.256Z" transform="translate(-404.59 -308.786)" fill="#2365b1"/>
      </g>
    </g>
    <g id="Group_372" data-name="Group 372" transform="translate(48.616 88.968)">
      <g id="Group_371" data-name="Group 371">
        <path id="Path_521" data-name="Path 521" d="M233.8,304h-.017a1.684,1.684,0,1,0,.017,0Z" transform="translate(-232.12 -304)" fill="#2365b1"/>
      </g>
    </g>
    <g id="Group_374" data-name="Group 374" transform="translate(45.239 38.702)">
      <g id="Group_373" data-name="Group 373" transform="translate(0 0)">
        <path id="Path_522" data-name="Path 522" d="M224.378,64h-6.7a1.676,1.676,0,0,0,0,3.351h6.7a1.676,1.676,0,0,0,0-3.351Z" transform="translate(-216 -64)" fill="#2365b1"/>
      </g>
    </g>
  </g>
</svg>
