<svg xmlns="http://www.w3.org/2000/svg" width="96.323" height="96.328" viewBox="0 0 96.323 96.328">
  <g id="Page-1" transform="translate(0 -0.001)">
    <g id="_083---Money-Bag" data-name="083---Money-Bag" transform="translate(0 0.001)">
      <path id="Shape" d="M35.475,39.646a1.605,1.605,0,1,0,3.211,0c0-5.311-4.912-9.7-11.238-10.345v-1.7a1.605,1.605,0,1,0-3.211,0v1.7C17.912,29.943,13,34.335,13,39.646s4.912,9.7,11.238,10.345V64.42c-4.548-.575-8.027-3.543-8.027-7.115a1.605,1.605,0,1,0-3.211,0c0,5.311,4.912,9.7,11.238,10.345v1.7a1.605,1.605,0,0,0,3.211,0v-1.7c6.325-.642,11.238-5.034,11.238-10.345s-4.912-9.7-11.238-10.345V32.531C32,33.105,35.475,36.074,35.475,39.646Zm-19.265,0c0-3.572,3.479-6.54,8.027-7.115v14.23C19.69,46.186,16.211,43.218,16.211,39.646ZM35.475,57.305c0,3.572-3.479,6.54-8.027,7.115V50.19C32,50.765,35.475,53.733,35.475,57.305Z" transform="translate(7.87 15.739)" fill="#2365b1"/>
      <path id="Shape-2" data-name="Shape" d="M5.779,30.229a1.605,1.605,0,0,0-2.132.78A39.171,39.171,0,0,0,0,47.611c0,20.239,11.342,30.5,33.713,30.5a51.913,51.913,0,0,0,13.416-1.546,1.606,1.606,0,1,0-.825-3.1A49.5,49.5,0,0,1,33.713,74.9c-20.525,0-30.5-8.928-30.5-27.292A35.5,35.5,0,0,1,6.561,32.36,1.605,1.605,0,0,0,5.779,30.229Z" transform="translate(0 18.209)"/>
      <path id="Shape-3" data-name="Shape" d="M72.135,25H36.816A4.816,4.816,0,0,0,32,29.816V76.372a4.816,4.816,0,0,0,4.816,4.816H72.135a4.816,4.816,0,0,0,4.816-4.816V29.816A4.816,4.816,0,0,0,72.135,25ZM73.74,76.372a1.605,1.605,0,0,1-1.605,1.605H36.816a1.605,1.605,0,0,1-1.605-1.605V29.816a1.605,1.605,0,0,1,1.605-1.605H72.135a1.605,1.605,0,0,1,1.605,1.605Z" transform="translate(19.372 15.133)"/>
      <path id="Shape-4" data-name="Shape" d="M40.211,42.843H62.686A3.211,3.211,0,0,0,65.9,39.632V33.211A3.211,3.211,0,0,0,62.686,30H40.211A3.211,3.211,0,0,0,37,33.211v6.422A3.211,3.211,0,0,0,40.211,42.843Zm0-9.632H62.686v6.422H40.211Z" transform="translate(22.399 18.16)" fill="#2365b1"/>
      <path id="Shape-5" data-name="Shape" d="M43.422,41H38.605a1.605,1.605,0,1,0,0,3.211h4.816a1.605,1.605,0,1,0,0-3.211Z" transform="translate(22.399 24.819)" fill="#2365b1"/>
      <path id="Shape-6" data-name="Shape" d="M43.422,45H38.605a1.605,1.605,0,1,0,0,3.211h4.816a1.605,1.605,0,1,0,0-3.211Z" transform="translate(22.399 27.241)" fill="#2365b1"/>
      <path id="Shape-7" data-name="Shape" d="M43.422,49H38.605a1.605,1.605,0,1,0,0,3.211h4.816a1.605,1.605,0,1,0,0-3.211Z" transform="translate(22.399 29.663)" fill="#2365b1"/>
      <path id="Shape-8" data-name="Shape" d="M43.422,53H38.605a1.605,1.605,0,1,0,0,3.211h4.816a1.605,1.605,0,1,0,0-3.211Z" transform="translate(22.399 32.084)" fill="#2365b1"/>
      <path id="Shape-9" data-name="Shape" d="M50.422,41H45.605a1.605,1.605,0,0,0,0,3.211h4.816a1.605,1.605,0,1,0,0-3.211Z" transform="translate(26.637 24.819)" fill="#2365b1"/>
      <path id="Shape-10" data-name="Shape" d="M50.422,45H45.605a1.605,1.605,0,0,0,0,3.211h4.816a1.605,1.605,0,0,0,0-3.211Z" transform="translate(26.637 27.241)" fill="#2365b1"/>
      <path id="Shape-11" data-name="Shape" d="M50.422,49H45.605a1.605,1.605,0,0,0,0,3.211h4.816a1.605,1.605,0,1,0,0-3.211Z" transform="translate(26.637 29.663)" fill="#2365b1"/>
      <path id="Shape-12" data-name="Shape" d="M50.422,53H45.605a1.605,1.605,0,0,0,0,3.211h4.816a1.605,1.605,0,0,0,0-3.211Z" transform="translate(26.637 32.084)" fill="#2365b1"/>
      <path id="Shape-13" data-name="Shape" d="M57.422,41H52.605a1.605,1.605,0,1,0,0,3.211h4.816a1.605,1.605,0,1,0,0-3.211Z" transform="translate(30.875 24.819)" fill="#2365b1"/>
      <path id="Shape-14" data-name="Shape" d="M57.422,45H52.605a1.605,1.605,0,1,0,0,3.211h4.816a1.605,1.605,0,0,0,0-3.211Z" transform="translate(30.875 27.241)" fill="#2365b1"/>
      <path id="Shape-15" data-name="Shape" d="M57.422,49H52.605a1.605,1.605,0,1,0,0,3.211h4.816a1.605,1.605,0,1,0,0-3.211Z" transform="translate(30.875 29.663)" fill="#2365b1"/>
      <path id="Shape-16" data-name="Shape" d="M57.422,53H52.605a1.605,1.605,0,1,0,0,3.211h4.816a1.605,1.605,0,0,0,0-3.211Z" transform="translate(30.875 32.084)" fill="#2365b1"/>
      <path id="Shape-17" data-name="Shape" d="M6.97,2.027C2.743,5.9,10.169,17.843,14.546,24.08h-.873A5.59,5.59,0,0,0,9.7,25.721,5.659,5.659,0,0,0,8.053,29.7a5.6,5.6,0,0,0,2.816,4.84,75.611,75.611,0,0,0-5.288,6.237A1.605,1.605,0,1,0,8.15,42.7a77.581,77.581,0,0,1,6.422-7.385H47.385a5.619,5.619,0,1,0,0-11.238h-.873c4.375-6.237,11.8-18.179,7.577-22.053-1.943-1.779-4.206-.482-6.2.653a12.382,12.382,0,0,1-6.121,2.135A6.219,6.219,0,0,1,37.19,2.793a9.345,9.345,0,0,0-13.325,0A6.219,6.219,0,0,1,19.28,4.816,12.331,12.331,0,0,1,13.163,2.68C11.169,1.542,8.907.25,6.97,2.027ZM49.092,27.994a2.408,2.408,0,0,1-1.707,4.113H13.672a2.408,2.408,0,0,1,0-4.816H47.385a2.424,2.424,0,0,1,1.707.7ZM19.28,8.026a9.345,9.345,0,0,0,6.664-2.795,6.187,6.187,0,0,1,9.151,0,9.351,9.351,0,0,0,6.672,2.795,15.381,15.381,0,0,0,7.72-2.559,6.714,6.714,0,0,1,2.439-1.074C53.573,5.9,49.219,15,42.563,24.08H38.556V16.053a1.605,1.605,0,0,0-3.211,0V24.08H25.713V16.053a1.605,1.605,0,0,0-3.211,0V24.08h-4C11.845,15,7.492,5.9,9.161,4.369a7.969,7.969,0,0,1,2.408,1.1A15.349,15.349,0,0,0,19.28,8.026Z" transform="translate(3.184 -0.001)"/>
    </g>
  </g>
</svg>
