<svg xmlns="http://www.w3.org/2000/svg" width="109.5" height="118.702" viewBox="0 0 109.5 118.702">
  <g id="test-tubes_2_" data-name="test-tubes (2)" transform="translate(-19.748)">
    <path id="Path_526" data-name="Path 526" d="M94.694,208.535a1.747,1.747,0,0,0-2.466.152c-.4.455-.812.9-1.219,1.318a4.735,4.735,0,0,1-3.383,1.44H37.719a4.735,4.735,0,0,1-3.383-1.44,39.44,39.44,0,0,1,13.991-64.155,4.61,4.61,0,0,0,2.949-4.32V127.217a1.747,1.747,0,1,0-3.495,0v14.314a1.136,1.136,0,0,1-.727,1.065,42.933,42.933,0,0,0-15.23,69.84,8.248,8.248,0,0,0,5.894,2.5H87.626a8.249,8.249,0,0,0,5.894-2.5c.443-.458.889-.94,1.326-1.435a1.747,1.747,0,0,0-.152-2.467Z" transform="translate(0 -96.239)"/>
    <path id="Path_527" data-name="Path 527" d="M129.289,13.273V23.532a1.747,1.747,0,1,0,3.495,0V13.024a1.742,1.742,0,0,0-.069-.487l-2.627-9.042h28.185l-2.627,9.042a1.743,1.743,0,0,0-.069.487V45.293a4.61,4.61,0,0,0,2.949,4.32,39.274,39.274,0,0,1,12.5,7.86,1.747,1.747,0,1,0,2.38-2.559A42.747,42.747,0,0,0,159.8,46.358a1.137,1.137,0,0,1-.727-1.065V13.273l3.207-11.038A1.747,1.747,0,0,0,160.6,0H127.76a1.748,1.748,0,0,0-1.678,2.235Z" transform="translate(-81.507)"/>
    <path id="Path_528" data-name="Path 528" d="M128.105,435.826a1.747,1.747,0,0,0-2.43.448,32.846,32.846,0,0,1-2.79,3.51H74.961A32.538,32.538,0,0,1,70.3,433.2a1.747,1.747,0,1,0-3.081,1.649,36.052,36.052,0,0,0,5.723,7.89,1.748,1.748,0,0,0,1.263.54h49.441a1.747,1.747,0,0,0,1.263-.54,36.355,36.355,0,0,0,3.646-4.483A1.748,1.748,0,0,0,128.105,435.826Z" transform="translate(-36.25 -331.567)" fill="#2365b1"/>
    <path id="Path_529" data-name="Path 529" d="M115.463,256.866a1.746,1.746,0,0,0-.3-.984l-.023-.033A18.888,18.888,0,0,0,97.08,248l-21.219,2.833L73.807,250a14.219,14.219,0,0,0-16.534,4.432c-.384.5-.76,1.007-1.118,1.522a35.711,35.711,0,0,0-6.409,20.489,36.072,36.072,0,0,0,1.313,9.659,1.747,1.747,0,0,0,3.367-.936,32.582,32.582,0,0,1-1.186-8.724,32.233,32.233,0,0,1,5.784-18.494c.323-.465.663-.928,1.01-1.375a10.711,10.711,0,0,1,12.457-3.336l2.484,1.009h0l18.144,7.37a31.024,31.024,0,0,0,17.713,1.7l3.219-.634a2.677,2.677,0,0,0,1.41-2.266v-3.547Zm-5.3,3.019a27.532,27.532,0,0,1-15.723-1.509l-12.041-4.891,15.149-2.023a15.409,15.409,0,0,1,14.425,5.97v2.1Z" transform="translate(-23.009 -190.089)" fill="#2365b1"/>
    <path id="Path_530" data-name="Path 530" d="M372.438,81.791a2.756,2.756,0,0,0-2.239-1.153H340.221a2.751,2.751,0,0,0-2.6,3.646l2.029,5.9v74.811a15.561,15.561,0,1,0,31.121,0v-28a1.747,1.747,0,1,0-3.495,0v28a12.066,12.066,0,1,1-24.132,0V109.6h5.914a7.938,7.938,0,0,1,5.65,2.34,11.41,11.41,0,0,0,8.122,3.364h4.446v14.244a1.747,1.747,0,0,0,3.495,0V90.181l2.029-5.9A2.756,2.756,0,0,0,372.438,81.791Zm-9.609,30.018a7.939,7.939,0,0,1-5.65-2.34,11.41,11.41,0,0,0-8.121-3.364h-5.914V89.889a1.747,1.747,0,0,0-.1-.568l-1.785-5.188h27.893l-1.785,5.188a1.743,1.743,0,0,0-.1.568v21.92Z" transform="translate(-243.701 -61.851)"/>
    <path id="Path_531" data-name="Path 531" d="M373.894,351.018a6.538,6.538,0,1,0,6.538-6.538A6.545,6.545,0,0,0,373.894,351.018Zm6.538-3.043a3.043,3.043,0,1,1-3.043,3.043A3.047,3.047,0,0,1,380.432,347.975Z" transform="translate(-271.638 -264.224)" fill="#2365b1"/>
    <path id="Path_532" data-name="Path 532" d="M404.073,267.541a4.991,4.991,0,1,0-4.991-4.991A5,5,0,0,0,404.073,267.541Zm0-6.487a1.5,1.5,0,1,1-1.5,1.5A1.5,1.5,0,0,1,404.073,261.055Z" transform="translate(-290.958 -197.555)" fill="#2365b1"/>
    <path id="Path_533" data-name="Path 533" d="M413.089,429.334a4.991,4.991,0,1,0-4.991-4.991A5,5,0,0,0,413.089,429.334Zm0-6.487a1.5,1.5,0,1,1-1.5,1.5A1.5,1.5,0,0,1,413.089,422.848Z" transform="translate(-297.874 -321.654)" fill="#2365b1"/>
  </g>
</svg>
