<svg id="development" xmlns="http://www.w3.org/2000/svg" width="112.68" height="112.68" viewBox="0 0 112.68 112.68">
  <g id="Group_376" data-name="Group 376" transform="translate(0.006)">
    <g id="Group_375" data-name="Group 375">
      <path id="Path_566" data-name="Path 566" d="M110.5,0H75.536A2.2,2.2,0,0,0,73.98,3.757l8.235,8.235L54.5,39.71l-25.6-25.6a2.2,2.2,0,0,0-3.113,0L.671,39.226a2.2,2.2,0,1,0,3.112,3.113L27.342,18.78,58,49.439a2.2,2.2,0,1,0,3.112-3.113l-3.5-3.5L85.327,15.1,97.616,27.394,75.28,49.73a2.2,2.2,0,1,0,3.112,3.113l22.336-22.337,8.215,8.215a2.2,2.2,0,0,0,3.757-1.556V2.2A2.2,2.2,0,0,0,110.5,0Zm-2.2,31.851L80.849,4.4H108.3Z" transform="translate(-0.026)" fill="#2365b1"/>
    </g>
  </g>
  <g id="Group_378" data-name="Group 378" transform="translate(69.168 54.533)">
    <g id="Group_377" data-name="Group 377">
      <path id="Path_567" data-name="Path 567" d="M318.047,248.435a2.2,2.2,0,1,0,.645,1.556A2.207,2.207,0,0,0,318.047,248.435Z" transform="translate(-314.29 -247.79)" fill="#2365b1"/>
    </g>
  </g>
  <g id="Group_380" data-name="Group 380" transform="translate(0.005 39.162)">
    <g id="Group_379" data-name="Group 379">
      <path id="Path_568" data-name="Path 568" d="M42.379,197.182,30.451,185.254,34,181.7a2.2,2.2,0,1,0-3.112-3.112L.667,208.813a2.2,2.2,0,1,0,3.112,3.113l23.559-23.559,11.929,11.928a2.2,2.2,0,1,0,3.112-3.113Z" transform="translate(-0.022 -177.945)" fill="#2365b1"/>
    </g>
  </g>
  <g id="Group_382" data-name="Group 382" transform="translate(54.139 80.747)">
    <g id="Group_381" data-name="Group 381">
      <path id="Path_569" data-name="Path 569" d="M248.3,366.9h-.1a2.2,2.2,0,0,0,0,4.4h.087a2.2,2.2,0,0,0,.016-4.4Z" transform="translate(-246 -366.901)" fill="#2365b1"/>
    </g>
  </g>
  <g id="Group_384" data-name="Group 384" transform="translate(0 54.167)">
    <g id="Group_383" data-name="Group 383">
      <path id="Path_570" data-name="Path 570" d="M110.479,300.238h-3.86v-9.862a2.2,2.2,0,0,0-1.669-2.135l-10.229-2.549-3.667-8.848,5.43-9.034a2.2,2.2,0,0,0-.33-2.69l-8.529-8.529a2.2,2.2,0,0,0-2.69-.33l-9.034,5.43-8.848-3.667L64.505,247.8a2.2,2.2,0,0,0-2.135-1.669H50.31a2.2,2.2,0,0,0-2.135,1.669l-2.548,10.229-8.848,3.667-9.034-5.43a2.2,2.2,0,0,0-2.69.33l-8.529,8.529a2.2,2.2,0,0,0-.33,2.69l5.43,9.033-3.667,8.848L7.73,288.24a2.2,2.2,0,0,0-1.669,2.135v9.862H2.2a2.2,2.2,0,0,0,0,4.4H110.479a2.2,2.2,0,0,0,0-4.4Zm-8.262,0H79.725A23.714,23.714,0,0,0,64.8,274.261a2.2,2.2,0,0,0-1.568,4.113,19.313,19.313,0,0,1,12.024,21.864H37.427a19.314,19.314,0,0,1,12.1-21.892,2.2,2.2,0,0,0-1.551-4.119,23.714,23.714,0,0,0-15.019,26.011H10.462V292.1l9.637-2.4a2.2,2.2,0,0,0,1.5-1.293l4.516-10.9a2.2,2.2,0,0,0-.147-1.976l-5.116-8.511,6.1-6.1,8.511,5.116a2.2,2.2,0,0,0,1.976.147l10.9-4.516a2.2,2.2,0,0,0,1.293-1.5l2.4-9.637h8.62l2.4,9.637a2.2,2.2,0,0,0,1.293,1.5l10.9,4.516a2.2,2.2,0,0,0,1.976-.147l8.511-5.116,6.1,6.1-5.116,8.511a2.2,2.2,0,0,0-.147,1.976l4.516,10.9a2.2,2.2,0,0,0,1.5,1.293l9.637,2.4Z" transform="translate(0 -246.127)"/>
    </g>
  </g>
</svg>
