<svg xmlns="http://www.w3.org/2000/svg" width="46.933" height="54.637" viewBox="0 0 46.933 54.637">
  <g id="chronometer" transform="translate(-12.926 -54.557)">
    <path id="Path_366" data-name="Path 366" d="M50.338,16.858l2.324-4.043a.8.8,0,0,0-.3-1.1L49.08,9.829a.8.8,0,0,0-1.1.3l-2.321,4.039a23.278,23.278,0,0,0-6.57-1.752V9.955h1.631a.8.8,0,0,0,.8-.8V5.361a.8.8,0,0,0-.8-.8h-8.66a.8.8,0,0,0-.8.8v3.79a.8.8,0,0,0,.8.8h1.631V12.41a23.278,23.278,0,0,0-6.57,1.752L24.8,10.123a.8.8,0,0,0-1.1-.3l-3.287,1.888a.8.8,0,0,0-.3,1.1l2.324,4.046a23.465,23.465,0,1,0,27.892,0ZM48.976,11.62l1.892,1.089-1.86,3.237q-.919-.587-1.89-1.09ZM32.866,6.165h7.052V8.347H32.866ZM35.3,9.955h2.182v2.323c-.362-.017-.723-.028-1.091-.028s-.729.011-1.091.028ZM21.917,12.709l1.892-1.087,1.858,3.234q-.972.5-1.89,1.09ZM36.392,57.572A21.857,21.857,0,1,1,58.249,35.715,21.857,21.857,0,0,1,36.392,57.572Z" transform="translate(0 50)"/>
    <path id="Path_367" data-name="Path 367" d="M58.37,59.979A18.158,18.158,0,0,0,58.32,41.8a.746.746,0,0,0-.037-.08.769.769,0,0,0-.046-.062,18.352,18.352,0,0,0-6.481-6.447.7.7,0,0,0-.069-.05.739.739,0,0,0-.08-.036,18.156,18.156,0,0,0-18.179.049.819.819,0,0,0-.082.038.743.743,0,0,0-.061.046,18.356,18.356,0,0,0-6.449,6.481.435.435,0,0,0-.085.149,18.157,18.157,0,0,0,.05,18.179.8.8,0,0,0,.037.081c.01.017.025.03.036.046a18.351,18.351,0,0,0,6.489,6.462.785.785,0,0,0,.07.051c.02.011.042.016.063.026a18.161,18.161,0,0,0,18.218-.052c.02-.01.041-.014.06-.025a.687.687,0,0,0,.061-.046,18.355,18.355,0,0,0,6.459-6.5c.012-.018.028-.031.039-.051a.661.661,0,0,0,.036-.08Zm-6.729,4.857-1.033-1.761a.8.8,0,1,0-1.388.813l1.035,1.765a16.5,16.5,0,0,1-6.892,1.876V65.478a.8.8,0,0,0-1.608,0V67.53a16.49,16.49,0,0,1-6.806-1.835l1.025-1.77a.8.8,0,1,0-1.392-.805l-1.023,1.768a16.744,16.744,0,0,1-4.9-4.874l1.763-1.033a.8.8,0,1,0-.813-1.388l-1.765,1.035a16.5,16.5,0,0,1-1.876-6.892h2.051a.8.8,0,1,0,0-1.608H25.966A16.5,16.5,0,0,1,27.8,43.319l1.771,1.024a.8.8,0,1,0,.805-1.392l-1.768-1.023a16.743,16.743,0,0,1,4.873-4.9l1.033,1.763A.8.8,0,1,0,35.9,37.98l-1.035-1.765a16.486,16.486,0,0,1,6.892-1.876V36.39a.8.8,0,0,0,1.608,0V34.339a16.5,16.5,0,0,1,6.808,1.833l-1.026,1.771a.8.8,0,1,0,1.392.805l1.023-1.77a16.744,16.744,0,0,1,4.9,4.875L54.7,42.886a.8.8,0,1,0,.813,1.388l1.766-1.035a16.5,16.5,0,0,1,1.876,6.892H57.1a.8.8,0,0,0,0,1.608h2.051a16.5,16.5,0,0,1-1.834,6.806l-1.77-1.025a.8.8,0,0,0-.805,1.392l1.768,1.023A16.741,16.741,0,0,1,51.641,64.837Z" transform="translate(-6.169 34.782)" fill="#2365b1"/>
    <path id="Path_368" data-name="Path 368" d="M71.805,58.106a.8.8,0,0,0-.8-.8H63.259a3.682,3.682,0,0,0-2.777-2.777V46.783a.8.8,0,1,0-1.608,0v7.741a3.672,3.672,0,1,0,4.385,4.386H71a.8.8,0,0,0,.8-.8ZM59.678,60.17a2.065,2.065,0,1,1,2.064-2.065A2.065,2.065,0,0,1,59.678,60.17Z" transform="translate(-23.286 27.61)" fill="#2365b1"/>
  </g>
</svg>
