<svg xmlns="http://www.w3.org/2000/svg" width="234.597" height="247.533" viewBox="0 0 234.597 247.533">
  <g id="engineer" transform="translate(-13.379)">
    <path id="Path_661" data-name="Path 661" d="M209.78,170.59l-44.118-13.983V137.488A51.32,51.32,0,0,0,182.13,99.8V95.765L186,95.511a11.027,11.027,0,0,0,10.639-10.87V77.389a10.894,10.894,0,0,0-7.252-10.254V59.26c0-14.132-4.78-27.343-13.458-37.2C168.4,13.519,158.583,8.284,148.592,7.39A10.894,10.894,0,0,0,138.292,0H123.063a10.9,10.9,0,0,0-10.3,7.389c-9.991.893-19.809,6.128-27.332,14.671-8.679,9.856-13.458,23.066-13.458,37.2v7.876A10.9,10.9,0,0,0,64.72,77.388V84.64A11.026,11.026,0,0,0,75.359,95.51l3.865.254v4.031a51.321,51.321,0,0,0,16.469,37.692v19.119L51.574,170.589c-20.128,6.379-38.2,14.069-38.2,37.775v39.168h234.6v-14.5h-7.252v7.252H212.31V179.059c18.847,6.463,28.414,13.376,28.414,29.306v2.908h7.252v-2.908c0-23.706-18.068-31.4-38.2-37.775ZM197.807,174.4l7.252,2.3v49.076h-7.252ZM56.3,176.7l7.252-2.3v51.374H56.3Zm0,56.328H70.8V172.1l7.252-2.3v63.223h49v7.252H56.3ZM85.3,173.283l41.748,39.55v12.944H85.3Zm49,39.55,41.748-39.55v52.494H134.3ZM112.185,14.755V38.217h7.252V10.878a3.63,3.63,0,0,1,3.626-3.626h15.229a3.63,3.63,0,0,1,3.626,3.626V38.217h7.252V14.755C165.705,17,182.13,34.313,182.13,59.259v7.252H156.422V62.885a10.89,10.89,0,0,0-10.878-10.878H115.811a10.89,10.89,0,0,0-10.878,10.878v3.626H79.224V59.259C79.224,34.313,95.649,17,112.185,14.755ZM149.17,66.511H112.185V62.885a3.63,3.63,0,0,1,3.626-3.626h29.733a3.63,3.63,0,0,1,3.626,3.626ZM86.476,99.8V96.242l16.43,1.082.476-7.236L75.836,88.274a3.881,3.881,0,0,1-3.863-3.634V77.388A3.63,3.63,0,0,1,75.6,73.762H185.757a3.63,3.63,0,0,1,3.626,3.626V84.64a3.881,3.881,0,0,1-3.863,3.634l-54.842,3.611-20.056-1.32-.476,7.236,20.533,1.352,44.2-2.91V99.8a44.2,44.2,0,1,1-88.4,0Zm44.2,51.454a51.151,51.151,0,0,0,27.732-8.13v15.348c-3.786,7.785-14.56,12.778-27.732,12.778s-23.946-4.993-27.732-12.778V143.119A51.151,51.151,0,0,0,130.677,151.249ZM97.527,163.633c5.684,9.125,18.262,14.863,33.151,14.863s27.467-5.738,33.151-14.863l8.89,2.818-42.04,39.828-42.04-39.828Zm-76.9,44.732c0-15.93,9.566-22.843,28.414-29.306v61.222H20.63ZM134.3,240.281v-7.252h49V169.806l7.252,2.3v60.925h14.5v7.252Z"/>
    <path id="Path_662" data-name="Path 662" d="M483.622,452h7.252v7.252h-7.252Z" transform="translate(-242.898 -233.475)" fill="#2365b1"/>
    <path id="Path_663" data-name="Path 663" d="M309.25,58.678H316.5V65.93H309.25Z" transform="translate(-152.828 -30.309)" fill="#2365b1"/>
    <path id="Path_664" data-name="Path 664" d="M324.25,88.678H331.5V95.93H324.25Z" transform="translate(-160.576 -45.805)" fill="#2365b1"/>
  </g>
</svg>
