<svg xmlns="http://www.w3.org/2000/svg" width="76.493" height="76.495" viewBox="0 0 76.493 76.495">
  <g id="diamond" transform="translate(-0.007)">
    <path id="Path_328" data-name="Path 328" d="M307.492,260a1.494,1.494,0,1,0,1.494,1.494A1.495,1.495,0,0,0,307.492,260Z" transform="translate(-260.275 -221.155)" fill="#2365b1"/>
    <path id="Path_329" data-name="Path 329" d="M.378,137.42l.012.014,0,0,36.753,40.638a1.494,1.494,0,0,0,2.216,0l36.753-40.638,0,0,.012-.014a1.493,1.493,0,0,0,.057-1.9l-.012-.017-11.952-14.94A1.494,1.494,0,0,0,63.055,120h-49.6a1.494,1.494,0,0,0-1.167.561L.333,135.5l-.012.017A1.494,1.494,0,0,0,.378,137.42Zm29.757-14.432H46.372l7.171,11.952H22.964Zm-7.518,14.94H53.89L38.253,173.371Zm34.539,0H71.641L43.36,169.2Zm-37.8,0,13.8,31.27L4.865,137.928ZM71.9,134.94H57.028l-7.171-11.952h12.48ZM14.17,122.988H26.65L19.479,134.94H4.608Z" transform="translate(0 -102.072)" fill="#2365b1"/>
    <path id="Path_330" data-name="Path 330" d="M204.361,260H193.272a1.494,1.494,0,0,0,0,2.988h11.089a1.494,1.494,0,0,0,0-2.988Z" transform="translate(-163.119 -221.155)" fill="#2365b1"/>
    <path id="Path_331" data-name="Path 331" d="M247.492,11.952a1.494,1.494,0,0,0,1.494-1.494V1.494a1.494,1.494,0,0,0-2.988,0v8.964A1.494,1.494,0,0,0,247.492,11.952Z" transform="translate(-209.239)" fill="#2365b1"/>
    <path id="Path_332" data-name="Path 332" d="M308.549,28.526l5.976-5.976a1.494,1.494,0,0,0-2.113-2.113l-5.976,5.976a1.494,1.494,0,0,0,2.113,2.113Z" transform="translate(-260.275 -17.011)" fill="#2365b1"/>
    <path id="Path_333" data-name="Path 333" d="M152.412,28.526a1.494,1.494,0,0,0,2.113-2.113l-5.976-5.976a1.494,1.494,0,0,0-2.113,2.113Z" transform="translate(-124.179 -17.011)" fill="#2365b1"/>
  </g>
</svg>
