<svg xmlns="http://www.w3.org/2000/svg" width="306.857" height="286.799" viewBox="0 0 306.857 286.799">
  <g id="knowledge" transform="translate(0 -16.733)">
    <g id="Group_395" data-name="Group 395" transform="translate(0 16.733)">
      <path id="Path_585" data-name="Path 585" d="M300.863,84.4H278.6v-8.43a5.993,5.993,0,0,0-5.993-5.993H213.081a60.038,60.038,0,0,0-119.3,0H34.246a5.993,5.993,0,0,0-5.993,5.993V84.4H5.993A5.993,5.993,0,0,0,0,90.394V297.539a5.993,5.993,0,0,0,5.993,5.993H203.285a5.993,5.993,0,0,0,0-11.987H159.428v-6.816a69.109,69.109,0,0,1,37.3-10.969h75.876a5.993,5.993,0,0,0,5.993-5.993V96.387H294.87V291.545H256.411a5.993,5.993,0,0,0,0,11.987h44.452a5.993,5.993,0,0,0,5.993-5.993V90.394a5.993,5.993,0,0,0-5.993-5.993ZM266.612,261.769H196.73a81.014,81.014,0,0,0-37.3,9.1V200.2c16.1-1.468,29.248-15.739,29.248-31.925V149.286c0-16.143,5.772-26.492,14.72-39.179a58.206,58.206,0,0,0,9.852-28.143h53.365V261.769ZM149.587,85.286a39.749,39.749,0,0,1-3.431-5.68,8.079,8.079,0,1,1,14.549,0,39.735,39.735,0,0,1-3.435,5.682,52.283,52.283,0,0,0-3.842,6.149,52.165,52.165,0,0,0-3.812-6.111Zm27.1,69.458v13.535c0,10.689-9.376,20.066-20.066,20.066h-6.389c-10.689,0-20.066-9.377-20.066-20.066V154.744ZM153.428,28.72a48.05,48.05,0,0,1,40.046,74.608c-8.165,12.289-15.333,24.384-16.531,39.43H159.419V115.606a39.392,39.392,0,0,1,7.555-23.277,51.775,51.775,0,0,0,4.473-7.4c6.5-13.129-3.459-28.9-18.022-28.9s-24.5,15.776-18.01,28.894a51.744,51.744,0,0,0,4.447,7.369l.03.042a39.4,39.4,0,0,1,7.541,23.258v27.166H129.953c-1.107-13.807-6.7-26.148-14.961-37.148a48.052,48.052,0,0,1,38.437-76.89ZM93.607,81.964c1.061,12.484,6.219,22.933,13.29,33.018,7.243,10.326,11.284,21.056,11.284,33.769v19.528c0,16.185,13.163,30.462,29.26,31.926v70.679a81.252,81.252,0,0,0-37.308-9.115H40.243l0-179.8H93.607ZM11.987,291.546V96.387H28.253V267.762a6.056,6.056,0,0,0,6,6h75.882a69.285,69.285,0,0,1,37.3,10.967v6.818Z" transform="translate(0 -16.733)"/>
      <path id="Path_586" data-name="Path 586" d="M369.793,181.953h19.053a5.993,5.993,0,0,0,0-11.987H369.793a5.993,5.993,0,0,0,0,11.987Z" transform="translate(-145.764 -78.129)" fill="#2365b1"/>
      <path id="Path_587" data-name="Path 587" d="M378.145,234.719h-35.06a5.993,5.993,0,0,0,0,11.987h35.06a5.993,5.993,0,0,0,0-11.987Z" transform="translate(-135.063 -104.074)" fill="#2365b1"/>
      <path id="Path_588" data-name="Path 588" d="M374.907,299.472H335a5.993,5.993,0,0,0,0,11.987h39.9a5.993,5.993,0,1,0,0-11.987Z" transform="translate(-131.825 -130.018)" fill="#2365b1"/>
      <path id="Path_589" data-name="Path 589" d="M104.875,181.953h19.053a5.993,5.993,0,0,0,0-11.987H104.875a5.993,5.993,0,1,0,0,11.987Z" transform="translate(-39.619 -78.129)" fill="#2365b1"/>
      <path id="Path_590" data-name="Path 590" d="M104.875,246.706h35.06a5.993,5.993,0,0,0,0-11.987h-35.06a5.993,5.993,0,1,0,0,11.987Z" transform="translate(-39.619 -104.074)" fill="#2365b1"/>
      <path id="Path_591" data-name="Path 591" d="M104.875,311.459h39.3a5.993,5.993,0,0,0,0-11.987h-39.3a5.993,5.993,0,1,0,0,11.987Z" transform="translate(-39.619 -130.018)" fill="#2365b1"/>
      <path id="Path_592" data-name="Path 592" d="M364.089,364.225H308a5.993,5.993,0,0,0,0,11.987h56.086a5.993,5.993,0,1,0,0-11.987Z" transform="translate(-121.007 -155.963)" fill="#2365b1"/>
      <path id="Path_593" data-name="Path 593" d="M104.875,376.212h56.086a5.993,5.993,0,0,0,0-11.987H104.875a5.993,5.993,0,0,0,0,11.987Z" transform="translate(-39.619 -155.963)" fill="#2365b1"/>
      <path id="Path_594" data-name="Path 594" d="M385.423,479.023a5.99,5.99,0,1,0-2.584,7.5A6.038,6.038,0,0,0,385.423,479.023Z" transform="translate(-149.809 -200.51)" fill="#2365b1"/>
    </g>
  </g>
</svg>
