<svg xmlns="http://www.w3.org/2000/svg" width="89.276" height="52.078" viewBox="0 0 89.276 52.078">
  <g id="visibility" transform="translate(0 -106.662)">
    <g id="Group_167" data-name="Group 167" transform="translate(0 106.662)">
      <g id="Group_166" data-name="Group 166">
        <path id="Path_346" data-name="Path 346" d="M88.945,131.645c-.7-1.023-17.6-24.983-44.307-24.983-22.918,0-43.34,23.822-44.2,24.838a1.867,1.867,0,0,0,0,2.4c.859,1.016,21.281,24.838,44.2,24.838s43.34-23.822,44.2-24.838A1.86,1.86,0,0,0,88.945,131.645ZM44.638,155.021C26.265,155.021,8.8,137.5,4.359,132.7c4.43-4.8,21.88-22.319,40.279-22.319,21.5,0,36.671,17.495,40.376,22.219C80.735,137.247,63.167,155.021,44.638,155.021Z" transform="translate(0 -106.662)"/>
      </g>
    </g>
    <g id="Group_169" data-name="Group 169" transform="translate(29.758 117.822)">
      <g id="Group_168" data-name="Group 168">
        <path id="Path_347" data-name="Path 347" d="M185.541,170.662a14.879,14.879,0,1,0,14.879,14.879A14.894,14.894,0,0,0,185.541,170.662Zm0,26.039a11.16,11.16,0,1,1,11.16-11.16A11.173,11.173,0,0,1,185.541,196.7Z" transform="translate(-170.662 -170.662)" fill="#2365b1"/>
      </g>
    </g>
  </g>
</svg>
