<svg xmlns="http://www.w3.org/2000/svg" width="102.572" height="102.572" viewBox="0 0 102.572 102.572">
  <g id="setting" transform="translate(-16.004 -16.004)">
    <path id="Path_334" data-name="Path 334" d="M33.142,184.869a33.928,33.928,0,0,0,6.269,18.087l2.786-1.982a30.528,30.528,0,0,1-5.632-16.1h3.373V181.45H36.565a30.527,30.527,0,0,1,5.631-16.1l-2.786-1.982a33.928,33.928,0,0,0-6.268,18.087H29.464a6.838,6.838,0,1,0,0,3.419Zm-10.3,1.71a3.419,3.419,0,1,1,3.419-3.419A3.419,3.419,0,0,1,22.842,186.578Z" transform="translate(0 -115.869)"/>
    <path id="Path_335" data-name="Path 335" d="M392.782,176.321a6.851,6.851,0,0,0-6.622,5.129h-3.678a33.929,33.929,0,0,0-6.269-18.087l-2.786,1.982a30.527,30.527,0,0,1,5.632,16.1h-3.373v3.419h3.373a30.527,30.527,0,0,1-5.631,16.1l2.786,1.982a33.928,33.928,0,0,0,6.268-18.087h3.677a6.838,6.838,0,1,0,6.623-8.548Zm0,10.257a3.419,3.419,0,1,1,3.419-3.419A3.419,3.419,0,0,1,392.782,186.578Z" transform="translate(-281.043 -115.869)"/>
    <path id="Path_336" data-name="Path 336" d="M83.746,90.583a6.842,6.842,0,0,0,3.474-.944l7.406,7.406,2.418-2.418-7.406-7.406a6.843,6.843,0,1,0-5.891,3.361ZM81.329,81.33a3.409,3.409,0,1,1-1.006,2.418,3.419,3.419,0,0,1,1.006-2.418Z" transform="translate(-47.886 -47.887)"/>
    <path id="Path_337" data-name="Path 337" d="M358.986,349.315a6.851,6.851,0,0,0-8.309-1.056l-7.406-7.406-2.418,2.418,7.406,7.406a6.838,6.838,0,1,0,10.728-1.362Zm-2.418,7.253a3.418,3.418,0,1,1,0-4.836A3.418,3.418,0,0,1,356.568,356.568Z" transform="translate(-255.43 -255.43)"/>
    <path id="Path_338" data-name="Path 338" d="M97.081,343.271l-2.418-2.418-7.406,7.406a6.84,6.84,0,1,0,2.418,2.418Zm-10.88,13.3a3.418,3.418,0,1,1,0-4.836A3.418,3.418,0,0,1,86.2,356.568Z" transform="translate(-47.924 -255.43)"/>
    <path id="Path_339" data-name="Path 339" d="M340.853,94.643l2.418,2.418,7.406-7.406a6.837,6.837,0,1,0-2.418-2.418Zm10.88-13.3a3.409,3.409,0,1,1-1.006,2.418,3.419,3.419,0,0,1,1.006-2.418Z" transform="translate(-255.43 -47.903)"/>
    <path id="Path_340" data-name="Path 340" d="M202.955,376.217l-1.982-2.786a30.528,30.528,0,0,1-16.1,5.631V375.69H181.45v3.373a30.527,30.527,0,0,1-16.1-5.631l-1.982,2.786a33.928,33.928,0,0,0,18.087,6.268v3.677a6.838,6.838,0,1,0,3.419,0v-3.677a33.928,33.928,0,0,0,18.087-6.268Zm-16.377,16.568a3.419,3.419,0,1,1-3.419-3.419A3.419,3.419,0,0,1,186.578,392.785Z" transform="translate(-115.869 -281.046)"/>
    <path id="Path_341" data-name="Path 341" d="M163.363,39.41l1.982,2.786a30.528,30.528,0,0,1,16.1-5.631v3.373h3.419V36.565a30.527,30.527,0,0,1,16.1,5.631l1.982-2.786a33.928,33.928,0,0,0-18.087-6.268V29.464a6.838,6.838,0,1,0-3.419,0v3.678a33.929,33.929,0,0,0-18.087,6.268ZM179.74,22.842a3.419,3.419,0,1,1,3.419,3.419A3.419,3.419,0,0,1,179.74,22.842Z" transform="translate(-115.869)"/>
    <path id="Path_342" data-name="Path 342" d="M190.159,174.772a1.71,1.71,0,0,0,1.71-1.71V162.805a1.71,1.71,0,0,0-1.71-1.71h-4.7q-.141-.361-.3-.717l3.325-3.325a1.71,1.71,0,0,0,0-2.418l-7.253-7.253a1.71,1.71,0,0,0-2.418,0l-3.325,3.325q-.355-.156-.717-.3v-4.7a1.71,1.71,0,0,0-1.71-1.71H162.805a1.71,1.71,0,0,0-1.71,1.71v4.7q-.361.141-.717.3l-3.325-3.325a1.71,1.71,0,0,0-2.418,0l-7.253,7.253a1.71,1.71,0,0,0,0,2.418l3.325,3.325q-.156.355-.3.717h-4.7A1.71,1.71,0,0,0,144,162.8v10.257a1.71,1.71,0,0,0,1.71,1.71h4.7q.141.361.3.717l-3.325,3.325a1.71,1.71,0,0,0,0,2.418l7.253,7.253a1.71,1.71,0,0,0,2.418,0l3.325-3.325q.355.156.717.3v4.7a1.71,1.71,0,0,0,1.71,1.71h10.257a1.71,1.71,0,0,0,1.71-1.71v-4.7q.361-.141.717-.3l3.325,3.325a1.71,1.71,0,0,0,2.418,0l7.253-7.253a1.71,1.71,0,0,0,0-2.418l-3.325-3.325q.156-.355.3-.717Zm-8.272,2.278,2.973,2.972-4.836,4.836-2.972-2.972a1.71,1.71,0,0,0-2-.306,15.309,15.309,0,0,1-2.5,1.036,1.71,1.71,0,0,0-1.2,1.631v4.2h-6.839v-4.2a1.71,1.71,0,0,0-1.2-1.631,15.314,15.314,0,0,1-2.5-1.036,1.71,1.71,0,0,0-2,.306l-2.972,2.973-4.836-4.836,2.972-2.972a1.71,1.71,0,0,0,.306-2,15.3,15.3,0,0,1-1.036-2.5,1.71,1.71,0,0,0-1.631-1.2h-4.2v-6.838h4.2a1.71,1.71,0,0,0,1.631-1.2,15.3,15.3,0,0,1,1.036-2.5,1.71,1.71,0,0,0-.306-2l-2.973-2.972,4.836-4.836,2.972,2.972a1.71,1.71,0,0,0,2,.306,15.316,15.316,0,0,1,2.5-1.036,1.71,1.71,0,0,0,1.2-1.631v-4.2h6.838v4.2a1.71,1.71,0,0,0,1.2,1.631,15.307,15.307,0,0,1,2.5,1.036,1.71,1.71,0,0,0,2-.306l2.973-2.973,4.836,4.836-2.972,2.972a1.71,1.71,0,0,0-.306,2,15.315,15.315,0,0,1,1.036,2.5,1.71,1.71,0,0,0,1.631,1.2h4.2v6.838h-4.2a1.71,1.71,0,0,0-1.631,1.2,15.313,15.313,0,0,1-1.036,2.5,1.71,1.71,0,0,0,.306,2Z" transform="translate(-100.644 -100.643)" fill="#2365b1"/>
    <path id="Path_343" data-name="Path 343" d="M211.967,200a11.967,11.967,0,1,0,11.967,11.967A11.967,11.967,0,0,0,211.967,200Zm0,20.515a8.548,8.548,0,1,1,8.548-8.548A8.548,8.548,0,0,1,211.967,220.515Z" transform="translate(-144.676 -144.676)" fill="#2365b1"/>
    <path id="Path_344" data-name="Path 344" d="M230.971,239.973l-2.21-2.21-2.418,2.418,3.419,3.419a1.71,1.71,0,0,0,2.418,0l6.838-6.838-2.418-2.418Z" transform="translate(-165.39 -171.68)" fill="#2365b1"/>
  </g>
</svg>
