<svg xmlns="http://www.w3.org/2000/svg" width="183.163" height="184.69" viewBox="0 0 183.163 184.69">
  <g id="Analysis-Stats-Mobile_Phone-Computer-Software" data-name="Analysis-Stats-Mobile Phone-Computer-Software" transform="translate(-2 -2)">
    <path id="Path_446" data-name="Path 446" d="M17,18H47.527v6.105H17Z" transform="translate(30.791 32.844)" fill="#2365b1"/>
    <path id="Path_447" data-name="Path 447" d="M17,14H47.527v6.105H17Z" transform="translate(30.791 24.633)" fill="#2365b1"/>
    <path id="Path_448" data-name="Path 448" d="M17,10h6.105v6.105H17Z" transform="translate(30.791 16.422)" fill="#2365b1"/>
    <path id="Path_449" data-name="Path 449" d="M21,10H39.316v6.105H21Z" transform="translate(39.002 16.422)" fill="#2365b1"/>
    <path id="Path_450" data-name="Path 450" d="M50.369,48.738A21.369,21.369,0,1,0,29,27.369,21.369,21.369,0,0,0,50.369,48.738Zm0-6.105a15.166,15.166,0,0,1-8.4-2.541l9.665-9.67H65.327A15.291,15.291,0,0,1,50.369,42.633ZM65.327,24.316H53.422V12.411A15.312,15.312,0,0,1,65.327,24.316ZM47.316,12.411V26.1L37.648,35.77a15.236,15.236,0,0,1,9.668-23.359Z" transform="translate(55.423 8.211)" fill="#2365b1"/>
    <path id="Path_451" data-name="Path 451" d="M17,34H47.527v6.105H17Z" transform="translate(30.791 65.687)" fill="#2365b1"/>
    <path id="Path_452" data-name="Path 452" d="M17,30H47.527v6.105H17Z" transform="translate(30.791 57.476)" fill="#2365b1"/>
    <path id="Path_453" data-name="Path 453" d="M17,26h6.105v6.105H17Z" transform="translate(30.791 49.265)" fill="#2365b1"/>
    <path id="Path_454" data-name="Path 454" d="M21,26H39.316v6.105H21Z" transform="translate(39.002 49.265)" fill="#2365b1"/>
    <path id="Path_455" data-name="Path 455" d="M176.005,148.531a8.957,8.957,0,0,0-4.487,1.191,9.158,9.158,0,0,0-7.723-4.243,9.341,9.341,0,0,0-3.053.58v-3.633h6.105a6.124,6.124,0,0,0,6.105-6.105v-116a6.124,6.124,0,0,0-6.105-6.105H139.372V8.105A6.124,6.124,0,0,0,133.267,2H41.685A6.124,6.124,0,0,0,35.58,8.105v6.105H8.105A6.124,6.124,0,0,0,2,20.316v116a6.124,6.124,0,0,0,6.105,6.105H62.658l-2.29,18.316H47.791a6.124,6.124,0,0,0-6.105,6.105v12.211a6.124,6.124,0,0,0,6.105,6.105h78.424l.885,1.526,5.281-3.053-13.157-22.773a3.083,3.083,0,0,1,1.13-4.182,3.022,3.022,0,0,1,4.152,1.13l6.105,10.562a3.12,3.12,0,0,0,3.45,1.435,3.053,3.053,0,0,0,2.259-2.961V136.32a3.053,3.053,0,0,1,6.105,0v24.422a3.053,3.053,0,0,0,6.105,0v-9.158a3.053,3.053,0,1,1,6.105,0v9.158a3.053,3.053,0,0,0,6.105,0v-6.105a3.053,3.053,0,1,1,6.105,0v6.105a3.053,3.053,0,1,0,6.105,0v-3.053a3.053,3.053,0,0,1,6.105,0v27.475h6.105V157.689A9.186,9.186,0,0,0,176.005,148.531ZM145.478,75.265a9.189,9.189,0,0,1,8.609,6.105H94.131a9.189,9.189,0,0,1,8.609-6.105ZM8.105,136.32v-116H35.58v6.105H20.316a6.124,6.124,0,0,0-6.105,6.105V111.9A6.124,6.124,0,0,0,20.316,118h67.16V136.32ZM35.58,32.527V111.9H20.316V32.527Zm51.9,109.9v18.316H66.5l2.29-18.316ZM47.791,179.058V166.847H87.476V169.9a15.032,15.032,0,0,0,3.144,9.158ZM87.476,84.423V111.9H41.685V8.105h91.582V69.16H102.74A15.264,15.264,0,0,0,87.476,84.423ZM122.7,179.058H102.74a9.186,9.186,0,0,1-9.158-9.158v-9.158h19.263a9.365,9.365,0,0,0,1.1,3.175Zm-1.648-48.844a15.2,15.2,0,0,1-8.395-2.534L122.308,118h13.707a15.316,15.316,0,0,1-14.958,12.211Zm-12.73-6.869A15.242,15.242,0,0,1,118,99.992V113.7ZM124.109,111.9V99.992A15.294,15.294,0,0,1,136.014,111.9Zm30.527,31.107a9.341,9.341,0,0,0-3.053-.58,9.158,9.158,0,0,0-3.053.519V136.32a9.186,9.186,0,0,0-9.158-9.158,8.706,8.706,0,0,0-.885.092,21.174,21.174,0,0,0,3.938-12.3,21.418,21.418,0,1,0-11.906,19.141,8.924,8.924,0,0,0-.305,2.228v18.316h-.488A9.158,9.158,0,0,0,117.3,151.4a8.887,8.887,0,0,0-3.236,3.236H93.582V87.476h61.054Zm0-70.7a15.032,15.032,0,0,0-9.158-3.144h-6.105V32.527h15.264Zm0-45.882H139.372V20.316h27.474v116h-6.105V32.527A6.124,6.124,0,0,0,154.636,26.422Z"/>
  </g>
</svg>
