<svg xmlns="http://www.w3.org/2000/svg" width="187.944" height="166.145" viewBox="0 0 187.944 166.145">
  <g id="heart" transform="translate(0 -29.693)">
    <g id="Group_346" data-name="Group 346" transform="translate(0 29.693)">
      <path id="Path_456" data-name="Path 456" d="M175.136,29.693H12.808A12.823,12.823,0,0,0,0,42.5V165.285a12.822,12.822,0,0,0,12.808,12.808H63.427l-6.875,10.4H22.038a3.671,3.671,0,1,0,0,7.342H165.906a3.671,3.671,0,0,0,0-7.342H131.392l-6.875-10.4h50.619a12.822,12.822,0,0,0,12.808-12.808V42.5a12.823,12.823,0,0,0-12.808-12.808ZM122.592,188.5H65.352l6.876-10.4h43.49Zm58.01-23.211a5.472,5.472,0,0,1-5.466,5.466H12.808a5.472,5.472,0,0,1-5.466-5.466V42.5a5.473,5.473,0,0,1,5.466-5.467H175.136A5.473,5.473,0,0,1,180.6,42.5Z" transform="translate(0 -29.693)"/>
      <path id="Path_457" data-name="Path 457" d="M428.493,367.359H416.707a3.671,3.671,0,0,0,0,7.342h11.786a3.671,3.671,0,0,0,0-7.342Z" transform="translate(-261.42 -243.409)" fill="#2365b1"/>
      <path id="Path_458" data-name="Path 458" d="M348.555,367.359H336.77a3.671,3.671,0,0,0,0,7.342h11.785a3.671,3.671,0,0,0,0-7.342Z" transform="translate(-210.826 -243.409)" fill="#2365b1"/>
      <path id="Path_459" data-name="Path 459" d="M268.617,367.359H256.831a3.671,3.671,0,1,0,0,7.342h11.785a3.671,3.671,0,0,0,0-7.342Z" transform="translate(-160.231 -243.409)" fill="#2365b1"/>
      <path id="Path_460" data-name="Path 460" d="M87.931,367.359h-37.4a3.671,3.671,0,0,0,0,7.342h37.4a3.671,3.671,0,0,0,0-7.342Z" transform="translate(-29.657 -243.409)" fill="#2365b1"/>
      <path id="Path_461" data-name="Path 461" d="M196.73,76.688H50.528a3.671,3.671,0,0,0-3.671,3.671v90.749a3.671,3.671,0,0,0,3.671,3.671h146.2a3.671,3.671,0,0,0,3.671-3.671V144.163a3.671,3.671,0,0,0-7.342,0v23.274H54.2V84.03h138.86v26.945a3.671,3.671,0,0,0,7.342,0V80.359A3.671,3.671,0,0,0,196.73,76.688Z" transform="translate(-29.657 -59.437)" fill="#2365b1"/>
      <path id="Path_462" data-name="Path 462" d="M451.866,207.122a3.67,3.67,0,1,0-.585,4.753A3.713,3.713,0,0,0,451.866,207.122Z" transform="translate(-281.74 -140.961)" fill="#2365b1"/>
      <path id="Path_463" data-name="Path 463" d="M188.377,158.352l-6.166-13.627a3.671,3.671,0,0,0-3.32-2.158h-.024a3.671,3.671,0,0,0-3.324,2.114l-10.654,22.75-6.8-13.344a3.671,3.671,0,0,0-6.725.427l-8.2,22.814-12.094-43.709a3.671,3.671,0,0,0-6.653-.962L107.638,159.58h-16.7a3.671,3.671,0,0,0,0,7.342h18.741a3.671,3.671,0,0,0,3.115-1.729l13.433-21.556,12.947,46.791a3.671,3.671,0,0,0,3.4,2.689l.139,0a3.67,3.67,0,0,0,3.453-2.43l9.236-25.707,6.359,12.472a3.671,3.671,0,0,0,6.595-.111l10.457-22.328,3.855,8.521a3.67,3.67,0,0,0,3.344,2.158h21.462a3.671,3.671,0,0,0,0-7.342H188.377Z" transform="translate(-55.231 -93.766)" fill="#2365b1"/>
    </g>
  </g>
</svg>
