<svg xmlns="http://www.w3.org/2000/svg" width="241.704" height="241.706" viewBox="0 0 241.704 241.706">
  <g id="laboratory" transform="translate(-0.002)">
    <g id="Group_307" data-name="Group 307" transform="translate(0.002 55.391)">
      <g id="Group_306" data-name="Group 306">
        <path id="Path_437" data-name="Path 437" d="M137.075,265.882,85.607,186.32V122.369a5.036,5.036,0,0,0-5.036-5.036H55.393a5.036,5.036,0,0,0-5.036,5.036v64.092L3.432,266.234a24.825,24.825,0,0,0,21.4,37.414h91.7a24.478,24.478,0,0,0,20.55-37.767Zm-20.55,27.7h-91.7a14.754,14.754,0,0,1-12.74-22.237l47.647-80.956a5.035,5.035,0,0,0,.695-2.553V127.4H75.536v60.427a5.034,5.034,0,0,0,.806,2.734l52.269,80.785a14.4,14.4,0,0,1-12.086,22.227Z" transform="translate(-0.003 -117.333)"/>
      </g>
    </g>
    <g id="Group_309" data-name="Group 309" transform="translate(20.405 141.298)">
      <g id="Group_308" data-name="Group 308">
        <path id="Path_438" data-name="Path 438" d="M95.355,304.408l-8.681-5.1L43.917,371.985a5.035,5.035,0,0,0,4.346,7.588H83.245V369.5H57.06Z" transform="translate(-43.222 -299.307)" fill="#2365b1"/>
      </g>
    </g>
    <g id="Group_311" data-name="Group 311" transform="translate(130.926 115.817)">
      <g id="Group_310" data-name="Group 310">
        <path id="Path_439" data-name="Path 439" d="M375.961,245.333H297.477a20.143,20.143,0,0,0-20.142,20.142v80.569a25.208,25.208,0,0,0,25.178,25.178h45.32a25.208,25.208,0,0,0,25.178-25.178V277.631l11.551-11.547a12.161,12.161,0,0,0-8.6-20.751Zm1.476,13.631-13.022,13.022a5.036,5.036,0,0,0-1.475,3.56v70.5a15.107,15.107,0,0,1-15.107,15.107h-45.32a15.107,15.107,0,0,1-15.107-15.107V265.475A10.071,10.071,0,0,1,297.477,255.4h78.484a2.084,2.084,0,0,1,1.475,3.56Z" transform="translate(-277.335 -245.333)"/>
      </g>
    </g>
    <g id="Group_313" data-name="Group 313" transform="translate(181.282 146.031)">
      <g id="Group_312" data-name="Group 312">
        <path id="Path_440" data-name="Path 440" d="M399.109,309.333V374.8H384v10.071h20.142a5.036,5.036,0,0,0,5.036-5.036v-70.5Z" transform="translate(-384.002 -309.333)" fill="#2365b1"/>
      </g>
    </g>
    <g id="Group_315" data-name="Group 315" transform="translate(78.053)">
      <g id="Group_314" data-name="Group 314">
        <path id="Path_441" data-name="Path 441" d="M228.279,72.935V5.036A5.035,5.035,0,0,0,223.244,0H187.995a5.036,5.036,0,0,0-5.036,5.036v69.33a85.478,85.478,0,0,0-17.624,7.689l5.036,8.717a75.466,75.466,0,0,1,18.883-7.719,5.036,5.036,0,0,0,3.777-4.879v-68.1h25.178V77a5.036,5.036,0,0,0,4.094,4.945A75.6,75.6,0,0,1,267.083,108.9l7.85-6.3A85.731,85.731,0,0,0,228.279,72.935Z" transform="translate(-165.335)"/>
      </g>
    </g>
    <g id="Group_317" data-name="Group 317" transform="translate(196.388 70.498)">
      <g id="Group_316" data-name="Group 316">
        <path id="Path_442" data-name="Path 442" d="M433.626,149.333a17.624,17.624,0,1,0,17.624,17.624A17.624,17.624,0,0,0,433.626,149.333Zm0,25.178a7.553,7.553,0,1,1,7.553-7.553A7.553,7.553,0,0,1,433.626,174.511Z" transform="translate(-416.002 -149.333)" fill="#2365b1"/>
      </g>
    </g>
    <g id="Group_319" data-name="Group 319" transform="translate(181.282 35.249)">
      <g id="Group_318" data-name="Group 318">
        <path id="Path_443" data-name="Path 443" d="M399.109,74.667a15.107,15.107,0,1,0,15.107,15.107A15.107,15.107,0,0,0,399.109,74.667Zm0,20.142a5.035,5.035,0,1,1,5.036-5.035A5.036,5.036,0,0,1,399.109,94.809Z" transform="translate(-384.002 -74.667)" fill="#2365b1"/>
      </g>
    </g>
    <g id="Group_321" data-name="Group 321" transform="translate(0.002 40.284)">
      <g id="Group_320" data-name="Group 320">
        <path id="Path_444" data-name="Path 444" d="M17.626,85.333a17.624,17.624,0,1,0,17.624,17.625A17.624,17.624,0,0,0,17.626,85.333Zm0,25.178a7.553,7.553,0,1,1,7.553-7.553A7.553,7.553,0,0,1,17.626,110.511Z" transform="translate(-0.002 -85.333)" fill="#2365b1"/>
      </g>
    </g>
    <g id="Group_323" data-name="Group 323" transform="translate(25.18 5.036)">
      <g id="Group_322" data-name="Group 322">
        <path id="Path_445" data-name="Path 445" d="M68.442,10.667A15.107,15.107,0,1,0,83.548,25.774,15.107,15.107,0,0,0,68.442,10.667Zm0,20.142a5.035,5.035,0,1,1,5.036-5.035A5.036,5.036,0,0,1,68.442,30.809Z" transform="translate(-53.335 -10.667)" fill="#2365b1"/>
      </g>
    </g>
    <g id="Group_325" data-name="Group 325" transform="translate(151.068 146.031)">
      <g id="Group_324" data-name="Group 324">
        <rect id="Rectangle_147" data-name="Rectangle 147" width="15.107" height="10.071" fill="#2365b1"/>
      </g>
    </g>
    <g id="Group_327" data-name="Group 327" transform="translate(151.068 166.173)">
      <g id="Group_326" data-name="Group 326">
        <rect id="Rectangle_148" data-name="Rectangle 148" width="10.071" height="10.071" fill="#2365b1"/>
      </g>
    </g>
    <g id="Group_329" data-name="Group 329" transform="translate(151.068 186.315)">
      <g id="Group_328" data-name="Group 328">
        <rect id="Rectangle_149" data-name="Rectangle 149" width="15.107" height="10.071" fill="#2365b1"/>
      </g>
    </g>
    <g id="Group_331" data-name="Group 331" transform="translate(151.068 206.457)">
      <g id="Group_330" data-name="Group 330">
        <rect id="Rectangle_150" data-name="Rectangle 150" width="10.071" height="10.071" fill="#2365b1"/>
      </g>
    </g>
    <g id="Group_333" data-name="Group 333" transform="translate(10.073 90.64)">
      <g id="Group_332" data-name="Group 332">
        <rect id="Rectangle_151" data-name="Rectangle 151" width="10.071" height="10.071" fill="#2365b1"/>
      </g>
    </g>
    <g id="Group_335" data-name="Group 335" transform="translate(25.18 115.817)">
      <g id="Group_334" data-name="Group 334">
        <rect id="Rectangle_152" data-name="Rectangle 152" width="10.071" height="10.071" fill="#2365b1"/>
      </g>
    </g>
    <g id="Group_337" data-name="Group 337" transform="translate(110.784 135.96)">
      <g id="Group_336" data-name="Group 336">
        <rect id="Rectangle_153" data-name="Rectangle 153" width="10.071" height="10.071" fill="#2365b1"/>
      </g>
    </g>
    <g id="Group_339" data-name="Group 339" transform="translate(100.713 115.817)">
      <g id="Group_338" data-name="Group 338">
        <rect id="Rectangle_154" data-name="Rectangle 154" width="10.071" height="10.071" fill="#2365b1"/>
      </g>
    </g>
    <g id="Group_341" data-name="Group 341" transform="translate(95.677 95.676)">
      <g id="Group_340" data-name="Group 340">
        <rect id="Rectangle_155" data-name="Rectangle 155" width="10.071" height="10.071" fill="#2365b1"/>
      </g>
    </g>
    <g id="Group_343" data-name="Group 343" transform="translate(100.713 206.457)">
      <g id="Group_342" data-name="Group 342">
        <rect id="Rectangle_156" data-name="Rectangle 156" width="10.071" height="10.071" fill="#2365b1"/>
      </g>
    </g>
    <g id="Group_345" data-name="Group 345" transform="translate(85.606 186.315)">
      <g id="Group_344" data-name="Group 344">
        <rect id="Rectangle_157" data-name="Rectangle 157" width="10.071" height="10.071" fill="#2365b1"/>
      </g>
    </g>
  </g>
</svg>
