<svg xmlns="http://www.w3.org/2000/svg" width="201.461" height="200.675" viewBox="0 0 201.461 200.675">
  <g id="helper" transform="translate(0 0)">
    <path id="Path_464" data-name="Path 464" d="M15.9,129.886a17.7,17.7,0,0,1,5.745-34.451H51.152V73.794a17.6,17.6,0,0,1,1.674-7.506A21.656,21.656,0,1,1,78.5,58.951a17.7,17.7,0,0,1,8.069,14.843v37.765a44.874,44.874,0,0,1,6.516,1.348l3.177-19.063A21.574,21.574,0,0,1,117.6,75.761h2.241a17.734,17.734,0,0,1,16.691-11.8h21.641V54.12a21.578,21.578,0,0,1,6.811-15.739,21.641,21.641,0,1,1,29.66,0,21.578,21.578,0,0,1,6.811,15.739v59.022a5.9,5.9,0,0,1-.991,3.274l-6.878,10.318v57.235a17.707,17.707,0,1,1-35.413,0V99.37H136.537a17.734,17.734,0,0,1-16.691-11.8H117.6a9.807,9.807,0,0,0-9.7,8.22l-3.671,22.025a45.245,45.245,0,1,1-68.5,44,9.749,9.749,0,0,0-.322,2.48v19.674a17.707,17.707,0,1,1-35.413,0V164.294a45.163,45.163,0,0,1,15.9-34.408ZM179.82,12.8a9.837,9.837,0,1,0,9.837,9.837A9.848,9.848,0,0,0,179.82,12.8Zm-9.837,171.164a5.9,5.9,0,1,0,11.8,0V124.946a5.9,5.9,0,0,1,.991-3.274l6.878-10.318V96.995a21.5,21.5,0,0,1-9.837,2.375h-9.837Zm-33.446-96.4H179.82a9.848,9.848,0,0,0,9.837-9.837V54.12a9.837,9.837,0,1,0-19.674,0V69.859a5.9,5.9,0,0,1-5.9,5.9H136.537a5.9,5.9,0,0,0,0,11.8ZM60.989,36.413a9.837,9.837,0,1,0,9.837,9.837A9.848,9.848,0,0,0,60.989,36.413ZM74.761,73.794a5.9,5.9,0,1,0-11.8,0v27.544a5.9,5.9,0,0,1-5.9,5.9H21.641a5.9,5.9,0,0,0,0,11.8H55.192a44.981,44.981,0,0,1,19.569-7.485Zm5.9,116.077a33.446,33.446,0,1,0-33.446-33.446A33.484,33.484,0,0,0,80.663,189.87Zm-68.859-5.9a5.9,5.9,0,0,0,11.8,0V164.294a21.736,21.736,0,0,1,13.468-20.035,45.08,45.08,0,0,1,6.237-13.35A33.485,33.485,0,0,0,11.8,164.294Z" transform="translate(0 -1)"/>
    <path id="Path_465" data-name="Path 465" d="M273.641,341A21.641,21.641,0,1,1,252,362.641,21.666,21.666,0,0,1,273.641,341Zm0,31.478a9.837,9.837,0,1,0-9.837-9.837A9.848,9.848,0,0,0,273.641,372.478Z" transform="translate(-192.978 -207.217)" fill="#2365b1"/>
  </g>
</svg>
