<svg xmlns="http://www.w3.org/2000/svg" width="202.782" height="175.47" viewBox="0 0 202.782 175.47">
  <g id="first-aid-kit_2_" data-name="first-aid-kit (2)" transform="translate(0 -26.184)">
    <g id="Group_358" data-name="Group 358" transform="translate(59.666 84.615)">
      <g id="Group_357" data-name="Group 357" transform="translate(0 0)">
        <path id="Path_491" data-name="Path 491" d="M191.633,161.5H174.609V144.475a6.217,6.217,0,0,0-6.175-6.259H143.858a6.217,6.217,0,0,0-6.217,6.217v17.024H120.659a6.217,6.217,0,0,0-6.259,6.175v24.576a6.217,6.217,0,0,0,6.217,6.217h17.024v16.982a6.217,6.217,0,0,0,6.175,6.259H168.35a6.217,6.217,0,0,0,6.217-6.217h0V198.425h17.024a6.217,6.217,0,0,0,6.259-6.175V167.715A6.217,6.217,0,0,0,191.633,161.5ZM189.5,190.08H170.436a4.173,4.173,0,0,0-4.172,4.172v19.068H145.986V194.252a4.173,4.173,0,0,0-4.172-4.172H122.745V169.843h19.068a4.173,4.173,0,0,0,4.172-4.173v-19.11h20.237v19.068a4.173,4.173,0,0,0,4.172,4.172H189.5Z" transform="translate(-114.4 -138.216)" fill="#2365b1"/>
      </g>
    </g>
    <g id="Group_360" data-name="Group 360" transform="translate(0 26.184)">
      <g id="Group_359" data-name="Group 359">
        <path id="Path_492" data-name="Path 492" d="M173.992,53.405H139.611V38.718a12.142,12.142,0,0,0-11.743-12.527q-.512-.016-1.024.01h-50.9A12.143,12.143,0,0,0,63.181,37.694q-.027.512-.01,1.024v14.6H28.79C15.522,53.322,0,60.874,0,82.112v90.751c0,21.238,15.522,28.79,28.79,28.79h145.2c13.268,0,28.79-7.552,28.79-28.79V82.2C202.783,60.957,187.3,53.405,173.992,53.405ZM71.516,38.718c0-1.21,0-4.465,4.465-4.465h50.863c4.465,0,4.465,3.213,4.465,4.465v14.6H71.516ZM194.438,172.863c0,18.442-14.27,20.445-20.445,20.445H28.79c-6.134,0-20.445-2-20.445-20.445V82.2c0-18.442,14.27-20.445,20.445-20.445h145.2c6.134,0,20.445,2,20.445,20.445Z" transform="translate(0 -26.184)"/>
      </g>
    </g>
  </g>
</svg>
