<svg id="Group_117" data-name="Group 117" xmlns="http://www.w3.org/2000/svg" width="37.213" height="30.44" viewBox="0 0 37.213 30.44">
  <path id="Path_197" data-name="Path 197" d="M37.21,75.506l-.025-.572a.53.53,0,1,0-1.058.046l.025.577v.01a.381.381,0,0,1-.379.406h-3.1V66.2l.8.282a3.64,3.64,0,0,1,2.421,3.2l.088,2.009a.53.53,0,0,0,1.058-.046l-.088-2.014v-.01a4.7,4.7,0,0,0-3.126-4.138l-1.479-.523-.026-.011L27.9,63.386h0l-.049-.015-.025-.006a.864.864,0,0,0-.824.224l-.137.137L25.7,63.141V62.119a6.044,6.044,0,0,0,.985-.854l.011-.011a5.976,5.976,0,0,0,1.513-2.875c.005-.027.01-.054.015-.081s.009-.056.013-.084q.01-.07.018-.14c0-.011,0-.022,0-.034.005-.051.01-.1.013-.152h.22a1.239,1.239,0,0,0,1.238-1.238V55.262a1.236,1.236,0,0,0-.016-.195.989.989,0,0,0,.123-.478V54a.985.985,0,0,0-.706-.948v-.084q0-.076,0-.151a5.649,5.649,0,0,0-1.561-3.767,5.521,5.521,0,0,0-3.292-1.675c-.019-.034-.04-.067-.061-.1l-.017-.024q-.032-.047-.068-.091l-.012-.016q-.044-.053-.093-.1l0,0q-.048-.047-.1-.09l-.011-.01a1.525,1.525,0,0,0-.226-.153l-.022-.012c-.04-.021-.08-.041-.122-.059l-.007,0c-.038-.016-.078-.03-.118-.043l-.033-.01c-.042-.013-.085-.024-.129-.033h-.007c-.042-.008-.084-.015-.127-.019l-.035,0c-.046,0-.092-.007-.138-.007h-.5c-.047,0-.092,0-.138.007l-.035,0c-.043,0-.085.011-.127.019h-.008c-.044.009-.086.021-.129.033l-.033.01c-.04.013-.079.027-.118.043l-.007,0c-.042.018-.082.038-.122.059l-.022.012c-.039.022-.077.044-.114.069h0c-.039.026-.076.054-.112.084l-.012.01q-.051.043-.1.09l0,0q-.049.049-.093.1l-.013.016q-.036.044-.068.091l-.017.025c-.021.032-.042.065-.061.1a5.521,5.521,0,0,0-3.292,1.675,5.635,5.635,0,0,0-1.11,1.687L13.65,47.861a1.64,1.64,0,0,0-2.242,0L8.08,51v-.366a.786.786,0,0,0-.786-.785h0l-2.494,0a.787.787,0,0,0-.785.788l.007,4.186-3.5,3.3a1.638,1.638,0,0,0,1.074,2.829h.05a1.626,1.626,0,0,0,1.122-.446l1.187-1.118L3.952,63.1a.53.53,0,0,0,.53.529h0a.53.53,0,0,0,.529-.53L5,58.4,12.533,51.3l3.025,2.833v.452c0,.031,0,.061,0,.091,0,.006,0,.011,0,.017a.983.983,0,0,0,.117.372,1.239,1.239,0,0,0-.016.193v1.388A1.239,1.239,0,0,0,16.9,57.887h.219c0,.052.008.1.014.158,0,.015,0,.03.005.045q.008.066.017.131c0,.026.008.053.012.079s.011.063.017.094q.018.1.041.2l.008.036c.011.044.022.087.034.131l.007.026a5.513,5.513,0,0,0,.392,1.005l.005.01q.1.2.213.386l.03.05.062.1.049.075.055.084q.05.074.1.147l.046.062.079.105.044.057q.055.07.112.138l.016.02c.042.05.084.1.127.147l.046.051.092.1.052.054.113.114.084.08.071.066.087.078.047.041a5.758,5.758,0,0,0,.491.38v1.011l-1.165.585-.137-.137a.861.861,0,0,0-.477-.241l-.059-.007-.06,0h-.06a.855.855,0,0,0-.164.025l-.031.007-.05.015-1.988.7L15.5,60.322a.882.882,0,0,0-.881-.88h0l-4.142.006a.881.881,0,0,0-.88.883L9.6,66.812l0,0-.042.05-.067.08L9.451,67c-.021.027-.043.054-.064.081l-.039.053c-.02.028-.041.055-.061.083l-.037.055-.057.085-.035.057c-.018.029-.037.058-.054.087l-.033.058c-.017.03-.035.059-.051.089l-.032.06c-.016.03-.032.06-.047.09l-.031.064c-.014.03-.029.059-.043.089s-.019.044-.029.066-.027.06-.039.09-.018.046-.027.069-.024.06-.035.09-.017.048-.025.072-.022.06-.032.09-.015.049-.023.074-.019.06-.028.09-.014.05-.021.076-.017.06-.025.09-.012.051-.018.077-.015.061-.021.091-.01.053-.016.079-.012.06-.018.091-.009.055-.013.083-.01.059-.014.089-.007.057-.01.085-.008.059-.011.089-.005.058-.007.087-.005.054-.007.081l-3.4,0a.022.022,0,0,1-.022-.022l0-3.194a.53.53,0,0,0-.53-.529h0a.53.53,0,0,0-.529.53l0,3.194a1.082,1.082,0,0,0,1.081,1.079h0l3.355,0-.212,4.843a1.44,1.44,0,0,0,1.437,1.526h26.15a1.44,1.44,0,0,0,1.437-1.526ZM28.673,56.649a.179.179,0,0,1-.179.179h-.212V55.574h.39ZM22,48.006,22,48a.464.464,0,0,1,.107-.2l0,0a.463.463,0,0,1,.051-.047l.007,0a.464.464,0,0,1,.122-.067l.01,0a.466.466,0,0,1,.065-.017l.012,0a.464.464,0,0,1,.071-.006h.5a.464.464,0,0,1,.071.006l.012,0a.458.458,0,0,1,.065.017l.01,0a.463.463,0,0,1,.122.066l.007.005a.466.466,0,0,1,.051.047l0,0a.464.464,0,0,1,.107.2l0,.005a.462.462,0,0,1,.014.11V49.9a.465.465,0,0,1-.465.465h-.5a.465.465,0,0,1-.465-.465V48.116h0A.465.465,0,0,1,22,48.006Zm-14.977,2.9,0,1.088L5.077,53.828l0-2.919Zm9.341,1.008c-.01.054-.02.109-.029.164,0,.031-.009.061-.013.092-.007.05-.014.1-.02.15s-.008.084-.012.126-.008.079-.011.119q-.009.125-.012.25,0,.075,0,.151v.083h0a.971.971,0,0,0-.094.034l-.03.013c-.027.012-.054.025-.079.04l-.012.006L12.894,50.19a.53.53,0,0,0-.725,0L2.034,59.739a.578.578,0,1,1-.793-.842L12.133,48.635a.579.579,0,0,1,.792,0l3.445,3.228C16.368,51.879,16.365,51.9,16.362,51.914Zm.541,4.914a.179.179,0,0,1-.179-.179V55.574h.39v1.254Zm-.286-2.478v-.279h.177a.53.53,0,0,0,.53-.53v-.576q0-.062,0-.124c0-.081.007-.161.013-.242,0-.021,0-.041.006-.062.006-.062.012-.124.02-.186,0-.02.006-.04.009-.061q.014-.1.033-.2l.008-.044c.016-.08.034-.159.054-.238h0a4.579,4.579,0,0,1,1.126-2.032,4.477,4.477,0,0,1,2.332-1.3V49.9a1.525,1.525,0,0,0,1.524,1.524h.5A1.525,1.525,0,0,0,24.472,49.9V48.479a4.477,4.477,0,0,1,2.332,1.3,4.592,4.592,0,0,1,1.268,3.062q0,.062,0,.124v.576a.53.53,0,0,0,.53.53h.177v.279Zm1.576,3.625,0-.024q-.007-.067-.011-.133V57.8c0-.051,0-.1,0-.152V55.574h9.05v2.06c0,.051,0,.1,0,.153V57.8q0,.068-.012.136l0,.024c-.006.05-.013.1-.021.15h0a5.13,5.13,0,0,1-1.992,3.067l-.021.016-.1.066-.052.036-.028.018-.1.062,0,0a3.3,3.3,0,0,1-.91.391l-.055.014a3.849,3.849,0,0,1-2.523-.006,3.294,3.294,0,0,1-.9-.389h0l-.035-.022-.1-.066-.025-.017A5.077,5.077,0,0,1,18.193,57.975Zm2.021,6.09a.833.833,0,0,0,.539-.783v-.6a3.914,3.914,0,0,0,.39.121,6.166,6.166,0,0,0,1.528.246,6.175,6.175,0,0,0,1.51-.239l.055-.014a3.92,3.92,0,0,0,.405-.125v.607a.833.833,0,0,0,.539.783l.849.426-.03.024-.071.052q-.067.049-.135.095l-.076.051q-.069.046-.14.089l-.072.044q-.086.051-.175.1l-.041.023q-.109.058-.221.111l-.06.027c-.055.025-.111.05-.166.074l-.081.033-.153.059-.085.031-.161.053-.077.024q-.106.032-.214.059l-.026.007c-.081.02-.162.038-.244.054l-.071.013c-.059.011-.118.021-.177.03l-.088.013-.166.02-.09.009c-.059.005-.118.009-.177.013l-.077,0c-.085,0-.17.006-.256.006s-.171,0-.256-.006l-.077,0c-.059,0-.118-.008-.177-.013l-.09-.009-.166-.02-.088-.012c-.059-.009-.118-.019-.177-.031L21.6,65.5c-.082-.016-.163-.034-.244-.055l-.025-.007q-.108-.027-.215-.059l-.077-.024-.161-.053-.084-.03-.154-.059-.08-.033c-.057-.024-.113-.049-.168-.074l-.059-.027q-.112-.053-.222-.112l-.039-.022q-.09-.049-.177-.1L19.82,64.8q-.072-.044-.142-.09l-.075-.05q-.069-.047-.137-.1l-.069-.05-.031-.024ZM9.623,75.973a.381.381,0,0,1-.379-.406v-.01L9.5,69.682a3.645,3.645,0,0,1,1-2.278l.017-.016a3.66,3.66,0,0,1,1.2-.826l.028-.012c.06-.025.12-.048.181-.07l.8-.282v9.776Zm3.426-11.015-1.479.523q-.083.029-.165.062l-.051.021-.04.017-.07.029-.076.035-.082.038-.076.038-.079.04-.071.039-.08.044-.069.042-.05.03-.008-5.411L14.44,60.5l.006,3.962-1.37.484Zm.732,11.015V65.823l3.5-1.238.405,1.989a2.807,2.807,0,0,0,1.25,1.807l3.23,2.032v5.559ZM19.5,67.485a1.743,1.743,0,0,1-.776-1.122l-.25-1.228.059.051A6.519,6.519,0,0,0,22.7,66.667a6.676,6.676,0,0,0,1.256-.119,6.485,6.485,0,0,0,2.966-1.413l-.25,1.228a1.743,1.743,0,0,1-.776,1.122L22.7,69.5Zm12.113,8.488H23.228V70.414l3.23-2.032a2.806,2.806,0,0,0,1.25-1.807l.405-1.99,3.5,1.238Z" transform="translate(0 -46.592)" fill="#2365b1"/>
</svg>
