<svg xmlns="http://www.w3.org/2000/svg" width="29.041" height="29.037" viewBox="0 0 29.041 29.037">
  <g id="online-shopping" transform="translate(0 -0.028)">
    <path id="Path_236" data-name="Path 236" d="M29.039,5.926c0-.106.13.315-1.631-4.967A1.359,1.359,0,0,0,26.116.028H2.924A1.359,1.359,0,0,0,1.632.959C-.213,6.494.049,5.707.024,5.785A4.4,4.4,0,0,0,0,6.834a3.165,3.165,0,0,0,.907,2.22v13.66a1.817,1.817,0,0,0,1.815,1.815H9.447l-.3,1.815H8.508a1.249,1.249,0,0,0-1.248,1.248v1.021a.454.454,0,0,0,.454.454H21.326a.454.454,0,0,0,.454-.454V27.591a1.249,1.249,0,0,0-1.248-1.248H19.9l-.3-1.815h6.724a1.817,1.817,0,0,0,1.815-1.815V9.053a3.165,3.165,0,0,0,.907-2.22V5.926ZM26.546,1.246l1.409,4.227H23.525L22.769.935h3.347a.453.453,0,0,1,.43.31ZM27.224,9.7V19.991H1.816V9.7a3.151,3.151,0,0,0,.907.274V18.63a.454.454,0,0,0,.454.454H25.863a.454.454,0,0,0,.454-.454V9.977A3.151,3.151,0,0,0,27.224,9.7ZM.909,6.38H5.446v.454a2.269,2.269,0,1,1-4.537,0ZM11.3.935l-.378,4.537H6.435L7.191.935Zm5.52,0L17.2,5.473H11.837L12.215.935Zm5.024,0L22.6,5.473H18.113L17.735.935ZM14.52,9.1A2.725,2.725,0,0,1,11.8,6.38h5.444A2.725,2.725,0,0,1,14.52,9.1ZM6.353,6.38H10.89v.454a2.269,2.269,0,1,1-4.537,0Zm19.056,11.8H3.631v-8.2A3.182,3.182,0,0,0,5.9,8.468a3.175,3.175,0,0,0,5.54-.171,3.627,3.627,0,0,0,6.161,0,3.175,3.175,0,0,0,5.54.171,3.182,3.182,0,0,0,2.269,1.509v8.2ZM20.418,9.1A2.271,2.271,0,0,1,18.15,6.834V6.38h4.537v.454A2.271,2.271,0,0,1,20.418,9.1ZM2.493,1.246a.453.453,0,0,1,.43-.31H6.271L5.515,5.473H1.084ZM20.872,27.591v.567H8.168v-.567a.341.341,0,0,1,.34-.34H20.532A.341.341,0,0,1,20.872,27.591Zm-1.9-1.248h-8.91l.3-1.815h8.305Zm8.249-3.63a.908.908,0,0,1-.907.907H2.723a.908.908,0,0,1-.907-.907V20.9H27.224Zm.907-15.88a2.269,2.269,0,1,1-4.537,0V6.38h4.537Z" transform="translate(0)" fill="#2365b1"/>
    <path id="Path_237" data-name="Path 237" d="M240.473,200.028a.454.454,0,0,0,0,.907H250a.454.454,0,1,0,0-.907Z" transform="translate(-226.407 -188.657)" fill="#2365b1"/>
    <path id="Path_238" data-name="Path 238" d="M250,240.028h-9.528a.454.454,0,0,0,0,.907H250a.454.454,0,0,0,0-.907Z" transform="translate(-226.407 -226.389)" fill="#2365b1"/>
    <path id="Path_239" data-name="Path 239" d="M246.825,280.028h-6.352a.454.454,0,0,0,0,.907h6.352a.454.454,0,1,0,0-.907Z" transform="translate(-226.407 -264.12)" fill="#2365b1"/>
    <path id="Path_240" data-name="Path 240" d="M101.919,201.841h-1.007l-.368-1.471a.454.454,0,1,0-.88.22l.313,1.251h-1.56l.313-1.251a.454.454,0,1,0-.88-.22l-.368,1.471H96.475a.454.454,0,1,0,0,.907h.069l.391,2.343a.454.454,0,0,0,.448.379h3.63a.454.454,0,0,0,.448-.379l.391-2.343h.069a.454.454,0,1,0,0-.907Zm-1.292,2.722H97.766l-.3-1.815h3.466Z" transform="translate(-90.575 -188.656)" fill="#2365b1"/>
    <path id="Path_241" data-name="Path 241" d="M248.021,384.635a.454.454,0,1,0,.671-.551A.454.454,0,0,0,248.021,384.635Z" transform="translate(-233.921 -362.202)" fill="#2365b1"/>
  </g>
</svg>
