<svg xmlns="http://www.w3.org/2000/svg" width="34.688" height="34.852" viewBox="0 0 34.688 34.852">
  <g id="healthcare-covid19-coronavirus-hand-hearth" transform="translate(-2.24 -2.199)">
    <path id="Path_296" data-name="Path 296" d="M32.576,11.331H30.828V9.583A.583.583,0,0,0,30.245,9H27.914a.583.583,0,0,0-.583.583v1.748H25.583a.583.583,0,0,0-.583.583v2.331a.583.583,0,0,0,.583.583h1.748v1.748a.583.583,0,0,0,.583.583h2.331a.583.583,0,0,0,.583-.583V14.828h1.748a.583.583,0,0,0,.583-.583V11.914A.583.583,0,0,0,32.576,11.331Zm-.583,2.331H30.245a.583.583,0,0,0-.583.583v1.748H28.5V14.245a.583.583,0,0,0-.583-.583H26.166V12.5h1.748a.583.583,0,0,0,.583-.583V10.166h1.166v1.748a.583.583,0,0,0,.583.583h1.748Z" transform="translate(-9.496 -2.838)" fill="#2365b1"/>
    <path id="Path_297" data-name="Path 297" d="M48.578,16.477a2.669,2.669,0,0,0,.017-.309,2.343,2.343,0,0,0-1.853-2.279A2.373,2.373,0,0,0,44,15.621L41.439,23a.95.95,0,0,0-.111.052L36.176,26.07a5.255,5.255,0,0,0-2.593,4.522v5.49a.583.583,0,0,0-.583.583v4.662a.583.583,0,0,0,.583.583h8.159a.583.583,0,0,0,.583-.583V36.665a.583.583,0,0,0-.583-.583V34.8a1.771,1.771,0,0,1,.583-1.305l3.94-3.5a2.874,2.874,0,0,0,.886-1.428l2.529-9.459a2.3,2.3,0,0,0,.082-.606,2.342,2.342,0,0,0-1.183-2.022Zm-3.462-.513a1.231,1.231,0,0,1,1.387-.932,1.166,1.166,0,0,1,.927,1.136v.012a2.389,2.389,0,0,0-2.267,1.783l-1.626,5.018a2.448,2.448,0,0,0-.781-.221Zm-3.957,24.78H34.166v-3.5h6.994Zm7.4-21.942L46.02,28.267a1.737,1.737,0,0,1-.525.851l-3.946,3.5a2.947,2.947,0,0,0-.973,2.18v1.282H34.748v-5.49a4.11,4.11,0,0,1,2.016-3.52l5.146-3.013a1.166,1.166,0,0,1,1.6.425,1.2,1.2,0,0,1,.117.886,1.166,1.166,0,0,1-.548.705l-3.339,1.929a.583.583,0,0,0,.583,1.008l3.339-1.929a2.3,2.3,0,0,0,1.09-1.416,2.335,2.335,0,0,0-.233-1.766l-.035-.052,1.8-5.554a1.231,1.231,0,0,1,1.387-.932A1.166,1.166,0,0,1,48.6,18.5,1,1,0,0,1,48.555,18.8Z" transform="translate(-12.833 -4.86)" fill="#2365b1"/>
    <path id="Path_298" data-name="Path 298" d="M18.418,36.084v-5.49a5.255,5.255,0,0,0-2.593-4.522l-5.152-3.025c-.035-.017-.076-.029-.111-.047L8.015,15.663a2.394,2.394,0,0,0-2.757-1.772A2.343,2.343,0,0,0,3.406,16.17a2.668,2.668,0,0,0,.017.309A2.342,2.342,0,0,0,2.24,18.5a2.577,2.577,0,0,0,.076.606L4.851,28.56a2.865,2.865,0,0,0,.886,1.434l3.934,3.5a1.755,1.755,0,0,1,.589,1.305v1.282a.583.583,0,0,0-.583.583v4.662a.583.583,0,0,0,.583.583h8.159A.583.583,0,0,0,19,41.329V36.667A.583.583,0,0,0,18.418,36.084ZM4.571,16.17a1.166,1.166,0,0,1,.921-1.136,1.259,1.259,0,0,1,1.41.973l2.343,6.755a2.448,2.448,0,0,0-.781.221L6.85,17.994a2.418,2.418,0,0,0-2.279-1.812Zm5.875,16.452-3.94-3.5a1.728,1.728,0,0,1-.525-.857L3.441,18.8a1.236,1.236,0,0,1-.035-.3,1.166,1.166,0,0,1,.921-1.136,1.25,1.25,0,0,1,1.4.962L7.52,23.851l-.035.052a2.335,2.335,0,0,0-.233,1.766,2.3,2.3,0,0,0,1.09,1.416l3.339,1.929a.583.583,0,0,0,.583-1.008L8.925,26.077a1.166,1.166,0,0,1-.548-.705,1.2,1.2,0,0,1,.117-.886,1.166,1.166,0,0,1,1.591-.431l5.152,3.019a4.11,4.11,0,0,1,2.016,3.52v5.49H11.425V34.8A2.931,2.931,0,0,0,10.446,32.622Zm7.39,8.124H10.842v-3.5h6.994Z" transform="translate(0 -4.861)" fill="#2365b1"/>
    <path id="Path_299" data-name="Path 299" d="M33.124,3.908a5.824,5.824,0,0,0-8.244,0h0a5.827,5.827,0,1,0-8.244,8.237l7.833,7.833a.583.583,0,0,0,.824,0l7.833-7.833a5.831,5.831,0,0,0,0-8.238ZM24.879,18.743l-7.421-7.421a4.662,4.662,0,0,1,3.3-7.957,4.613,4.613,0,0,1,3.295,1.368l.414.414a.583.583,0,0,0,.824,0l.415-.415A4.661,4.661,0,0,1,32.3,11.321Z" transform="translate(-5.295 0)" fill="#2365b1"/>
  </g>
</svg>
