<svg xmlns="http://www.w3.org/2000/svg" width="32.986" height="33.529" viewBox="0 0 32.986 33.529">
  <g id="around" transform="translate(-4.147 0)">
    <g id="Group_98" data-name="Group 98" transform="translate(4.147 0)">
      <g id="Group_97" data-name="Group 97" transform="translate(0 0)">
        <path id="Path_187" data-name="Path 187" d="M36.372,11.564A16.488,16.488,0,0,0,4.9,21.415l1.066-.334a15.371,15.371,0,1,1,1.773,3.773l-.937.608a16.545,16.545,0,0,0,13.866,7.511,16.482,16.482,0,0,0,15.7-21.408Z" transform="translate(-4.147 0)" fill="#2365b1"/>
      </g>
    </g>
    <g id="Group_100" data-name="Group 100" transform="translate(10.299 5.05)">
      <g id="Group_99" data-name="Group 99" transform="translate(0)">
        <path id="Path_188" data-name="Path 188" d="M105.192,79.887l.321-1.07-5.585-1.676a.558.558,0,0,0-.555.14L98.255,78.4a.559.559,0,0,0,.168.905l5.027,2.234.454-1.021-4.283-1.9.306-.306Z" transform="translate(-98.092 -77.117)" fill="#2365b1"/>
      </g>
    </g>
    <g id="Group_102" data-name="Group 102" transform="translate(10.299 3.934)">
      <g id="Group_101" data-name="Group 101">
        <path id="Path_189" data-name="Path 189" d="M110.383,60.631a.558.558,0,0,0-.559-.559h0a4.571,4.571,0,0,0-3.253,1.348l-4.736,4.736-1.928-.482a.559.559,0,0,0-.531.147l-1.117,1.117a.558.558,0,0,0,.107.874l2.673,1.6,1.6,2.673a.558.558,0,0,0,.411.267.547.547,0,0,0,.068,0,.563.563,0,0,0,.4-.163l1.117-1.117a.56.56,0,0,0,.147-.531l-.481-1.925,4.812-4.764A4.608,4.608,0,0,0,110.383,60.631Zm-7.1,7.422a.559.559,0,0,0-.149.532l.482,1.928-.388.388-1.308-2.179a.556.556,0,0,0-.192-.192l-2.179-1.308.388-.388,1.928.482a.559.559,0,0,0,.531-.147l4.96-4.96a3.455,3.455,0,0,1,1.862-.969,3.444,3.444,0,0,1-.908,1.836Z" transform="translate(-98.094 -60.072)" fill="#2365b1"/>
      </g>
    </g>
    <g id="Group_104" data-name="Group 104" transform="translate(17.047 8.802)">
      <g id="Group_103" data-name="Group 103">
        <path id="Path_190" data-name="Path 190" d="M205.538,140.061l-1.676-5.658-1.071.317,1.574,5.316-.339.3-1.862-4.32-1.026.442,2.167,5.027a.559.559,0,0,0,.391.324.573.573,0,0,0,.122.013.557.557,0,0,0,.369-.14l1.184-1.044A.559.559,0,0,0,205.538,140.061Z" transform="translate(-201.138 -134.403)" fill="#2365b1"/>
      </g>
    </g>
    <g id="Group_106" data-name="Group 106" transform="translate(4.174 13.624)">
      <g id="Group_105" data-name="Group 105" transform="translate(0)">
        <path id="Path_191" data-name="Path 191" d="M15.176,225.216c-3.978,1.885-7.1,2.129-8.559.668-2.532-2.532.218-9.89,6.4-17.115l-.849-.726c-6.777,7.924-9.384,15.586-6.338,18.631a4.821,4.821,0,0,0,3.542,1.274,15.289,15.289,0,0,0,6.286-1.723Z" transform="translate(-4.565 -208.043)" fill="#2365b1"/>
      </g>
    </g>
    <g id="Group_108" data-name="Group 108" transform="translate(23.146 15.663)">
      <g id="Group_107" data-name="Group 107">
        <path id="Path_192" data-name="Path 192" d="M304.814,242.819a.559.559,0,0,0-.493-.295h-1.889l-1.521-3.042a.559.559,0,0,0-.5-.309h-5.585a.558.558,0,0,0-.559.559V244.2a.558.558,0,0,0,.559.559H296.5V250.9a.558.558,0,0,0,.559.559h2.793a.559.559,0,0,0,.4-.164l2.234-2.234a.556.556,0,0,0,.164-.395V246.6l2.14-3.21A.559.559,0,0,0,304.814,242.819Zm-3.192,3.3a.562.562,0,0,0-.094.31v2l-1.907,1.907h-2V244.2a.558.558,0,0,0-.559-.559h-1.676V240.29h4.682l1.521,3.042a.559.559,0,0,0,.5.309h1.191Z" transform="translate(-294.267 -239.173)" fill="#2365b1"/>
      </g>
    </g>
    <g id="Group_110" data-name="Group 110" transform="translate(24.263 6.168)">
      <g id="Group_109" data-name="Group 109">
        <path id="Path_193" data-name="Path 193" d="M321.146,102.557l-2.073-3.628a.559.559,0,0,0-.485-.282h-3.351a.559.559,0,0,0-.465.249l-.951,1.427h-1.377V97.53h2.793a.557.557,0,0,0,.395-.164l2.07-2.07h2.561V94.179h-2.793a.557.557,0,0,0-.395.164l-2.07,2.07h-3.12a.558.558,0,0,0-.559.559v3.91a.558.558,0,0,0,.559.559h2.234a.559.559,0,0,0,.465-.249l.951-1.427h2.728l2.073,3.628a.559.559,0,0,0,.485.282h2.234v-1.117Z" transform="translate(-311.327 -94.179)" fill="#2365b1"/>
      </g>
    </g>
    <g id="Group_112" data-name="Group 112" transform="translate(11.975 18.455)">
      <g id="Group_111" data-name="Group 111">
        <path id="Path_194" data-name="Path 194" d="M132.065,283.495h-3.12l-1.512-1.512a.557.557,0,0,0-.395-.164h-2.793a.558.558,0,0,0-.559.559v3.91a.558.558,0,0,0,.559.559h2.234v5.585a.559.559,0,0,0,.894.447l2.234-1.676a.559.559,0,0,0,.223-.447v-1.407l2.583-2.066a.559.559,0,0,0,.209-.436v-2.793A.558.558,0,0,0,132.065,283.495Zm-.559,3.083-2.583,2.066a.559.559,0,0,0-.209.436v1.4l-1.117.838v-5.027a.558.558,0,0,0-.559-.559H124.8v-2.793h2l1.512,1.512a.557.557,0,0,0,.395.164h2.793Z" transform="translate(-123.687 -281.819)" fill="#2365b1"/>
      </g>
    </g>
    <g id="Group_114" data-name="Group 114" transform="translate(4.714 8.96)">
      <g id="Group_113" data-name="Group 113" transform="translate(0)">
        <path id="Path_195" data-name="Path 195" d="M17.2,139.889,15.521,137.1a.558.558,0,0,0-.479-.271h-.559v1.117h.242l1.289,2.148-1.367,1.367a.557.557,0,0,0-.164.395v1.676H12.808v1.117h2.234a.559.559,0,0,0,.559-.559v-2l1.512-1.512A.559.559,0,0,0,17.2,139.889Z" transform="translate(-12.808 -136.825)" fill="#2365b1"/>
      </g>
    </g>
    <g id="Group_116" data-name="Group 116" transform="translate(14.518 0.582)">
      <g id="Group_115" data-name="Group 115">
        <path id="Path_196" data-name="Path 196" d="M169.472,8.889V9.57l-1.811.453a.568.568,0,0,0-.174.077l-1.406.937-3.061-1.531-.5,1,3.351,1.676a.559.559,0,0,0,.559-.035l1.6-1.063,2.141-.535a.559.559,0,0,0,.423-.542V8.889Z" transform="translate(-162.519 -8.889)" fill="#2365b1"/>
      </g>
    </g>
  </g>
</svg>
