<svg xmlns="http://www.w3.org/2000/svg" width="36.453" height="27.736" viewBox="0 0 36.453 27.736">
  <g id="graduation-cap_1_" data-name="graduation-cap (1)" transform="translate(0 -41.75)">
    <g id="Group_121" data-name="Group 121" transform="translate(0 41.75)">
      <path id="Path_300" data-name="Path 300" d="M35.242,49.318l-14.531-7.1a5.951,5.951,0,0,0-4.635,0l-14.865,7.1A1.791,1.791,0,0,0,0,50.9c0,.376.167,1.044,1.211,1.587l1.211.585v6.681a2.046,2.046,0,0,0-1.294,1.879A2.073,2.073,0,0,0,2.38,63.515L.5,69.486H5.762L3.883,63.515a2.023,2.023,0,0,0-.042-3.758V53.786l2.213,1.086v8.685a.673.673,0,0,0,.125.376,15.165,15.165,0,0,0,12.026,5.554A15.079,15.079,0,0,0,30.19,63.933a.673.673,0,0,0,.125-.376V54.914l4.927-2.422A1.791,1.791,0,0,0,36.453,50.9,1.867,1.867,0,0,0,35.242,49.318Zm-6.263,14.03a13.963,13.963,0,0,1-10.773,4.844A13.963,13.963,0,0,1,7.433,63.348V55.456l8.643,4.134a5.631,5.631,0,0,0,2.3.459,5.084,5.084,0,0,0,2.338-.5l8.268-4.05Zm5.679-12.026-5.011,2.464a.48.48,0,0,0-.459.251l-9.061,4.384a4.636,4.636,0,0,1-3.507,0L5.47,53.076l12.819-1.5a.65.65,0,0,0-.125-1.294L3.3,52.032l-1.5-.71a.842.842,0,0,1-.459-.376c0-.042.084-.209.459-.376l14.865-7.14a4.314,4.314,0,0,1,1.712-.334,4.233,4.233,0,0,1,1.754.334l14.531,7.1c.376.167.459.334.459.418A1.148,1.148,0,0,1,34.657,51.323Z" transform="translate(0 -41.75)" fill="#2365b1"/>
    </g>
  </g>
</svg>
