<svg xmlns="http://www.w3.org/2000/svg" xmlns:xlink="http://www.w3.org/1999/xlink" width="43.182" height="43.182" viewBox="0 0 43.182 43.182">
  <defs>
    <linearGradient id="linear-gradient" x1="0.084" y1="0.916" x2="0.916" y2="0.084" gradientUnits="objectBoundingBox">
      <stop offset="0" stop-color="#ffd600"/>
      <stop offset="0.5" stop-color="#ff0100"/>
      <stop offset="1" stop-color="#d800b9"/>
    </linearGradient>
    <linearGradient id="linear-gradient-2" x1="0.146" y1="0.854" x2="0.854" y2="0.146" gradientUnits="objectBoundingBox">
      <stop offset="0" stop-color="#ff6400"/>
      <stop offset="0.5" stop-color="#ff0100"/>
      <stop offset="1" stop-color="#fd0056"/>
    </linearGradient>
    <linearGradient id="linear-gradient-3" x1="0.146" y1="0.854" x2="0.854" y2="0.146" gradientUnits="objectBoundingBox">
      <stop offset="0" stop-color="#f30072"/>
      <stop offset="1" stop-color="#e50097"/>
    </linearGradient>
  </defs>
  <g id="instagram_1_" data-name="instagram (1)" transform="translate(0 0)">
    <path id="Path_324" data-name="Path 324" d="M43.052,12.689a15.851,15.851,0,0,0-1-5.241,10.582,10.582,0,0,0-2.49-3.824,10.585,10.585,0,0,0-3.824-2.491,15.848,15.848,0,0,0-5.241-1C28.19.025,27.455,0,21.591,0s-6.6.025-8.9.13a15.853,15.853,0,0,0-5.241,1,10.582,10.582,0,0,0-3.824,2.49A10.584,10.584,0,0,0,1.133,7.448a15.85,15.85,0,0,0-1,5.241c-.105,2.3-.13,3.038-.13,8.9s.025,6.6.13,8.9a15.847,15.847,0,0,0,1,5.241,10.581,10.581,0,0,0,2.49,3.824,10.579,10.579,0,0,0,3.824,2.49,15.843,15.843,0,0,0,5.241,1c2.3.105,3.038.13,8.9.13s6.6-.025,8.9-.13a15.845,15.845,0,0,0,5.241-1,11.038,11.038,0,0,0,6.314-6.314,15.846,15.846,0,0,0,1-5.241c.1-2.3.13-3.038.13-8.9s-.025-6.6-.13-8.9ZM39.166,30.316a11.946,11.946,0,0,1-.743,4.009,7.15,7.15,0,0,1-4.1,4.1,11.946,11.946,0,0,1-4.009.743c-2.276.1-2.959.126-8.725.126s-6.448-.022-8.725-.126a11.95,11.95,0,0,1-4.009-.743,6.691,6.691,0,0,1-2.482-1.615,6.689,6.689,0,0,1-1.615-2.482,11.946,11.946,0,0,1-.743-4.009c-.1-2.277-.126-2.959-.126-8.725s.022-6.448.126-8.725a11.955,11.955,0,0,1,.743-4.009A6.694,6.694,0,0,1,6.374,6.374,6.685,6.685,0,0,1,8.857,4.76a11.944,11.944,0,0,1,4.009-.744c2.277-.1,2.959-.126,8.725-.126h0c5.765,0,6.448.022,8.725.126a11.948,11.948,0,0,1,4.009.743,6.694,6.694,0,0,1,2.482,1.615,6.685,6.685,0,0,1,1.615,2.483,11.935,11.935,0,0,1,.744,4.009c.1,2.277.126,2.959.126,8.725s-.022,6.448-.126,8.725Zm0,0" transform="translate(0 0)" fill="url(#linear-gradient)"/>
    <path id="Path_325" data-name="Path 325" d="M135.626,124.539a11.087,11.087,0,1,0,11.087,11.087A11.087,11.087,0,0,0,135.626,124.539Zm0,18.284a7.2,7.2,0,1,1,7.2-7.2A7.2,7.2,0,0,1,135.626,142.823Zm0,0" transform="translate(-114.035 -114.035)" fill="url(#linear-gradient-2)"/>
    <path id="Path_326" data-name="Path 326" d="M367.112,91.216a2.591,2.591,0,1,1-2.591-2.591A2.591,2.591,0,0,1,367.112,91.216Zm0,0" transform="translate(-331.404 -81.151)" fill="url(#linear-gradient-3)"/>
  </g>
</svg>
