<svg id="Page-1" xmlns="http://www.w3.org/2000/svg" width="55.63" height="55.627" viewBox="0 0 55.63 55.627">
  <g id="ic-technology-ionic" transform="translate(0)">
    <path id="Combined-Shape" d="M27.812,0A27.5,27.5,0,0,1,40.562,3.1h0l.518.269-.454.378A8.7,8.7,0,0,0,38.061,7.11h0l-.155.378-.356-.17A22.736,22.736,0,1,0,48.792,19.126h0l-.151-.378.378-.136a8.7,8.7,0,0,0,3.485-2.4h0l.378-.439.242.53,0-.034A27.813,27.813,0,1,1,27.812,0Zm0,15.15A12.675,12.675,0,1,1,15.14,27.825,12.69,12.69,0,0,1,27.815,15.15Zm18.2-10.424A5.774,5.774,0,1,1,40.241,10.5,5.774,5.774,0,0,1,46.014,4.726Z" transform="translate(0 0)" fill="#252b33"/>
  </g>
</svg>
