<svg xmlns="http://www.w3.org/2000/svg" width="41.082" height="41.082" viewBox="0 0 41.082 41.082">
  <path id="linkedin" d="M37.366,0H3.716A3.716,3.716,0,0,0,0,3.716v33.65a3.716,3.716,0,0,0,3.716,3.716h33.65a3.716,3.716,0,0,0,3.716-3.716V3.716A3.716,3.716,0,0,0,37.366,0ZM12.713,35.473a1.081,1.081,0,0,1-1.081,1.081h-4.6a1.081,1.081,0,0,1-1.081-1.081v-19.3a1.081,1.081,0,0,1,1.081-1.081h4.6a1.081,1.081,0,0,1,1.081,1.081Zm-3.383-22.2A4.373,4.373,0,1,1,13.7,8.9,4.373,4.373,0,0,1,9.329,13.274ZM36.771,35.56a.994.994,0,0,1-.994.994h-4.94a.994.994,0,0,1-.994-.994V26.508c0-1.35.4-5.917-3.529-5.917-3.044,0-3.662,3.126-3.786,4.529V35.56a.994.994,0,0,1-.994.994H16.755a.994.994,0,0,1-.994-.994V16.088a.994.994,0,0,1,.994-.994h4.778a.994.994,0,0,1,.994.994v1.684c1.129-1.694,2.807-3,6.379-3,7.91,0,7.865,7.39,7.865,11.45v9.34Z" fill="#0077b7"/>
</svg>
