<svg xmlns="http://www.w3.org/2000/svg" width="12.993" height="17.587" viewBox="0 0 12.993 17.587">
  <g id="pin_1_" data-name="pin (1)" transform="translate(-48.08)">
    <g id="Group_55" data-name="Group 55" transform="translate(48.08)">
      <g id="Group_54" data-name="Group 54">
        <path id="Path_126" data-name="Path 126" d="M54.577,0a6.5,6.5,0,0,0-6.5,6.5A7.5,7.5,0,0,0,48.631,9a10.476,10.476,0,0,0,.751,1.4l4.454,6.749a.847.847,0,0,0,1.48,0l4.455-6.75A10.435,10.435,0,0,0,60.522,9a7.494,7.494,0,0,0,.551-2.5A6.5,6.5,0,0,0,54.577,0Zm5.241,8.7a9.6,9.6,0,0,1-.684,1.28l-4.455,6.75c-.088.133-.116.133-.2,0L50.02,9.981A9.605,9.605,0,0,1,49.336,8.7a6.8,6.8,0,0,1-.491-2.2,5.732,5.732,0,0,1,11.464,0A6.809,6.809,0,0,1,59.818,8.7Z" transform="translate(-48.08 0)" fill="#2365b1"/>
        <path id="Path_127" data-name="Path 127" d="M115.519,64.008a3.439,3.439,0,1,0,3.439,3.439A3.443,3.443,0,0,0,115.519,64.008Zm0,6.114a2.675,2.675,0,1,1,2.675-2.675A2.678,2.678,0,0,1,115.519,70.122Z" transform="translate(-109.023 -60.95)" fill="#2365b1"/>
      </g>
    </g>
  </g>
</svg>
