<svg xmlns="http://www.w3.org/2000/svg" width="215.98" height="177.661" viewBox="0 0 215.98 177.661">
  <g id="computer" transform="translate(-8 -56)">
    <path id="Path_571" data-name="Path 571" d="M210.046,56H21.934A13.952,13.952,0,0,0,8,69.934V188.375a13.952,13.952,0,0,0,13.934,13.934h71.8l-4.646,13.934H77.671a3.484,3.484,0,0,0-3.484,3.484v6.967H42.836a3.484,3.484,0,1,0,0,6.967H196.112a3.484,3.484,0,1,0,0-6.967H157.793v-6.967a3.484,3.484,0,0,0-3.484-3.484H142.888l-4.646-13.934h71.8a13.953,13.953,0,0,0,13.934-13.934V69.934A13.953,13.953,0,0,0,210.046,56Zm-59.22,167.211v3.484H81.155v-3.484Zm-54.387-6.967,4.646-13.934H130.9l4.646,13.934Zm120.575-27.868a6.976,6.976,0,0,1-6.967,6.967H21.934a6.976,6.976,0,0,1-6.967-6.967v-6.967H217.013ZM67.072,143.089l-1.306,31.352H61.708L60.4,143.089Zm-6.192-6.967,2.325-13.934h1.062l2.325,13.934Zm2.857-20.9c-3.775,0-6.967-4.786-6.967-10.451,0-3.575,3.649-8.77,6.958-12.432,2.983,3.309,6.976,8.6,6.976,12.432C70.7,110.435,67.512,115.22,63.737,115.22Zm37.91-6.967.409.823v2.661H88.122v-2.661l.409-.823Zm-9.632-6.967,3.074-6.144,3.074,6.144ZM102.056,118.7v55.3a3.594,3.594,0,0,0,.03.435h-14a3.6,3.6,0,0,0,.03-.435V118.7Zm31.352-13.934h10.451v6.967h-3.484a3.484,3.484,0,1,0,0,6.967h3.484v6.967H133.408a3.484,3.484,0,1,0,0,6.967h10.451v6.967h-3.484a3.484,3.484,0,0,0,0,6.967h3.484v6.967H133.408a3.484,3.484,0,0,0,0,6.967h10.451v13.934H119.474V90.836h24.385V97.8H133.408a3.484,3.484,0,0,0,0,6.967Zm41.8,41.8v27.433a3.593,3.593,0,0,0,.03.435h-14a3.6,3.6,0,0,0,.031-.435V146.572Zm-13.934-6.967v-2.661l6.967-13.934,6.967,13.934v2.661Zm55.737,34.836H182.147a3.593,3.593,0,0,0,.03-.435V136.122a3.518,3.518,0,0,0-.366-1.559l-10.451-20.9a3.487,3.487,0,0,0-6.236,0l-10.451,20.9a3.519,3.519,0,0,0-.366,1.559v37.884a3.593,3.593,0,0,0,.03.435h-3.514V87.352a3.484,3.484,0,0,0-3.484-3.484H115.99a3.484,3.484,0,0,0-3.484,3.484v87.089h-3.514a3.6,3.6,0,0,0,.03-.435V108.253a3.519,3.519,0,0,0-.366-1.559l-10.451-20.9a3.487,3.487,0,0,0-6.236,0l-10.451,20.9a3.519,3.519,0,0,0-.366,1.559v65.752a3.6,3.6,0,0,0,.03.435H72.737l1.446-34.692c0-.078,0-.157,0-.24v-.1a3.487,3.487,0,0,0-.044-.366v-.009l-3.222-19.338c4.045-3.052,6.754-8.6,6.754-14.923,0-8.953-10.377-18.868-11.561-19.969a3.491,3.491,0,0,0-4.746,0C60.179,85.9,49.8,95.817,49.8,104.77c0,6.323,2.708,11.87,6.754,14.923l-3.222,19.338v.009a3.49,3.49,0,0,0-.044.366v.1c0,.083,0,.161,0,.24l1.446,34.692H14.967V69.934a6.976,6.976,0,0,1,6.967-6.967H210.046a6.976,6.976,0,0,1,6.967,6.967Z"/>
    <path id="Path_572" data-name="Path 572" d="M64.385,352h-20.9a3.484,3.484,0,1,0,0,6.967h20.9a3.484,3.484,0,1,0,0-6.967Z" transform="translate(-18.066 -167.108)" fill="#2365b1"/>
    <path id="Path_573" data-name="Path 573" d="M118.967,352h-3.484a3.484,3.484,0,1,0,0,6.967h3.484a3.484,3.484,0,1,0,0-6.967Z" transform="translate(-58.714 -167.108)" fill="#2365b1"/>
    <path id="Path_574" data-name="Path 574" d="M203.484,208A3.484,3.484,0,0,0,200,211.484V249.8a3.484,3.484,0,0,0,6.967,0V211.484A3.484,3.484,0,0,0,203.484,208Z" transform="translate(-108.395 -85.812)" fill="#2365b1"/>
    <path id="Path_575" data-name="Path 575" d="M371.484,272A3.484,3.484,0,0,0,368,275.484v10.451a3.484,3.484,0,0,0,6.967,0V275.484A3.484,3.484,0,0,0,371.484,272Z" transform="translate(-203.24 -121.944)" fill="#2365b1"/>
    <path id="Path_576" data-name="Path 576" d="M43.484,94.967H71.352a3.484,3.484,0,0,0,0-6.967H43.484a3.484,3.484,0,1,0,0,6.967Z" transform="translate(-18.066 -18.066)" fill="#2365b1"/>
    <path id="Path_577" data-name="Path 577" d="M43.484,118.967h6.967a3.484,3.484,0,0,0,0-6.967H43.484a3.484,3.484,0,1,0,0,6.967Z" transform="translate(-18.066 -31.615)" fill="#2365b1"/>
    <path id="Path_578" data-name="Path 578" d="M427.484,302.967h13.934a3.484,3.484,0,0,0,0-6.967H427.484a3.484,3.484,0,0,0,0,6.967Z" transform="translate(-234.855 -135.493)" fill="#2365b1"/>
    <path id="Path_579" data-name="Path 579" d="M451.484,278.967h3.484a3.484,3.484,0,1,0,0-6.967h-3.484a3.484,3.484,0,1,0,0,6.967Z" transform="translate(-248.405 -121.944)" fill="#2365b1"/>
  </g>
</svg>
