<svg xmlns="http://www.w3.org/2000/svg" width="207.997" height="207.997" viewBox="0 0 207.997 207.997">
  <g id="Out_line" data-name="Out line" transform="translate(-16 -16)">
    <path id="Path_618" data-name="Path 618" d="M248,64h6.933V77.866H248Z" transform="translate(-131.468 -27.2)" fill="#2365b1"/>
    <path id="Path_619" data-name="Path 619" d="M0,0H6.933V13.866H0Z" transform="translate(78.315 55.499) rotate(-45)" fill="#2365b1"/>
    <path id="Path_620" data-name="Path 620" d="M128,184h13.866v6.933H128Z" transform="translate(-63.467 -95.201)" fill="#2365b1"/>
    <path id="Path_621" data-name="Path 621" d="M0,0H13.866V6.933H0Z" transform="translate(78.307 129.031) rotate(-45)" fill="#2365b1"/>
    <path id="Path_622" data-name="Path 622" d="M0,0H13.866V6.933H0Z" transform="translate(146.94 60.403) rotate(-45)" fill="#2365b1"/>
    <path id="Path_623" data-name="Path 623" d="M0,0H6.933V13.866H0Z" transform="translate(146.936 124.133) rotate(-45)" fill="#2365b1"/>
    <path id="Path_624" data-name="Path 624" d="M352,184h13.866v6.933H352Z" transform="translate(-190.402 -95.201)" fill="#2365b1"/>
    <path id="Path_625" data-name="Path 625" d="M289.794,136.669a86.149,86.149,0,0,1,6.665,33.391v3.467a69.411,69.411,0,0,1-69.332,69.332,13.888,13.888,0,0,1-13.55-10.929,13.889,13.889,0,0,0,10.084-13.338V218a10.39,10.39,0,0,0,4.277-16.737,10.377,10.377,0,0,0-.687-14.564,25.924,25.924,0,0,1,7.528-15.918,35.333,35.333,0,1,0-49.968,0,25.924,25.924,0,0,1,7.528,15.918,10.378,10.378,0,0,0-.687,14.564A10.39,10.39,0,0,0,195.928,218v.6a13.888,13.888,0,0,0,10.629,13.481,20.831,20.831,0,0,0,20.57,17.719,76.352,76.352,0,0,0,76.266-76.266V170.06a93.049,93.049,0,0,0-7.2-36.064Zm-93.867,57.657a3.471,3.471,0,0,1,3.467-3.467h20.8a3.467,3.467,0,0,1,0,6.933h-20.8A3.471,3.471,0,0,1,195.928,194.326Zm7.7-38.133h12.343l-5.547,27.733h-1.249Zm-13.911,9.682a28.4,28.4,0,1,1,40.164,0,32.807,32.807,0,0,0-9.252,18.062c-.143-.006-.286-.011-.43-.011h-2.7l6.1-30.52a3.467,3.467,0,0,0-3.4-4.147h-20.8a3.467,3.467,0,0,0-3.4,4.147l6.1,30.52h-2.7c-.144,0-.287.005-.43.011a32.807,32.807,0,0,0-9.252-18.062Zm9.682,45.784a3.467,3.467,0,1,1,0-6.933h20.8a3.467,3.467,0,1,1,0,6.933Zm3.467,6.933h13.866a6.933,6.933,0,0,1-13.866,0Z" transform="translate(-89.795 -53.528)"/>
    <path id="Path_626" data-name="Path 626" d="M56.693,165.6A86.6,86.6,0,0,1,133.6,38.933h.015a85.923,85.923,0,0,1,36.649,8.114l2.937-6.281A92.8,92.8,0,0,0,133.615,32H133.6A93.631,93.631,0,0,0,50.545,168.8Z" transform="translate(-13.6 -9.066)"/>
    <path id="Path_627" data-name="Path 627" d="M164.611,435.557a92.912,92.912,0,0,0,28.806,8.15l.791-6.888a86,86,0,0,1-26.66-7.543Z" transform="translate(-84.214 -234.192)"/>
    <path id="Path_628" data-name="Path 628" d="M394.932,16H356.8a10.412,10.412,0,0,0-10.4,10.4V59.63l-9.384,9.384a3.467,3.467,0,0,0,2.451,5.918h55.466a10.412,10.412,0,0,0,10.4-10.4V26.4a10.412,10.412,0,0,0-10.4-10.4ZM398.4,64.533A3.471,3.471,0,0,1,394.932,68h-47.1l4.482-4.482a3.467,3.467,0,0,0,1.015-2.451V26.4a3.471,3.471,0,0,1,3.467-3.467h38.133A3.471,3.471,0,0,1,398.4,26.4Z" transform="translate(-181.335)" fill="#2365b1"/>
    <path id="Path_629" data-name="Path 629" d="M408,40h13.867v6.933H408Z" transform="translate(-222.136 -13.6)" fill="#2365b1"/>
    <path id="Path_630" data-name="Path 630" d="M456,40h6.933v6.933H456Z" transform="translate(-249.336 -13.6)" fill="#2365b1"/>
    <path id="Path_631" data-name="Path 631" d="M392,64h13.866v6.933H392Z" transform="translate(-213.069 -27.2)" fill="#2365b1"/>
    <path id="Path_632" data-name="Path 632" d="M440,64h13.866v6.933H440Z" transform="translate(-240.269 -27.2)" fill="#2365b1"/>
    <path id="Path_633" data-name="Path 633" d="M392,88h20.8v6.933H392Z" transform="translate(-213.069 -40.8)" fill="#2365b1"/>
    <path id="Path_634" data-name="Path 634" d="M456,88h6.933v6.933H456Z" transform="translate(-249.336 -40.8)" fill="#2365b1"/>
    <path id="Path_635" data-name="Path 635" d="M392,112h13.866v6.933H392Z" transform="translate(-213.069 -54.401)" fill="#2365b1"/>
    <path id="Path_636" data-name="Path 636" d="M85.068,362.139a3.467,3.467,0,0,0-3.2-2.14H26.4A10.412,10.412,0,0,0,16,370.4v38.133a10.412,10.412,0,0,0,10.4,10.4H64.533a10.412,10.412,0,0,0,10.4-10.4V375.3l9.384-9.384a3.467,3.467,0,0,0,.752-3.778Zm-16.054,9.275A3.467,3.467,0,0,0,68,373.866v34.666A3.471,3.471,0,0,1,64.533,412H26.4a3.471,3.471,0,0,1-3.467-3.467V370.4a3.471,3.471,0,0,1,3.467-3.467H73.5Z" transform="translate(0 -194.935)" fill="#2365b1"/>
    <path id="Path_637" data-name="Path 637" d="M88,456h6.933v6.933H88Z" transform="translate(-40.8 -249.336)" fill="#2365b1"/>
    <path id="Path_638" data-name="Path 638" d="M40,456H53.866v6.933H40Z" transform="translate(-13.6 -249.336)" fill="#2365b1"/>
    <path id="Path_639" data-name="Path 639" d="M104,432h6.933v6.933H104Z" transform="translate(-49.867 -235.736)" fill="#2365b1"/>
    <path id="Path_640" data-name="Path 640" d="M40,432H60.8v6.933H40Z" transform="translate(-13.6 -235.736)" fill="#2365b1"/>
    <path id="Path_641" data-name="Path 641" d="M72,408H92.8v6.933H72Z" transform="translate(-31.734 -222.136)" fill="#2365b1"/>
    <path id="Path_642" data-name="Path 642" d="M40,408h6.933v6.933H40Z" transform="translate(-13.6 -222.136)" fill="#2365b1"/>
    <path id="Path_643" data-name="Path 643" d="M56,384H83.733v6.933H56Z" transform="translate(-22.667 -208.535)" fill="#2365b1"/>
  </g>
</svg>
