<svg xmlns="http://www.w3.org/2000/svg" width="257.495" height="240.933" viewBox="0 0 257.495 240.933">
  <g id="shield" transform="translate(0 -0.5)">
    <path id="Path_609" data-name="Path 609" d="M230.551,134.842a3.809,3.809,0,0,0,5.742-.652L261.4,96.3a3.772,3.772,0,1,0-6.288-4.169l-22.624,34.144L219.915,114.34a3.772,3.772,0,1,0-5.194,5.471s15.816,15.019,15.83,15.031Zm0,0" transform="translate(-106.149 -44.71)" fill="#2365b1"/>
    <path id="Path_610" data-name="Path 610" d="M183.341,147.663a5.588,5.588,0,0,0,2.312.5h.031a5.52,5.52,0,0,0,2.34-.534C245.381,120.356,255.1,61.5,256.712,44.114a9.016,9.016,0,0,0-5.562-9.2A32.964,32.964,0,0,1,230.894,7.25,7.449,7.449,0,0,0,223.5.5h-.045L146.184.954a7.39,7.39,0,0,0-7.359,6.886A32.97,32.97,0,0,1,118.865,35.7a8.986,8.986,0,0,0-5.422,9.249c1.815,17.368,12.225,76.106,69.9,102.71ZM121.831,42.639A40.479,40.479,0,0,0,146.339,8.5l77.051-.452a40.485,40.485,0,0,0,24.869,33.837,1.517,1.517,0,0,1,.943,1.538c-1.513,16.3-10.563,71.242-63.563,96.991-53.3-25.122-62.991-79.962-64.7-96.24a1.486,1.486,0,0,1,.888-1.53Zm0,0" transform="translate(-56.365 0)"/>
    <path id="Path_611" data-name="Path 611" d="M146.09,77.615a3.977,3.977,0,0,0,4.63,2.65,3.777,3.777,0,0,0,2.65-4.628c-.961-3.54-1.768-7.129-2.4-10.685A53.047,53.047,0,0,0,172.55,36.669l54.473-.32a53.044,53.044,0,0,0,21.912,28.028c-.591,3.566-1.357,7.167-2.279,10.72a3.773,3.773,0,1,0,7.3,1.892c1.08-4.173,1.961-8.408,2.613-12.589a5.768,5.768,0,0,0-2.719-5.85,45.523,45.523,0,0,1-20.019-25.661,5.833,5.833,0,0,0-5.544-4.092h-.035l-57.03.334a5.835,5.835,0,0,0-5.53,4.159A45.524,45.524,0,0,1,145.98,59.184a5.766,5.766,0,0,0-2.65,5.882c.7,4.171,1.631,8.392,2.76,12.549Zm0,0" transform="translate(-71.206 -14.066)" fill="#2365b1"/>
    <path id="Path_612" data-name="Path 612" d="M254.518,147.821a3.769,3.769,0,0,0-4.925,2.047c-8.717,21.127-22.516,37.189-41.025,47.76-18.653-10.367-32.653-26.293-41.615-47.353a3.773,3.773,0,0,0-6.943,2.955c9.781,22.981,25.191,40.306,45.8,51.491a5.775,5.775,0,0,0,5.6-.031c20.455-11.412,35.648-28.888,45.161-51.944a3.767,3.767,0,0,0-2.049-4.923Zm0,0" transform="translate(-79.388 -73.087)" fill="#2365b1"/>
    <path id="Path_613" data-name="Path 613" d="M34.931,384.273a13.345,13.345,0,1,0,13.347,13.345A13.361,13.361,0,0,0,34.931,384.273Zm0,19.146a5.8,5.8,0,1,1,5.8-5.8A5.807,5.807,0,0,1,34.931,403.419Zm0,0" transform="translate(-10.73 -190.766)" fill="#2365b1"/>
    <path id="Path_614" data-name="Path 614" d="M254.79,274.085a15.712,15.712,0,0,0-21.7-4.2l-49.31,33-10.526-.591-.269-2.7a22.892,22.892,0,0,0-19.62-20.451c-.067-.01-.132-.018-.2-.024l-53.133-4.656c-1.8-.281-7.552-1.933-23.362-11a58.674,58.674,0,0,0-26.883-7.734v-9.868a8.989,8.989,0,0,0-8.98-8.98H8.98A8.991,8.991,0,0,0,0,245.871v97.187a8.991,8.991,0,0,0,8.98,8.98H40.812a8.991,8.991,0,0,0,8.98-8.98v-2.678l46.446,17.588c.1.039,3.874,1.45,10.809.8l77.173-11.125c.02,0,.037-.006.057-.01a37.944,37.944,0,0,0,17.983-8.057c.047-.039.092-.079.138-.118l49.842-44.829a15.713,15.713,0,0,0,2.552-20.541ZM247.211,289l-49.789,44.782a30.4,30.4,0,0,1-14.31,6.393L106,351.294l-.067.01-.037.006a16.94,16.94,0,0,1-7.143-.456L49.791,332.314V289.238a3.772,3.772,0,1,0-7.544,0v53.821a1.438,1.438,0,0,1-1.436,1.436H8.98a1.438,1.438,0,0,1-1.436-1.436V245.871a1.438,1.438,0,0,1,1.436-1.436H40.811a1.438,1.438,0,0,1,1.436,1.436V272.2a3.772,3.772,0,1,0,7.544,0v-8.909a51.092,51.092,0,0,1,23.128,6.729c19.07,10.937,24.4,11.691,26.146,11.938.067.01.132.016.2.024l53.139,4.656a15.37,15.37,0,0,1,13.078,13.714l.2,2.01-71.142,4.393-.141-.012a8.6,8.6,0,0,1-5.868-3.071,3.772,3.772,0,0,0-5.793,4.831,16.333,16.333,0,0,0,10.99,5.754c2.33.244,76.1-4.593,76.1-4.593l14.789.831a3.76,3.76,0,0,0,2.308-.633l50.367-33.707A8.133,8.133,0,0,1,247.211,289Zm0,0" transform="translate(0 -117.505)"/>
  </g>
</svg>
