<svg xmlns="http://www.w3.org/2000/svg" width="34" height="34" viewBox="0 0 34 34">
  <circle id="Ellipse_86" data-name="Ellipse 86" cx="17" cy="17" r="17" fill="#fff"/>
  <path id="Path_108" data-name="Path 108" d="M32.995,21.9H18.474A1.255,1.255,0,0,0,17.3,23.218v9.9a1.255,1.255,0,0,0,1.174,1.318H23.82l-.181,2.059h-1.21a.325.325,0,0,0,0,.65h6.628a.325.325,0,1,0,0-.65h-1.21l-.181-2.059h5.346a1.255,1.255,0,0,0,1.174-1.318V23.2A1.252,1.252,0,0,0,32.995,21.9Zm-14.521.632H32.995a.621.621,0,0,1,.542.686v.018h-15.6v-.018C17.932,22.821,18.167,22.532,18.474,22.532Zm-.542,1.337H33.555v8.055H17.932ZM27.2,36.475H24.271l.181-2.059h2.565Zm5.8-2.691H18.474a.621.621,0,0,1-.542-.686V32.52H33.555v.6A.628.628,0,0,1,32.995,33.784Z" transform="translate(-8.744 -12.522)"/>
</svg>
