<svg xmlns="http://www.w3.org/2000/svg" width="34" height="34" viewBox="0 0 34 34">
  <circle id="Ellipse_86" data-name="Ellipse 86" cx="17" cy="17" r="17" fill="#fff"/>
  <g id="Group_502" data-name="Group 502" transform="translate(-103 -287)">
    <path id="Path_112" data-name="Path 112" d="M129.757,8h-8.075A1.684,1.684,0,0,0,120,9.682v17.5a1.684,1.684,0,0,0,1.682,1.682h8.075a1.684,1.684,0,0,0,1.682-1.682V9.682A1.684,1.684,0,0,0,129.757,8ZM128,8.673l-.2,1.009H123.64l-.2-1.009Zm2.766,18.5a1.011,1.011,0,0,1-1.009,1.009h-8.075a1.01,1.01,0,0,1-1.009-1.009V9.682a1.01,1.01,0,0,1,1.009-1.009h1.07l.282,1.412a.336.336,0,0,0,.33.27h4.71a.336.336,0,0,0,.33-.27l.282-1.412h1.07a1.011,1.011,0,0,1,1.009,1.009Z" transform="translate(-5.721 286.242)"/>
    <path id="Path_113" data-name="Path 113" d="M154.355,456h-2.019a.336.336,0,1,0,0,.673h2.019a.336.336,0,1,0,0-.673Z" transform="translate(-36.375 -142.916)"/>
    <path id="Path_114" data-name="Path 114" d="M224.673,456h-.336a.336.336,0,1,0,0,.673h.336a.336.336,0,1,0,0-.673Z" transform="translate(-105.346 -142.916)"/>
  </g>
</svg>
