<svg xmlns="http://www.w3.org/2000/svg" width="34" height="34" viewBox="0 0 34 34">
  <circle id="Ellipse_86" data-name="Ellipse 86" cx="17" cy="17" r="17" fill="#fff"/>
  <path id="video-game-controller" d="M15.431,93.772c-1.355-2.772-2.806-2.966-4.158-2.305a2.782,2.782,0,0,0-1.018.794H6.639a2.782,2.782,0,0,0-1.018-.794c-1.351-.661-2.8-.467-4.158,2.305s-2.1,7.074-.749,7.735c.939.459,2.643-.962,4.05-2.8h7.365c1.407,1.839,3.11,3.261,4.05,2.8C17.532,100.846,16.785,96.544,15.431,93.772ZM6.308,95.5a.205.205,0,0,1-.207.2H5.108v1.017a.2.2,0,0,1-.207.2H4.2a.205.205,0,0,1-.207-.2V95.707H3a.205.205,0,0,1-.207-.2v-.688a.205.205,0,0,1,.207-.2h.992V93.6a.205.205,0,0,1,.207-.2h.7a.2.2,0,0,1,.207.2v1.017H6.1a.205.205,0,0,1,.207.2V95.5Zm6.415-1.732a.633.633,0,1,1-.633-.633A.633.633,0,0,1,12.723,93.773Zm-1.938,1.938a.633.633,0,1,1,.633-.633A.633.633,0,0,1,10.785,95.711Zm2.613,0a.633.633,0,1,1,.633-.633A.633.633,0,0,1,13.4,95.711ZM12.09,97.016a.633.633,0,1,1,.633-.633A.633.633,0,0,1,12.09,97.016Z" transform="translate(8.553 -79.371)"/>
</svg>
