<svg xmlns="http://www.w3.org/2000/svg" width="34" height="34" viewBox="0 0 34 34">
  <path id="Path_762" data-name="Path 762" d="M17,0A17.129,17.129,0,0,1,27.791,3.863,16.821,16.821,0,0,1,34,17,17,17,0,1,1,17,0Z" fill="#fff"/>
  <path id="blockchain" d="M20.5,4.641c0-.008,0-.017,0-.025a.262.262,0,0,0-.026-.062.2.2,0,0,0-.014-.018.26.26,0,0,0-.027-.036c-.006-.006-.014-.011-.021-.016a.258.258,0,0,0-.032-.025h0L18.187,3.2a.262.262,0,0,0-.261,0L15.734,4.456h0a.259.259,0,0,0-.032.025.188.188,0,0,0-.021.016.26.26,0,0,0-.028.036c0,.006-.01.012-.014.018a.263.263,0,0,0-.026.062c0,.008,0,.016,0,.024a.258.258,0,0,0-.006.044v.534L13.652,4a.257.257,0,0,0,.005-.04V1.765a.258.258,0,0,0-.006-.043c0-.008,0-.017,0-.025a.262.262,0,0,0-.026-.062l-.017-.022a.26.26,0,0,0-.024-.032l-.025-.019a.258.258,0,0,0-.028-.022h0v0L11.334.282a.262.262,0,0,0-.261,0L8.881,1.537h0a.257.257,0,0,0-.028.022l-.025.019a.26.26,0,0,0-.024.032l-.017.022a.262.262,0,0,0-.026.062c0,.008,0,.016,0,.024a.258.258,0,0,0-.006.044V3.957A.257.257,0,0,0,8.754,4L6.805,5.218V4.684A.258.258,0,0,0,6.8,4.641c0-.008,0-.017,0-.025a.262.262,0,0,0-.026-.062.205.205,0,0,0-.014-.018A.26.26,0,0,0,6.729,4.5c-.006-.006-.014-.011-.021-.016a.258.258,0,0,0-.032-.025h0L4.482,3.2a.262.262,0,0,0-.261,0L2.029,4.456h0a.259.259,0,0,0-.032.025.188.188,0,0,0-.021.016.26.26,0,0,0-.028.036c0,.006-.01.012-.014.018a.263.263,0,0,0-.026.062c0,.008,0,.016,0,.024a.258.258,0,0,0-.006.044V6.876a.262.262,0,0,0,.137.23L4.089,8.228v3l-2.06,1.18h0a.258.258,0,0,0-.032.025.188.188,0,0,0-.021.016.26.26,0,0,0-.028.036c0,.006-.01.012-.014.018a.263.263,0,0,0-.026.062c0,.008,0,.016,0,.024a.258.258,0,0,0-.006.044V14.83a.262.262,0,0,0,.137.23l2.192,1.2a.258.258,0,0,0,.038.015l.021.008a.254.254,0,0,0,.133,0l.021-.008a.258.258,0,0,0,.038-.015l1.861-1.016,2.413,1.606v1.087a.262.262,0,0,0,.137.23l2.192,1.2a.258.258,0,0,0,.038.015l.021.008a.254.254,0,0,0,.133,0l.021-.008a.258.258,0,0,0,.038-.015l2.191-1.2a.262.262,0,0,0,.137-.23V16.847l2.413-1.606,1.861,1.016a.258.258,0,0,0,.038.015l.021.008a.254.254,0,0,0,.133,0l.021-.008a.259.259,0,0,0,.038-.015l2.191-1.2a.262.262,0,0,0,.137-.23V12.638A.257.257,0,0,0,20.5,12.6c0-.008,0-.017,0-.025a.262.262,0,0,0-.026-.062.2.2,0,0,0-.014-.018.26.26,0,0,0-.027-.036c-.006-.006-.014-.011-.021-.016a.258.258,0,0,0-.032-.025h0l-2.06-1.18v-3l2.055-1.122a.262.262,0,0,0,.137-.23V4.684a.258.258,0,0,0-.005-.043ZM12.791,15.773,11.2,16.64l-1.587-.866-.067-.037,1.654-.947,1.654.947ZM6.281,6.72l-1.667.91V6.036l1.667-.91ZM4.351,11.685l1.654.947-.067.037-1.587.866-1.587-.866L2.7,12.633Zm2.17.638L4.613,11.231v-3L6.351,7.28l2.4,1.561v1.913ZM9.274,3.8V2.207l1.667.911V4.711Zm3.859,0-1.667.91V3.118l1.667-.91ZM11.2,7.745l1.654.947-.067.037L11.2,9.6,9.616,8.729l-.067-.037ZM9.274,9.14l1.667.91v1.595l-1.667-.91Zm2.192.91,1.667-.91v1.594l-1.667.91Zm2.192-1.21,2.4-1.561,1.737.949v3l-1.907,1.092-2.229-1.569Zm4.136-2.8V7.63l-1.667-.91V5.126Zm-1.667,8.639V13.08l1.667.91v1.594Zm3.517-2.005-1.587.866-1.587-.866-.067-.037,1.654-.947,1.654.947ZM18.057,3.731l1.654.947-.067.037-1.587.866-1.587-.866L16.4,4.678ZM15.612,6.943,13.387,8.391l-1.921-1.1V5.309l1.759-.961L15.6,5.837V6.875a.262.262,0,0,0,.009.067ZM11.2.812l1.654.948-1.582.863-.073.04-.073-.04L9.55,1.76ZM9.182,4.349l1.759.961V7.291l-1.921,1.1L6.8,6.943a.262.262,0,0,0,.009-.067V5.837ZM4.351,3.731l1.654.947-.067.037-1.587.866L2.764,4.715,2.7,4.678Zm-1.929,1.4,1.667.91V7.63L2.422,6.72Zm0,7.954,1.667.91v1.594l-1.667-.91Zm2.192.91,1.667-.91v1.594l-1.667.91Zm2.177.921a.26.26,0,0,0,.015-.082V12.765L9.03,11.2l1.912,1.044v2.093l-2.061,1.18h0a.258.258,0,0,0-.032.025.188.188,0,0,0-.021.016.26.26,0,0,0-.028.036c0,.006-.01.012-.014.018a.263.263,0,0,0-.026.062c0,.008,0,.016,0,.024a.258.258,0,0,0-.006.044v.474Zm2.484,1.793v-.521l1.667.91v1.594l-1.667-.91Zm2.192,1.983V17.094l1.667-.91v1.594Zm2.192-2.946a.258.258,0,0,0-.006-.043c0-.008,0-.017,0-.025a.262.262,0,0,0-.026-.062.2.2,0,0,0-.014-.018.26.26,0,0,0-.027-.036c-.006-.006-.014-.011-.021-.016a.257.257,0,0,0-.032-.025h0l-2.06-1.18V12.242L13.378,11.2,15.6,12.765V14.83a.26.26,0,0,0,.015.082l-1.959,1.3Zm4.661-.158V13.99l1.667-.91v1.594Zm0-7.954V6.036l1.667-.91V6.72Z" transform="translate(5.669 7.179)"/>
</svg>
