<svg xmlns="http://www.w3.org/2000/svg" width="17.617" height="11.745" viewBox="0 0 17.617 11.745">
  <g id="mail" transform="translate(0 -85.333)">
    <g id="Group_52" data-name="Group 52" transform="translate(0 85.333)">
      <path id="Path_122" data-name="Path 122" d="M16.714,85.333H.9a.906.906,0,0,0-.9.9v9.938a.906.906,0,0,0,.9.9h15.81a.906.906,0,0,0,.9-.9V86.236A.906.906,0,0,0,16.714,85.333Zm-.339.678L9.328,91.3a.945.945,0,0,1-1.039,0L1.242,86.011Zm-3.764,5.634,3.84,4.743.013.013H1.154l.013-.013,3.84-4.743a.339.339,0,0,0-.527-.426l-3.8,4.7V86.434l7.2,5.4a1.617,1.617,0,0,0,1.852,0l7.2-5.4v9.481l-3.8-4.7a.339.339,0,0,0-.527.426Z" transform="translate(0 -85.333)" fill="#2365b1"/>
    </g>
  </g>
</svg>
