<svg xmlns="http://www.w3.org/2000/svg" width="33.509" height="61.105" viewBox="0 0 33.509 61.105">
  <g id="Smartphone" transform="translate(-120 -8)">
    <path id="Path_431" data-name="Path 431" d="M148.581,8H124.928A4.933,4.933,0,0,0,120,12.928V64.177a4.933,4.933,0,0,0,4.928,4.928h23.653a4.933,4.933,0,0,0,4.928-4.928V12.928A4.933,4.933,0,0,0,148.581,8Zm-5.144,1.971-.591,2.957H130.664l-.591-2.957Zm8.1,54.206a2.96,2.96,0,0,1-2.957,2.957H124.928a2.96,2.96,0,0,1-2.957-2.957V12.928a2.96,2.96,0,0,1,2.957-2.957h3.134l.827,4.136a.986.986,0,0,0,.966.792h13.8a.986.986,0,0,0,.966-.792l.827-4.135h3.134a2.96,2.96,0,0,1,2.957,2.957Z" fill="#2365b1"/>
    <path id="Path_433" data-name="Path 433" d="M225.971,456h-.986a.986.986,0,1,0,0,1.971h.986a.986.986,0,1,0,0-1.971Z" transform="translate(-88.722 -392.809)" fill="#2365b1"/>
  </g>
</svg>
