<svg id="Page-1" xmlns="http://www.w3.org/2000/svg" width="62.366" height="62.365" viewBox="0 0 62.366 62.365">
  <g id="ic-technology-objectivec" transform="translate(0 0)">
    <path id="Combined-Shape-Copy-26" d="M31.179,0A30.811,30.811,0,0,1,53.053,9.084a30.846,30.846,0,0,1,9.313,21.809A31.334,31.334,0,0,1,31.351,62.365H31.1C14.341,62.365.131,48.212,0,31.35A30.738,30.738,0,0,1,8.979,9.419,31.252,31.252,0,0,1,30.6.008ZM31.2,1.632A29.628,29.628,0,0,0,10.162,10.57a29.116,29.116,0,0,0-8.53,20.764c.123,15.981,13.59,29.383,29.457,29.383H31.3A29.7,29.7,0,0,0,60.734,30.9,29.229,29.229,0,0,0,51.9,10.243,29.089,29.089,0,0,0,31.2,1.632ZM11.427,22.086v1.632H9.077V38.7h2.351v1.632L7,40.3V22.086Zm43.944-.049V40.3H50.939V38.671H53.29v-15H50.939V22.037ZM35.807,26.208v6.44c0,2.734-1.322,3.648-3.265,3.648a4.824,4.824,0,0,1-1.526-.261l.22-1.453a3.959,3.959,0,0,0,1.118.18c1.028,0,1.632-.473,1.632-2.187L34,26.208Zm11.582-.163a5.715,5.715,0,0,1,2.449.441l-.4,1.437a4.808,4.808,0,0,0-1.943-.384,3.3,3.3,0,0,0-3.469,3.648,3.257,3.257,0,0,0,3.452,3.575,5.059,5.059,0,0,0,1.967-.367l.261,1.42a6.262,6.262,0,0,1-2.555.441A4.67,4.67,0,0,1,42.1,31.276a4.979,4.979,0,0,1,5.289-5.232ZM17.435,26c2.791,0,4.6,2.236,4.6,5.02,0,3.322-2.016,5.215-4.75,5.215s-4.554-2.13-4.554-5.044C12.733,28.142,14.643,26,17.435,26Zm11.606.751A2.09,2.09,0,0,1,30.069,28.6a2.3,2.3,0,0,1-1.446,2.081l-.186.065a2.5,2.5,0,0,1,2,2.449,2.571,2.571,0,0,1-.955,2.04c-.7.62-1.869.922-3.673.922a17.491,17.491,0,0,1-2.22-.131l-.016-9.688a15.111,15.111,0,0,1,2.628-.22A4.693,4.693,0,0,1,29.041,26.747Zm-2.775,4.832h-.9V34.8a7.944,7.944,0,0,0,.955.041c1.159,0,2.187-.441,2.187-1.632S27.514,31.578,26.266,31.578Zm-8.872-4.122c-1.812,0-2.767,1.706-2.767,3.746l.016-.041c0,2.016,1.012,3.616,2.751,3.616s2.734-1.632,2.734-3.689C20.128,29.22,19.206,27.457,17.394,27.457ZM40.941,31.57v1.249H37.186V31.57ZM26.388,27.465a4.9,4.9,0,0,0-1.028.073l.008,2.71h.922c1.249,0,1.951-.588,1.951-1.428S27.539,27.465,26.388,27.465Z" transform="translate(0 0)" fill="#252b33"/>
  </g>
</svg>
