<svg xmlns="http://www.w3.org/2000/svg" width="37" height="2294" viewBox="0 0 37 2294">
  <rect id="Rectangle_212" data-name="Rectangle 212" width="3" height="2234" rx="1.5" transform="translate(17 27)" fill="#2365b1"/>
  <g id="Group_484" data-name="Group 484" transform="translate(-259 -1639)">
    <circle id="Ellipse_73" data-name="Ellipse 73" cx="18" cy="18" r="18" transform="translate(259 1639)" fill="#2365b1"/>
    <circle id="Ellipse_82" data-name="Ellipse 82" cx="9" cy="9" r="9" transform="translate(268 1648)" fill="#fff"/>
  </g>
  <g id="Group_485" data-name="Group 485" transform="translate(-258 -1192)">
    <circle id="Ellipse_73-2" data-name="Ellipse 73" cx="18" cy="18" r="18" transform="translate(259 1639)" fill="#2365b1"/>
    <circle id="Ellipse_82-2" data-name="Ellipse 82" cx="9" cy="9" r="9" transform="translate(268 1648)" fill="#fff"/>
  </g>
  <g id="Group_486" data-name="Group 486" transform="translate(-258 -535)">
    <circle id="Ellipse_73-3" data-name="Ellipse 73" cx="18" cy="18" r="18" transform="translate(259 1639)" fill="#2365b1"/>
    <circle id="Ellipse_82-3" data-name="Ellipse 82" cx="9" cy="9" r="9" transform="translate(268 1648)" fill="#fff"/>
  </g>
  <g id="Group_487" data-name="Group 487" transform="translate(-258 32)">
    <circle id="Ellipse_73-4" data-name="Ellipse 73" cx="18" cy="18" r="18" transform="translate(259 1639)" fill="#2365b1"/>
    <circle id="Ellipse_82-4" data-name="Ellipse 82" cx="9" cy="9" r="9" transform="translate(268 1648)" fill="#fff"/>
  </g>
  <g id="Group_488" data-name="Group 488" transform="translate(-258 619)">
    <circle id="Ellipse_73-5" data-name="Ellipse 73" cx="18" cy="18" r="18" transform="translate(259 1639)" fill="#2365b1"/>
    <circle id="Ellipse_82-5" data-name="Ellipse 82" cx="9" cy="9" r="9" transform="translate(268 1648)" fill="#fff"/>
  </g>
</svg>
