<svg xmlns="http://www.w3.org/2000/svg" width="13.904" height="13.924" viewBox="0 0 13.904 13.924">
  <g id="phone-call" transform="translate(0.364 -107.037)">
    <g id="Group_53" data-name="Group 53" transform="translate(-0.364 107.037)">
      <path id="Path_123" data-name="Path 123" d="M11.339,35.226a1.37,1.37,0,0,0-.993-.456,1.416,1.416,0,0,0-1.005.453l-.929.926c-.076-.041-.153-.079-.226-.118-.106-.053-.206-.1-.291-.156a10.093,10.093,0,0,1-2.419-2.2,5.955,5.955,0,0,1-.793-1.252c.241-.22.464-.45.682-.67l.247-.25a1.348,1.348,0,0,0,0-2.034l-.8-.8c-.091-.091-.185-.185-.273-.279-.176-.182-.361-.37-.552-.547A1.391,1.391,0,0,0,3,27.406a1.44,1.44,0,0,0-1,.432l-.006.006-1,1.008a2.15,2.15,0,0,0-.638,1.367A5.152,5.152,0,0,0,.733,32.4a12.654,12.654,0,0,0,2.248,3.75,13.83,13.83,0,0,0,4.605,3.606,7.175,7.175,0,0,0,2.586.764c.062,0,.126.006.185.006a2.214,2.214,0,0,0,1.7-.729c0-.006.009-.009.012-.015a6.682,6.682,0,0,1,.514-.532c.126-.12.256-.247.382-.379a1.466,1.466,0,0,0,.444-1.017,1.412,1.412,0,0,0-.453-1.008Zm1.052,3.095s0,0,0,0c-.115.123-.232.235-.359.359a7.728,7.728,0,0,0-.567.588,1.417,1.417,0,0,1-1.1.467c-.044,0-.091,0-.135,0a6.374,6.374,0,0,1-2.292-.688,13.055,13.055,0,0,1-4.338-3.4,11.931,11.931,0,0,1-2.116-3.524,4.2,4.2,0,0,1-.329-1.84,1.349,1.349,0,0,1,.406-.873l1-1A.668.668,0,0,1,3,28.2a.629.629,0,0,1,.429.206l.009.009c.179.168.35.341.529.526.091.094.185.188.279.285l.8.8a.561.561,0,0,1,0,.911c-.085.085-.168.17-.253.253-.247.253-.482.488-.738.717-.006.006-.012.009-.015.015a.6.6,0,0,0-.153.667l.009.026a6.441,6.441,0,0,0,.949,1.549l0,0a10.786,10.786,0,0,0,2.61,2.375,4.012,4.012,0,0,0,.361.2c.106.053.206.1.291.156l.035.021a.637.637,0,0,0,.291.073.628.628,0,0,0,.447-.2L9.9,35.782a.665.665,0,0,1,.444-.22.6.6,0,0,1,.423.215l.006.006L12.388,37.4A.581.581,0,0,1,12.391,38.321Z" transform="translate(-0.344 -26.601)" fill="#2365b1"/>
      <path id="Path_124" data-name="Path 124" d="M245.27,86.712a3.782,3.782,0,0,1,3.08,3.08.394.394,0,0,0,.391.329.525.525,0,0,0,.068-.006.4.4,0,0,0,.326-.458,4.573,4.573,0,0,0-3.726-3.726.4.4,0,0,0-.458.323A.392.392,0,0,0,245.27,86.712Z" transform="translate(-237.755 -83.4)" fill="#2365b1"/>
      <path id="Path_125" data-name="Path 125" d="M255.372,6.142A7.53,7.53,0,0,0,249.236.006a.4.4,0,1,0-.129.782,6.726,6.726,0,0,1,5.484,5.484.394.394,0,0,0,.391.329.525.525,0,0,0,.068-.006A.389.389,0,0,0,255.372,6.142Z" transform="translate(-241.474 0)" fill="#2365b1"/>
    </g>
  </g>
</svg>
