<svg xmlns="http://www.w3.org/2000/svg" width="302.193" height="233.872" viewBox="0 0 302.193 233.872">
  <g id="hotel" transform="translate(0 -88.912)">
    <path id="Path_693" data-name="Path 693" d="M56.325,253.172v5.66a4.427,4.427,0,0,0,8.853,0v-5.66a4.427,4.427,0,0,0-8.853,0Z" transform="translate(-23.081 -65.496)" fill="#2365b1"/>
    <path id="Path_694" data-name="Path 694" d="M92.722,263.258a4.426,4.426,0,0,0,4.427-4.427v-5.66a4.427,4.427,0,1,0-8.853,0v5.66A4.426,4.426,0,0,0,92.722,263.258Z" transform="translate(-36.181 -65.496)" fill="#2365b1"/>
    <path id="Path_695" data-name="Path 695" d="M124.691,263.258a4.426,4.426,0,0,0,4.427-4.427v-5.66a4.427,4.427,0,1,0-8.853,0v5.66a4.426,4.426,0,0,0,4.427,4.427Z" transform="translate(-49.282 -65.496)" fill="#2365b1"/>
    <path id="Path_696" data-name="Path 696" d="M65.178,305.929a4.427,4.427,0,1,0-8.853,0v5.66a4.427,4.427,0,0,0,8.853,0Z" transform="translate(-23.081 -87.115)" fill="#2365b1"/>
    <path id="Path_697" data-name="Path 697" d="M88.3,311.588a4.427,4.427,0,0,0,8.853,0v-5.66a4.427,4.427,0,1,0-8.853,0Z" transform="translate(-36.181 -87.115)" fill="#2365b1"/>
    <path id="Path_698" data-name="Path 698" d="M120.264,311.588a4.427,4.427,0,0,0,8.853,0v-5.66a4.427,4.427,0,1,0-8.853,0Z" transform="translate(-49.282 -87.115)" fill="#2365b1"/>
    <path id="Path_699" data-name="Path 699" d="M65.178,358.686a4.427,4.427,0,1,0-8.853,0v5.66a4.427,4.427,0,1,0,8.853,0Z" transform="translate(-23.081 -108.734)" fill="#2365b1"/>
    <path id="Path_700" data-name="Path 700" d="M88.3,364.346a4.427,4.427,0,1,0,8.853,0v-5.66a4.427,4.427,0,1,0-8.853,0Z" transform="translate(-36.181 -108.734)" fill="#2365b1"/>
    <path id="Path_701" data-name="Path 701" d="M120.264,364.346a4.427,4.427,0,1,0,8.853,0v-5.66a4.427,4.427,0,1,0-8.853,0Z" transform="translate(-49.282 -108.734)" fill="#2365b1"/>
    <path id="Path_702" data-name="Path 702" d="M60.752,407.016a4.426,4.426,0,0,0-4.427,4.427v5.66a4.427,4.427,0,1,0,8.853,0v-5.66A4.426,4.426,0,0,0,60.752,407.016Z" transform="translate(-23.081 -130.352)" fill="#2365b1"/>
    <path id="Path_703" data-name="Path 703" d="M88.3,417.1a4.427,4.427,0,1,0,8.853,0v-5.66a4.427,4.427,0,1,0-8.853,0Z" transform="translate(-36.181 -130.352)" fill="#2365b1"/>
    <path id="Path_704" data-name="Path 704" d="M120.264,417.1a4.427,4.427,0,1,0,8.853,0v-5.66a4.427,4.427,0,1,0-8.853,0Z" transform="translate(-49.282 -130.352)" fill="#2365b1"/>
    <path id="Path_705" data-name="Path 705" d="M449.527,253.172a4.427,4.427,0,0,0-8.853,0v5.66a4.427,4.427,0,0,0,8.853,0Z" transform="translate(-180.579 -65.496)" fill="#2365b1"/>
    <path id="Path_706" data-name="Path 706" d="M417.558,253.172a4.427,4.427,0,1,0-8.853,0v5.66a4.427,4.427,0,0,0,8.853,0Z" transform="translate(-167.479 -65.496)" fill="#2365b1"/>
    <path id="Path_707" data-name="Path 707" d="M385.589,253.172a4.427,4.427,0,1,0-8.853,0v5.66a4.427,4.427,0,0,0,8.853,0Z" transform="translate(-154.378 -65.496)" fill="#2365b1"/>
    <path id="Path_708" data-name="Path 708" d="M449.527,305.929a4.427,4.427,0,0,0-8.853,0v5.66a4.427,4.427,0,0,0,8.853,0Z" transform="translate(-180.579 -87.115)" fill="#2365b1"/>
    <path id="Path_709" data-name="Path 709" d="M417.558,305.929a4.427,4.427,0,1,0-8.853,0v5.66a4.427,4.427,0,0,0,8.853,0Z" transform="translate(-167.479 -87.115)" fill="#2365b1"/>
    <path id="Path_710" data-name="Path 710" d="M385.589,305.929a4.427,4.427,0,1,0-8.853,0v5.66a4.427,4.427,0,0,0,8.853,0Z" transform="translate(-154.378 -87.115)" fill="#2365b1"/>
    <path id="Path_711" data-name="Path 711" d="M449.527,358.686a4.427,4.427,0,0,0-8.853,0v5.66a4.427,4.427,0,1,0,8.853,0Z" transform="translate(-180.579 -108.734)" fill="#2365b1"/>
    <path id="Path_712" data-name="Path 712" d="M417.558,358.686a4.427,4.427,0,1,0-8.853,0v5.66a4.427,4.427,0,1,0,8.853,0Z" transform="translate(-167.479 -108.734)" fill="#2365b1"/>
    <path id="Path_713" data-name="Path 713" d="M385.589,358.686a4.427,4.427,0,1,0-8.853,0v5.66a4.427,4.427,0,1,0,8.853,0Z" transform="translate(-154.378 -108.734)" fill="#2365b1"/>
    <path id="Path_714" data-name="Path 714" d="M445.1,407.016a4.426,4.426,0,0,0-4.427,4.427v5.66a4.427,4.427,0,0,0,8.853,0v-5.66A4.426,4.426,0,0,0,445.1,407.016Z" transform="translate(-180.579 -130.352)" fill="#2365b1"/>
    <path id="Path_715" data-name="Path 715" d="M413.132,407.016a4.426,4.426,0,0,0-4.427,4.427v5.66a4.427,4.427,0,1,0,8.853,0v-5.66A4.426,4.426,0,0,0,413.132,407.016Z" transform="translate(-167.479 -130.352)" fill="#2365b1"/>
    <path id="Path_716" data-name="Path 716" d="M381.163,407.016a4.426,4.426,0,0,0-4.427,4.427v5.66a4.427,4.427,0,1,0,8.853,0v-5.66A4.426,4.426,0,0,0,381.163,407.016Z" transform="translate(-154.378 -130.352)" fill="#2365b1"/>
    <path id="Path_717" data-name="Path 717" d="M297.767,313.931H286.009V285.379a4.427,4.427,0,0,0-8.853,0v28.551H214.151V167.888l63.006-23.349V267.68a4.427,4.427,0,0,0,8.853,0v-129.5a4.427,4.427,0,0,0-5.965-4.15L214.15,158.447V130.478a7.418,7.418,0,0,0-4.512-6.839,162.8,162.8,0,0,0-19.122-6.783V102.8a13.545,13.545,0,0,0-13.53-13.53c-18-.455-38.017-.512-51.781,0a13.545,13.545,0,0,0-13.53,13.53v14.05a162.778,162.778,0,0,0-19.123,6.783,7.417,7.417,0,0,0-4.511,6.839v27.969L54.468,146a4.427,4.427,0,1,0-3.076,8.3l36.651,13.582V313.93H25.037V144.539l9.6,3.558a4.427,4.427,0,0,0,3.076-8.3l-15.567-5.769a4.426,4.426,0,0,0-5.965,4.15V313.93H4.427a4.427,4.427,0,1,0,0,8.853h293.34a4.426,4.426,0,1,0,0-8.853ZM96.9,192.7c35.982-12.67,72.418-12.671,108.4,0v21.885a167.485,167.485,0,0,0-108.4,0Zm108.4-9.356a167.481,167.481,0,0,0-108.4,0V161.461c35.982-12.671,72.418-12.671,108.4,0Zm-108.4,40.6c35.982-12.67,72.418-12.67,108.4,0v21.885a167.488,167.488,0,0,0-108.4,0ZM120.53,102.8a4.681,4.681,0,0,1,4.676-4.676h51.781a4.681,4.681,0,0,1,4.676,4.676v11.813a140.346,140.346,0,0,0-61.134,0ZM151.1,120.048a140.006,140.006,0,0,1,54.2,11.367v20.69a167.489,167.489,0,0,0-108.4,0v-20.69A139.99,139.99,0,0,1,151.1,120.048ZM128.949,313.931v-36.4h13.3a4.427,4.427,0,1,0,0-8.853H128.833a8.748,8.748,0,0,0-8.738,8.738v36.517H96.9V255.183c35.982-12.671,72.418-12.671,108.4,0v58.748H182.1V277.414a8.748,8.748,0,0,0-8.738-8.738H159.946a4.427,4.427,0,1,0,0,8.853h13.3v36.4Z"/>
  </g>
</svg>
