<svg xmlns="http://www.w3.org/2000/svg" width="208.001" height="208.001" viewBox="0 0 208.001 208.001">
  <g id="temporary-agency" transform="translate(-1 -1)">
    <path id="Path_724" data-name="Path 724" d="M188.587,77.491a23.478,23.478,0,0,0-13.134-42.942V1H1V141.9H49.833a13.376,13.376,0,0,0,11.554,6.71V183.84a11.725,11.725,0,0,0,20.129,8.193,11.725,11.725,0,0,0,20.129-8.193V153.458a13.281,13.281,0,0,0,6.71,1.865v41.936a11.725,11.725,0,0,0,20.129,8.193,11.725,11.725,0,0,0,20.129-8.193V155.323a13.282,13.282,0,0,0,6.71-1.865V183.84a11.725,11.725,0,0,0,20.129,8.193,11.725,11.725,0,0,0,20.129-8.193V148.614A13.433,13.433,0,0,0,209,135.194V108.355A33.6,33.6,0,0,0,188.587,77.491Zm3.64-19.458a16.774,16.774,0,1,1-16.774-16.774A16.793,16.793,0,0,1,192.227,58.033ZM168.743,7.71V27.839H7.71V7.71ZM7.71,135.194V34.549H168.743v.99a23.467,23.467,0,0,0-6.4,41.969A33.692,33.692,0,0,0,145.645,93a33.376,33.376,0,0,0-4.026-2.09,23.484,23.484,0,1,0-26.269,0A33.376,33.376,0,0,0,111.324,93a33.693,33.693,0,0,0-16.7-15.493,23.483,23.483,0,1,0-26.242-.017,33.6,33.6,0,0,0-20.414,30.865v26.839Zm104-63.742a16.774,16.774,0,1,1,16.774,16.774A16.793,16.793,0,0,1,111.71,71.452ZM64.742,58.033A16.774,16.774,0,1,1,81.517,74.807,16.793,16.793,0,0,1,64.742,58.033ZM94.936,183.84a5.032,5.032,0,0,1-10.065,0V128.484h-6.71V183.84a5.032,5.032,0,0,1-10.065,0V105h-6.71v36.9a6.716,6.716,0,0,1-6.71-6.71V108.355a26.788,26.788,0,0,1,51.131-11.232,33.416,33.416,0,0,0-10.873,24.651V183.84Zm53.678-35.226V118.42H141.9v78.839a5.032,5.032,0,1,1-10.065,0V141.9h-6.71v55.355a5.032,5.032,0,1,1-10.065,0V118.42h-6.71v30.194a6.716,6.716,0,0,1-6.71-6.71V121.775a26.839,26.839,0,1,1,53.678,0V141.9A6.716,6.716,0,0,1,148.614,148.614Zm53.678-13.419a6.716,6.716,0,0,1-6.71,6.71V105h-6.71V183.84a5.032,5.032,0,0,1-10.065,0V128.484H172.1V183.84a5.032,5.032,0,0,1-10.065,0V121.775A33.416,33.416,0,0,0,151.16,97.123a26.788,26.788,0,0,1,51.131,11.232Z"/>
    <path id="Path_725" data-name="Path 725" d="M5,5h6.71v6.71H5Z" transform="translate(9.419 9.419)" fill="#2365b1"/>
    <path id="Path_726" data-name="Path 726" d="M9,5h6.71v6.71H9Z" transform="translate(18.839 9.419)" fill="#2365b1"/>
    <path id="Path_727" data-name="Path 727" d="M13,5h6.71v6.71H13Z" transform="translate(28.258 9.419)" fill="#2365b1"/>
    <path id="Path_728" data-name="Path 728" d="M5,13h6.71v6.71H5Z" transform="translate(9.419 28.258)" fill="#2365b1"/>
    <path id="Path_729" data-name="Path 729" d="M9,13h6.71v6.71H9Z" transform="translate(18.839 28.258)" fill="#2365b1"/>
    <path id="Path_730" data-name="Path 730" d="M13,13h6.71v6.71H13Z" transform="translate(28.258 28.258)" fill="#2365b1"/>
    <path id="Path_731" data-name="Path 731" d="M5,17H38.549v6.71H5Z" transform="translate(9.419 37.678)" fill="#2365b1"/>
    <path id="Path_732" data-name="Path 732" d="M5,21H38.549v6.71H5Z" transform="translate(9.419 47.097)" fill="#2365b1"/>
    <path id="Path_733" data-name="Path 733" d="M5,25H38.549v6.71H5Z" transform="translate(9.419 56.517)" fill="#2365b1"/>
    <path id="Path_734" data-name="Path 734" d="M5,29H31.839v6.71H5Z" transform="translate(9.419 65.936)" fill="#2365b1"/>
    <path id="Path_735" data-name="Path 735" d="M5,33H31.839v6.71H5Z" transform="translate(9.419 75.355)" fill="#2365b1"/>
    <path id="Path_736" data-name="Path 736" d="M5,37H31.839v6.71H5Z" transform="translate(9.419 84.775)" fill="#2365b1"/>
  </g>
</svg>
