<svg xmlns="http://www.w3.org/2000/svg" width="221.154" height="154.808" viewBox="0 0 221.154 154.808">
  <g id="outline" transform="translate(-16 -96)">
    <ellipse id="Ellipse_70" data-name="Ellipse 70" cx="7.5" cy="7" rx="7.5" ry="7" transform="translate(45.577 144.404)" fill="#2365b1"/>
    <ellipse id="Ellipse_71" data-name="Ellipse 71" cx="7.5" cy="7" rx="7.5" ry="7" transform="translate(185.577 144.404)" fill="#2365b1"/>
    <path id="Path_690" data-name="Path 690" d="M235.68,133.6l-14.744-11.058a3.682,3.682,0,0,0-1.949-.728l-50.231-3.588L147.613,97.08A3.686,3.686,0,0,0,145.007,96H86.032a3.689,3.689,0,0,0-1.79.464L51.537,114.633l-32.651,7.256a3.686,3.686,0,0,0-2.887,3.6V147.6a3.686,3.686,0,0,0,2.037,3.3L31.7,157.732a22.113,22.113,0,0,0,42,.928h98.368a22.111,22.111,0,0,0,41.7,0h19.7a3.686,3.686,0,0,0,3.686-3.686v-18.43A3.686,3.686,0,0,0,235.68,133.6ZM108.148,103.372H143.48l14.445,14.445-49.777-1.606Zm-55.289,62.66A14.744,14.744,0,1,1,67.6,151.289,14.744,14.744,0,0,1,52.859,166.032Zm47.917-14.744h-25.8a22.115,22.115,0,0,0-44.119-2.222l-7.483-3.742V128.444L53.2,121.815l47.571,1.534Zm0-35.316-34.47-1.112,20.681-11.489h13.789Zm92.148,50.059a14.744,14.744,0,1,1,14.744-14.744A14.744,14.744,0,0,1,192.923,166.032Zm36.859-14.744H215.039a22.115,22.115,0,1,0-44.231,0h-62.66v-27.7l58.79,1.9,50.445,3.6,12.4,9.3Z" transform="translate(0)"/>
    <path id="Path_691" data-name="Path 691" d="M239.993,347.363h36.859a3.686,3.686,0,0,0,3.686-3.686V284.7a3.686,3.686,0,0,0-3.686-3.686H239.993a3.686,3.686,0,0,0-3.686,3.686v3.686h-6.5l-13.965-6.982a40.421,40.421,0,0,0-33.065-1.376l-2.466.986H166.274a14.737,14.737,0,0,0-12.143,6.394L132.707,276.7a15.608,15.608,0,0,0-16.651,26.21l55.3,43.66a3.686,3.686,0,0,0,2.286.793h36.859a3.676,3.676,0,0,0,.895-.11l24.907-6.227v2.651A3.686,3.686,0,0,0,239.993,347.363Zm3.686-55.289v-3.686h29.487v51.6H243.678Zm-33.627,47.917H174.926l-54.3-42.868a8.235,8.235,0,0,1,8.786-13.83L151.6,294.385c-.042.453-.066.911-.066,1.375A14.76,14.76,0,0,0,166.274,310.5h17.72l17.771,7.108a3.686,3.686,0,0,0,1.369.264h11.577a3.686,3.686,0,0,0,0-7.372H203.844L186.073,303.4a3.685,3.685,0,0,0-1.369-.264h-18.43a7.372,7.372,0,0,1,0-14.744h14.744a3.687,3.687,0,0,0,1.369-.264l3.125-1.25A33.046,33.046,0,0,1,212.543,288l14.744,7.372a3.683,3.683,0,0,0,1.648.389h7.372v37.667Z" transform="translate(-50.755 -96.555)"/>
    <ellipse id="Ellipse_72" data-name="Ellipse 72" cx="4" cy="4.5" rx="4" ry="4.5" transform="translate(203.577 198.404)" fill="#2365b1"/>
    <path id="Path_692" data-name="Path 692" d="M246.744,176H235.686a3.686,3.686,0,0,0,0,7.372h11.058a3.686,3.686,0,1,0,0-7.372Z" transform="translate(-116.481 -43.141)" fill="#2365b1"/>
  </g>
</svg>
