<svg xmlns="http://www.w3.org/2000/svg" width="174.074" height="174.396" viewBox="0 0 174.074 174.396">
  <g id="booking" transform="translate(-0.474)">
    <path id="Path_683" data-name="Path 683" d="M362.225,86.513h13.109a2.557,2.557,0,1,0,0-5.114H362.225a2.557,2.557,0,1,0,0,5.114Z" transform="translate(-236.735 -53.648)"/>
    <path id="Path_684" data-name="Path 684" d="M162.234,81.4H149.5a2.557,2.557,0,1,0,0,5.114h12.739a7.207,7.207,0,0,1,7.2,7.2v90.425H31.926a2.557,2.557,0,0,0,0,5.114H169.433v2.755a7.208,7.208,0,0,1-7.2,7.2H12.787a7.208,7.208,0,0,1-7.2-7.2v-2.755H21.029a2.557,2.557,0,0,0,0-5.114H5.588V93.713a7.207,7.207,0,0,1,7.2-7.2H49.532a2.557,2.557,0,1,0,0-5.114H12.787A12.327,12.327,0,0,0,.474,93.713v98.293a12.327,12.327,0,0,0,12.313,12.313H55.123V214.3l-6.434,8.628H45.6a2.557,2.557,0,0,0,0,5.114h84.533a2.557,2.557,0,1,0,0-5.114h-3.459L120.24,214.3v-9.983h41.995a12.327,12.327,0,0,0,12.313-12.313V93.713A12.328,12.328,0,0,0,162.234,81.4Zm-46.6,135.28,4.662,6.251H55.067l4.662-6.251a2.554,2.554,0,0,0,.507-1.528V204.32h54.889v10.832a2.556,2.556,0,0,0,.508,1.528Z" transform="translate(0 -53.648)"/>
    <path id="Path_685" data-name="Path 685" d="M197.178,60.616A30.308,30.308,0,1,0,166.87,30.308,30.342,30.342,0,0,0,197.178,60.616Zm0-55.5a25.194,25.194,0,1,1-25.194,25.194A25.222,25.222,0,0,1,197.178,5.114Z" transform="translate(-109.667)" fill="#2365b1"/>
    <path id="Path_686" data-name="Path 686" d="M225.833,83.552a2.558,2.558,0,0,0,3.5-.053l18.182-17.556a2.557,2.557,0,0,0-3.552-3.679L227.5,78.157,222.377,73.5a2.557,2.557,0,1,0-3.44,3.784Z" transform="translate(-143.431 -40.565)" fill="#2365b1"/>
    <path id="Path_687" data-name="Path 687" d="M104.464,214.224H176.4a2.557,2.557,0,0,0,0-5.114H104.464a6.667,6.667,0,0,0-6.659,6.659v15.109a6.667,6.667,0,0,0,6.659,6.659h42.01a2.557,2.557,0,0,0,0-5.114h-42.01a1.547,1.547,0,0,1-1.545-1.545V215.769A1.547,1.547,0,0,1,104.464,214.224Z" transform="translate(-64.148 -137.819)" fill="#2365b1"/>
    <path id="Path_688" data-name="Path 688" d="M355.356,214.224h11.558a1.547,1.547,0,0,1,1.545,1.545v15.109a1.547,1.547,0,0,1-1.545,1.545h-9.77a2.557,2.557,0,0,0,0,5.114h9.77a6.667,6.667,0,0,0,6.659-6.659V215.769a6.667,6.667,0,0,0-6.659-6.659H355.356a2.557,2.557,0,1,0,0,5.114Z" transform="translate(-232.208 -137.819)" fill="#2365b1"/>
    <path id="Path_689" data-name="Path 689" d="M288.824,274.015a4.1,4.1,0,0,0-2.831-3.331l-19.274-6.14a4.129,4.129,0,0,0-5.374,3.693l-1.179,20.193a4.129,4.129,0,0,0,6.46,3.644l3.816-2.622,4.686,6.821a4.015,4.015,0,0,0,2.6,1.686,4.063,4.063,0,0,0,.746.069,4.013,4.013,0,0,0,2.281-.712l6.158-4.231a4.048,4.048,0,0,0,1.042-5.622l-4.687-6.821,3.815-2.621a4.1,4.1,0,0,0,1.746-4.007ZM278.736,292.5l-5.528-8.045a2.556,2.556,0,0,0-1.641-1.066,2.529,2.529,0,0,0-.466-.043,2.558,2.558,0,0,0-1.448.449l-4.264,2.93.988-16.918,16.147,5.144-4.264,2.93a2.557,2.557,0,0,0-.66,3.555l5.529,8.046Z" transform="translate(-171.152 -174.225)" fill="#2365b1"/>
  </g>
</svg>
