<svg xmlns="http://www.w3.org/2000/svg" width="129.528" height="210.004" viewBox="0 0 129.528 210.004">
  <g id="smartphone_1_" data-name="smartphone (1)" transform="translate(-98.103)">
    <path id="Path_718" data-name="Path 718" d="M211.706,28.806a3.076,3.076,0,0,0,3.076,3.076h20.6a3.076,3.076,0,0,0,0-6.152h-20.6A3.076,3.076,0,0,0,211.706,28.806Z" transform="translate(-67.007 -15.177)" fill="#2365b1"/>
    <path id="Path_719" data-name="Path 719" d="M240.173,451.354a9.46,9.46,0,1,0-9.46,9.46A9.471,9.471,0,0,0,240.173,451.354Zm-12.769,0a3.308,3.308,0,1,1,3.308,3.308A3.312,3.312,0,0,1,227.4,451.354Z" transform="translate(-72.638 -260.646)" fill="#2365b1"/>
    <path id="Path_720" data-name="Path 720" d="M273.744,92.574h38.766a3.076,3.076,0,0,0,0-6.152H273.744a3.076,3.076,0,0,0,0,6.152Z" transform="translate(-101.786 -50.975)"/>
    <path id="Path_721" data-name="Path 721" d="M273.744,122.174h38.766a3.076,3.076,0,0,0,0-6.152H273.744a3.076,3.076,0,1,0,0,6.152Z" transform="translate(-101.786 -68.434)"/>
    <path id="Path_722" data-name="Path 722" d="M315.587,148.7a3.076,3.076,0,0,0-3.076-3.076H273.744a3.076,3.076,0,1,0,0,6.152h38.766a3.076,3.076,0,0,0,3.076-3.076Z" transform="translate(-101.786 -85.894)"/>
    <path id="Path_723" data-name="Path 723" d="M151.166,0h-36A17.079,17.079,0,0,0,98.1,17.059V192.944A17.079,17.079,0,0,0,115.162,210h85.824a17.079,17.079,0,0,0,17.06-17.06V79.831a11.648,11.648,0,0,0,9.585-11.447V32.834a11.647,11.647,0,0,0-9.585-11.447V17.059A17.079,17.079,0,0,0,200.986,0H165.522a3.076,3.076,0,0,0,0,6.152h35.464a10.92,10.92,0,0,1,10.907,10.907V21.2H115.162a4.323,4.323,0,0,0-4.318,4.318V174.2a4.323,4.323,0,0,0,4.318,4.319h85.824A4.323,4.323,0,0,0,205.3,174.2V132.54a3.076,3.076,0,0,0-6.152,0v39.828H117V43.321h38.272V68.384c0,.3.015.6.038.891a33.918,33.918,0,1,0,27.663,10.739h14.593c-.336.616-.1.221-4.967,7.875a4.555,4.555,0,0,0,5.714,6.6l.844-.38v24.078a3.076,3.076,0,1,0,6.152,0V91.256a25.793,25.793,0,0,0,6.589-5.092v106.78a10.92,10.92,0,0,1-10.907,10.907H115.162a10.92,10.92,0,0,1-10.907-10.907V17.059A10.919,10.919,0,0,1,115.162,6.152h36a3.076,3.076,0,0,0,0-6.152ZM126.842,37.169H117V27.356h9.846Zm28.426-4.335v4.335H132.995V27.356H156.64a11.708,11.708,0,0,0-1.372,5.478Zm19.465,92.49a27.732,27.732,0,0,1-33.316,0v-7.242a6.807,6.807,0,0,1,6.8-6.8h19.717a6.807,6.807,0,0,1,6.8,6.8Zm-24.868-28.4a8.209,8.209,0,1,1,8.209,8.209,8.219,8.219,0,0,1-8.209-8.209Zm36,6.174a27.624,27.624,0,0,1-4.98,15.846v-.858a12.97,12.97,0,0,0-11.13-12.821,14.362,14.362,0,1,0-23.362,0,12.97,12.97,0,0,0-11.13,12.821v.858a27.769,27.769,0,0,1,22.3-43.632,11.651,11.651,0,0,0,9.337,4.7h6.647a27.648,27.648,0,0,1,12.32,23.081Zm24.8-25.892a19.606,19.606,0,0,1-10.009,9.48,31.842,31.842,0,0,0,3.634-6.622,4.59,4.59,0,0,0-4.289-6.2H166.9a5.521,5.521,0,0,1-5.478-5.478V32.834a5.484,5.484,0,0,1,5.478-5.478H216a5.484,5.484,0,0,1,5.478,5.478V68.384A5.484,5.484,0,0,1,216,73.861,5.987,5.987,0,0,0,210.662,77.2Z"/>
  </g>
</svg>
