<svg xmlns="http://www.w3.org/2000/svg" width="21.783" height="17.566" viewBox="0 0 21.783 17.566">
  <g id="testimonial" transform="translate(-6.262 -0.005)">
    <g id="Group_147" data-name="Group 147" transform="translate(6.262 0.005)">
      <g id="Group_146" data-name="Group 146" transform="translate(0 0)">
        <path id="Path_314" data-name="Path 314" d="M62.1,8.312h-2.11c.317-2.35,1.617-2.468,2.215-2.522A1.16,1.16,0,0,0,63.26,4.634V1.164A1.159,1.159,0,0,0,62.035.007C58.369.213,54,2.063,54,9.71v6.035a1.829,1.829,0,0,0,1.827,1.827H62.1a1.829,1.829,0,0,0,1.827-1.827V10.138A1.829,1.829,0,0,0,62.1,8.312Zm-.492,6.94H56.319V9.71c0-5.335,2.373-6.826,4.621-7.246V3.683c-1.553.473-3.34,1.869-3.34,5.788a1.16,1.16,0,0,0,1.16,1.16h2.848v4.621Z" transform="translate(-54 -0.005)" fill="#fff"/>
      </g>
    </g>
    <g id="Group_149" data-name="Group 149" transform="translate(18.117 0.005)">
      <g id="Group_148" data-name="Group 148" transform="translate(0 0)">
        <path id="Path_315" data-name="Path 315" d="M164.335,8.312h-2.11c.317-2.35,1.617-2.468,2.215-2.522a1.16,1.16,0,0,0,1.055-1.155V1.164A1.159,1.159,0,0,0,164.269.007c-3.666.206-8.035,2.057-8.035,9.7v6.035a1.829,1.829,0,0,0,1.827,1.827h6.274a1.829,1.829,0,0,0,1.827-1.827V10.138A1.829,1.829,0,0,0,164.335,8.312Zm-.492,6.941h-5.289V9.71c0-5.335,2.373-6.826,4.621-7.246V3.683c-1.553.473-3.34,1.869-3.34,5.788a1.16,1.16,0,0,0,1.16,1.16h2.848Z" transform="translate(-156.234 -0.005)" fill="#fff"/>
      </g>
    </g>
  </g>
</svg>
