<svg xmlns="http://www.w3.org/2000/svg" width="55.557" height="62.766" viewBox="0 0 55.557 62.766">
  <g id="physics" transform="translate(-0.3 0)">
    <path id="Path_183" data-name="Path 183" d="M54.5,14.48c-2.338-3.662-7.367-5.184-14.142-4.31-.239.028-.493.07-.732.1-.1-.225-.2-.451-.31-.676C36.4,3.409,32.413,0,28.074,0s-8.339,3.409-11.24,9.593c-.1.225-.211.451-.31.676-.254-.042-.493-.07-.732-.1C9,9.282,3.988,10.818,1.649,14.48S.029,23.34,3.664,29.115c.479.761,1,1.521,1.564,2.268-.563.76-1.084,1.507-1.564,2.267C.029,39.426-.689,44.637,1.649,48.286c1.9,2.986,5.592,4.55,10.564,4.55a28.909,28.909,0,0,0,3.564-.24c.239-.028.493-.07.732-.1.1.226.2.451.31.676,2.916,6.183,6.9,9.593,11.24,9.593S36.4,59.357,39.3,53.174c.1-.226.211-.451.31-.676.254.042.493.07.733.1a26.52,26.52,0,0,0,3.563.24c4.972,0,8.663-1.564,10.564-4.55,2.338-3.662,1.62-8.86-2.014-14.635-.479-.76-1-1.521-1.564-2.267.563-.761,1.084-1.507,1.564-2.268,3.676-5.789,4.395-10.987,2.042-14.635ZM19.383,10.79c2.38-5.071,5.55-7.973,8.691-7.973s6.31,2.9,8.691,7.973a.051.051,0,0,0,.014.028A49.912,49.912,0,0,0,28.06,13.79a48.746,48.746,0,0,0-8.719-2.972c.028,0,.028-.014.042-.028ZM40.766,31.383A61.968,61.968,0,0,1,40.4,38.13a60.078,60.078,0,0,1-5.493,3.944,59.939,59.939,0,0,1-6.846,3.789,63.551,63.551,0,0,1-6.845-3.789,62.013,62.013,0,0,1-5.493-3.944,62.3,62.3,0,0,1,0-13.494A62.316,62.316,0,0,1,28.06,16.9a63.459,63.459,0,0,1,6.846,3.789A62.014,62.014,0,0,1,40.4,24.636a61.979,61.979,0,0,1,.366,6.747Zm2.69-4.1a45.6,45.6,0,0,1,3.888,4.1,45.672,45.672,0,0,1-3.888,4.1q.127-2.028.127-4.1T43.456,27.284ZM39.821,42.131a45.01,45.01,0,0,1-1.93,7.169,44.377,44.377,0,0,1-6.423-1.972c1.662-.873,3.324-1.831,4.972-2.873Q38.174,43.335,39.821,42.131Zm-15.142,5.2A41.633,41.633,0,0,1,18.257,49.3a45.008,45.008,0,0,1-1.93-7.169c1.084.8,2.211,1.577,3.381,2.31C21.355,45.5,23.018,46.455,24.679,47.328ZM12.693,35.482a45.751,45.751,0,0,1-3.888-4.1,45.682,45.682,0,0,1,3.888-4.1q-.127,2.029-.127,4.1t.127,4.1Zm3.634-14.846a44.978,44.978,0,0,1,1.93-7.169,44.219,44.219,0,0,1,6.423,1.972c-1.662.873-3.324,1.831-4.972,2.873Q17.974,19.431,16.327,20.636Zm20.1-2.324c-1.634-1.042-3.3-2.014-4.972-2.873a41.62,41.62,0,0,1,6.423-1.972,45.093,45.093,0,0,1,1.93,7.169Q38.181,19.431,36.427,18.312Zm-30.383,9.3c-2.987-4.733-3.719-8.972-2.029-11.621,1.352-2.113,4.282-3.254,8.24-3.254a25.541,25.541,0,0,1,3.169.211h.028a50.694,50.694,0,0,0-2.366,10.212,52.532,52.532,0,0,0-6.043,5.93c-.352-.479-.69-.972-1-1.479Zm9.367,22.2a25.435,25.435,0,0,1-3.169.211c-3.958,0-6.888-1.127-8.24-3.254-1.69-2.648-.958-6.888,2.028-11.621.31-.493.648-1,1-1.493a52.439,52.439,0,0,0,6.043,5.93,50.715,50.715,0,0,0,2.367,10.212c0,.014-.014.014-.028.014Zm21.354,2.169c-2.38,5.071-5.55,7.973-8.691,7.973s-6.31-2.9-8.691-7.973a.051.051,0,0,0-.014-.028,49.868,49.868,0,0,0,8.719-2.972,48.7,48.7,0,0,0,8.719,2.972c-.028,0-.028.014-.042.028ZM50.1,35.158c2.987,4.732,3.719,8.972,2.029,11.621s-5.846,3.761-11.4,3.028h-.028A50.7,50.7,0,0,0,43.075,39.6a52.483,52.483,0,0,0,6.043-5.93C49.456,34.158,49.794,34.651,50.1,35.158ZM43.061,23.171A50.677,50.677,0,0,0,40.7,12.959h.028c5.55-.719,9.7.38,11.4,3.028s.958,6.888-2.028,11.621c-.31.493-.648,1-1,1.493a51.186,51.186,0,0,0-6.029-5.93Zm0,0" transform="translate(0)" fill="#252b33"/>
    <path id="Path_184" data-name="Path 184" d="M163.457,183.2a5.578,5.578,0,1,0,5.578,5.578,5.578,5.578,0,0,0-5.578-5.578Zm0,8.339a2.761,2.761,0,1,1,2.761-2.76,2.761,2.761,0,0,1-2.761,2.76Zm0,0" transform="translate(-135.382 -157.394)" fill="#252b33"/>
  </g>
</svg>
