<svg xmlns="http://www.w3.org/2000/svg" width="118.975" height="118.975" viewBox="0 0 118.975 118.975">
  <circle id="Ellipse_4" data-name="Ellipse 4" cx="59.488" cy="59.488" r="59.488" fill="#2365b1" opacity="0.52"/>
  <g id="search" transform="translate(37.522 37.168)">
    <path id="Path_87" data-name="Path 87" d="M44.274,38.727l-11.73-12.26a1.308,1.308,0,0,0-1.87-.021l-.9.9-3.159-3.387a14.885,14.885,0,1,0-1.783,1.923L27.92,29.2l-.944.944a1.308,1.308,0,0,0-.02,1.829l11.73,12.26a1.308,1.308,0,0,0,1.87.021l3.7-3.7a1.308,1.308,0,0,0,.02-1.829ZM14.864,27.114A12.249,12.249,0,1,1,27.113,14.865,12.263,12.263,0,0,1,14.864,27.114ZM39.651,41.46,29.729,31.09l1.849-1.849L41.5,39.611Z" fill="#fff"/>
    <path id="Path_88" data-name="Path 88" d="M82.308,97.616h7.846a1.308,1.308,0,1,0,0-2.615H82.308a1.308,1.308,0,1,0,0,2.615Z" transform="translate(-73.938 -86.718)" fill="#fff"/>
    <path id="Path_89" data-name="Path 89" d="M150.154,155h-7.846a1.308,1.308,0,0,0,0,2.615h7.846a1.308,1.308,0,0,0,0-2.615Z" transform="translate(-128.708 -141.487)" fill="#fff"/>
    <path id="Path_90" data-name="Path 90" d="M82.308,157.616h1.308a1.308,1.308,0,0,0,0-2.615H82.308a1.308,1.308,0,1,0,0,2.615Z" transform="translate(-73.938 -141.487)" fill="#fff"/>
    <path id="Path_91" data-name="Path 91" d="M218.615,96h-1.308a1.308,1.308,0,0,0,0,2.615h1.308a1.308,1.308,0,0,0,0-2.615Z" transform="translate(-197.169 -87.631)" fill="#fff"/>
    <path id="Path_92" data-name="Path 92" d="M90.154,216H82.308a1.308,1.308,0,1,0,0,2.615h7.846a1.308,1.308,0,1,0,0-2.615Z" transform="translate(-73.938 -197.169)" fill="#fff"/>
    <path id="Path_93" data-name="Path 93" d="M218.615,217h-1.308a1.308,1.308,0,0,0,0,2.615h1.308a1.308,1.308,0,1,0,0-2.615Z" transform="translate(-197.169 -198.082)" fill="#fff"/>
  </g>
</svg>
