<svg xmlns="http://www.w3.org/2000/svg" width="78.045" height="92.881" viewBox="0 0 78.045 92.881">
  <g id="security_1_" data-name="security (1)" transform="translate(-17.112 0)">
    <path id="Path_564" data-name="Path 564" d="M95.057,23.916c-.048-2.508-.093-4.877-.093-7.168A3.251,3.251,0,0,0,91.713,13.5c-13.9,0-24.49-4-33.313-12.575a3.25,3.25,0,0,0-4.533,0C45.043,9.5,34.459,13.5,20.556,13.5a3.251,3.251,0,0,0-3.251,3.251c0,2.292-.045,4.662-.093,7.17-.446,23.337-1.056,55.3,37.856,68.785a3.248,3.248,0,0,0,2.129,0C96.112,79.214,95.5,47.253,95.057,23.916ZM56.133,86.18C22.761,74.057,23.266,47.5,23.713,24.041c.027-1.408.053-2.773.071-4.11,13.022-.55,23.435-4.5,32.349-12.261,8.915,7.765,19.33,11.712,32.352,12.261.018,1.337.044,2.7.071,4.108C89,47.5,89.508,74.057,56.133,86.18Z"/>
    <path id="Path_565" data-name="Path 565" d="M96.446,79.838,80.755,95.528l-6.7-6.7a3.251,3.251,0,1,0-4.6,4.6l8.995,8.995a3.251,3.251,0,0,0,4.6,0l17.99-17.989a3.251,3.251,0,0,0-4.6-4.6Z" transform="translate(-29.118 -44.69)" fill="#2365b1"/>
  </g>
</svg>
