<svg xmlns="http://www.w3.org/2000/svg" width="45.769" height="45.765" viewBox="0 0 45.769 45.765">
  <path id="skype" d="M44.443,27.739C47.757,12.847,34.711-.68,19.391,1.916,11.074-3.245,0,2.588,0,12.483A12.308,12.308,0,0,0,1.739,18.8C-1.34,33.722,11.812,47.055,27.119,44.281A12.765,12.765,0,0,0,33.1,45.762,12.5,12.5,0,0,0,44.443,27.739ZM23.063,37.905c-4.465,0-8.828-1.077-11.41-4.765C7.806,27.7,12.88,24.976,15.37,27.05,17.448,28.8,16.8,33.041,22.9,33.041c2.69,0,6.012-1.148,6.012-3.815,0-5.367-11.907-2.828-16.642-8.679a7.18,7.18,0,0,1,.069-8.666C16.06,7.091,26.981,6.8,31.678,10.416c4.336,3.356,3.165,7.81-.334,7.81-4.208,0-2-5.506-8.79-5.506-4.925,0-6.862,3.5-3.394,5.207C23.776,20.219,35.844,19.5,35.844,28.61,35.828,35.011,29.653,37.905,23.063,37.905Z" transform="translate(0 0.002)" fill="#03a9f4"/>
</svg>
