<svg xmlns="http://www.w3.org/2000/svg" width="226.435" height="226.435" viewBox="0 0 226.435 226.435">
  <g id="challenges" transform="translate(-1 -1)">
    <path id="Path_349" data-name="Path 349" d="M0,0H7.253V7.3H0Z" transform="matrix(0.821, -0.572, 0.572, 0.821, 80.739, 180.642)" fill="#2365b1"/>
    <path id="Path_350" data-name="Path 350" d="M0,0H60.564V7.3H0Z" transform="matrix(0.821, -0.572, 0.572, 0.821, 93.99, 171.407)" fill="#2365b1"/>
    <path id="Path_351" data-name="Path 351" d="M217.811,50.626a58.052,58.052,0,0,0-5.044-12.169l5.208-8.411L198.389,10.459l-8.411,5.208a58.052,58.052,0,0,0-12.169-5.044L175.545,1h-27.7l-2.264,9.623a58.052,58.052,0,0,0-12.169,5.044L125,10.459,105.416,30.046l5.208,8.411a58.052,58.052,0,0,0-5.044,12.169L95.956,52.89v7A13.416,13.416,0,0,0,91.15,62.13L66.494,80.617a3.674,3.674,0,0,1-2.191.73H55.377a25.574,25.574,0,1,0-33.154,2.169A32.894,32.894,0,0,0,1,114.217v98.609a14.623,14.623,0,0,0,14.609,14.609H227.435V52.89ZM19.261,63.087A18.261,18.261,0,1,1,37.522,81.348,18.282,18.282,0,0,1,19.261,63.087ZM8.3,114.217A25.6,25.6,0,0,1,33.87,88.652H64.3a11.01,11.01,0,0,0,6.574-2.195L95.529,67.97a6.225,6.225,0,0,1,3.7-1.231h1.527a6.16,6.16,0,0,1,3.78,11.022L81.388,95.767a18.351,18.351,0,0,1-11.212,3.842h-29v40.174H55.783a10.97,10.97,0,0,1,10.957,10.957V183.6a7.306,7.306,0,1,1-14.612,0l0-21.913a7.312,7.312,0,0,0-7.3-7.3H19.261A10.97,10.97,0,0,1,8.3,143.435Zm47.478,18.261h-7.3V106.913h21.7a25.654,25.654,0,0,0,15.7-5.387l20.573-16a57.665,57.665,0,0,0,4.178,9.5l-5.208,8.411L125,123.019l8.411-5.208a57.987,57.987,0,0,0,7.133,3.283l-66.5,46.291V150.739A18.282,18.282,0,0,0,55.783,132.478ZM30.217,161.7H44.826l0,21.906v0a14.657,14.657,0,0,0,.526,3.692L30.217,197.87ZM8.3,212.826V157.948A18.072,18.072,0,0,0,19.261,161.7h3.652v51.13a7.3,7.3,0,0,1-14.609,0Zm211.826,7.3H28.187a14.458,14.458,0,0,0,2.031-7.3v-6.044l18.7-13.067c.066.069.113.153.183.223A14.612,14.612,0,0,0,74.043,183.6v-7.323l72.273-50.3,1.53,6.5h27.7l2.264-9.623a58.052,58.052,0,0,0,12.169-5.044l8.411,5.208,19.587-19.587-5.208-8.411a58.053,58.053,0,0,0,5.044-12.169l2.319-.544Zm0-145.327-8.3,1.954-.533,2.177a50.69,50.69,0,0,1-5.906,14.254l-1.161,1.91,4.489,7.253-11.406,11.406-7.253-4.489-1.91,1.161a50.689,50.689,0,0,1-14.254,5.906l-2.177.533-1.958,8.305H153.632l-1.954-8.3-2.177-.533a50.689,50.689,0,0,1-14.254-5.906l-1.91-1.161-7.253,4.489-11.406-11.406,4.489-7.253L118,93.192a50.569,50.569,0,0,1-5.694-13.513,13.331,13.331,0,0,0-9.05-19.988V58.679l8.3-1.954.533-2.177A50.689,50.689,0,0,1,118,40.294l1.161-1.91-4.489-7.253L126.08,19.725l7.253,4.489,1.91-1.161A50.689,50.689,0,0,1,149.5,17.146l2.177-.533L153.632,8.3h16.128l1.954,8.3,2.177.533a50.689,50.689,0,0,1,14.254,5.906l1.91,1.161,7.253-4.489,11.406,11.406-4.489,7.253,1.161,1.91a50.689,50.689,0,0,1,5.906,14.254l.533,2.177,8.305,1.958V74.8Z" transform="translate(0 0)"/>
    <path id="Path_352" data-name="Path 352" d="M76.826,7a43.826,43.826,0,1,0,43.826,43.826A43.875,43.875,0,0,0,76.826,7Zm0,80.348a36.522,36.522,0,1,1,36.522-36.522A36.563,36.563,0,0,1,76.826,87.348Z" transform="translate(84.869 15.913)" fill="#2365b1"/>
    <path id="Path_353" data-name="Path 353" d="M60.913,13A21.913,21.913,0,1,0,82.826,34.913,21.935,21.935,0,0,0,60.913,13Zm0,36.522A14.609,14.609,0,1,1,75.522,34.913,14.623,14.623,0,0,1,60.913,49.522Z" transform="translate(100.782 31.826)" fill="#2365b1"/>
    <path id="Path_354" data-name="Path 354" d="M57,57h7.3v7.3H57Z" transform="translate(148.522 148.522)" fill="#2365b1"/>
    <path id="Path_355" data-name="Path 355" d="M57,53h7.3v7.3H57Z" transform="translate(148.522 137.913)" fill="#2365b1"/>
    <path id="Path_356" data-name="Path 356" d="M57,49h7.3v7.3H57Z" transform="translate(148.522 127.304)" fill="#2365b1"/>
    <path id="Path_357" data-name="Path 357" d="M11,57h7.3v7.3H11Z" transform="translate(26.522 148.522)" fill="#2365b1"/>
    <path id="Path_358" data-name="Path 358" d="M15,57h7.3v7.3H15Z" transform="translate(37.13 148.522)" fill="#2365b1"/>
    <path id="Path_359" data-name="Path 359" d="M19,57h7.3v7.3H19Z" transform="translate(47.739 148.522)" fill="#2365b1"/>
  </g>
</svg>
