<svg xmlns="http://www.w3.org/2000/svg" width="260.941" height="260.941" viewBox="0 0 260.941 260.941">
  <g id="business-idea" transform="translate(-1 -1)">
    <path id="Path_360" data-name="Path 360" d="M129.467,169.349a29.174,29.174,0,0,0,20.766-8.6l33.485-33.485h19.3a12.642,12.642,0,0,0,12.626-12.626v-8.417A12.548,12.548,0,0,0,211.1,96.6a16.711,16.711,0,0,0,4.545-11.423V77.637a8.106,8.106,0,0,1,3.628-6.9,37.884,37.884,0,1,0-40.837.059,8.278,8.278,0,0,1,3.535,7.016v8.236a16.256,16.256,0,0,0-6.557,3.948l-10.274,10.274-33.779,33.775c-4.7-4.171-14.12-11.751-23.813-14.979a86.343,86.343,0,0,0-15.278-3.5,8.374,8.374,0,0,1-7.1-8.312V101.66A33.846,33.846,0,0,0,99.531,85.17h2.479a16.792,16.792,0,0,0,13.746-26.5l.042-.088a28.839,28.839,0,0,0-12.9-38.7l-.934-.467A18.882,18.882,0,0,0,83.125,1H55.714A29.5,29.5,0,0,0,26.307,28.664l-.825.825a26.114,26.114,0,0,0-6.309,26.717l1.149,3.447a16.67,16.67,0,0,0-2.487,8.687A16.852,16.852,0,0,0,34.67,85.175h2.479A33.846,33.846,0,0,0,51.5,101.664V107.7a8.427,8.427,0,0,1-7.374,8.35l-11.907,1.49a35.813,35.813,0,0,0-20.783,10.168A35.39,35.39,0,0,0,1,152.91v66.944A12.642,12.642,0,0,0,13.626,232.48h8.417a12.484,12.484,0,0,0,4.209-.774v30.236h84.175V163.049l4.983,2.719a29.448,29.448,0,0,0,14.057,3.582Zm77.761-84.175a8.409,8.409,0,0,1-6.077,8.047,16.272,16.272,0,0,0-10.758-7.668v-.379ZM169.6,34.981A29.564,29.564,0,0,1,195.359,9.615,29.161,29.161,0,0,1,218.427,16.9a29.448,29.448,0,0,1-3.708,46.763,16.422,16.422,0,0,0-7.441,13.1H190.326a16.412,16.412,0,0,0-7.361-13.06A29.344,29.344,0,0,1,169.6,34.981Zm11.768,60.963a8.079,8.079,0,0,1,5.673-2.353,7.971,7.971,0,0,1,7.176,4.436l1.991,3.981h6.81a4.213,4.213,0,0,1,4.209,4.209v8.417a4.213,4.213,0,0,1-4.209,4.209h-19.3l-12.626-12.626ZM84.076,138.672,73.984,130.6l7.689-11.54c.084.084.168.164.253.244Zm-7.618,37.651-8.119,8.119-8.119-8.119,6.338-38.039,1.78-1.423,1.78,1.423ZM54.7,119.783c.16-.156.328-.3.484-.459L62.7,130.6,52.6,138.672Zm47.31-43.026h-.29a33.868,33.868,0,0,0,.29-4.209V59.922a8.417,8.417,0,1,1,0,16.835Zm-67.34,0a8.417,8.417,0,1,1,0-16.835V72.548a33.867,33.867,0,0,0,.29,4.209ZM34.737,51.5H34.67a16.668,16.668,0,0,0-7.55,1.869,17.618,17.618,0,0,1,4.314-17.938L34.67,32.2V30.461A21.068,21.068,0,0,1,55.714,9.417H83.125a10.464,10.464,0,0,1,3.312,20.391l-2.593.863L86.5,38.66l2.593-.867a18.846,18.846,0,0,0,11.048-9.785,20.277,20.277,0,0,1,8.872,25.071A16.692,16.692,0,0,0,102.01,51.5V43.087H82.952a75.855,75.855,0,0,1-33.775-7.976L47.3,34.173l-1.881.943A19.3,19.3,0,0,0,34.737,51.5Zm8.35,21.044V52.5a10.967,10.967,0,0,1,4.436-8.843A84.324,84.324,0,0,0,82.952,51.5h10.64V72.548a25.252,25.252,0,1,1-50.5,0Zm25.252,33.67a33.47,33.47,0,0,0,8.417-1.107v2.138a16.827,16.827,0,0,0,.383,3.43l-8.8,13.2-8.708-13.064a16.99,16.99,0,0,0,.29-3.119v-2.588a33.47,33.47,0,0,0,8.417,1.107ZM17.393,133.659a27.356,27.356,0,0,1,15.875-7.769l11.907-1.49c.194-.025.366-.093.556-.122l-3.742,33.661,14.726-11.78L51.206,179.21,68.34,196.344,85.473,179.21l-5.509-33.051,14.726,11.78L90.9,123.849c.067.013.13.038.2.046a78.089,78.089,0,0,1,13.784,3.148c8.586,2.862,17.42,10.181,21.414,13.771l-2.8,5.61,7.529,3.767,3.9-7.807,30.21-30.215,10.884,10.884L144.282,154.8a20.814,20.814,0,0,1-14.815,6.136,21.033,21.033,0,0,1-10.029-2.555L110.5,153.5a10.062,10.062,0,0,1,2.9-6.427l-5.955-5.951a18.448,18.448,0,0,0-5.438,13.131v48.762H42.553a12.389,12.389,0,0,0-3.085-5.362l-4.8-4.8v-38.6a18.465,18.465,0,0,0-5.438-13.135l-5.955,5.951a10.1,10.1,0,0,1,2.976,7.184v36.136H9.417V152.91a27.414,27.414,0,0,1,7.976-19.251Zm4.651,90.4H13.626a4.213,4.213,0,0,1-4.209-4.209V198.81h19.3l4.8,4.8a3.975,3.975,0,0,1,1.153,2.79,3.923,3.923,0,0,1-2.18,3.527l-6.237,3.119v6.81a4.213,4.213,0,0,1-4.209,4.209Zm50.5,29.461V241.58A14.248,14.248,0,0,1,82.3,228.053l-2.664-7.98a22.654,22.654,0,0,0-11.3,8.354,22.612,22.612,0,0,0-11.3-8.354l-2.664,7.98a14.245,14.245,0,0,1,9.756,13.527v11.944H34.67V218.246l1.582-.791a12.3,12.3,0,0,0,5.77-6.018H102.01v42.087Z" transform="translate(0)"/>
    <path id="Path_361" data-name="Path 361" d="M82.914,12.244,76.963,6.293,54.686,28.57l-5.442-5.442-5.951,5.951L54.686,40.472Z" transform="translate(135.707 16.984)" fill="#2365b1"/>
    <path id="Path_362" data-name="Path 362" d="M94.131,63.835V57.16a10.16,10.16,0,0,0-17.344-7.184L62.927,63.835h-19.3A12.642,12.642,0,0,0,31,76.461V93.3a12.642,12.642,0,0,0,12.626,12.626h50.5A12.642,12.642,0,0,0,106.757,93.3V76.461A12.642,12.642,0,0,0,94.131,63.835ZM98.34,93.3A4.213,4.213,0,0,1,94.131,97.5h-50.5A4.213,4.213,0,0,1,39.417,93.3V76.461a4.213,4.213,0,0,1,4.209-4.209H66.412L82.734,55.931a1.808,1.808,0,0,1,2.98,1.229V72.252h8.417a4.213,4.213,0,0,1,4.209,4.209Z" transform="translate(96.262 147.602)" fill="#2365b1"/>
    <path id="Path_363" data-name="Path 363" d="M35,55H77.087v8.417H35Z" transform="translate(109.097 173.272)" fill="#2365b1"/>
    <path id="Path_364" data-name="Path 364" d="M108.131,33h-50.5A12.642,12.642,0,0,0,45,45.626V62.461A12.642,12.642,0,0,0,57.626,75.087v6.675A10.16,10.16,0,0,0,74.97,88.947L88.83,75.087h19.3a12.642,12.642,0,0,0,12.626-12.626V45.626A12.642,12.642,0,0,0,108.131,33Zm4.209,29.461a4.213,4.213,0,0,1-4.209,4.209H85.345L69.023,82.991a1.808,1.808,0,0,1-2.98-1.229V66.67H57.626a4.213,4.213,0,0,1-4.209-4.209V45.626a4.213,4.213,0,0,1,4.209-4.209h50.5a4.213,4.213,0,0,1,4.209,4.209Z" transform="translate(141.184 102.679)" fill="#2365b1"/>
    <path id="Path_365" data-name="Path 365" d="M49,37H91.087v8.417H49Z" transform="translate(154.019 115.514)" fill="#2365b1"/>
  </g>
</svg>
