<svg id="Page-1" xmlns="http://www.w3.org/2000/svg" width="49.948" height="49.948" viewBox="0 0 49.948 49.948">
  <g id="ic-technology-swift">
    <path id="Combined-Shape" d="M37.567,0a30.572,30.572,0,0,1,3.281.319,10.552,10.552,0,0,1,3.075,1.063,9.359,9.359,0,0,1,2.69,1.965,11,11,0,0,1,2.964,5.819,17.253,17.253,0,0,1,.316,3.288h.055v25.1q-.079,1.652-.316,3.288a10.251,10.251,0,0,1-1.057,3.187,9.4,9.4,0,0,1-1.908,2.646,12.014,12.014,0,0,1-2.746,1.906A10.6,10.6,0,0,1,40.9,49.63a17.294,17.294,0,0,1-3.281.319H12.284A30.6,30.6,0,0,1,9,49.63a10.55,10.55,0,0,1-3.075-1.063A9.417,9.417,0,0,1,3.28,46.661,11,11,0,0,1,.316,40.841,17.256,17.256,0,0,1,0,37.554H0V12.192q.08-1.645.316-3.274A10.251,10.251,0,0,1,1.372,5.732,9.363,9.363,0,0,1,3.308,3.084c.206-.205.425-.3.631-.524A13.476,13.476,0,0,1,5.956,1.178h0L6.7.859A8.337,8.337,0,0,1,9.03.219,17.34,17.34,0,0,1,11.46,0H37.567Zm-8.2,9.2c3.632,4.831,5.287,10.671,3.834,15.806a13.19,13.19,0,0,1-.471,1.38h0L32.053,26A104.862,104.862,0,0,1,14.564,12.114,107.692,107.692,0,0,0,25.15,24.993,119.474,119.474,0,0,1,10.11,13.949a17.209,17.209,0,0,0,2.071,2.76A87.814,87.814,0,0,0,27.653,32.28c-4.372,2.637-10.6,2.76-16.817,0a20.084,20.084,0,0,1-4.264-2.5,25.4,25.4,0,0,0,11.53,9.58c6.016,2.5,12,2.252,16.361-.193h0l0,.014c2.112-.883,6.324-2.181,8.6,2.03.525,1.008,1.668-4.321-2.489-9.359h0l-.067-.083a2.129,2.129,0,0,0,.175-.622C42.749,23.392,37.771,14.13,29.363,9.2Z" fill="#252b33"/>
  </g>
</svg>
