<svg xmlns="http://www.w3.org/2000/svg" width="118.975" height="118.975" viewBox="0 0 118.975 118.975">
  <circle id="Ellipse_4" data-name="Ellipse 4" cx="59.488" cy="59.488" r="59.488" fill="#2365b1" opacity="0.52"/>
  <g id="send" transform="translate(35.025 6.166)">
    <path id="Path_85" data-name="Path 85" d="M45.6,35.112a1.338,1.338,0,0,0-1.783-1.531L.861,49.98a1.337,1.337,0,0,0,0,2.5l12.067,4.661V71.815a1.337,1.337,0,0,0,2.531.6l4.991-9.9,12.18,9.039a1.338,1.338,0,0,0,2.075-.683C46.072,33.584,45.58,35.206,45.6,35.112ZM35,39.81l-20.926,14.9-9-3.477Zm-19.4,17.1,18.24-12.99C18.142,60.476,18.962,59.6,18.893,59.7c-.1.137.177-.4-3.3,6.5ZM32.7,68.275,21.975,60.319l19.385-20.45Z" transform="translate(0 0)" fill="#fff"/>
  </g>
</svg>
