<svg xmlns="http://www.w3.org/2000/svg" width="52.719" height="50.852" viewBox="0 0 52.719 50.852">
  <g id="world_1_" data-name="world (1)" transform="translate(0 -6.948)">
    <g id="Group_195" data-name="Group 195" transform="translate(7.063 49.252)">
      <g id="Group_194" data-name="Group 194">
        <path id="Path_379" data-name="Path 379" d="M55.56,323.5q-.025-.023-.052-.043c-.537-.446-1.075-.924-1.569-1.419a.8.8,0,0,0-1.134,1.139,20.565,20.565,0,0,0,1.677,1.521.806.806,0,0,0,1.079-1.2Z" transform="translate(-52.569 -321.801)"/>
      </g>
    </g>
    <g id="Group_197" data-name="Group 197" transform="translate(0.165 27.001)">
      <g id="Group_196" data-name="Group 196">
        <path id="Path_380" data-name="Path 380" d="M2.684,156.242a.806.806,0,0,0-1.069.688c-.161.736-.285,1.483-.376,2.23a.806.806,0,0,0,.683.9h.1a.806.806,0,0,0,.8-.709c.086-.7.2-1.4.355-2.085A.806.806,0,0,0,2.684,156.242Z" transform="translate(-1.232 -156.197)"/>
      </g>
    </g>
    <g id="Group_199" data-name="Group 199" transform="translate(3.379 44.517)">
      <g id="Group_198" data-name="Group 198">
        <path id="Path_381" data-name="Path 381" d="M27.818,288.719c-.414-.57-.806-1.161-1.166-1.763a.806.806,0,0,0-1.105-.281h0a.806.806,0,0,0-.281,1.105v0c.387.645.806,1.279,1.252,1.886a.806.806,0,0,0,1.3-.951Z" transform="translate(-25.15 -286.562)"/>
      </g>
    </g>
    <g id="Group_201" data-name="Group 201" transform="translate(0.951 39.009)">
      <g id="Group_200" data-name="Group 200">
        <path id="Path_382" data-name="Path 382" d="M9.361,248.147c-.258-.65-.494-1.322-.693-2a.806.806,0,0,0-1-.55l-.022.007a.806.806,0,0,0-.537,1c.215.72.462,1.44.742,2.15a.814.814,0,0,0,1.51-.607Z" transform="translate(-7.076 -245.566)"/>
      </g>
    </g>
    <g id="Group_203" data-name="Group 203" transform="translate(1.654 21.433)">
      <g id="Group_202" data-name="Group 202">
        <path id="Path_383" data-name="Path 383" d="M14.372,114.84a.806.806,0,0,0-1.083.357c-.339.672-.65,1.365-.924,2.069a.8.8,0,0,0,1.5.59l0,0a19.387,19.387,0,0,1,.865-1.929A.806.806,0,0,0,14.372,114.84Z" transform="translate(-12.309 -114.753)"/>
      </g>
    </g>
    <g id="Group_205" data-name="Group 205" transform="translate(0 33.095)">
      <g id="Group_204" data-name="Group 204" transform="translate(0)">
        <path id="Path_384" data-name="Path 384" d="M1.785,204.439v0c-.086-.7-.145-1.408-.172-2.107A.807.807,0,1,0,0,202.389a17.668,17.668,0,0,0,.183,2.257.806.806,0,0,0,.779.693h.124A.806.806,0,0,0,1.785,204.439Z" transform="translate(0 -201.553)"/>
      </g>
    </g>
    <g id="Group_207" data-name="Group 207" transform="translate(19.313 8.356)">
      <g id="Group_206" data-name="Group 206">
        <path id="Path_385" data-name="Path 385" d="M147.6,18.16a.81.81,0,0,0-.884-.728c-.747.075-1.5.183-2.241.328a.81.81,0,0,0,.15,1.612l-.005-.021h.156c.693-.134,1.4-.236,2.1-.306A.81.81,0,0,0,147.6,18.16Z" transform="translate(-143.738 -17.428)"/>
      </g>
    </g>
    <g id="Group_209" data-name="Group 209" transform="translate(4.512 16.438)">
      <g id="Group_208" data-name="Group 208">
        <path id="Path_386" data-name="Path 386" d="M36.289,77.784a.811.811,0,0,0-1.145.07c-.494.564-.967,1.161-1.408,1.774a.806.806,0,0,0,.65,1.279v.011a.806.806,0,0,0,.656-.333c.414-.57.855-1.129,1.317-1.655A.811.811,0,0,0,36.289,77.784Z" transform="translate(-33.582 -77.58)"/>
      </g>
    </g>
    <g id="Group_211" data-name="Group 211" transform="translate(25.377 8.256)">
      <g id="Group_210" data-name="Group 210" transform="translate(0 0)">
        <path id="Path_387" data-name="Path 387" d="M191.981,16.923c-.742-.113-1.5-.193-2.252-.236a.808.808,0,0,0-.1,1.612c.709.054,1.413.129,2.107.236h.124a.808.808,0,0,0,.118-1.612Z" transform="translate(-188.873 -16.685)"/>
      </g>
    </g>
    <g id="Group_213" data-name="Group 213" transform="translate(8.615 12.472)">
      <g id="Group_212" data-name="Group 212">
        <path id="Path_388" data-name="Path 388" d="M67.3,48.392a.806.806,0,0,0-1.085-.2c-.618.425-1.225.887-1.806,1.365A.807.807,0,1,0,65.439,50.8c.537-.451,1.107-.881,1.688-1.279A.806.806,0,0,0,67.3,48.392Z" transform="translate(-64.116 -48.064)"/>
      </g>
    </g>
    <g id="Group_216" data-name="Group 216" transform="translate(13.69 9.667)">
      <g id="Group_215" data-name="Group 215">
        <g id="Group_214" data-name="Group 214">
          <path id="Path_389" data-name="Path 389" d="M107.82,45.653h0Z" transform="translate(-107.01 -43.171)"/>
          <path id="Path_390" data-name="Path 390" d="M105.546,27.782a.806.806,0,0,0-1.1-.525,20.142,20.142,0,0,0-2.085.876.8.8,0,1,0,.672,1.456c.634-.3,1.29-.575,1.951-.817A.806.806,0,0,0,105.546,27.782Z" transform="translate(-101.892 -27.189)"/>
        </g>
      </g>
    </g>
    <g id="Group_218" data-name="Group 218" transform="translate(23.288 56.137)">
      <g id="Group_217" data-name="Group 217">
        <path id="Path_391" data-name="Path 391" d="M177.125,373.8a.808.808,0,0,0-.857-.755,19.9,19.9,0,0,1-2.118.048.806.806,0,1,0-.043,1.612h.683c.537,0,1.075,0,1.58-.048A.808.808,0,0,0,177.125,373.8Z" transform="translate(-173.322 -373.044)"/>
      </g>
    </g>
    <g id="Group_220" data-name="Group 220" transform="translate(46.55 38.193)">
      <g id="Group_219" data-name="Group 219">
        <path id="Path_392" data-name="Path 392" d="M348.089,239.515a.807.807,0,0,0-.981.583c-.172.683-.382,1.36-.618,2.021a.8.8,0,0,0,1.52.529v0c.253-.709.473-1.435.661-2.15A.807.807,0,0,0,348.089,239.515Z" transform="translate(-346.447 -239.489)"/>
      </g>
    </g>
    <g id="Group_222" data-name="Group 222" transform="translate(47.175 26.199)">
      <g id="Group_221" data-name="Group 221">
        <path id="Path_393" data-name="Path 393" d="M353.145,153.017c-.124-.742-.279-1.489-.468-2.214a.806.806,0,0,0-1.559.408c.177.677.322,1.376.441,2.069a.806.806,0,0,0,.785.661h.134A.806.806,0,0,0,353.145,153.017Z" transform="translate(-351.099 -150.23)"/>
      </g>
    </g>
    <g id="Group_224" data-name="Group 224" transform="translate(5.747 6.948)">
      <g id="Group_223" data-name="Group 223">
        <path id="Path_394" data-name="Path 394" d="M89.675,19.734a.782.782,0,0,0-.153-.222L88.1,18.028a.779.779,0,0,0-.779-.193l-2.569.779-3.01-3.192,6.756-3.762a.785.785,0,0,0,.231-1.263l-1.9-1.9a.785.785,0,0,0-.779-.183l-8.562,2.591L74.607,7.849a2.607,2.607,0,0,0-2.967-.7h-.048A3.171,3.171,0,0,0,69.867,8.87a2.905,2.905,0,0,0-.172.634l-.328-.113a.807.807,0,1,0-.494,1.537c.414.134.828.285,1.242.441a3.1,3.1,0,0,0,.435.537l3.037,2.881-.871,2.875a18.939,18.939,0,1,0,4,3.859l1.376-2.483,3.192,3.01-.769,2.542a.779.779,0,0,0,.188.8S82.282,26.945,82.319,27a.779.779,0,0,0,1.065-.283l.01-.018,2.1-3.854,3.794-2.069A.785.785,0,0,0,89.675,19.734ZM49.546,20.8a17.258,17.258,0,0,1,12.216-5.052q.538,0,1.075.032c3.047,2.811,2.15,5.375.107,7.686a37.725,37.725,0,0,1-3.87,3.569c-1.983,1.688-3.832,3.262-4.531,4.837-.828,1.87-.22,3.563,3.123,5.041A8.787,8.787,0,0,1,60.6,38.661a.086.086,0,0,0,.016.015l-.037.012a6.68,6.68,0,0,1-2.537.435C53.99,39.3,51.1,36.7,48.863,34.7c-1.612-1.435-2.951-2.628-4.343-2.639A17.258,17.258,0,0,1,49.546,20.8ZM79.1,33.039h.005A17.328,17.328,0,0,1,67.169,49.5a5.638,5.638,0,0,1,.661-3.66,13.325,13.325,0,0,1,3.225-3.547c4.961-4.138,5.24-6.449,5.455-8.228.134-1.123.236-1.962,2.456-3.182A17.511,17.511,0,0,1,79.1,33.039Zm-1-5.815a17.148,17.148,0,0,1,.591,2.069c-3.381,1.72-3.531,2.945-3.735,4.617-.183,1.5-.419,3.472-4.9,7.213a14.7,14.7,0,0,0-3.6,3.993,7.127,7.127,0,0,0-.806,4.8A17.316,17.316,0,0,1,44.483,33.647c.855,0,1.962,1.016,3.321,2.225,2.462,2.2,5.611,5,10.3,4.837a8.061,8.061,0,0,0,3.225-.613,1.612,1.612,0,0,0,.892-1.01,1.537,1.537,0,0,0-.387-1.4,10.038,10.038,0,0,0-3.515-2.2C56.049,34.48,55.554,33.5,56,32.5c.537-1.258,2.268-2.687,4.106-4.3a39.123,39.123,0,0,0,4.036-3.762c2.247-2.558,3.4-5.348,1.118-8.4a17.2,17.2,0,0,1,6.987,3.176L71.011,23.3a.785.785,0,0,0,.188.8s2,1.989,2.069,2.026a.779.779,0,0,0,1.065-.283l.01-.018,1.564-2.827A17.28,17.28,0,0,1,78.1,27.224Zm7.207-6-.693.344a.774.774,0,0,0-.355.36l-.344.7-1.338,2.419-.392-.43.779-2.574a.779.779,0,0,0-.253-.828l-4.24-3.993a.779.779,0,0,0-1.1.01l-.021.022c-.054.059-3.87,6.933-3.87,6.933l-.833-.833,2.6-8.572a.779.779,0,0,0-.253-.833l-3.375-3.176a1.118,1.118,0,0,1-.306-1.29,1.688,1.688,0,0,1,.876-.871h.027a1.118,1.118,0,0,1,1.258.322L76.7,12.337a.779.779,0,0,0,.8.215l8.6-2.6.833.833L80.1,14.54a.779.779,0,0,0-.311,1.057l.01.018c.032.059,4.144,4.434,4.144,4.434a.779.779,0,0,0,.8.21l2.585-.779.4.4Z" transform="translate(-42.775 -6.948)" fill="#2365b1"/>
      </g>
    </g>
    <g id="Group_226" data-name="Group 226" transform="translate(43.838 43.772)">
      <g id="Group_225" data-name="Group 225">
        <path id="Path_395" data-name="Path 395" d="M328.634,281.125l-.036-.02a.806.806,0,0,0-1.075.317c-.339.618-.709,1.225-1.107,1.806a.808.808,0,1,0,1.322.93c.419-.623.817-1.274,1.182-1.929A.806.806,0,0,0,328.634,281.125Z" transform="translate(-326.269 -281.013)"/>
      </g>
    </g>
    <g id="Group_228" data-name="Group 228" transform="translate(47.836 32.115)">
      <g id="Group_227" data-name="Group 227">
        <path id="Path_396" data-name="Path 396" d="M356.936,194.256a.806.806,0,0,0-.817.8c0,.011,0,.022,0,.033v.091c0,.7-.032,1.413-.1,2.118a.806.806,0,0,0,.73.876h.076a.806.806,0,0,0,.812-.747c.07-.747.1-1.5.1-2.257v-.107A.806.806,0,0,0,356.936,194.256Z" transform="translate(-356.019 -194.255)"/>
      </g>
    </g>
    <g id="Group_230" data-name="Group 230" transform="translate(17.307 55.265)">
      <g id="Group_229" data-name="Group 229">
        <path id="Path_397" data-name="Path 397" d="M131.949,367.074a16.658,16.658,0,0,1-2.064-.473.806.806,0,0,0-.535,1.521.825.825,0,0,0,.094.027c.72.2,1.462.382,2.2.537h.15a.81.81,0,0,0,.15-1.612Z" transform="translate(-128.811 -366.555)"/>
      </g>
    </g>
    <g id="Group_232" data-name="Group 232" transform="translate(29.274 55.012)">
      <g id="Group_231" data-name="Group 231">
        <path id="Path_398" data-name="Path 398" d="M221.521,365.193a.806.806,0,0,0-.978-.5v.021a16.023,16.023,0,0,1-2.037.537.807.807,0,1,0,.355,1.575c.731-.167,1.467-.371,2.182-.6A.806.806,0,0,0,221.521,365.193Z" transform="translate(-217.876 -364.665)"/>
      </g>
    </g>
    <g id="Group_234" data-name="Group 234" transform="translate(11.823 52.911)">
      <g id="Group_233" data-name="Group 233">
        <path id="Path_399" data-name="Path 399" d="M91.088,350.145c-.64-.317-1.268-.661-1.876-1.005a.807.807,0,0,0-.817,1.392c.65.382,1.322.736,2,1.075a.808.808,0,0,0,.688-1.462Z" transform="translate(-87.997 -349.029)"/>
      </g>
    </g>
    <g id="Group_236" data-name="Group 236" transform="translate(39.873 48.63)">
      <g id="Group_235" data-name="Group 235">
        <path id="Path_400" data-name="Path 400" d="M299.663,317.382a.806.806,0,0,0-1.125.037h.005a19.6,19.6,0,0,1-1.516,1.478.807.807,0,0,0,1.075,1.2c.537-.5,1.107-1.032,1.612-1.58A.806.806,0,0,0,299.663,317.382Z" transform="translate(-296.758 -317.171)"/>
      </g>
    </g>
    <g id="Group_238" data-name="Group 238" transform="translate(34.916 52.47)">
      <g id="Group_237" data-name="Group 237">
        <path id="Path_401" data-name="Path 401" d="M263.276,346.139a.806.806,0,0,0-1.106-.278l-.038.024v-.021c-.591.376-1.209.731-1.833,1.075a.806.806,0,0,0,.736,1.435c.666-.344,1.328-.726,1.962-1.129A.806.806,0,0,0,263.276,346.139Z" transform="translate(-259.861 -345.746)"/>
      </g>
    </g>
  </g>
</svg>
