<svg xmlns="http://www.w3.org/2000/svg" width="89.228" height="89.228" viewBox="0 0 89.228 89.228">
  <g id="Application" transform="translate(-2 -2)">
    <path id="Path_305" data-name="Path 305" d="M25,44H45.82v2.974H25Z" transform="translate(11.204 20.459)" fill="#2365b1"/>
    <path id="Path_306" data-name="Path 306" d="M21,44h2.974v2.974H21Z" transform="translate(9.255 20.459)" fill="#2365b1"/>
    <path id="Path_307" data-name="Path 307" d="M89.74,7.949H68.921V6.461A4.475,4.475,0,0,0,64.459,2H28.768a4.475,4.475,0,0,0-4.461,4.461V12.41H3.487A1.487,1.487,0,0,0,2,13.9V31.743A1.487,1.487,0,0,0,3.487,33.23h20.82V36.2a7.436,7.436,0,0,0-7.436,7.436v6.082l2.974,31.155V89.74a1.487,1.487,0,0,0,1.487,1.487H54.049a1.487,1.487,0,0,0,1.487-1.487V81.294l5.532-7.912h3.391a4.475,4.475,0,0,0,4.461-4.461V67.434h1.487a5.926,5.926,0,0,0,3.9-10.41,5.876,5.876,0,0,0,0-8.923,5.876,5.876,0,0,0,0-8.923,5.926,5.926,0,0,0-3.9-10.41H68.921V25.794H89.74a1.487,1.487,0,0,0,1.487-1.487V9.436A1.487,1.487,0,0,0,89.74,7.949ZM58.094,4.974l-.461,1.844a1.487,1.487,0,0,1-1.443,1.13H37.037a1.487,1.487,0,0,1-1.443-1.13l-.461-1.844ZM4.974,30.255V15.384H31.743V30.255Zm47.588,58H22.82V82.3H52.562Zm.714-8.923H22.686l-2.84-29.743V43.64a4.475,4.475,0,0,1,4.461-4.461h10.41a4.461,4.461,0,0,1,0,8.923H25.794a1.487,1.487,0,0,0-1.487,1.487V68.921a4.475,4.475,0,0,0,4.461,4.461H57.44Zm12.67-10.41a1.487,1.487,0,0,1-1.487,1.487H28.768a1.487,1.487,0,0,1-1.487-1.487V51.075h7.436a7.436,7.436,0,0,0,0-14.871H27.281V33.23H33.23a1.487,1.487,0,0,0,1.487-1.487V13.9A1.487,1.487,0,0,0,33.23,12.41H27.281V6.461a1.487,1.487,0,0,1,1.487-1.487h3.3l.639,2.573a4.461,4.461,0,0,0,4.328,3.376H56.191a4.461,4.461,0,0,0,4.328-3.376l.639-2.572h3.3a1.487,1.487,0,0,1,1.487,1.487V7.949H62.972a1.487,1.487,0,0,0-1.487,1.487V24.307a1.487,1.487,0,0,0,1.487,1.487h2.974v2.974H64.459a5.926,5.926,0,0,0-3.9,10.41,5.876,5.876,0,0,0,0,8.923,5.876,5.876,0,0,0,0,8.923,5.926,5.926,0,0,0,3.9,10.41h1.487Zm4.461-4.461H64.459a2.974,2.974,0,1,1,0-5.949h5.949a2.974,2.974,0,0,1,0,5.949Zm0-8.923H64.459a2.974,2.974,0,1,1,0-5.949h5.949a2.974,2.974,0,0,1,0,5.949Zm0-8.923H64.459a2.974,2.974,0,1,1,0-5.949h5.949a2.974,2.974,0,0,1,0,5.949Zm0-14.871a2.974,2.974,0,1,1,0,5.948H64.459a2.974,2.974,0,1,1,0-5.948ZM88.253,22.82H64.459v-11.9H88.253Z" transform="translate(0 0)" fill="#2365b1"/>
    <path id="Path_308" data-name="Path 308" d="M6,13H8.974v2.974H6Z" transform="translate(1.949 5.358)" fill="#2365b1"/>
    <path id="Path_309" data-name="Path 309" d="M10,13H24.871v2.974H10Z" transform="translate(3.897 5.358)" fill="#2365b1"/>
    <path id="Path_310" data-name="Path 310" d="M6,17H26.82v2.974H6Z" transform="translate(1.949 7.307)" fill="#2365b1"/>
    <path id="Path_311" data-name="Path 311" d="M46,11h5.949v2.974H46Z" transform="translate(21.434 4.384)" fill="#2365b1"/>
    <path id="Path_312" data-name="Path 312" d="M52,11h8.923v2.974H52Z" transform="translate(24.356 4.384)" fill="#2365b1"/>
  </g>
</svg>
