<svg xmlns="http://www.w3.org/2000/svg" width="41.224" height="71.88" viewBox="0 0 41.224 71.88">
  <g id="Group_144" data-name="Group 144" transform="translate(-11.187)">
    <g id="Group_19" data-name="Group 19" transform="translate(11.187)">
      <g id="Group_12" data-name="Group 12">
        <g id="Group_11" data-name="Group 11">
          <path id="Path_5" data-name="Path 5" d="M188,145.592h-8.125A1.6,1.6,0,0,1,178.282,144v-7.5a1.6,1.6,0,0,1,1.595-1.595H188A1.6,1.6,0,0,1,189.6,136.5V144A1.6,1.6,0,0,1,188,145.592Z" transform="translate(-170.066 -117.171)" fill="#2365b1"/>
          <path id="Path_6" data-name="Path 6" d="M272.921,145.31H264.8a1.6,1.6,0,0,1-1.595-1.595v-7.5a1.6,1.6,0,0,1,1.595-1.595h8.125a1.6,1.6,0,0,1,1.595,1.595v7.5A1.6,1.6,0,0,1,272.921,145.31Z" transform="translate(-241.441 -116.934)" fill="#2365b1"/>
          <g id="Group_2" data-name="Group 2" transform="translate(35.349 17.688)">
            <path id="Path_7" data-name="Path 7" d="M353.43,134.622V145.31h-3.437a1.6,1.6,0,0,1-1.595-1.595v-7.5a1.6,1.6,0,0,1,1.595-1.595Z" transform="translate(-348.398 -134.622)" fill="#2365b1"/>
          </g>
          <g id="Group_3" data-name="Group 3" transform="translate(11.227 11.059)">
            <path id="Path_8" data-name="Path 8" d="M215.132,93.061H197.957a.8.8,0,1,0,0,1.595h17.174a.8.8,0,1,0,0-1.595Z" transform="translate(-197.16 -93.061)" fill="#2365b1"/>
          </g>
          <g id="Group_9" data-name="Group 9" transform="translate(8.216 16.011)">
            <g id="Group_5" data-name="Group 5" transform="translate(0 0.045)">
              <path id="Path_9" data-name="Path 9" d="M188,135.08h-8.125a1.6,1.6,0,0,1-1.595-1.595v-7.5a1.6,1.6,0,0,1,1.595-1.595H188a1.6,1.6,0,0,1,1.595,1.595v7.5A1.6,1.6,0,0,1,188,135.08Z" transform="translate(-178.282 -124.392)" fill="#2365b1"/>
              <g id="Group_4" data-name="Group 4" transform="translate(3.929 4.751)">
                <path id="Path_10" data-name="Path 10" d="M207.009,170.507h-3.3a.8.8,0,1,0,0,1.595h3.3a.8.8,0,1,0,0-1.595Z" transform="translate(-202.913 -167.902)" fill="#2365b1"/>
                <path id="Path_11" data-name="Path 11" d="M219.617,154.177h-.906a.8.8,0,1,0,0,1.595h.906a.8.8,0,0,0,0-1.595Z" transform="translate(-215.521 -154.177)" fill="#2365b1"/>
              </g>
            </g>
            <g id="Group_7" data-name="Group 7" transform="translate(13.544)">
              <path id="Path_12" data-name="Path 12" d="M272.921,134.8H264.8A1.6,1.6,0,0,1,263.2,133.2v-7.5a1.6,1.6,0,0,1,1.595-1.595h8.125a1.6,1.6,0,0,1,1.595,1.595v7.5A1.6,1.6,0,0,1,272.921,134.8Z" transform="translate(-263.201 -124.11)" fill="#2365b1"/>
              <g id="Group_6" data-name="Group 6" transform="translate(3.929 4.751)">
                <path id="Path_13" data-name="Path 13" d="M291.928,170.226h-3.3a.8.8,0,1,0,0,1.595h3.3a.8.8,0,1,0,0-1.595Z" transform="translate(-287.832 -167.621)" fill="#2365b1"/>
                <path id="Path_14" data-name="Path 14" d="M304.536,153.9h-.906a.8.8,0,0,0,0,1.595h.906a.8.8,0,0,0,0-1.595Z" transform="translate(-300.44 -153.895)" fill="#2365b1"/>
              </g>
            </g>
            <g id="Group_8" data-name="Group 8" transform="translate(27.133 0)">
              <path id="Path_15" data-name="Path 15" d="M353.43,124.111V134.8h-3.437A1.6,1.6,0,0,1,348.4,133.2v-7.5a1.6,1.6,0,0,1,1.595-1.595Z" transform="translate(-348.398 -124.111)" fill="#2365b1"/>
            </g>
          </g>
          <path id="Path_17" data-name="Path 17" d="M162.409,95.6H132.35a5.589,5.589,0,0,1-5.582-5.582V29.306a5.589,5.589,0,0,1,5.582-5.582h30.059a5.589,5.589,0,0,1,5.582,5.582V90.022A5.589,5.589,0,0,1,162.409,95.6ZM132.35,25.319a3.992,3.992,0,0,0-3.987,3.987V90.022a3.992,3.992,0,0,0,3.987,3.987h30.059a3.992,3.992,0,0,0,3.987-3.987V29.306a3.992,3.992,0,0,0-3.987-3.987Z" transform="translate(-126.768 -23.724)" fill="#2365b1"/>
          <g id="Group_10" data-name="Group 10" transform="translate(17.026 3.568)">
            <path id="Path_18" data-name="Path 18" d="M239.891,47.689h-5.577a.8.8,0,0,1,0-1.595h5.577a.8.8,0,0,1,0,1.595Z" transform="translate(-233.517 -46.094)" fill="#2365b1"/>
          </g>
          <ellipse id="Ellipse_3" data-name="Ellipse 3" cx="0.798" cy="0.798" rx="0.798" ry="0.798" transform="translate(26.323 3.567)" fill="#2365b1"/>
        </g>
      </g>
      <g id="Group_14" data-name="Group 14" transform="translate(5.245 35.94)">
        <g id="Group_13" data-name="Group 13" transform="translate(7.857)">
          <path id="Path_19" data-name="Path 19" d="M213.009,249.062h-3.3a.8.8,0,1,0,0,1.595h3.3a.8.8,0,1,0,0-1.595Z" transform="translate(-208.913 -249.062)" fill="#2365b1"/>
          <path id="Path_20" data-name="Path 20" d="M229.277,269.335H209.71a.8.8,0,1,0,0,1.595h19.567a.8.8,0,1,0,0-1.595Z" transform="translate(-208.913 -266.102)" fill="#2365b1"/>
        </g>
        <path id="Path_21" data-name="Path 21" d="M163.685,253.891h-3.233a.8.8,0,0,1-.8-.8V249.86a.8.8,0,0,1,.8-.8h3.233a.8.8,0,0,1,.8.8v3.233A.8.8,0,0,1,163.685,253.891Z" transform="translate(-159.654 -249.063)" fill="#2365b1"/>
      </g>
      <g id="Group_16" data-name="Group 16" transform="translate(5.245 45.82)">
        <g id="Group_15" data-name="Group 15" transform="translate(7.857)">
          <path id="Path_22" data-name="Path 22" d="M213.009,311.006h-3.3a.8.8,0,1,0,0,1.595h3.3a.8.8,0,1,0,0-1.595Z" transform="translate(-208.913 -311.006)" fill="#2365b1"/>
          <path id="Path_23" data-name="Path 23" d="M229.277,331.278H209.71a.8.8,0,1,0,0,1.595h19.567a.8.8,0,1,0,0-1.595Z" transform="translate(-208.913 -328.045)" fill="#2365b1"/>
        </g>
        <path id="Path_24" data-name="Path 24" d="M163.685,315.834h-3.233a.8.8,0,0,1-.8-.8V311.8a.8.8,0,0,1,.8-.8h3.233a.8.8,0,0,1,.8.8v3.233A.8.8,0,0,1,163.685,315.834Z" transform="translate(-159.654 -311.006)" fill="#2365b1"/>
      </g>
      <g id="Group_18" data-name="Group 18" transform="translate(5.245 55.699)">
        <g id="Group_17" data-name="Group 17" transform="translate(7.857)">
          <path id="Path_25" data-name="Path 25" d="M213.009,372.949h-3.3a.8.8,0,1,0,0,1.595h3.3a.8.8,0,0,0,0-1.595Z" transform="translate(-208.913 -372.949)" fill="#2365b1"/>
          <path id="Path_26" data-name="Path 26" d="M229.277,393.221H209.71a.8.8,0,1,0,0,1.595h19.567a.8.8,0,1,0,0-1.595Z" transform="translate(-208.913 -389.988)" fill="#2365b1"/>
        </g>
        <path id="Path_27" data-name="Path 27" d="M163.685,377.777h-3.233a.8.8,0,0,1-.8-.8v-3.233a.8.8,0,0,1,.8-.8h3.233a.8.8,0,0,1,.8.8v3.233A.8.8,0,0,1,163.685,377.777Z" transform="translate(-159.654 -372.949)" fill="#2365b1"/>
      </g>
    </g>
  </g>
</svg>
