<svg id="Group_91" data-name="Group 91" xmlns="http://www.w3.org/2000/svg" width="88.979" height="104.749" viewBox="0 0 88.979 104.749">
  <path id="Path_149" data-name="Path 149" d="M235.85,496.091h43.623v3.49H235.85Z" transform="translate(-195.712 -394.853)" fill="#fff"/>
  <g id="Group_90" data-name="Group 90" transform="translate(0 0)">
    <path id="Path_150" data-name="Path 150" d="M127.792,51.626c2.726-14.808-1.724-35.164-17.942-44.864A45.066,45.066,0,0,0,76.178,2.525C60.46,6.728,48.907,18.007,45.274,32.7a29.867,29.867,0,0,0-1.017,9.151A30.717,30.717,0,0,0,45.311,47.5a24.435,24.435,0,0,1,1.043,7.253c-.073,2.924-2.087,5.958-3.866,8.635-1.939,2.921-3.614,5.444-2.643,7.771a5.7,5.7,0,0,0,4.362,2.795,2.087,2.087,0,0,0,.317.032,1.636,1.636,0,0,1,1.83,1.744c0,3.626.09,5.5,1.588,6.355a3.194,3.194,0,0,0-.271.861,3.109,3.109,0,0,0,.983,2.751,5.3,5.3,0,0,0,2.767,1.413c.073.017.143.03.211.046a4.462,4.462,0,0,1,.055.785,18.785,18.785,0,0,1-.138,1.941c-.29,2.791-.687,6.614,4.9,8.439a11.5,11.5,0,0,0,3.446.419,54.653,54.653,0,0,0,15.513-2.974,19.717,19.717,0,0,1,2.548,8.214,1.745,1.745,0,0,0,1.745,1.745h6.98a1.745,1.745,0,1,0,0-3.49H81.3a24.99,24.99,0,0,0-2.565-7.654c5.056-1.981,9.509-4.529,11.647-7.325a1.746,1.746,0,0,0-2.774-2.12C82.665,91.6,62.118,96.506,57.531,95.006c-2.905-.95-2.79-2.065-2.51-4.761a21.94,21.94,0,0,0,.157-2.3c0-2.94-1.186-3.818-2.968-4.231a2.237,2.237,0,0,1-.939-.363,4.842,4.842,0,0,1,1.154-.817,1.745,1.745,0,0,0-.769-3.312c-.63,0-1.331,0-1.7-.046a26.943,26.943,0,0,1-.112-3.442,5.1,5.1,0,0,0-5.107-5.23c-1.258-.265-1.639-.606-1.672-.685-.254-.606,1.428-3.136,2.331-4.5,1.937-2.917,4.349-6.549,4.448-10.477a24.484,24.484,0,0,0-.721-6.473,17.392,17.392,0,0,1,6.58-3.628,5.409,5.409,0,0,1,2.593.181,1.745,1.745,0,0,0,.927-3.364,8.8,8.8,0,0,0-4.243-.232,17.981,17.981,0,0,0-6.761,3.358,20.735,20.735,0,0,1-.483-3.09,25.832,25.832,0,0,1,.925-8.062C52.035,19.9,62.392,9.823,77.081,5.9a41.449,41.449,0,0,1,30.976,3.862c14.789,8.845,18.818,27.575,16.3,41.236a77.864,77.864,0,0,1-9.007,24.814c-.959,1.79-1.788,3.336-2.386,4.766a1.7,1.7,0,0,0-.109.813c.047,4.183,3.815,15.2,7.048,20.851H100.638a1.745,1.745,0,1,0,0,3.49h22.684v-.012a1.742,1.742,0,0,0,1.384-.723,1.771,1.771,0,0,0-.378-2.436c-1.805-1.371-7.784-15.814-7.968-21,.527-1.2,1.233-2.54,2.069-4.1A81.991,81.991,0,0,0,127.792,51.626Z" transform="translate(-39.561 -1)" fill="#2365b1"/>
    <path id="Path_151" data-name="Path 151" d="M297.328,496.091a1.836,1.836,0,0,0-1.239.506l-.21.262a1.33,1.33,0,0,0-.158.314,1.1,1.1,0,0,0-.1.314,2.554,2.554,0,0,0-.035.349,1.832,1.832,0,0,0,.506,1.239,1.72,1.72,0,0,0,2.844-.575,1.747,1.747,0,0,0,.14-.664,1.729,1.729,0,0,0-1.745-1.745Z" transform="translate(-243.231 -394.853)" fill="#51a1ff"/>
    <path id="Path_152" data-name="Path 152" d="M178.727,90.3l4.324-3.456a5.224,5.224,0,1,0,3.71-9.573l-3.341-4.632a5.183,5.183,0,0,0,.468-1.2l3.236-1.294a5.222,5.222,0,1,0,5.055-8.545l-2.621-5.229a5.213,5.213,0,0,0-6.411-8.117l-2.923-2.427a5.215,5.215,0,0,0-8.664-5.424l-5.173-1.293a5.2,5.2,0,0,0-10.011-.061l-6.914,1.383a5.21,5.21,0,0,0-8.331,6.149l-3.388,4.512a5.219,5.219,0,0,0-.3,10.209l2.8,6.915a5.225,5.225,0,1,0,8.59,5.464H158.2a5.053,5.053,0,0,0,5.712,3.409l5.793,8.811a5.221,5.221,0,1,0,9.02,4.4Zm-5.143-6.147a5.153,5.153,0,0,0-.8.081l-5.793-8.811a5.2,5.2,0,0,0,1.118-2.006L174,72.235a5.228,5.228,0,0,0,6.836,2.783L182.99,78a5.224,5.224,0,0,0-2.426,4.4,5.172,5.172,0,0,0,.31,1.709l-2.946,2.355A5.233,5.233,0,0,0,173.584,84.149ZM148.037,68.74l8.57-7.141,2.918,6.545A5.222,5.222,0,0,0,158.2,70.19h-9.368A5.191,5.191,0,0,0,148.037,68.74ZM143.6,54.485a5.239,5.239,0,0,0-2.062-2.635l2.23-2.969a4.9,4.9,0,0,0,3.343.142L152.5,52.48a5.225,5.225,0,0,0-1.275,2.006Zm18.117-7.655,5.239,5.238a5.226,5.226,0,0,0-1.773,2.417h-4.133a5.227,5.227,0,0,0-2.275-2.751ZM175.09,57.709,182,56.326c.11.116.23.22.35.326l-3.225,8.062-5.653-4.522a5.207,5.207,0,0,0,1.614-2.483Zm-1.268,11-5.89,1.178a5.24,5.24,0,0,0-1-1.51l3.629-6.049,4.873,3.9a5.208,5.208,0,0,0-1.613,2.483ZM163.115,66.7c-.135,0-.262.03-.395.04l-3-6.718a5.222,5.222,0,0,0,1.324-2.046h4.133a5.226,5.226,0,0,0,2.275,2.75l-3.628,6.046A5.163,5.163,0,0,0,163.115,66.7Zm-6.98-12.215a1.745,1.745,0,1,1-1.745,1.745A1.745,1.745,0,0,1,156.135,54.485Zm22.684,13.959a1.725,1.725,0,0,1,.629.127l.015.01c.016.006.032,0,.048.009a1.739,1.739,0,1,1-.692-.146Zm-6.98-12.214a1.745,1.745,0,1,1-1.745-1.745A1.745,1.745,0,0,1,171.839,56.231ZM185.8,84.149a1.745,1.745,0,1,1,1.745-1.745A1.745,1.745,0,0,1,185.8,84.149Zm-2.325-16.3a5.235,5.235,0,0,0-1.21-1.566l3.33-8.324c.07,0,.135.021.206.021a5.128,5.128,0,0,0,.628-.063l2.113,4.215A5.218,5.218,0,0,0,185.8,66.7c0,.071.018.136.021.207Zm7.56.6a1.745,1.745,0,0,1-1.6-1.052c-.006-.016,0-.033-.009-.048l-.011-.017a1.719,1.719,0,0,1-.127-.627,1.745,1.745,0,1,1,1.745,1.745Zm-3.49-15.7a1.746,1.746,0,0,1-1.745,1.745,1.725,1.725,0,0,1-.629-.127l-.015-.01c-.015-.006-.031,0-.047-.009a1.744,1.744,0,1,1,2.436-1.6Zm-12.214-10.47a1.745,1.745,0,1,1-1.745,1.745A1.745,1.745,0,0,1,175.329,42.271Zm0,6.98a5.178,5.178,0,0,0,2.653-.748l2.923,2.427a5.181,5.181,0,0,0-.342,1.811c0,.106.025.2.031.308l-5.683,1.137a5.237,5.237,0,0,0-4.014-3.109l-6.389-6.389a5.247,5.247,0,0,0,1.637-2.042l3.986,1c-.009.126-.038.245-.038.373A5.241,5.241,0,0,0,175.329,49.251ZM161.37,38.781a1.745,1.745,0,1,1-1.745,1.745A1.745,1.745,0,0,1,161.37,38.781Zm-4.818,3.79a5.248,5.248,0,0,0,2.179,2.45L155.564,50.3l-5.476-3.513a5.187,5.187,0,0,0,.812-2.771c0-.106-.025-.2-.031-.308Zm-10.887-.3a1.745,1.745,0,1,1-1.745,1.745A1.745,1.745,0,0,1,145.665,42.271Zm-6.98,12.214a1.745,1.745,0,1,1-1.745,1.745A1.745,1.745,0,0,1,138.686,54.485Zm2.353,6.4a5.229,5.229,0,0,0,2.561-2.906h7.623A5.218,5.218,0,0,0,152.8,60.23L144.913,66.8a5.232,5.232,0,0,0-.992-.1c-.173,0-.336.035-.5.051Zm2.882,12.8a1.745,1.745,0,1,1,1.745-1.745A1.745,1.745,0,0,1,143.92,73.68Zm17.449-1.745a1.745,1.745,0,1,1,1.745,1.745A1.745,1.745,0,0,1,161.37,71.935Zm10.47,17.449a1.745,1.745,0,1,1,1.745,1.745A1.745,1.745,0,0,1,171.839,89.384Z" transform="translate(-114.252 -28.279)" fill="#51a1ff"/>
  </g>
</svg>
