<svg xmlns="http://www.w3.org/2000/svg" width="80.453" height="83.228" viewBox="0 0 80.453 83.228">
  <g id="seo" transform="translate(-8)">
    <g id="Group_123" data-name="Group 123" transform="translate(44.067 12.499)">
      <g id="Group_122" data-name="Group 122" transform="translate(0 0)">
        <rect id="Rectangle_94" data-name="Rectangle 94" width="37.433" height="2.6" fill="#2365b1"/>
      </g>
    </g>
    <g id="Group_125" data-name="Group 125" transform="translate(44.067 18.218)">
      <g id="Group_124" data-name="Group 124" transform="translate(0 0)">
        <rect id="Rectangle_95" data-name="Rectangle 95" width="23.396" height="2.6" fill="#2365b1"/>
      </g>
    </g>
    <g id="Group_127" data-name="Group 127" transform="translate(44.067 23.417)">
      <g id="Group_126" data-name="Group 126" transform="translate(0 0)">
        <rect id="Rectangle_96" data-name="Rectangle 96" width="23.396" height="3.119" fill="#2365b1"/>
      </g>
    </g>
    <g id="Group_129" data-name="Group 129" transform="translate(54.986 6.78)">
      <g id="Group_128" data-name="Group 128" transform="translate(0 0)">
        <rect id="Rectangle_97" data-name="Rectangle 97" width="26.515" height="3.119" fill="#2365b1"/>
      </g>
    </g>
    <g id="Group_131" data-name="Group 131" transform="translate(49.786 6.78)">
      <g id="Group_130" data-name="Group 130" transform="translate(0 0)">
        <rect id="Rectangle_98" data-name="Rectangle 98" width="2.6" height="3.119" fill="#2365b1"/>
      </g>
    </g>
    <g id="Group_133" data-name="Group 133" transform="translate(46.667 55.651)">
      <g id="Group_132" data-name="Group 132" transform="translate(0 0)">
        <rect id="Rectangle_99" data-name="Rectangle 99" width="3.119" height="2.6" fill="#2365b1"/>
      </g>
    </g>
    <g id="Group_135" data-name="Group 135" transform="translate(24.646 7.342)">
      <g id="Group_134" data-name="Group 134">
        <path id="Path_301" data-name="Path 301" d="M109.144,44.305l-1.961-1.961-2.774,2.774a1.387,1.387,0,0,0,0,1.961l2.774,2.774,1.961-1.961L107.35,46.1Z" transform="translate(-104.002 -42.344)" fill="#2365b1"/>
      </g>
    </g>
    <g id="Group_137" data-name="Group 137" transform="translate(36.149 7.342)">
      <g id="Group_136" data-name="Group 136">
        <path id="Path_302" data-name="Path 302" d="M175.08,45.118l-2.774-2.774-1.961,1.961,1.794,1.794-1.794,1.794,1.961,1.961,2.774-2.774A1.387,1.387,0,0,0,175.08,45.118Z" transform="translate(-170.344 -42.344)" fill="#2365b1"/>
      </g>
    </g>
    <g id="Group_139" data-name="Group 139" transform="translate(30.264 6.495)">
      <g id="Group_138" data-name="Group 138">
        <rect id="Rectangle_100" data-name="Rectangle 100" width="8.774" height="2.773" transform="translate(0 8.323) rotate(-71.549)" fill="#2365b1"/>
      </g>
    </g>
    <g id="Group_141" data-name="Group 141" transform="translate(51.001 29.13)">
      <g id="Group_140" data-name="Group 140">
        <path id="Path_303" data-name="Path 303" d="M283.742,181.871v-11.1h-2.774v11.1h-2.774V168H275.42v13.871h-2.774v-6.936h-2.774v6.936H267.1v-8.323h-2.774v8.323h-2.774v-5.548h-2.774v5.548H256v2.774h30.517v-2.774Z" transform="translate(-256 -168)" fill="#2365b1"/>
      </g>
    </g>
    <g id="Group_143" data-name="Group 143" transform="translate(8)">
      <g id="Group_142" data-name="Group 142" transform="translate(0)">
        <path id="Path_304" data-name="Path 304" d="M80.131,0H16.323A8.331,8.331,0,0,0,8,8.323V55.485a8.331,8.331,0,0,0,8.323,8.323H33.5L27.95,74.9H20.484a4.161,4.161,0,0,0,0,8.323H75.969a4.161,4.161,0,0,0,0-8.323H68.5l-5.549-11.1H80.131a8.331,8.331,0,0,0,8.323-8.323V8.323A8.331,8.331,0,0,0,80.131,0ZM10.774,19.517l3.153,3.754a1.387,1.387,0,0,0,1.063.5h4.246a1.387,1.387,0,0,0,1.063-.5l3.154-3.754,3.113,1.011.344,4.887a1.387,1.387,0,0,0,.567,1.025l3.436,2.5a1.4,1.4,0,0,0,1.151.223l4.762-1.183,1.925,2.648-2.6,4.161a1.387,1.387,0,0,0-.136,1.164l1.314,4.038a1.387,1.387,0,0,0,.8.857l4.547,1.843v3.274l-4.55,1.843a1.379,1.379,0,0,0-.8.859l-.416,1.272H28.923A13.06,13.06,0,0,0,10.774,32.9Zm0,16.687A10.3,10.3,0,0,1,25.755,49.937H10.774ZM75.969,77.679a1.387,1.387,0,1,1,0,2.774H20.484a1.387,1.387,0,1,1,0-2.774ZM65.4,74.9H31.051l5.549-11.1H59.854Zm20.277-19.42a5.549,5.549,0,0,1-5.548,5.549H16.323a5.549,5.549,0,0,1-5.549-5.549V52.711h74.9Zm0-5.549H40.258l4.329-1.755a1.387,1.387,0,0,0,.866-1.284V41.752a1.387,1.387,0,0,0-.866-1.286l-4.822-1.95-.913-2.809L41.6,31.3a1.387,1.387,0,0,0-.055-1.548l-3.024-4.161a1.387,1.387,0,0,0-1.456-.531L32.022,26.3l-2.383-1.731L29.274,19.4a1.387,1.387,0,0,0-.956-1.222l-4.89-1.59a1.4,1.4,0,0,0-1.491.429L18.6,20.99H15.64L12.3,17.016a1.4,1.4,0,0,0-1.493-.429l-.033.012V8.323a5.549,5.549,0,0,1,5.549-5.549H80.131a5.549,5.549,0,0,1,5.548,5.549Z" transform="translate(-8)" fill="#2365b1"/>
      </g>
    </g>
  </g>
</svg>
