<svg xmlns="http://www.w3.org/2000/svg" width="88.762" height="88.132" viewBox="0 0 88.762 88.132">
  <g id="product" transform="translate(-0.557 -1)">
    <path id="Path_164" data-name="Path 164" d="M26,57h8.529v2.843H26Z" transform="translate(10.724 23.603)" fill="#2365b1"/>
    <path id="Path_165" data-name="Path 165" d="M89.319,24.14l-3.49-1.164,1.645-3.289L82,14.217l-3.291,1.646L77.55,12.372H69.816l-1.163,3.491-3.291-1.646-5.47,5.47L60.5,20.9H54.312A26.784,26.784,0,0,0,28.542,1h-.694A26.66,26.66,0,0,0,12.559,49.5a6.671,6.671,0,0,1,2.843,5.46v.055H5.888L.557,69.231H5.451V82.024a7.115,7.115,0,0,0,7.107,7.107H43.831a7.115,7.115,0,0,0,7.107-7.107V69.231h4.894L50.5,55.016H40.988v-.054a6.671,6.671,0,0,1,2.843-5.46,26.626,26.626,0,0,0,10.28-14.387H60.5l-.607,1.214,5.47,5.47,3.291-1.646,1.163,3.491h7.734l1.163-3.491L82,41.8l5.47-5.47L85.827,33.04l3.491-1.164ZM26.664,55.016,24.731,30.851h3.538a3.463,3.463,0,0,0,.756.409l2.523.947L29.726,55.016ZM30.024,28.6a.63.63,0,0,1,0-1.18l8.12-3.045v7.269Zm10.964.832H58.046v2.446l1.19.4H40.988ZM58.046,24.14v2.446H40.988V23.744H59.236ZM14.188,47.173a23.818,23.818,0,0,1,13.66-43.33h.694A23.943,23.943,0,0,1,51.375,20.9H39.308l-10.28,3.855a3.49,3.49,0,0,0-2.254,3.252H24.5l-.264-3.3a5.715,5.715,0,0,0-5.667-5.232h-.327a5.686,5.686,0,0,0,0,11.372h3.635l1.933,24.165H18.244v-.054a9.512,9.512,0,0,0-4.057-7.79ZM21.65,28.008H18.244a2.843,2.843,0,0,1,0-5.686h.327A2.857,2.857,0,0,1,21.4,24.938ZM7.858,57.859H23.3l-3.2,8.529H4.659Zm.436,24.165V69.231H22.073l3.279-8.744v25.8H12.559A4.27,4.27,0,0,1,8.294,82.024Zm39.8,0a4.27,4.27,0,0,1-4.264,4.264H28.195v-25.8l3.279,8.744H48.1ZM51.73,66.388H33.444l-3.2-8.529H48.531ZM42.2,47.173a9.512,9.512,0,0,0-4.057,7.79v.054H32.577l1.741-21.771,4.989,1.871H51.15A23.8,23.8,0,0,1,42.2,47.173ZM86.476,29.826l-3.261,1.087-.24.627c-.071.182-.142.362-.22.539l-.276.616,1.537,3.073-2.571,2.571L78.37,36.8l-.615.276c-.175.078-.353.149-.533.217l-.633.239L75.5,40.8H71.863l-1.089-3.267-.633-.239c-.181-.068-.358-.139-.533-.217l-.615-.276L65.92,38.339l-2.571-2.571,1.537-3.073-.276-.616c-.08-.178-.149-.357-.22-.539l-.24-.627-3.259-1.087V26.189L64.15,25.1l.24-.627c.071-.182.142-.362.22-.539l.276-.616L63.35,20.247l2.571-2.571,3.073,1.537.616-.276c.175-.078.353-.149.533-.217l.633-.239,1.089-3.265H75.5l1.089,3.267.633.239c.181.068.358.139.533.217l.616.276,3.073-1.537,2.571,2.571L82.48,23.322l.276.616c.08.178.149.357.22.539l.24.627,3.259,1.087Z" transform="translate(0 0)" fill="#2365b1"/>
    <path id="Path_166" data-name="Path 166" d="M54.107,15a7.107,7.107,0,1,0,7.107,7.107A7.115,7.115,0,0,0,54.107,15Zm0,11.372a4.264,4.264,0,1,1,4.264-4.264A4.27,4.27,0,0,1,54.107,26.372Z" transform="translate(19.575 5.901)" fill="#2365b1"/>
    <path id="Path_167" data-name="Path 167" d="M7.843,20H5a21.847,21.847,0,0,0,.215,3.043l2.815-.4A18.96,18.96,0,0,1,7.843,20Z" transform="translate(1.873 8.008)" fill="#2365b1"/>
    <path id="Path_168" data-name="Path 168" d="M8.347,23.715l-2.726.81A21.262,21.262,0,0,0,15.4,36.9l1.424-2.461A18.419,18.419,0,0,1,8.347,23.715Z" transform="translate(2.134 9.574)" fill="#2365b1"/>
    <path id="Path_169" data-name="Path 169" d="M17,7h2.843V9.843H17Z" transform="translate(6.93 2.529)" fill="#2365b1"/>
    <path id="Path_170" data-name="Path 170" d="M13,7h2.843V9.843H13Z" transform="translate(5.244 2.529)" fill="#2365b1"/>
    <path id="Path_171" data-name="Path 171" d="M25,7h2.843V9.843H25Z" transform="translate(10.302 2.529)" fill="#2365b1"/>
    <path id="Path_172" data-name="Path 172" d="M21,7h2.843V9.843H21Z" transform="translate(8.616 2.529)" fill="#2365b1"/>
  </g>
</svg>
