<svg id="Page-1" xmlns="http://www.w3.org/2000/svg" width="52.073" height="52.17" viewBox="0 0 52.073 52.17">
  <g id="ic-technology-appium" transform="translate(0 0)">
    <path id="Combined-Shape" d="M0,26.97l.046.086c3.41,6.339,11.028,9.51,21.252,7.051l.783-.188.486-.117a40.153,40.153,0,0,0,11.826-5.986l.321-.245.274.306c6.908,7.847,6.787,15.8,1.537,21.2l-.22.217-.4.2q-.177.084-.4.186a27.561,27.561,0,0,1-2.588,1.005c-5.518,1.841-11.3,2.138-16.684-.072q-.614-.252-1.216-.548C5.833,46.127.183,36.236.006,27.413ZM40.879,5.24l.338.052L41.08,5.2A25.05,25.05,0,0,1,46.338,10a22.607,22.607,0,0,1,5.575,13.2l.06.567A25.794,25.794,0,0,1,39.614,47.779l-.228.124.019-.03c3.7-6.137,2.966-12.488-1.322-18.488l-.408-.554a37.744,37.744,0,0,0-13.911-10.9l-.522-.224.089-.281C26.176,8.656,31.978,3.946,40.879,5.24Zm-3.26-2.4.343.191-.17-.007c-7.143-.151-13.637,4.861-16.6,14.883l-.229.774-.128.386a36.682,36.682,0,0,0-.81,12.717l.066.594-.29.066c-9.03,1.916-16-.739-19.319-9.057l-.125-.321.029-.324.076-.674q.046-.359.111-.758a28.071,28.071,0,0,1,1.233-4.825A22.66,22.66,0,0,1,10.522,4.853C18.555-1.15,29.912-1.3,37.619,2.841Z" transform="translate(0 0)" fill="#252b33"/>
  </g>
</svg>
