<svg id="Page-1" xmlns="http://www.w3.org/2000/svg" width="71.822" height="51.622" viewBox="0 0 71.822 51.622">
  <g id="ic-technology-gradle" transform="translate(0 0)">
    <path id="Shape" d="M52.094,3a11.563,11.563,0,0,1,15.825.268c4.23,4.166,9.032,15.639-9.24,29.021-5.275,3.865-7.124,11.579-7.24,18.294a1.068,1.068,0,0,1-1.078,1.039H45.492a1.071,1.071,0,0,1-1.07-.926,7.437,7.437,0,0,0-14.705,0,1.071,1.071,0,0,1-1.07.926H23.72a1.079,1.079,0,0,1-1.078-.926,7.428,7.428,0,0,0-14.7,0,1.071,1.071,0,0,1-1.07.926H1.816a1.089,1.089,0,0,1-1.062-.861c-2.778-14.413,2.4-25.773,10.923-31.668h0L16.115,26.6a6.014,6.014,0,0,0,5.167,2.9,5.9,5.9,0,0,0,2.886-.739h0l2.082-1.137h.066a49.071,49.071,0,0,0,6.909-5.018,1.061,1.061,0,0,0,.357-.812,1.032,1.032,0,0,0-.406-.812h0l-.135-.1a1.173,1.173,0,0,0-1.366.1,47.657,47.657,0,0,1-6.552,4.791h0L23.04,26.921l.091-.065-.116.065a3.767,3.767,0,0,1-5.034-1.356h0l-4.694-7.95a3.578,3.578,0,0,1-.313-2.909,3.672,3.672,0,0,1,1.972-2.2C42.332-.249,54.4,24.55,63.44,15.7A6.285,6.285,0,0,0,64.86,8.727a6.619,6.619,0,0,0-9.955-2.659,1.1,1.1,0,0,1-1.418-.1h0L52.069,4.534a1.1,1.1,0,0,1-.323-.771A1.077,1.077,0,0,1,52.094,3ZM49.985,20.91a2.2,2.2,0,0,0-2.46-1.216A2.154,2.154,0,0,0,45.8,21.8h0l3.483,1.713A2.1,2.1,0,0,0,49.985,20.91Z" transform="translate(0 0)" fill="#252b33"/>
  </g>
</svg>
