<svg id="Page-1" xmlns="http://www.w3.org/2000/svg" width="50.818" height="70.268" viewBox="0 0 50.818 70.268">
  <g id="ic-technology-jenkins" transform="translate(0 0)">
    <path id="Combined-Shape" d="M36.264,2.366a18.963,18.963,0,0,1,4.772,5.289A19.063,19.063,0,0,1,42.7,14.919q.345.329.679.669a26.437,26.437,0,0,1,3.9,31.583,2.64,2.64,0,0,1,1.365,1.381,23.646,23.646,0,0,1,1.412,4.195c.378,1.63-.418,5.09-2.108,5.626a10.094,10.094,0,0,1-5.01.1,2.9,2.9,0,0,1-.616-.8,6.86,6.86,0,0,0-3.48.6c.1.954-.537,1.093-1.153,1.292-.437,1.769.895,4.076.577,5.666-.219,1.153-1.63,1.332-2.664,1.531a7.772,7.772,0,0,0,.119,1.71,2.571,2.571,0,0,1-2.306,1.491c-3.32.4-8.35.576-11.531-.577C21,67.2,20.3,64.557,19.564,62.072c-3.1.338-5.626-1.332-7.992-2.446-.815-.378-1.948-.6-2.267-1.252a11.344,11.344,0,0,1-.258-2.982c-.034-.557-.068-1.11-.106-1.661q-.781-.677-1.5-1.42a26.387,26.387,0,0,1,0-36.722q.872-.891,1.828-1.7c.086-2.535.784-4.627,2.566-5.423.835-3.32,3.817-4.414,6.621-6.064A20.837,20.837,0,0,1,21.85.955C26.125-.616,32.706-.318,36.264,2.366ZM19.305,51.554a77.947,77.947,0,0,0,3.32,16.3,21.5,21.5,0,0,0,11.85.219c-.616-2.982-.358-6.621-.716-9.822-.278-2.406-.139-4.811-.517-7.257C29.127,50.142,23.321,50.8,19.305,51.554Zm15.349,8.43c-.06,1.491.139,3.857.219,5.428a5.622,5.622,0,0,0,2.147-.457c.08-1.829-.577-3.519-.775-5.189C35.847,59.626,35.131,60,34.654,59.984ZM15.488,33.6a36.688,36.688,0,0,0-8.649,5.388c2.485,5.348,3.5,11.889,3.678,18.192,2.843,1.332,5.348,3.261,9.225,3.46-.457-3.161-.855-6-1.113-8.987-.974-.417-2.366.02-3.28-.119,0-1.093,1.392-.477,1.511-1.213.08-.557-.775-.6-.5-1.471.716.258,1.093.835,1.849,1.054.7-1.511,0-4.195.1-5.468.02-.238.119-1.312.656-1.133.477.159-.02,2.883.02,4.076.04,1.113-.139,2.167.318,2.863A106.784,106.784,0,0,1,30.9,49.287a25.846,25.846,0,0,1-3.1-1.392c-.636-.358-2.6-1.093-2.783-1.69-.3-.954.755-1.451.934-2.267-1.889,1.034-2.246-.994-2.7-2.406a19.828,19.828,0,0,1-.736-3,37.681,37.681,0,0,1-4.792-2.6C17.456,35.748,15.727,33.5,15.488,33.6ZM36.225,50.8a6.326,6.326,0,0,0-2.008.238c-.04,2.565.119,5.11.318,7.675a24.518,24.518,0,0,0,2.565-.457C36.8,55.789,36.841,52.985,36.225,50.8Zm8.947-2.446c-1.372.875-3.778,1.133-4.772,2.187a34.847,34.847,0,0,1,.855,6.044c1.71.1,3.8-.477,5.229.139a18.389,18.389,0,0,0-3.122.8,6.585,6.585,0,0,0,3.42.02c1.471-.358,2.386-2.147,1.968-4a18.655,18.655,0,0,0-1.292-4.374C47.08,48.591,46.026,47.816,45.172,48.353Zm-7.416,2.267c.219,2.088.716,4.394.895,6.6.7.02,1.074-.318,1.65-.418.04-1.929-.159-4.593-1.094-6.183A7.078,7.078,0,0,0,37.756,50.619Zm9.026,3.758c-1.332.02-2.982,0-4.255-.1C43.283,53.463,45.927,53.98,46.782,54.377Zm-.418-1.968a21.894,21.894,0,0,1-3.777.219C43.163,51.753,45.35,52.071,46.364,52.409Zm-.636-2.266c-1.451.3-2.465,1.71-3.9,1.61A4.65,4.65,0,0,1,45.728,50.142ZM9.394,15.821l.408-.37q-.657.581-1.272,1.211a24.875,24.875,0,0,0,0,34.594l.222.223a33.176,33.176,0,0,0-.819-4.815c-.338-1.352-.954-2.525-1.372-3.817a26.637,26.637,0,0,1-1.253-3.877C5.05,37.2,6.72,37.1,7.774,36.324c1.65-1.193,2.942-1.849,4.732-2.923a10.262,10.262,0,0,0,2.306-1.491c.358-.735-.616-1.769-.875-2.346a7.067,7.067,0,0,1-.7-2.585,5.006,5.006,0,0,1-3.32-2.127,8.141,8.141,0,0,1-.935-7.078c.08-.179.457-.557.517-.835A2.755,2.755,0,0,0,9.394,15.821ZM38.372,32.229c-.417.656-1.372,1.093-1.729,1.63,2.6-1.253,3.082,4.712,2.048,6.641.159.576.7.8.915,1.312-1.452,2.6-3.062,5.03-4.553,7.595,1.094-.7,2.684-.119,3.976-.636.477-.179.815-1.272,1.173-2.147a45.87,45.87,0,0,0,2.485-7.674A9.038,9.038,0,0,0,43,36.841c-.119-.835-1.233-1.451-1.809-1.948C40.141,33.939,39.485,33.124,38.372,32.229Zm-8.728,9.5c-1.491.994-3.121,1.948-3.559,3.757a36.257,36.257,0,0,0,7.058,3.121A30.218,30.218,0,0,0,29.644,41.732Zm6.044-.617a31.633,31.633,0,0,1-1.014,7.5A57.345,57.345,0,0,0,38.75,42.15,2.356,2.356,0,0,0,35.688,41.116Zm7.06-23.97-.013.536a33.324,33.324,0,0,1-1.182,7.867,18.379,18.379,0,0,1-.954,2.763c-.3.636-1.233,1.889-1.133,2.445.119.577,2.147,2.108,2.585,2.525.775.755,2.266,1.75,2.386,2.7a9.231,9.231,0,0,1-.735,3.38c-.955,3.261-1.909,6.263-3,9.185a13.914,13.914,0,0,1,4.957-1.634l-.132.216a24.907,24.907,0,0,0-2.776-29.987ZM32.805,40.1h0c-.577-.06-1.074.676-1.829.358-.179.2-.338.4-.517.6,1.67,2.028,2.445,4.891,3.738,7.257.7-2.286.616-4.772.776-7.257C34.018,41.1,33.481,40.162,32.805,40.1Zm.914,3.9a.5.5,0,0,1,.517.517A.517.517,0,1,1,33.719,44ZM23.361,39.068a12.038,12.038,0,0,0,.915,3.141c.119.358.159.736.457.815a7.464,7.464,0,0,0,2.823-.855,29.2,29.2,0,0,0,2.823-2.147l.04-.915a4.786,4.786,0,0,0-1.988-.5c.537-.278,1.352-.278,1.849-.6a2.147,2.147,0,0,1,.02-.358,4.162,4.162,0,0,1-1.869-.835,13.7,13.7,0,0,0-3.718-1.352C23.143,35.171,23.3,37.617,23.361,39.068ZM33.2,41.593a.513.513,0,0,1,.517.517.517.517,0,1,1-.517-.517Zm-8.581-5.661a13.2,13.2,0,0,1,3.573,1.3l.51.33.254.158.236.125-.034.01a3.825,3.825,0,0,0-.948.3l-1.672.836,1.867.093.386.034a4.552,4.552,0,0,1,.725.153l.4.137-.016.336-.254.193-.718.594-.173.147a8.787,8.787,0,0,1-1.434,1.047,8.855,8.855,0,0,1-2.368.815l-.078-.006a.015.015,0,0,0,.008-.015l-.139-.48-.406-1.074a8.106,8.106,0,0,1-.434-1.5l-.032-.226-.028-.456c-.015-.363-.023-.614-.024-.852v-.177a4.016,4.016,0,0,1,.222-1.507A.45.45,0,0,1,24.622,35.932Zm8.621.95a2.7,2.7,0,0,1,.278.855,2.529,2.529,0,0,1,1.63.179,3.28,3.28,0,0,0-1.471.318c-.119.378.04.875-.06,1.392a18.338,18.338,0,0,0,4.295.6,3.219,3.219,0,0,0,.378-1.928c-.04-.915-.279-2.8-.855-3.141C36.245,34.455,34.137,36.563,33.242,36.881ZM37.2,35.6a5.754,5.754,0,0,1,.607,2.735l.007.3a3.444,3.444,0,0,1-.139,1l-.045.107-.357-.014a16.923,16.923,0,0,1-2.985-.413l-.151-.04-.021-.622v-.075l.1-.028a2.54,2.54,0,0,1,.274-.049l.718-.073,1.707-.189-1.549-.741-.262-.109a3.183,3.183,0,0,0-1.153-.181l-.049,0-.027-.073.285-.176.833-.56.43-.277c.132-.081.255-.153.375-.218C36.461,35.541,36.927,35.446,37.2,35.6Zm-6.24,2.058a5.445,5.445,0,0,0,.238,1.71C33.461,40.082,33.083,36.245,30.956,37.656Zm1.322.673.006.153a.511.511,0,0,1-.582.541l-.078-.011-.152-.67-.029-.2-.009-.188.112-.052C31.991,37.715,32.231,37.907,32.278,38.33Zm-13.191-3.2c-.815.835,2.286,1.948,3.261,2.008,0-.517.3-1.014.239-1.392C21.413,35.549,19.882,35.688,19.087,35.132Zm15.031-.04c-1.551.139-3.5,1.094-5.01.418,0,.08-.1.06-.119.119a4.123,4.123,0,0,0,3.241.915C32.865,36.086,33.441,35.529,34.117,35.092ZM24.3,2.267c-2.505,1.253-5.885,3.32-7.038,5.925,1.074,2.525-.318,4.831-.418,7.4-.04,1.372.636,2.545.7,4.036-.378.616-1.491.676-2.266.636-.258-1.312-.716-2.784-2.068-2.943a3.13,3.13,0,0,0-3.4,3.022c-.1,1.948,1.491,5.169,3.758,4.951.875-.08,1.094-.954,2.048-.954.517,1.034-.8,1.352-.934,2.087a4.993,4.993,0,0,0,.2,1.292A17.961,17.961,0,0,0,17.1,32.9c1.153,1.65,3.4,1.889,5.825,2.048.437-.935,2.028-.855,3.062-.616a10.233,10.233,0,0,1-3.36-2.744c-1.094-1.213-2.207-2.505-2.267-4.1,2.088,2.883,3.8,5.408,7.575,6.68,2.863.954,6.2-.438,8.41-1.988A9.926,9.926,0,0,0,38.451,29.6c2.426-3.5,3.559-8.47,3.32-13.3-.1-1.988-.1-3.976-.775-5.308C40.3,9.6,37.934,8.331,36.543,9.6c-.259-1.372,1.153-2.207,2.8-1.71-1.173-1.531-2.405-3.34-4.1-4.295C32.328,1.949,27.4.716,24.3,2.267Zm3.44,24.554c1.113,2.783,4.911,2.465,8.112,2.386a1.61,1.61,0,0,1-.835.934c-1.034.418-3.857.736-5.289-.02a7.38,7.38,0,0,1-1.988-2.207C27.516,27.616,26.324,26.841,27.735,26.821Zm.3-1.551c1.591.835,4.533.935,6.72.875a7.252,7.252,0,0,1,.119,1.65C32.069,27.914,28.769,27.219,28.033,25.27Zm12.009-1.054c-.855,1.63-2.068,3.42-4.573,3.479a5.693,5.693,0,0,1,0-1.65C37.4,25.847,38.591,24.873,40.042,24.216Zm-5.627-9.523a23.867,23.867,0,0,0,3.917,5.388c.338.358.875.716.934.954.161.608-.338,1.345-.382,1.82l0,.148c-1.829,1.173-3.877,2.466-6.9,2.167a2.035,2.035,0,0,1-.259-2.624c.318.557.119,1.591,1.034,1.749,1.71.3,3.7-1.054,4.931-1.511.755-1.292-.06-1.75-.756-2.585-1.412-1.69-3.28-3.8-3.221-6.322C34.3,13.46,34.336,14.514,34.415,14.693Zm-19.707,6.88-.035.2c-.576-.338-.716-1.769-1.392-1.809-.974-.059-.8,1.869-.8,3-.656-.6-.775-2.465-.3-3.42-.557-.279-.8.3-1.113.5C11.483,17.221,15.145,18.644,14.708,21.573Zm1.694-13a6.759,6.759,0,0,0-4.632,2.207c-1.233,1.372-.974,3.917-.835,5.746,2.247-1.411,5.209.119,5.189,2.505,1.074-.02.4-1.332.2-2.187C15.687,14.077,17.4,11.094,16.4,8.57Zm11.77,4.215c.557,1.014.735,2.068,1.511,2.823.358.338,1.034.755.7,1.71a2.188,2.188,0,0,1-.994.815c-1.213.358-4.056.08-3.1-1.452,1.014.04,2.366.656,3.122-.08C28.829,15.687,27.795,13.858,28.173,12.785Zm11.293-.04a26.878,26.878,0,0,0,1.809,3.539c-.5,1.153-3.7,2.147-3.658.119.7-.3,1.889-.06,2.505-.457a6.973,6.973,0,0,1-.775-3.2h.119ZM25.846,8.351c.636.08,1.511.676,1.034,1.491-2.565-.6-3.837,1.074-4.613,2.8-.7-.159-.418-1.113-.238-1.59C22.486,9.8,24.335,8.112,25.846,8.351ZM20.637,2.843c-2.8.8-6.4,2.843-7.555,5.368.895-.139,1.511-.576,2.386-.636a5.5,5.5,0,0,0,1.153.04c.755-.2,1.412-1.909,1.988-2.545.557-.616,1.233-.895,1.69-1.451.3-.139.735-.139.756-.577A.431.431,0,0,0,20.637,2.843Z" transform="translate(0 0)" fill="#252b33"/>
  </g>
</svg>
