<svg xmlns="http://www.w3.org/2000/svg" width="85.209" height="67.064" viewBox="0 0 85.209 67.064">
  <g id="Page-1" transform="translate(-0.008 -0.01)">
    <g id="ic-technology-aws" transform="translate(0.008 0.01)">
      <path id="Shape" d="M24.868,42.763l-7.806,3.353,7.23,3.092,8.383-3.092ZM13.132,46.955l-.262,15.089,11.421,5.03V51.408L13.132,46.955Zm23.472,0-10.321,3.93V65.659L36.6,61.468ZM48.917.01l-7.86,3.353,7.283,3.092,8.383-3.092L48.917.01ZM38.02,4.465V19.554l9.744,2.83.315-13.728L38.02,4.465Zm21.8.838-9.221,3.93V24.061l9.221-4.192V5.3ZM12.006,21.248,4.2,24.6l7.229,3.092L19.812,24.6l-7.806-3.353ZM.269,25.439.008,40.529l11.421,5.03V29.892Zm23.472,0-10.321,3.93V44.143l10.321-4.191Zm13.413-4.748-7.806,3.353,7.23,3.092,8.383-3.092ZM25.418,24.883l-.262,15.089L36.578,45V29.337Zm23.472,0L38.57,28.812V43.587L48.891,39.4ZM73.481.01,65.675,3.363,72.9,6.455l8.383-3.092ZM61.745,4.2l-.261,15.089L72.9,24.321V8.656Zm23.472,0L74.9,8.132V22.906l10.321-4.191Z" transform="translate(-0.008 -0.01)" fill="#252b33"/>
    </g>
  </g>
</svg>
