<svg id="Page-1" xmlns="http://www.w3.org/2000/svg" width="44.239" height="45.765" viewBox="0 0 44.239 45.765">
  <g id="ic-technology-selenium" transform="translate(0 0)">
    <path id="path1" d="M.228.027a.32.32,0,0,0-.2.238C-.025.449.006,45.5.057,45.595a.4.4,0,0,0,.108.12c.106.069,43.807.065,43.91,0a.409.409,0,0,0,.109-.12c.062-.111.077-38.723.016-38.884a.3.3,0,0,0-.352-.178c-.1.029-.056-.018-11.747,12.946-3.1,3.434-2.894,3.238-3.217,3.109-.091-.036-7.4-7.438-7.5-7.6a.514.514,0,0,1-.016-.384c.071-.132,2.462-3.2,2.54-3.254a.434.434,0,0,1,.411-.048,23.933,23.933,0,0,1,2.212,2.356c1.181,1.3,2.138,2.333,2.181,2.355a.518.518,0,0,0,.392,0C29.177,15.971,40.126,1.3,40.658.52a.3.3,0,0,0-.106-.487C40.456-.006.367-.013.228.027M13.735,21.309a10.934,10.934,0,0,1,5.309,2.109c.364.274.444.42.355.65-.026.067-1.717,2.291-1.847,2.428-.238.253-.388.229-.891-.138-2.419-1.769-6.242-2.137-7.319-.7a1.411,1.411,0,0,0-.058,1.737c.434.522,1.244.823,3.866,1.438,2.888.678,4.336,1.3,5.4,2.315a4.518,4.518,0,0,1,1.414,3.58c0,4.039-3.3,6.322-8.713,6.025A11.126,11.126,0,0,1,4.65,38.118c-.238-.208-.3-.4-.179-.6.137-.229,1.806-2.506,1.866-2.545.2-.127.39-.073.7.2a8.177,8.177,0,0,0,7.095,1.846c1.735-.5,2.338-2.112,1.125-3.015-.56-.417-1.189-.63-3.5-1.187a25.543,25.543,0,0,1-2.5-.678c-2.991-1-4.351-2.6-4.358-5.122-.008-3.141,2.6-5.47,6.436-5.737.471-.033,2.054-.012,2.4.031m16,4.722c3.753.24,6.316,2.976,6.581,7.024.075,1.148.051,1.361-.168,1.471l-.108.054H30.965c-4.594,0-5.075,0-5.1.038a2.278,2.278,0,0,0,.318,1.118,3.8,3.8,0,0,0,2.183,1.879,6.09,6.09,0,0,0,4.914-.893c.2-.142.363-.164.5-.072.09.059,1.271,1.725,1.372,1.936.129.268-.01.426-.774.88a9.9,9.9,0,0,1-5.745,1.281,7.181,7.181,0,0,1-6.621-5.633,9.3,9.3,0,0,1,0-3.4,7.226,7.226,0,0,1,6.3-5.662l.34-.034a10.147,10.147,0,0,1,1.086.008m-.916,2.955A3.391,3.391,0,0,0,25.8,31.737c-.062.364-.519.321,3.436.321,2.425,0,3.4-.008,3.439-.027.129-.068-.056-.839-.32-1.335a3.365,3.365,0,0,0-3.537-1.711" transform="translate(0 0)" fill="#252b33"/>
  </g>
</svg>
