<svg id="Page-1" xmlns="http://www.w3.org/2000/svg" width="56.013" height="56.013" viewBox="0 0 56.013 56.013">
  <g id="ic-technology-typescript">
    <path id="Combined-Shape" d="M56.013,0V56.013H0V0ZM45.034,25.738a13.572,13.572,0,0,0-4.257-.14,6.822,6.822,0,0,0-5.741,5.321,10.723,10.723,0,0,0,.084,3.6,7.955,7.955,0,0,0,1.54,2.8c1.148,1.2,2.381,1.988,5.279,3.221,2.521,1.12,3.417,1.624,3.865,2.241a2.161,2.161,0,0,1,.42,1.428,2.1,2.1,0,0,1-.742,1.68c-1.2,1.092-3.641,1.218-5.461.28a7.622,7.622,0,0,1-2.1-2.045h0l-.364-.49-1.582.924-2.1,1.218-.532.336A10.01,10.01,0,0,0,34.8,48.269a10.573,10.573,0,0,0,5.7,2.983,17.465,17.465,0,0,0,4.271.042c3.123-.518,5.307-2.1,6.2-4.439a8.159,8.159,0,0,0-.658-6.82c-1.05-1.624-2.787-2.759-6.791-4.481-2.171-.952-2.871-1.414-3.249-2.184a2.213,2.213,0,0,1-.252-1.064c0-1.47,1.12-2.353,2.8-2.241a3.2,3.2,0,0,1,2.633,1.568c.224.364.448.6.5.56,1.47-.91,3.893-2.549,3.893-2.633a8.81,8.81,0,0,0-1.344-1.792,6.78,6.78,0,0,0-3.5-2h0Zm-22.909.042-9.8.042v2.3l-.042-.014v2.282h7.282V51.112H24.73V30.387h7.282V27.468a9.839,9.839,0,0,0-.056-1.632C31.955,25.794,27.516,25.78,22.125,25.78Z" fill="#252b33"/>
  </g>
</svg>
