<svg id="Page-1" xmlns="http://www.w3.org/2000/svg" width="89.686" height="28.027" viewBox="0 0 89.686 28.027">
  <g id="ic-technology-wpf">
    <path id="WPF" d="M7.34,28.027,18.049,7.532l.662,20.494h6.117L39.047,0H33.191L23.5,19.4,22.822,0H16.265L6.177,19.615,5.916,0H0L1.1,28.027Zm34.334,0L44.021,17.34h4.06a46.615,46.615,0,0,0,5.145-.191,15.147,15.147,0,0,0,3.891-.946,9.066,9.066,0,0,0,2.7-1.826,9.69,9.69,0,0,0,2.116-3.212,10.363,10.363,0,0,0,.862-4.129,7.045,7.045,0,0,0-1.083-3.948A6.022,6.022,0,0,0,58.771.717,14.368,14.368,0,0,0,53.727,0H41.774L35.618,28.027Zm5.409-15.333H45.023l1.785-8.087H51.14a14.754,14.754,0,0,1,3.8.3,2.66,2.66,0,0,1,1.324.946,2.763,2.763,0,0,1,.471,1.663,4.593,4.593,0,0,1-.923,2.772,5.21,5.21,0,0,1-2.527,1.835,22.8,22.8,0,0,1-6.4.574ZM69.009,28.027,71.616,16.1H85.855l1.023-4.684H72.639l1.484-6.729h14.52L89.686,0H69.109L62.952,28.027Z" fill="#252b33"/>
  </g>
</svg>
