<svg id="Page-1" xmlns="http://www.w3.org/2000/svg" width="68.337" height="60.8" viewBox="0 0 68.337 60.8">
  <g id="ic-technology-react-native" transform="translate(0 0)">
    <path id="Combined-Shape-Copy-22" d="M35.9,5.986C41.791.861,47.621-1.282,51.186.774,54.9,2.918,55.992,9.43,54.327,17.512q-.152.739-.339,1.5,1.134.327,2.2.693c7.381,2.541,12.15,6.521,12.15,10.636,0,4.292-5.1,8.488-12.931,11.084q-.621.206-1.27.4.232.932.409,1.826c1.546,7.812.355,14.233-3.31,16.355-3.549,2.054-9.285.036-15.093-4.962q-.92-.791-1.847-1.684-.715.69-1.427,1.313c-6,5.241-12.154,7.416-15.822,5.3-3.553-2.047-4.669-8.026-3.239-15.554q.226-1.19.536-2.437-.954-.275-1.848-.58C4.96,38.825,0,34.577,0,30.342c0-4.1,4.62-8.054,11.855-10.576q1.213-.423,2.529-.8-.285-1.151-.5-2.263C12.382,9.046,13.436,2.925,17,.863c3.714-2.15,9.9.159,16.071,5.638q.564.5,1.132,1.044.612-.587,1.222-1.135h0Zm15.41,36.577L51,42.634a68.695,68.695,0,0,1-8.947,1.356,68.534,68.534,0,0,1-5.727,7.272q.862.832,1.717,1.567c4.967,4.274,9.572,5.895,11.726,4.648,2.27-1.314,3.239-6.541,1.909-13.261Q51.521,43.407,51.312,42.563Zm-34.137.132-.047.184q-.184.755-.335,1.487h0l-.118.6C15.454,51.4,16.35,56.2,18.505,57.443c2.272,1.31,7.285-.46,12.443-4.969q.647-.566,1.3-1.2a71.4,71.4,0,0,1-5.865-7.248A68.841,68.841,0,0,1,17.176,42.695ZM38.294,44.24l-.32.014q-1.878.077-3.8.077-2.034,0-4-.077c1.349,1.776,2.729,3.429,4.113,4.922A62.45,62.45,0,0,0,38.294,44.24ZM34.169,19.395c-2.106,0-4.19.079-6.222.233-1.148,1.68-2.259,3.446-3.314,5.276h0l-.4.692c-.9,1.6-1.741,3.211-2.512,4.816.884,1.834,1.859,3.678,2.917,5.506s2.182,3.608,3.34,5.3c1.992.129,4.061.194,6.187.194s4.231-.074,6.26-.219c1.112-1.669,2.208-3.438,3.276-5.29s2.05-3.7,2.938-5.533c-.89-1.8-1.875-3.631-2.947-5.482-1.059-1.83-2.162-3.59-3.292-5.257C38.372,19.475,36.285,19.395,34.169,19.395ZM20.177,33.845l-.088.209c-.831,1.988-1.544,3.942-2.127,5.825a62.2,62.2,0,0,0,6.3,1.012q-1.1-1.714-2.145-3.51Q21.1,35.62,20.177,33.845Zm28.04-.1-.149.285q-.872,1.665-1.835,3.336-1.033,1.79-2.1,3.479a62.231,62.231,0,0,0,6.376-1.088A62,62,0,0,0,48.217,33.74ZM15.169,21.783l-.3.087q-1.061.309-2.048.653c-6.187,2.157-9.9,5.331-9.9,7.819,0,2.623,4.038,6.081,10.52,8.3q.813.278,1.686.529A71.232,71.232,0,0,1,18.5,30.413,69.967,69.967,0,0,1,15.169,21.783Zm38.038.042-.032.1a68.6,68.6,0,0,1-3.294,8.427,68.471,68.471,0,0,1,3.46,8.657l.493-.148h0l.655-.21c6.764-2.241,10.93-5.671,10.93-8.312,0-2.48-3.857-5.7-10.181-7.876Q54.256,22.129,53.207,21.825ZM34.169,24.24a6.1,6.1,0,1,1-6.1,6.1A6.1,6.1,0,0,1,34.169,24.24Zm9.977-4.233.1.163q1.007,1.586,1.973,3.254,1.036,1.79,1.967,3.558A62.689,62.689,0,0,0,50.377,21.1C48.416,20.648,46.326,20.283,44.146,20.008ZM24.2,20l-.722.095c-1.907.257-3.741.582-5.473.97.593,1.914,1.321,3.9,2.171,5.912q.914-1.772,1.928-3.532h0l.467-.809h.007l.357-.6Q23.556,21,24.2,20ZM49.587,3.228c-2.208-1.089-6.83.663-11.768,4.96q-.783.681-1.571,1.439a68.731,68.731,0,0,1,5.776,7.21,70.019,70.019,0,0,1,9.139,1.444q.166-.688.3-1.358c1.438-6.979.548-12.3-1.74-13.621h0ZM30.8,8.4C25.6,3.877,20.7,2.093,18.461,3.389c-2.146,1.242-3,6.193-1.715,12.757q.2,1.031.469,2.1a71.3,71.3,0,0,1,9.12-1.417,69.85,69.85,0,0,1,5.823-7.206q-.516-.488-1.027-.943h0Zm3.4,3.319-.218.233c-1.295,1.413-2.581,2.961-3.839,4.619q1.993-.093,4.023-.094,2.046,0,4.054.1A62.28,62.28,0,0,0,34.2,11.717Z" transform="translate(0 0)" fill="#252b33"/>
  </g>
</svg>
